<svg width="394" height="132" viewBox="0 0 394 132" fill="none" xmlns="http://www.w3.org/2000/svg">
<g opacity="0.4">
<path d="M115 66L165 66.5" stroke="white"/>
<path d="M115 34.5C137.284 60.8216 152.894 68.7478 177 66" stroke="white"/>
<path d="M116 97.5C138.102 72.4653 153.09 64.3535 177 66.967" stroke="white"/>
</g>
<rect x="177" y="46" width="40" height="40" rx="20" fill="white"/>
<path d="M182.598 76.0801C182.598 77.1409 183.446 78.0001 184.49 78.0001H184.518C183.457 78.0001 182.598 77.1409 182.598 76.0801Z" fill="#FBBC05"/>
<path d="M198.861 61.2V66.2128L205.474 60.7616V55.92C205.474 54.8592 204.626 54 203.581 54H189.255L189.242 61.2H198.861Z" fill="#FBBC05"/>
<path d="M198.865 71.2276H189.23L189.219 78.0004H203.585C204.632 78.0004 205.478 77.1412 205.478 76.0804V71.7092L198.865 66.2148V71.2276V71.2276Z" fill="#34A853"/>
<path d="M189.257 54L182.598 61.2H189.246L189.257 54Z" fill="#EA4335"/>
<path d="M182.598 71.2275V76.0803C182.598 77.1411 183.457 78.0003 184.518 78.0003H189.217L189.228 71.2275H182.598V71.2275Z" fill="#1967D2"/>
<path d="M189.246 61.2002H182.598V71.2274H189.228L189.246 61.2002Z" fill="#4285F4"/>
<path d="M211.289 74.3726V57.8926C210.917 55.7054 208.569 58.2126 208.569 58.2126L205.477 60.7614V71.707L209.904 75.3854C211.502 75.5998 211.289 74.3726 211.289 74.3726Z" fill="#34A853"/>
<path d="M198.863 66.2123L205.478 71.7083V60.7627L198.863 66.2123Z" fill="#188038"/>
<g opacity="0.4">
<path d="M279 34.5C256.716 60.8216 241.106 68.7478 217 66" stroke="white"/>
<path d="M278 97.5C255.898 72.4653 240.91 64.3535 217 66.967" stroke="white"/>
<path d="M279 66L229 66.5" stroke="white"/>
</g>
<g filter="url(#filter0_d_277_782)">
<g clip-path="url(#clip0_277_782)">
<rect x="268" y="6" width="120" height="120" rx="60" fill="#343434"/>
<path d="M356.998 69.8002C360.243 59.0238 362.243 40.6002 348.598 28.0002C338.17 18.3706 309.998 17.4002 300.198 38.4002C298.562 41.9058 300.798 47.4002 305.198 47.2002C306.927 47.1202 307.998 52.6002 308.998 56.0002C307.598 69.8002 295.125 70.055 288.798 80.6002C280.998 93.6002 290.598 112.8 313.598 112.8C336.598 112.8 349.783 93.7622 356.998 69.8002Z" fill="url(#paint0_linear_277_782)"/>
<path d="M364.801 101.2C367.734 106.8 369.201 127.2 369.201 127.2H286.801C286.801 127.2 288.268 106.8 291.201 101.2C295.601 92.8 328.001 82 328.001 82C328.001 82 360.401 92.8 364.801 101.2Z" fill="url(#paint1_linear_277_782)"/>
<path d="M337.599 86.7996C337.599 86.7996 332.493 89.5996 327.795 89.5996C323.097 89.5996 318.399 86.7996 318.399 86.7996V77.9996C317.388 78.1593 316.365 78.2202 315.342 78.1812C305.747 78.1804 302.129 64.204 303.999 47.1996C305.199 47.1996 307.999 47.1996 311.999 41.5996C310.999 49.3996 322.599 48.1996 326.999 41.9996C324.799 49.3996 330.599 54.3996 335.599 51.3996C345.403 45.5168 347.607 63.45 337.599 63.5996V86.7996Z" fill="url(#paint2_linear_277_782)"/>
<path d="M318.398 78.0006C323.36 77.0871 328.108 75.2557 332.398 72.6006C332.398 72.6006 327.398 81.2006 318.398 81.2006V78.0006Z" fill="#FFB597"/>
<path d="M328.01 89.19C330.901 89.0592 337.597 87.6432 337.597 84.584V82C338.33 82 340.431 83.7328 341.511 85.2C345.782 91 341.045 96.2 337.182 96.2C332.307 96.2 329.077 92.1272 327.997 90.168C326.917 92.128 323.686 96.2 318.812 96.2C314.949 96.2 310.212 91 314.482 85.2C315.563 83.7328 317.663 82 318.397 82V84.584C318.397 87.6432 325.274 89.0592 328.01 89.19Z" fill="white"/>
</g>
</g>
<g filter="url(#filter1_d_277_782)">
<g clip-path="url(#clip1_277_782)">
<rect x="6" y="6" width="120" height="120" rx="60" fill="#343434"/>
<path d="M78.3984 75.5997V80.3997C78.3984 86.7997 87.5984 89.5997 87.5984 89.5997C87.5984 89.5997 76.9984 97.5997 65.9984 97.5997C54.9984 97.5997 44.3984 89.5997 44.3984 89.5997C44.3984 89.5997 53.6708 86.7997 53.5984 80.3997C53.526 73.9997 53.5744 70.2397 53.526 59.2749C47.7932 51.8441 48.1612 46.8569 51.296 43.3497C61.7984 31.5997 90.3984 35.5997 90.3984 35.5997C90.3984 35.5997 93.0672 64.3969 86.9984 72.7997C84.3984 76.3997 78.3984 75.5997 78.3984 75.5997Z" fill="url(#paint3_linear_277_782)"/>
<g style="mix-blend-mode:multiply">
<path d="M78.3984 75.5998C69.5984 74.5998 64.3984 70.7998 64.3984 70.7998C67.6815 75.6568 72.6847 79.0876 78.3984 80.3998V75.5998Z" fill="#FFDBC9"/>
</g>
<path d="M108 101.723C111.808 109.466 114 127.323 114 127.323H18C18 127.323 20.1928 109.464 24 101.723C27.8072 93.9822 50.04 86.8026 50.04 86.8026C54.3252 95.5998 77.8432 95.5998 81.9484 86.7998C81.9484 86.7998 104.192 93.9802 108 101.723Z" fill="url(#paint4_linear_277_782)"/>
<path d="M64.3984 117.2C64.3984 116.883 64.4923 116.574 64.6681 116.311C64.8439 116.048 65.0938 115.843 65.3861 115.721C65.6785 115.6 66.0002 115.569 66.3106 115.63C66.6209 115.692 66.906 115.844 67.1298 116.068C67.3536 116.292 67.506 116.577 67.5677 116.887C67.6294 117.198 67.5977 117.52 67.4766 117.812C67.3555 118.104 67.1505 118.354 66.8873 118.53C66.6242 118.706 66.3149 118.8 65.9984 118.8C65.5741 118.8 65.1671 118.631 64.8671 118.331C64.567 118.031 64.3984 117.624 64.3984 117.2ZM64.3984 109.2C64.3984 108.883 64.4923 108.574 64.6681 108.311C64.8439 108.048 65.0938 107.843 65.3861 107.721C65.6785 107.6 66.0002 107.569 66.3106 107.63C66.6209 107.692 66.906 107.844 67.1298 108.068C67.3536 108.292 67.506 108.577 67.5677 108.887C67.6294 109.198 67.5977 109.52 67.4766 109.812C67.3555 110.104 67.1505 110.354 66.8873 110.53C66.6242 110.706 66.3149 110.8 65.9984 110.8C65.5741 110.8 65.1671 110.631 64.8671 110.331C64.567 110.031 64.3984 109.624 64.3984 109.2ZM64.3984 101.2C64.3984 100.883 64.4923 100.574 64.6681 100.311C64.8439 100.048 65.0938 99.8425 65.3861 99.7214C65.6785 99.6003 66.0002 99.5686 66.3106 99.6304C66.6209 99.6921 66.906 99.8445 67.1298 100.068C67.3536 100.292 67.506 100.577 67.5677 100.887C67.6294 101.198 67.5977 101.52 67.4766 101.812C67.3555 102.104 67.1505 102.354 66.8873 102.53C66.6242 102.706 66.3149 102.8 65.9984 102.8C65.5741 102.8 65.1671 102.631 64.8671 102.331C64.567 102.031 64.3984 101.624 64.3984 101.2V101.2Z" fill="white"/>
<path d="M58.4623 47.2836C57.1903 46.1912 55.6447 45.4556 53.4599 46.5908C48.2803 49.28 52.2003 59.6 56.8003 59.6C58.0003 59.6 58.5971 63.3688 53.2543 66C53.2543 61.8 46.8543 51.4 46.2943 41.9312C39.8543 39.5332 41.4543 29.9384 45.8755 29.9384C45.1699 21.1432 59.2543 16.6 64.7079 21.6476C70.2543 15 84.2543 18.4 85.0995 24.1672C94.7263 19.0284 101.054 33.8 92.0403 39.5344C88.3311 41.8944 79.6543 42.7924 67.1291 42.7924C65.2383 42.7924 64.1791 43.262 64.7079 45.6C65.7315 50.1304 63.3551 52.984 58.4623 47.2836Z" fill="url(#paint5_linear_277_782)"/>
</g>
</g>
<defs>
<filter id="filter0_d_277_782" x="262" y="0" width="132" height="132" filterUnits="userSpaceOnUse" color-interpolation-filters="sRGB">
<feFlood flood-opacity="0" result="BackgroundImageFix"/>
<feColorMatrix in="SourceAlpha" type="matrix" values="0 0 0 0 0 0 0 0 0 0 0 0 0 0 0 0 0 0 127 0" result="hardAlpha"/>
<feOffset/>
<feGaussianBlur stdDeviation="3"/>
<feColorMatrix type="matrix" values="0 0 0 0 0 0 0 0 0 0 0 0 0 0 0 0 0 0 0.25 0"/>
<feBlend mode="normal" in2="BackgroundImageFix" result="effect1_dropShadow_277_782"/>
<feBlend mode="normal" in="SourceGraphic" in2="effect1_dropShadow_277_782" result="shape"/>
</filter>
<filter id="filter1_d_277_782" x="0" y="0" width="132" height="132" filterUnits="userSpaceOnUse" color-interpolation-filters="sRGB">
<feFlood flood-opacity="0" result="BackgroundImageFix"/>
<feColorMatrix in="SourceAlpha" type="matrix" values="0 0 0 0 0 0 0 0 0 0 0 0 0 0 0 0 0 0 127 0" result="hardAlpha"/>
<feOffset/>
<feGaussianBlur stdDeviation="3"/>
<feColorMatrix type="matrix" values="0 0 0 0 0 0 0 0 0 0 0 0 0 0 0 0 0 0 0.25 0"/>
<feBlend mode="normal" in2="BackgroundImageFix" result="effect1_dropShadow_277_782"/>
<feBlend mode="normal" in="SourceGraphic" in2="effect1_dropShadow_277_782" result="shape"/>
</filter>
<linearGradient id="paint0_linear_277_782" x1="322.751" y1="112.8" x2="322.751" y2="21.4355" gradientUnits="userSpaceOnUse">
<stop stop-color="#E6864E"/>
<stop offset="1" stop-color="#E67240"/>
</linearGradient>
<linearGradient id="paint1_linear_277_782" x1="328.001" y1="127.2" x2="328.001" y2="82" gradientUnits="userSpaceOnUse">
<stop stop-color="#FFC9B3"/>
<stop offset="1" stop-color="#FFD2C2"/>
</linearGradient>
<linearGradient id="paint2_linear_277_782" x1="323.818" y1="41.5996" x2="323.818" y2="89.5996" gradientUnits="userSpaceOnUse">
<stop stop-color="#FFD4B3"/>
<stop offset="1" stop-color="#FFDCC2"/>
</linearGradient>
<linearGradient id="paint3_linear_277_782" x1="67.6906" y1="34.9434" x2="67.6906" y2="97.5997" gradientUnits="userSpaceOnUse">
<stop stop-color="#FFD4B3"/>
<stop offset="1" stop-color="#FFDCC2"/>
</linearGradient>
<linearGradient id="paint4_linear_277_782" x1="66" y1="86.7998" x2="66" y2="127.323" gradientUnits="userSpaceOnUse">
<stop stop-color="#806A6A"/>
<stop offset="1" stop-color="#665654"/>
</linearGradient>
<linearGradient id="paint5_linear_277_782" x1="69.1937" y1="66" x2="69.1937" y2="17.999" gradientUnits="userSpaceOnUse">
<stop stop-color="#E6864E"/>
<stop offset="1" stop-color="#E67240"/>
</linearGradient>
<clipPath id="clip0_277_782">
<rect x="268" y="6" width="120" height="120" rx="60" fill="white"/>
</clipPath>
<clipPath id="clip1_277_782">
<rect x="6" y="6" width="120" height="120" rx="60" fill="white"/>
</clipPath>
</defs>
</svg>
