<svg width="414" height="382" viewBox="0 0 414 382" fill="none" xmlns="http://www.w3.org/2000/svg">
<g filter="url(#filter0_bddddi_330_2381)">
<rect x="15" y="8" width="384" height="352" rx="72" fill="white"/>
<path d="M83.632 147.584C83.632 141.013 85.0827 135.296 87.984 130.432C90.9707 125.483 95.024 121.685 100.144 119.04C105.264 116.395 111.109 115.072 117.68 115.072C122.459 115.072 126.939 116.011 131.12 117.888C135.387 119.765 139.184 122.581 142.512 126.336C145.584 129.749 147.888 134.229 149.424 139.776C151.045 145.237 151.856 151.467 151.856 158.464C151.856 173.653 148.955 186.069 143.152 195.712C137.435 205.269 128.304 210.048 115.76 210.048C108.251 210.048 101.808 208.213 96.432 204.544C91.1413 200.789 87.344 195.499 85.04 188.672L100.784 187.648C102.064 190.293 103.984 192.341 106.544 193.792C109.104 195.243 112.048 195.968 115.376 195.968C119.984 195.968 123.867 194.688 127.024 192.128C130.181 189.483 132.613 185.685 134.32 180.736C136.027 175.701 136.923 169.685 137.008 162.688L138.544 162.944C138.288 163.456 138.075 163.968 137.904 164.48C137.733 164.907 137.477 165.333 137.136 165.76C134.747 169.941 131.632 173.141 127.792 175.36C123.952 177.579 119.344 178.688 113.968 178.688C108.165 178.688 102.96 177.408 98.352 174.848C93.744 172.203 90.1173 168.533 87.472 163.84C84.912 159.061 83.632 153.643 83.632 147.584ZM99.888 147.456C99.888 151.04 100.571 154.24 101.936 157.056C103.387 159.872 105.392 162.091 107.952 163.712C110.512 165.248 113.413 166.016 116.656 166.016C120.155 166.016 123.269 165.248 126 163.712C128.816 162.091 130.992 159.872 132.528 157.056C134.149 154.24 134.96 151.04 134.96 147.456C135.045 143.872 134.363 140.629 132.912 137.728C131.461 134.827 129.371 132.565 126.64 130.944C123.995 129.323 120.88 128.512 117.296 128.512C113.968 128.512 110.981 129.323 108.336 130.944C105.691 132.565 103.6 134.827 102.064 137.728C100.613 140.629 99.888 143.872 99.888 147.456ZM160.572 147.584C160.572 141.013 162.023 135.296 164.924 130.432C167.911 125.483 171.964 121.685 177.084 119.04C182.204 116.395 188.049 115.072 194.62 115.072C199.399 115.072 203.879 116.011 208.06 117.888C212.327 119.765 216.124 122.581 219.452 126.336C222.524 129.749 224.828 134.229 226.364 139.776C227.985 145.237 228.796 151.467 228.796 158.464C228.796 173.653 225.895 186.069 220.092 195.712C214.375 205.269 205.244 210.048 192.7 210.048C185.191 210.048 178.748 208.213 173.372 204.544C168.081 200.789 164.284 195.499 161.98 188.672L177.724 187.648C179.004 190.293 180.924 192.341 183.484 193.792C186.044 195.243 188.988 195.968 192.316 195.968C196.924 195.968 200.807 194.688 203.964 192.128C207.121 189.483 209.553 185.685 211.26 180.736C212.967 175.701 213.863 169.685 213.948 162.688L215.484 162.944C215.228 163.456 215.015 163.968 214.844 164.48C214.673 164.907 214.417 165.333 214.076 165.76C211.687 169.941 208.572 173.141 204.732 175.36C200.892 177.579 196.284 178.688 190.908 178.688C185.105 178.688 179.9 177.408 175.292 174.848C170.684 172.203 167.057 168.533 164.412 163.84C161.852 159.061 160.572 153.643 160.572 147.584ZM176.828 147.456C176.828 151.04 177.511 154.24 178.876 157.056C180.327 159.872 182.332 162.091 184.892 163.712C187.452 165.248 190.353 166.016 193.596 166.016C197.095 166.016 200.209 165.248 202.94 163.712C205.756 162.091 207.932 159.872 209.468 157.056C211.089 154.24 211.9 151.04 211.9 147.456C211.985 143.872 211.303 140.629 209.852 137.728C208.401 134.827 206.311 132.565 203.58 130.944C200.935 129.323 197.82 128.512 194.236 128.512C190.908 128.512 187.921 129.323 185.276 130.944C182.631 132.565 180.54 134.827 179.004 137.728C177.553 140.629 176.828 143.872 176.828 147.456ZM325.576 115.072L259.272 209.536H242.632L308.936 115.072H325.576ZM257.096 161.536C253.512 161.536 250.184 160.555 247.112 158.592C244.125 156.629 241.736 153.941 239.944 150.528C238.152 147.115 237.256 143.36 237.256 139.264C237.256 135.083 238.109 131.328 239.816 128C241.608 124.587 244.04 121.899 247.112 119.936C250.184 117.973 253.512 116.992 257.096 116.992C260.765 116.992 264.093 117.973 267.08 119.936C270.152 121.899 272.541 124.587 274.248 128C276.04 131.328 276.936 135.083 276.936 139.264C276.936 143.36 276.04 147.115 274.248 150.528C272.541 153.941 270.152 156.629 267.08 158.592C264.093 160.555 260.765 161.536 257.096 161.536ZM257.224 151.168C259.699 151.168 261.619 150.101 262.984 147.968C264.435 145.835 265.16 142.933 265.16 139.264C265.16 135.595 264.435 132.693 262.984 130.56C261.619 128.427 259.699 127.36 257.224 127.36C254.749 127.36 252.787 128.427 251.336 130.56C249.885 132.693 249.16 135.595 249.16 139.264C249.16 142.933 249.885 145.835 251.336 147.968C252.787 150.101 254.749 151.168 257.224 151.168ZM310.472 208C306.803 208 303.475 207.019 300.488 205.056C297.501 203.093 295.112 200.405 293.32 196.992C291.528 193.579 290.632 189.824 290.632 185.728C290.632 181.547 291.485 177.792 293.192 174.464C294.984 171.051 297.416 168.363 300.488 166.4C303.56 164.437 306.888 163.456 310.472 163.456C314.141 163.456 317.469 164.437 320.456 166.4C323.443 168.363 325.832 171.051 327.624 174.464C329.416 177.792 330.312 181.547 330.312 185.728C330.312 189.824 329.416 193.579 327.624 196.992C325.917 200.405 323.528 203.093 320.456 205.056C317.384 207.019 314.056 208 310.472 208ZM310.472 197.632C313.032 197.632 314.995 196.565 316.36 194.432C317.811 192.299 318.536 189.397 318.536 185.728C318.536 182.059 317.811 179.157 316.36 177.024C314.995 174.891 313.032 173.824 310.472 173.824C307.997 173.824 306.035 174.891 304.584 177.024C303.219 179.157 302.536 182.059 302.536 185.728C302.536 189.397 303.219 192.299 304.584 194.432C306.035 196.565 307.997 197.632 310.472 197.632Z" fill="white"/>
<path d="M83.632 147.584C83.632 141.013 85.0827 135.296 87.984 130.432C90.9707 125.483 95.024 121.685 100.144 119.04C105.264 116.395 111.109 115.072 117.68 115.072C122.459 115.072 126.939 116.011 131.12 117.888C135.387 119.765 139.184 122.581 142.512 126.336C145.584 129.749 147.888 134.229 149.424 139.776C151.045 145.237 151.856 151.467 151.856 158.464C151.856 173.653 148.955 186.069 143.152 195.712C137.435 205.269 128.304 210.048 115.76 210.048C108.251 210.048 101.808 208.213 96.432 204.544C91.1413 200.789 87.344 195.499 85.04 188.672L100.784 187.648C102.064 190.293 103.984 192.341 106.544 193.792C109.104 195.243 112.048 195.968 115.376 195.968C119.984 195.968 123.867 194.688 127.024 192.128C130.181 189.483 132.613 185.685 134.32 180.736C136.027 175.701 136.923 169.685 137.008 162.688L138.544 162.944C138.288 163.456 138.075 163.968 137.904 164.48C137.733 164.907 137.477 165.333 137.136 165.76C134.747 169.941 131.632 173.141 127.792 175.36C123.952 177.579 119.344 178.688 113.968 178.688C108.165 178.688 102.96 177.408 98.352 174.848C93.744 172.203 90.1173 168.533 87.472 163.84C84.912 159.061 83.632 153.643 83.632 147.584ZM99.888 147.456C99.888 151.04 100.571 154.24 101.936 157.056C103.387 159.872 105.392 162.091 107.952 163.712C110.512 165.248 113.413 166.016 116.656 166.016C120.155 166.016 123.269 165.248 126 163.712C128.816 162.091 130.992 159.872 132.528 157.056C134.149 154.24 134.96 151.04 134.96 147.456C135.045 143.872 134.363 140.629 132.912 137.728C131.461 134.827 129.371 132.565 126.64 130.944C123.995 129.323 120.88 128.512 117.296 128.512C113.968 128.512 110.981 129.323 108.336 130.944C105.691 132.565 103.6 134.827 102.064 137.728C100.613 140.629 99.888 143.872 99.888 147.456ZM160.572 147.584C160.572 141.013 162.023 135.296 164.924 130.432C167.911 125.483 171.964 121.685 177.084 119.04C182.204 116.395 188.049 115.072 194.62 115.072C199.399 115.072 203.879 116.011 208.06 117.888C212.327 119.765 216.124 122.581 219.452 126.336C222.524 129.749 224.828 134.229 226.364 139.776C227.985 145.237 228.796 151.467 228.796 158.464C228.796 173.653 225.895 186.069 220.092 195.712C214.375 205.269 205.244 210.048 192.7 210.048C185.191 210.048 178.748 208.213 173.372 204.544C168.081 200.789 164.284 195.499 161.98 188.672L177.724 187.648C179.004 190.293 180.924 192.341 183.484 193.792C186.044 195.243 188.988 195.968 192.316 195.968C196.924 195.968 200.807 194.688 203.964 192.128C207.121 189.483 209.553 185.685 211.26 180.736C212.967 175.701 213.863 169.685 213.948 162.688L215.484 162.944C215.228 163.456 215.015 163.968 214.844 164.48C214.673 164.907 214.417 165.333 214.076 165.76C211.687 169.941 208.572 173.141 204.732 175.36C200.892 177.579 196.284 178.688 190.908 178.688C185.105 178.688 179.9 177.408 175.292 174.848C170.684 172.203 167.057 168.533 164.412 163.84C161.852 159.061 160.572 153.643 160.572 147.584ZM176.828 147.456C176.828 151.04 177.511 154.24 178.876 157.056C180.327 159.872 182.332 162.091 184.892 163.712C187.452 165.248 190.353 166.016 193.596 166.016C197.095 166.016 200.209 165.248 202.94 163.712C205.756 162.091 207.932 159.872 209.468 157.056C211.089 154.24 211.9 151.04 211.9 147.456C211.985 143.872 211.303 140.629 209.852 137.728C208.401 134.827 206.311 132.565 203.58 130.944C200.935 129.323 197.82 128.512 194.236 128.512C190.908 128.512 187.921 129.323 185.276 130.944C182.631 132.565 180.54 134.827 179.004 137.728C177.553 140.629 176.828 143.872 176.828 147.456ZM325.576 115.072L259.272 209.536H242.632L308.936 115.072H325.576ZM257.096 161.536C253.512 161.536 250.184 160.555 247.112 158.592C244.125 156.629 241.736 153.941 239.944 150.528C238.152 147.115 237.256 143.36 237.256 139.264C237.256 135.083 238.109 131.328 239.816 128C241.608 124.587 244.04 121.899 247.112 119.936C250.184 117.973 253.512 116.992 257.096 116.992C260.765 116.992 264.093 117.973 267.08 119.936C270.152 121.899 272.541 124.587 274.248 128C276.04 131.328 276.936 135.083 276.936 139.264C276.936 143.36 276.04 147.115 274.248 150.528C272.541 153.941 270.152 156.629 267.08 158.592C264.093 160.555 260.765 161.536 257.096 161.536ZM257.224 151.168C259.699 151.168 261.619 150.101 262.984 147.968C264.435 145.835 265.16 142.933 265.16 139.264C265.16 135.595 264.435 132.693 262.984 130.56C261.619 128.427 259.699 127.36 257.224 127.36C254.749 127.36 252.787 128.427 251.336 130.56C249.885 132.693 249.16 135.595 249.16 139.264C249.16 142.933 249.885 145.835 251.336 147.968C252.787 150.101 254.749 151.168 257.224 151.168ZM310.472 208C306.803 208 303.475 207.019 300.488 205.056C297.501 203.093 295.112 200.405 293.32 196.992C291.528 193.579 290.632 189.824 290.632 185.728C290.632 181.547 291.485 177.792 293.192 174.464C294.984 171.051 297.416 168.363 300.488 166.4C303.56 164.437 306.888 163.456 310.472 163.456C314.141 163.456 317.469 164.437 320.456 166.4C323.443 168.363 325.832 171.051 327.624 174.464C329.416 177.792 330.312 181.547 330.312 185.728C330.312 189.824 329.416 193.579 327.624 196.992C325.917 200.405 323.528 203.093 320.456 205.056C317.384 207.019 314.056 208 310.472 208ZM310.472 197.632C313.032 197.632 314.995 196.565 316.36 194.432C317.811 192.299 318.536 189.397 318.536 185.728C318.536 182.059 317.811 179.157 316.36 177.024C314.995 174.891 313.032 173.824 310.472 173.824C307.997 173.824 306.035 174.891 304.584 177.024C303.219 179.157 302.536 182.059 302.536 185.728C302.536 189.397 303.219 192.299 304.584 194.432C306.035 196.565 307.997 197.632 310.472 197.632Z" fill="#3C25FF"/>
<path d="M118.449 268.96C121.073 268.96 123.089 269.704 124.497 271.192C125.921 272.664 126.633 274.768 126.633 277.504C126.633 280.224 125.937 282.32 124.545 283.792C123.169 285.264 121.185 286 118.593 286H113.193V268.96H118.449ZM118.449 284.032C120.465 284.032 121.977 283.488 122.985 282.4C124.009 281.312 124.521 279.68 124.521 277.504C124.521 275.312 124.009 273.672 122.985 272.584C121.977 271.48 120.465 270.928 118.449 270.928H115.209V284.032H118.449ZM140.947 268.96V270.928H132.283V276.496H140.659V278.416H132.283V284.032H141.139V286H130.267V268.96H140.947ZM145.185 268.96H147.201V285.04L146.193 284.032H155.745V286H145.185V268.96ZM161.579 268.96V286H159.563V268.96H161.579ZM167.04 268.96L172.296 283.768L177.528 268.96H179.808L173.616 286H170.976L164.784 268.96H167.04ZM193.328 268.96V270.928H184.664V276.496H193.04V278.416H184.664V284.032H193.52V286H182.648V268.96H193.328ZM203.998 268.96C205.182 268.96 206.206 269.168 207.07 269.584C207.95 270 208.622 270.6 209.086 271.384C209.566 272.152 209.806 273.056 209.806 274.096C209.806 274.848 209.63 275.528 209.278 276.136C208.942 276.744 208.494 277.232 207.934 277.6C207.374 277.952 206.798 278.144 206.206 278.176L205.486 277.96C206.83 277.96 207.806 278.192 208.414 278.656C209.022 279.104 209.382 279.88 209.494 280.984L209.95 286H207.91L207.502 281.176C207.438 280.424 207.118 279.896 206.542 279.592C205.982 279.272 205.07 279.112 203.806 279.112H199.582V286H197.566V268.96H203.998ZM203.998 277.144C205.182 277.144 206.094 276.88 206.734 276.352C207.374 275.824 207.694 275.056 207.694 274.048C207.694 273.056 207.374 272.288 206.734 271.744C206.094 271.2 205.182 270.928 203.998 270.928H199.582V277.144H203.998ZM218.588 268.96H221.276L227.444 286H225.236L223.532 281.128H216.332L214.628 286H212.42L218.588 268.96ZM222.836 279.16L219.932 270.736L217.028 279.16H222.836ZM230.283 268.96H236.115C238.131 268.96 239.635 269.352 240.627 270.136C241.635 270.92 242.139 272.104 242.139 273.688C242.139 274.424 241.979 275.064 241.659 275.608C241.339 276.136 240.883 276.552 240.291 276.856C239.699 277.144 239.003 277.288 238.203 277.288L238.179 277.144C239.619 277.144 240.755 277.512 241.587 278.248C242.435 278.968 242.859 279.952 242.859 281.2C242.859 282.752 242.355 283.944 241.347 284.776C240.355 285.592 238.931 286 237.075 286H230.283V268.96ZM237.075 284.032C238.259 284.032 239.171 283.792 239.811 283.312C240.451 282.816 240.771 282.112 240.771 281.2C240.771 280.288 240.451 279.584 239.811 279.088C239.171 278.592 238.259 278.344 237.075 278.344H232.299V284.032H237.075ZM236.115 276.352C237.379 276.352 238.347 276.128 239.019 275.68C239.707 275.216 240.051 274.552 240.051 273.688C240.051 272.76 239.723 272.072 239.067 271.624C238.411 271.16 237.427 270.928 236.115 270.928H232.299V276.352H236.115ZM249.045 268.96V286H247.029V268.96H249.045ZM253.954 268.96H255.97V285.04L254.962 284.032H264.514V286H253.954V268.96ZM270.349 268.96V286H268.333V268.96H270.349ZM286.298 270.928H280.994V286H278.978V270.928H273.65V268.96H286.298V270.928ZM290.848 268.96L295.504 276.904L300.136 268.96H302.512L296.512 279.04V286H294.496V279.04L288.448 268.96H290.848Z" fill="black"/>
</g>
<defs>
<filter id="filter0_bddddi_330_2381" x="-33" y="-40" width="480" height="448" filterUnits="userSpaceOnUse" color-interpolation-filters="sRGB">
<feFlood flood-opacity="0" result="BackgroundImageFix"/>
<feGaussianBlur in="BackgroundImageFix" stdDeviation="24"/>
<feComposite in2="SourceAlpha" operator="in" result="effect1_backgroundBlur_330_2381"/>
<feColorMatrix in="SourceAlpha" type="matrix" values="0 0 0 0 0 0 0 0 0 0 0 0 0 0 0 0 0 0 127 0" result="hardAlpha"/>
<feMorphology radius="55.4366" operator="erode" in="SourceAlpha" result="effect2_dropShadow_330_2381"/>
<feOffset/>
<feComposite in2="hardAlpha" operator="out"/>
<feColorMatrix type="matrix" values="0 0 0 0 0 0 0 0 0 0 0 0 0 0 0 0 0 0 0.04 0"/>
<feBlend mode="normal" in2="effect1_backgroundBlur_330_2381" result="effect2_dropShadow_330_2381"/>
<feColorMatrix in="SourceAlpha" type="matrix" values="0 0 0 0 0 0 0 0 0 0 0 0 0 0 0 0 0 0 127 0" result="hardAlpha"/>
<feOffset dy="1.81759"/>
<feGaussianBlur stdDeviation="1.81759"/>
<feComposite in2="hardAlpha" operator="out"/>
<feColorMatrix type="matrix" values="0 0 0 0 0 0 0 0 0 0 0 0 0 0 0 0 0 0 0.12 0"/>
<feBlend mode="normal" in2="effect2_dropShadow_330_2381" result="effect3_dropShadow_330_2381"/>
<feColorMatrix in="SourceAlpha" type="matrix" values="0 0 0 0 0 0 0 0 0 0 0 0 0 0 0 0 0 0 127 0" result="hardAlpha"/>
<feOffset dy="0.908796"/>
<feGaussianBlur stdDeviation="0.454398"/>
<feComposite in2="hardAlpha" operator="out"/>
<feColorMatrix type="matrix" values="0 0 0 0 0 0 0 0 0 0 0 0 0 0 0 0 0 0 0.08 0"/>
<feBlend mode="normal" in2="effect3_dropShadow_330_2381" result="effect4_dropShadow_330_2381"/>
<feColorMatrix in="SourceAlpha" type="matrix" values="0 0 0 0 0 0 0 0 0 0 0 0 0 0 0 0 0 0 127 0" result="hardAlpha"/>
<feOffset dy="7.27037"/>
<feGaussianBlur stdDeviation="7.27037"/>
<feComposite in2="hardAlpha" operator="out"/>
<feColorMatrix type="matrix" values="0 0 0 0 0.117647 0 0 0 0 0.117647 0 0 0 0 0.117647 0 0 0 0.06 0"/>
<feBlend mode="normal" in2="effect4_dropShadow_330_2381" result="effect5_dropShadow_330_2381"/>
<feBlend mode="normal" in="SourceGraphic" in2="effect5_dropShadow_330_2381" result="shape"/>
<feColorMatrix in="SourceAlpha" type="matrix" values="0 0 0 0 0 0 0 0 0 0 0 0 0 0 0 0 0 0 127 0" result="hardAlpha"/>
<feOffset dy="-5.45277"/>
<feGaussianBlur stdDeviation="4.99838"/>
<feComposite in2="hardAlpha" operator="arithmetic" k2="-1" k3="1"/>
<feColorMatrix type="matrix" values="0 0 0 0 0.235294 0 0 0 0 0.145098 0 0 0 0 1 0 0 0 0.2 0"/>
<feBlend mode="normal" in2="shape" result="effect6_innerShadow_330_2381"/>
</filter>
</defs>
</svg>
