<svg width="444" height="329" viewBox="0 0 444 329" fill="none" xmlns="http://www.w3.org/2000/svg">
<g filter="url(#filter0_ddddi_332_1121)">
<rect x="15.5" y="54" width="413" height="253" rx="16" fill="white" shape-rendering="crispEdges"/>
<path d="M40.4094 116V114.966L43.6087 111.651C43.9503 111.291 44.2319 110.976 44.4535 110.705C44.6781 110.431 44.8459 110.171 44.9567 109.925C45.0675 109.679 45.1229 109.417 45.1229 109.14C45.1229 108.826 45.049 108.555 44.9013 108.327C44.7536 108.097 44.552 107.92 44.2965 107.797C44.0411 107.67 43.7533 107.607 43.4332 107.607C43.0947 107.607 42.7992 107.676 42.5469 107.815C42.2945 107.953 42.1006 108.149 41.9652 108.401C41.8298 108.654 41.7621 108.949 41.7621 109.288H40.4002C40.4002 108.712 40.5326 108.209 40.7972 107.778C41.0619 107.347 41.4251 107.013 41.8867 106.776C42.3484 106.536 42.8731 106.416 43.4609 106.416C44.0549 106.416 44.5781 106.535 45.0305 106.772C45.486 107.006 45.8415 107.326 46.0969 107.732C46.3524 108.135 46.4801 108.591 46.4801 109.098C46.4801 109.449 46.4139 109.792 46.2816 110.128C46.1523 110.463 45.9261 110.837 45.603 111.25C45.2798 111.659 44.8305 112.156 44.255 112.741L42.3761 114.707V114.777H46.6325V116H40.4094ZM48.4006 116V108.909H49.7255V110.063H49.8132C49.9609 109.672 50.2025 109.368 50.538 109.149C50.8735 108.928 51.2751 108.817 51.7429 108.817C52.2169 108.817 52.6139 108.928 52.9339 109.149C53.2571 109.371 53.4956 109.675 53.6495 110.063H53.7234C53.8926 109.685 54.1619 109.383 54.5312 109.158C54.9006 108.931 55.3407 108.817 55.8516 108.817C56.4948 108.817 57.0195 109.018 57.4258 109.422C57.8351 109.825 58.0398 110.433 58.0398 111.245V116H56.6594V111.374C56.6594 110.894 56.5286 110.546 56.267 110.331C56.0054 110.116 55.6931 110.008 55.3299 110.008C54.8806 110.008 54.5312 110.146 54.282 110.423C54.0327 110.697 53.908 111.05 53.908 111.48V116H52.5323V111.287C52.5323 110.902 52.4123 110.593 52.1722 110.359C51.9322 110.125 51.6198 110.008 51.2351 110.008C50.9735 110.008 50.7319 110.077 50.5103 110.216C50.2918 110.351 50.1148 110.54 49.9794 110.783C49.8471 111.027 49.7809 111.308 49.7809 111.628V116H48.4006Z" fill="black"/>
<path d="M43.9964 143.545V153H42.5653V144.977H42.5099L40.2479 146.454V145.087L42.6069 143.545H43.9964ZM46.5724 153V145.909H47.8974V147.063H47.9851C48.1328 146.672 48.3744 146.368 48.7099 146.149C49.0453 145.928 49.447 145.817 49.9148 145.817C50.3887 145.817 50.7857 145.928 51.1058 146.149C51.429 146.371 51.6675 146.675 51.8214 147.063H51.8952C52.0645 146.685 52.3338 146.383 52.7031 146.158C53.0724 145.931 53.5125 145.817 54.0234 145.817C54.6667 145.817 55.1914 146.018 55.5977 146.422C56.007 146.825 56.2116 147.433 56.2116 148.245V153H54.8313V148.374C54.8313 147.894 54.7005 147.546 54.4389 147.331C54.1773 147.116 53.8649 147.008 53.5018 147.008C53.0524 147.008 52.7031 147.146 52.4538 147.423C52.2045 147.697 52.0799 148.05 52.0799 148.48V153H50.7042V148.287C50.7042 147.902 50.5842 147.593 50.3441 147.359C50.104 147.125 49.7917 147.008 49.407 147.008C49.1454 147.008 48.9038 147.077 48.6822 147.216C48.4637 147.351 48.2867 147.54 48.1513 147.783C48.0189 148.027 47.9528 148.308 47.9528 148.628V153H46.5724Z" fill="black"/>
<path d="M43.5302 190.129C42.9516 190.129 42.4315 190.018 41.9698 189.797C41.5112 189.572 41.145 189.264 40.8711 188.874C40.5972 188.483 40.451 188.036 40.4325 187.535H41.8175C41.8513 187.941 42.0314 188.275 42.3576 188.537C42.6838 188.798 43.0747 188.929 43.5302 188.929C43.8933 188.929 44.215 188.846 44.495 188.68C44.7782 188.51 44.9998 188.278 45.1598 187.983C45.3229 187.687 45.4045 187.35 45.4045 186.972C45.4045 186.587 45.3214 186.244 45.1552 185.942C44.989 185.641 44.7597 185.404 44.4673 185.231C44.178 185.059 43.8456 184.971 43.4702 184.968C43.1839 184.968 42.8962 185.017 42.6069 185.116C42.3176 185.214 42.0837 185.344 41.9052 185.504L40.5987 185.31L41.1296 180.545H46.3278V181.769H42.3161L42.016 184.414H42.0714C42.256 184.236 42.5007 184.086 42.8054 183.966C43.1132 183.846 43.4425 183.786 43.7933 183.786C44.3688 183.786 44.8813 183.923 45.3306 184.197C45.783 184.471 46.1385 184.845 46.397 185.319C46.6586 185.79 46.7879 186.331 46.7848 186.944C46.7879 187.556 46.6494 188.103 46.3693 188.583C46.0923 189.063 45.7076 189.441 45.2152 189.718C44.7259 189.992 44.1642 190.129 43.5302 190.129ZM51.7625 190.157C51.0331 190.154 50.4099 189.962 49.8928 189.58C49.3758 189.198 48.9803 188.643 48.7064 187.913C48.4325 187.184 48.2955 186.305 48.2955 185.277C48.2955 184.252 48.4325 183.377 48.7064 182.651C48.9834 181.924 49.3804 181.37 49.8975 180.989C50.4176 180.607 51.0393 180.416 51.7625 180.416C52.4858 180.416 53.1059 180.609 53.623 180.993C54.14 181.375 54.5355 181.929 54.8094 182.655C55.0864 183.378 55.2249 184.252 55.2249 185.277C55.2249 186.308 55.0879 187.189 54.814 187.918C54.5401 188.644 54.1446 189.2 53.6276 189.585C53.1105 189.966 52.4888 190.157 51.7625 190.157ZM51.7625 188.924C52.4027 188.924 52.9028 188.612 53.2629 187.987C53.626 187.362 53.8076 186.459 53.8076 185.277C53.8076 184.493 53.7245 183.829 53.5583 183.288C53.3952 182.743 53.1598 182.33 52.852 182.05C52.5473 181.767 52.1842 181.626 51.7625 181.626C51.1254 181.626 50.6253 181.94 50.2622 182.567C49.899 183.195 49.7159 184.099 49.7128 185.277C49.7128 186.065 49.7944 186.732 49.9575 187.276C50.1237 187.818 50.3591 188.229 50.6638 188.509C50.9685 188.786 51.3347 188.924 51.7625 188.924ZM60.1541 190.157C59.4247 190.154 58.8015 189.962 58.2844 189.58C57.7674 189.198 57.3719 188.643 57.098 187.913C56.8241 187.184 56.6871 186.305 56.6871 185.277C56.6871 184.252 56.8241 183.377 57.098 182.651C57.375 181.924 57.772 181.37 58.2891 180.989C58.8092 180.607 59.4309 180.416 60.1541 180.416C60.8774 180.416 61.4975 180.609 62.0146 180.993C62.5316 181.375 62.9271 181.929 63.201 182.655C63.478 183.378 63.6165 184.252 63.6165 185.277C63.6165 186.308 63.4795 187.189 63.2056 187.918C62.9317 188.644 62.5362 189.2 62.0192 189.585C61.5021 189.966 60.8804 190.157 60.1541 190.157ZM60.1541 188.924C60.7943 188.924 61.2944 188.612 61.6545 187.987C62.0176 187.362 62.1992 186.459 62.1992 185.277C62.1992 184.493 62.1161 183.829 61.9499 183.288C61.7868 182.743 61.5514 182.33 61.2436 182.05C60.9389 181.767 60.5758 181.626 60.1541 181.626C59.517 181.626 59.0169 181.94 58.6538 182.567C58.2906 183.195 58.1075 184.099 58.1044 185.277C58.1044 186.065 58.186 186.732 58.3491 187.276C58.5153 187.818 58.7507 188.229 59.0554 188.509C59.3601 188.786 59.7263 188.924 60.1541 188.924ZM66.5422 187.595L66.5329 185.91H66.773L69.5983 182.909H71.251L68.0287 186.325H67.8117L66.5422 187.595ZM65.2726 190V180.545H66.653V190H65.2726ZM69.7506 190L67.2116 186.63L68.1626 185.665L71.4449 190H69.7506Z" fill="black"/>
<path d="M43.9964 217.545V227H42.5653V218.977H42.5099L40.2479 220.454V219.087L42.6069 217.545H43.9964ZM49.8455 227.157C49.1161 227.154 48.4929 226.962 47.9759 226.58C47.4588 226.198 47.0633 225.643 46.7894 224.913C46.5155 224.184 46.3786 223.305 46.3786 222.277C46.3786 221.252 46.5155 220.377 46.7894 219.651C47.0664 218.924 47.4634 218.37 47.9805 217.989C48.5006 217.607 49.1223 217.416 49.8455 217.416C50.5688 217.416 51.1889 217.609 51.706 217.993C52.223 218.375 52.6185 218.929 52.8924 219.655C53.1694 220.378 53.3079 221.252 53.3079 222.277C53.3079 223.308 53.1709 224.189 52.897 224.918C52.6231 225.644 52.2276 226.2 51.7106 226.585C51.1935 226.966 50.5719 227.157 49.8455 227.157ZM49.8455 225.924C50.4857 225.924 50.9858 225.612 51.3459 224.987C51.709 224.362 51.8906 223.459 51.8906 222.277C51.8906 221.493 51.8075 220.829 51.6413 220.288C51.4782 219.743 51.2428 219.33 50.935 219.05C50.6303 218.767 50.2672 218.626 49.8455 218.626C49.2085 218.626 48.7083 218.94 48.3452 219.567C47.982 220.195 47.7989 221.099 47.7958 222.277C47.7958 223.065 47.8774 223.732 48.0405 224.276C48.2067 224.818 48.4421 225.229 48.7468 225.509C49.0515 225.786 49.4177 225.924 49.8455 225.924ZM58.2371 227.157C57.5077 227.154 56.8845 226.962 56.3675 226.58C55.8504 226.198 55.4549 225.643 55.181 224.913C54.9071 224.184 54.7702 223.305 54.7702 222.277C54.7702 221.252 54.9071 220.377 55.181 219.651C55.458 218.924 55.855 218.37 56.3721 217.989C56.8922 217.607 57.5139 217.416 58.2371 217.416C58.9604 217.416 59.5805 217.609 60.0976 217.993C60.6146 218.375 61.0101 218.929 61.284 219.655C61.561 220.378 61.6995 221.252 61.6995 222.277C61.6995 223.308 61.5625 224.189 61.2886 224.918C61.0147 225.644 60.6192 226.2 60.1022 226.585C59.5851 226.966 58.9635 227.157 58.2371 227.157ZM58.2371 225.924C58.8773 225.924 59.3774 225.612 59.7375 224.987C60.1006 224.362 60.2822 223.459 60.2822 222.277C60.2822 221.493 60.1991 220.829 60.0329 220.288C59.8698 219.743 59.6344 219.33 59.3266 219.05C59.0219 218.767 58.6588 218.626 58.2371 218.626C57.6001 218.626 57.0999 218.94 56.7368 219.567C56.3736 220.195 56.1905 221.099 56.1874 222.277C56.1874 223.065 56.269 223.732 56.4321 224.276C56.5983 224.818 56.8337 225.229 57.1384 225.509C57.4431 225.786 57.8093 225.924 58.2371 225.924ZM64.6252 224.595L64.6159 222.91H64.856L67.6813 219.909H69.334L66.1117 223.325H65.8947L64.6252 224.595ZM63.3556 227V217.545H64.736V227H63.3556ZM67.8336 227L65.2946 223.63L66.2456 222.665L69.5279 227H67.8336Z" fill="black"/>
<path d="M43.701 264.157C42.9716 264.154 42.3484 263.962 41.8313 263.58C41.3143 263.198 40.9188 262.643 40.6449 261.913C40.371 261.184 40.234 260.305 40.234 259.277C40.234 258.252 40.371 257.377 40.6449 256.651C40.9219 255.924 41.3189 255.37 41.8359 254.989C42.3561 254.607 42.9777 254.416 43.701 254.416C44.4242 254.416 45.0444 254.609 45.5614 254.993C46.0785 255.375 46.474 255.929 46.7479 256.655C47.0249 257.378 47.1634 258.252 47.1634 259.277C47.1634 260.308 47.0264 261.189 46.7525 261.918C46.4786 262.644 46.0831 263.2 45.5661 263.585C45.049 263.966 44.4273 264.157 43.701 264.157ZM43.701 262.924C44.3411 262.924 44.8413 262.612 45.2013 261.987C45.5645 261.362 45.7461 260.459 45.7461 259.277C45.7461 258.493 45.663 257.829 45.4968 257.288C45.3337 256.743 45.0982 256.33 44.7905 256.05C44.4858 255.767 44.1226 255.626 43.701 255.626C43.0639 255.626 42.5638 255.94 42.2006 256.567C41.8375 257.195 41.6544 258.099 41.6513 259.277C41.6513 260.065 41.7328 260.732 41.896 261.276C42.0621 261.818 42.2976 262.229 42.6023 262.509C42.907 262.786 43.2732 262.924 43.701 262.924Z" fill="black"/>
<rect x="135.5" y="78" width="48" height="177" rx="5" fill="url(#paint0_linear_332_1121)"/>
<path d="M147.13 111.545V121H145.417V113.212H145.361L143.15 114.625V113.055L145.5 111.545H147.13ZM152.817 121.129C152.202 121.129 151.651 121.014 151.164 120.783C150.678 120.549 150.292 120.229 150.006 119.823C149.722 119.417 149.572 118.952 149.553 118.429H151.215C151.246 118.816 151.414 119.133 151.718 119.38C152.023 119.623 152.389 119.744 152.817 119.744C153.153 119.744 153.451 119.667 153.713 119.513C153.974 119.36 154.18 119.146 154.331 118.872C154.482 118.598 154.556 118.286 154.553 117.935C154.556 117.578 154.481 117.261 154.327 116.984C154.173 116.707 153.962 116.49 153.694 116.333C153.426 116.173 153.119 116.093 152.771 116.093C152.488 116.09 152.209 116.142 151.935 116.25C151.661 116.357 151.444 116.499 151.284 116.674L149.738 116.42L150.232 111.545H155.716V112.977H151.649L151.377 115.483H151.432C151.608 115.277 151.855 115.106 152.175 114.971C152.495 114.832 152.846 114.763 153.228 114.763C153.8 114.763 154.311 114.899 154.761 115.169C155.21 115.437 155.564 115.806 155.822 116.277C156.081 116.748 156.21 117.287 156.21 117.893C156.21 118.518 156.066 119.075 155.776 119.564C155.49 120.051 155.091 120.434 154.581 120.714C154.073 120.991 153.485 121.129 152.817 121.129ZM161.251 121.18C160.491 121.18 159.839 120.988 159.294 120.603C158.752 120.215 158.335 119.657 158.043 118.927C157.754 118.195 157.609 117.313 157.609 116.282C157.612 115.251 157.758 114.374 158.048 113.651C158.34 112.924 158.757 112.37 159.299 111.989C159.843 111.607 160.494 111.416 161.251 111.416C162.008 111.416 162.659 111.607 163.204 111.989C163.749 112.37 164.166 112.924 164.455 113.651C164.748 114.377 164.894 115.254 164.894 116.282C164.894 117.316 164.748 118.199 164.455 118.932C164.166 119.661 163.749 120.218 163.204 120.603C162.662 120.988 162.012 121.18 161.251 121.18ZM161.251 119.735C161.842 119.735 162.309 119.444 162.65 118.863C162.995 118.278 163.167 117.418 163.167 116.282C163.167 115.531 163.089 114.9 162.932 114.389C162.775 113.878 162.553 113.494 162.267 113.235C161.981 112.973 161.642 112.843 161.251 112.843C160.664 112.843 160.199 113.135 159.857 113.72C159.516 114.301 159.343 115.156 159.34 116.282C159.337 117.036 159.412 117.67 159.566 118.184C159.723 118.698 159.945 119.086 160.231 119.347C160.517 119.606 160.857 119.735 161.251 119.735ZM171.483 119.227V118.729C171.483 118.362 171.56 118.025 171.713 117.718C171.87 117.41 172.098 117.162 172.397 116.974C172.695 116.787 173.057 116.693 173.482 116.693C173.919 116.693 174.285 116.787 174.58 116.974C174.876 117.159 175.099 117.405 175.25 117.713C175.404 118.021 175.481 118.359 175.481 118.729V119.227C175.481 119.594 175.404 119.931 175.25 120.238C175.096 120.546 174.87 120.794 174.571 120.982C174.276 121.169 173.912 121.263 173.482 121.263C173.051 121.263 172.686 121.169 172.387 120.982C172.089 120.794 171.863 120.546 171.709 120.238C171.558 119.931 171.483 119.594 171.483 119.227ZM172.688 118.729V119.227C172.688 119.47 172.746 119.694 172.863 119.897C172.98 120.1 173.186 120.201 173.482 120.201C173.78 120.201 173.985 120.101 174.096 119.901C174.209 119.698 174.266 119.473 174.266 119.227V118.729C174.266 118.482 174.213 118.258 174.105 118.055C173.997 117.848 173.789 117.745 173.482 117.745C173.192 117.745 172.988 117.848 172.868 118.055C172.748 118.258 172.688 118.482 172.688 118.729ZM166.677 113.817V113.318C166.677 112.949 166.755 112.61 166.912 112.303C167.069 111.995 167.297 111.749 167.596 111.564C167.894 111.376 168.256 111.282 168.68 111.282C169.114 111.282 169.479 111.376 169.775 111.564C170.073 111.749 170.298 111.995 170.449 112.303C170.599 112.61 170.675 112.949 170.675 113.318V113.817C170.675 114.186 170.598 114.525 170.444 114.832C170.293 115.137 170.068 115.382 169.77 115.566C169.471 115.751 169.108 115.843 168.68 115.843C168.246 115.843 167.88 115.751 167.582 115.566C167.286 115.382 167.062 115.136 166.908 114.828C166.754 114.52 166.677 114.183 166.677 113.817ZM167.891 113.318V113.817C167.891 114.063 167.948 114.288 168.062 114.491C168.179 114.691 168.385 114.791 168.68 114.791C168.976 114.791 169.179 114.691 169.29 114.491C169.404 114.288 169.461 114.063 169.461 113.817V113.318C169.461 113.072 169.407 112.847 169.299 112.644C169.191 112.438 168.985 112.335 168.68 112.335C168.388 112.335 168.183 112.438 168.066 112.644C167.949 112.85 167.891 113.075 167.891 113.318ZM167.203 121L173.703 111.545H174.857L168.357 121H167.203Z" fill="white"/>
<rect x="207.5" y="188" width="48" height="67" rx="5" fill="black" fill-opacity="0.06"/>
<path d="M221.694 207.129C221.078 207.129 220.528 207.014 220.041 206.783C219.555 206.549 219.169 206.229 218.883 205.823C218.599 205.417 218.449 204.952 218.43 204.429H220.092C220.123 204.816 220.291 205.133 220.595 205.38C220.9 205.623 221.266 205.744 221.694 205.744C222.029 205.744 222.328 205.667 222.59 205.513C222.851 205.36 223.057 205.146 223.208 204.872C223.359 204.598 223.433 204.286 223.43 203.935C223.433 203.578 223.357 203.261 223.204 202.984C223.05 202.707 222.839 202.49 222.571 202.333C222.303 202.173 221.996 202.093 221.648 202.093C221.365 202.09 221.086 202.142 220.812 202.25C220.538 202.357 220.321 202.499 220.161 202.674L218.615 202.42L219.109 197.545H224.593V198.977H220.526L220.254 201.483H220.309C220.485 201.277 220.732 201.106 221.052 200.971C221.372 200.832 221.723 200.763 222.105 200.763C222.677 200.763 223.188 200.899 223.638 201.169C224.087 201.437 224.441 201.806 224.699 202.277C224.958 202.748 225.087 203.287 225.087 203.893C225.087 204.518 224.942 205.075 224.653 205.564C224.367 206.051 223.968 206.434 223.458 206.714C222.95 206.991 222.362 207.129 221.694 207.129ZM230.128 207.18C229.368 207.18 228.716 206.988 228.171 206.603C227.629 206.215 227.212 205.657 226.92 204.927C226.631 204.195 226.486 203.313 226.486 202.282C226.489 201.251 226.635 200.374 226.924 199.651C227.217 198.924 227.634 198.37 228.176 197.989C228.72 197.607 229.371 197.416 230.128 197.416C230.885 197.416 231.536 197.607 232.081 197.989C232.626 198.37 233.043 198.924 233.332 199.651C233.625 200.377 233.771 201.254 233.771 202.282C233.771 203.316 233.625 204.199 233.332 204.932C233.043 205.661 232.626 206.218 232.081 206.603C231.539 206.988 230.889 207.18 230.128 207.18ZM230.128 205.735C230.719 205.735 231.186 205.444 231.527 204.863C231.872 204.278 232.044 203.418 232.044 202.282C232.044 201.531 231.966 200.9 231.809 200.389C231.652 199.878 231.43 199.494 231.144 199.235C230.858 198.973 230.519 198.843 230.128 198.843C229.54 198.843 229.076 199.135 228.734 199.72C228.393 200.301 228.22 201.156 228.217 202.282C228.214 203.036 228.289 203.67 228.443 204.184C228.6 204.698 228.822 205.086 229.108 205.347C229.394 205.606 229.734 205.735 230.128 205.735ZM240.36 205.227V204.729C240.36 204.362 240.437 204.025 240.59 203.718C240.747 203.41 240.975 203.162 241.274 202.974C241.572 202.787 241.934 202.693 242.359 202.693C242.796 202.693 243.162 202.787 243.457 202.974C243.753 203.159 243.976 203.405 244.127 203.713C244.281 204.021 244.357 204.359 244.357 204.729V205.227C244.357 205.594 244.281 205.931 244.127 206.238C243.973 206.546 243.747 206.794 243.448 206.982C243.153 207.169 242.789 207.263 242.359 207.263C241.928 207.263 241.563 207.169 241.264 206.982C240.966 206.794 240.74 206.546 240.586 206.238C240.435 205.931 240.36 205.594 240.36 205.227ZM241.564 204.729V205.227C241.564 205.47 241.623 205.694 241.74 205.897C241.857 206.1 242.063 206.201 242.359 206.201C242.657 206.201 242.862 206.101 242.973 205.901C243.086 205.698 243.143 205.473 243.143 205.227V204.729C243.143 204.482 243.089 204.258 242.982 204.055C242.874 203.848 242.666 203.745 242.359 203.745C242.069 203.745 241.865 203.848 241.745 204.055C241.625 204.258 241.564 204.482 241.564 204.729ZM235.554 199.817V199.318C235.554 198.949 235.632 198.61 235.789 198.303C235.946 197.995 236.174 197.749 236.473 197.564C236.771 197.376 237.133 197.282 237.557 197.282C237.991 197.282 238.356 197.376 238.652 197.564C238.95 197.749 239.175 197.995 239.326 198.303C239.476 198.61 239.552 198.949 239.552 199.318V199.817C239.552 200.186 239.475 200.525 239.321 200.832C239.17 201.137 238.945 201.382 238.647 201.566C238.348 201.751 237.985 201.843 237.557 201.843C237.123 201.843 236.757 201.751 236.459 201.566C236.163 201.382 235.939 201.136 235.785 200.828C235.631 200.52 235.554 200.183 235.554 199.817ZM236.768 199.318V199.817C236.768 200.063 236.825 200.288 236.939 200.491C237.056 200.691 237.262 200.791 237.557 200.791C237.853 200.791 238.056 200.691 238.167 200.491C238.281 200.288 238.338 200.063 238.338 199.817V199.318C238.338 199.072 238.284 198.847 238.176 198.644C238.068 198.438 237.862 198.335 237.557 198.335C237.265 198.335 237.06 198.438 236.943 198.644C236.826 198.85 236.768 199.075 236.768 199.318ZM236.08 207L242.58 197.545H243.734L237.234 207H236.08Z" fill="black"/>
<line opacity="0.3" x1="84.5" y1="258.5" x2="404.5" y2="258.5" stroke="black"/>
<line opacity="0.3" x1="100" y1="275" x2="100" y2="79" stroke="black"/>
<path d="M158.558 270.545H160.271V276.722C160.271 277.399 160.111 277.995 159.791 278.509C159.474 279.023 159.027 279.424 158.452 279.714C157.876 280 157.204 280.143 156.434 280.143C155.662 280.143 154.988 280 154.412 279.714C153.837 279.424 153.391 279.023 153.074 278.509C152.757 277.995 152.598 277.399 152.598 276.722V270.545H154.311V276.579C154.311 276.973 154.397 277.324 154.569 277.632C154.745 277.94 154.991 278.181 155.308 278.357C155.625 278.529 156 278.615 156.434 278.615C156.868 278.615 157.244 278.529 157.561 278.357C157.881 278.181 158.127 277.94 158.299 277.632C158.472 277.324 158.558 276.973 158.558 276.579V270.545ZM167.663 274.783L166.139 274.95C166.096 274.796 166.021 274.651 165.913 274.516C165.808 274.38 165.667 274.271 165.488 274.188C165.31 274.105 165.091 274.063 164.833 274.063C164.485 274.063 164.193 274.139 163.956 274.289C163.722 274.44 163.606 274.636 163.61 274.876C163.606 275.082 163.682 275.25 163.836 275.379C163.993 275.508 164.251 275.614 164.611 275.697L165.821 275.956C166.492 276.101 166.99 276.33 167.317 276.644C167.646 276.958 167.812 277.369 167.815 277.876C167.812 278.323 167.681 278.717 167.423 279.058C167.167 279.397 166.812 279.661 166.356 279.852C165.901 280.043 165.378 280.138 164.787 280.138C163.919 280.138 163.22 279.957 162.691 279.594C162.161 279.228 161.846 278.718 161.744 278.066L163.374 277.909C163.448 278.229 163.605 278.47 163.845 278.634C164.085 278.797 164.397 278.878 164.782 278.878C165.179 278.878 165.498 278.797 165.738 278.634C165.981 278.47 166.102 278.269 166.102 278.029C166.102 277.826 166.024 277.658 165.867 277.526C165.713 277.393 165.473 277.292 165.147 277.221L163.937 276.967C163.257 276.825 162.754 276.587 162.428 276.251C162.101 275.913 161.94 275.485 161.943 274.968C161.94 274.531 162.058 274.152 162.298 273.832C162.542 273.509 162.879 273.26 163.309 273.085C163.743 272.906 164.244 272.817 164.81 272.817C165.641 272.817 166.295 272.994 166.772 273.348C167.252 273.702 167.549 274.18 167.663 274.783Z" fill="black"/>
<path d="M219.318 275.273C219.318 276.291 219.127 277.164 218.745 277.89C218.367 278.614 217.85 279.167 217.194 279.552C216.542 279.937 215.801 280.129 214.974 280.129C214.146 280.129 213.404 279.937 212.748 279.552C212.096 279.164 211.579 278.609 211.197 277.886C210.819 277.159 210.629 276.288 210.629 275.273C210.629 274.254 210.819 273.383 211.197 272.66C211.579 271.933 212.096 271.378 212.748 270.993C213.404 270.609 214.146 270.416 214.974 270.416C215.801 270.416 216.542 270.609 217.194 270.993C217.85 271.378 218.367 271.933 218.745 272.66C219.127 273.383 219.318 274.254 219.318 275.273ZM217.596 275.273C217.596 274.556 217.483 273.951 217.259 273.458C217.037 272.963 216.729 272.589 216.335 272.337C215.942 272.081 215.488 271.953 214.974 271.953C214.46 271.953 214.006 272.081 213.612 272.337C213.218 272.589 212.908 272.963 212.684 273.458C212.462 273.951 212.351 274.556 212.351 275.273C212.351 275.99 212.462 276.596 212.684 277.092C212.908 277.584 213.218 277.958 213.612 278.213C214.006 278.466 214.46 278.592 214.974 278.592C215.488 278.592 215.942 278.466 216.335 278.213C216.729 277.958 217.037 277.584 217.259 277.092C217.483 276.596 217.596 275.99 217.596 275.273ZM224.404 272.909V274.202H220.328V272.909H224.404ZM221.334 271.21H223.005V277.867C223.005 278.092 223.039 278.264 223.107 278.384C223.177 278.501 223.27 278.581 223.384 278.624C223.498 278.667 223.624 278.689 223.762 278.689C223.867 278.689 223.962 278.681 224.048 278.666C224.138 278.65 224.205 278.637 224.252 278.624L224.533 279.931C224.444 279.962 224.316 279.995 224.15 280.032C223.987 280.069 223.787 280.091 223.55 280.097C223.131 280.109 222.754 280.046 222.419 279.908C222.083 279.766 221.817 279.548 221.62 279.252C221.426 278.957 221.331 278.587 221.334 278.144V271.21ZM227.625 275.845V280H225.954V270.545H227.588V274.114H227.671C227.837 273.714 228.094 273.398 228.442 273.168C228.793 272.934 229.239 272.817 229.781 272.817C230.273 272.817 230.703 272.92 231.069 273.126C231.435 273.332 231.718 273.634 231.918 274.031C232.121 274.428 232.223 274.913 232.223 275.485V280H230.552V275.744C230.552 275.267 230.429 274.896 230.183 274.631C229.939 274.363 229.598 274.229 229.158 274.229C228.862 274.229 228.598 274.294 228.364 274.423C228.133 274.549 227.951 274.733 227.819 274.973C227.69 275.213 227.625 275.504 227.625 275.845ZM237.066 280.138C236.355 280.138 235.741 279.991 235.224 279.695C234.71 279.397 234.314 278.975 234.037 278.43C233.76 277.883 233.622 277.238 233.622 276.496C233.622 275.767 233.76 275.127 234.037 274.576C234.317 274.022 234.708 273.591 235.21 273.283C235.712 272.972 236.301 272.817 236.978 272.817C237.415 272.817 237.827 272.888 238.215 273.029C238.606 273.168 238.951 273.383 239.249 273.675C239.551 273.968 239.788 274.34 239.96 274.793C240.133 275.242 240.219 275.777 240.219 276.399V276.912H234.407V275.785H238.617C238.614 275.465 238.545 275.18 238.409 274.931C238.274 274.679 238.084 274.48 237.841 274.336C237.601 274.191 237.321 274.119 237.001 274.119C236.659 274.119 236.359 274.202 236.101 274.368C235.842 274.531 235.641 274.746 235.496 275.014C235.355 275.279 235.282 275.57 235.279 275.887V276.87C235.279 277.282 235.355 277.636 235.505 277.932C235.656 278.224 235.867 278.449 236.138 278.606C236.409 278.76 236.726 278.837 237.089 278.837C237.332 278.837 237.552 278.803 237.749 278.735C237.946 278.664 238.117 278.561 238.261 278.426C238.406 278.29 238.515 278.123 238.589 277.923L240.15 278.098C240.051 278.51 239.863 278.871 239.586 279.178C239.312 279.483 238.962 279.72 238.534 279.889C238.106 280.055 237.617 280.138 237.066 280.138ZM241.633 280V272.909H243.253V274.091H243.327C243.456 273.682 243.678 273.366 243.992 273.145C244.309 272.92 244.67 272.808 245.076 272.808C245.169 272.808 245.272 272.812 245.386 272.821C245.503 272.828 245.6 272.838 245.677 272.854V274.391C245.606 274.366 245.494 274.345 245.34 274.326C245.189 274.305 245.043 274.294 244.901 274.294C244.596 274.294 244.322 274.36 244.079 274.493C243.839 274.622 243.65 274.802 243.511 275.033C243.373 275.263 243.304 275.53 243.304 275.831V280H241.633ZM252.391 274.783L250.868 274.95C250.825 274.796 250.749 274.651 250.642 274.516C250.537 274.38 250.395 274.271 250.217 274.188C250.038 274.105 249.82 274.063 249.561 274.063C249.214 274.063 248.921 274.139 248.684 274.289C248.45 274.44 248.335 274.636 248.338 274.876C248.335 275.082 248.41 275.25 248.564 275.379C248.721 275.508 248.98 275.614 249.34 275.697L250.549 275.956C251.22 276.101 251.719 276.33 252.045 276.644C252.374 276.958 252.541 277.369 252.544 277.876C252.541 278.323 252.41 278.717 252.151 279.058C251.896 279.397 251.54 279.661 251.085 279.852C250.629 280.043 250.106 280.138 249.515 280.138C248.647 280.138 247.949 279.957 247.419 279.594C246.89 279.228 246.575 278.718 246.473 278.066L248.103 277.909C248.176 278.229 248.333 278.47 248.573 278.634C248.814 278.797 249.126 278.878 249.511 278.878C249.908 278.878 250.226 278.797 250.466 278.634C250.709 278.47 250.831 278.269 250.831 278.029C250.831 277.826 250.752 277.658 250.595 277.526C250.442 277.393 250.202 277.292 249.875 277.221L248.666 276.967C247.986 276.825 247.482 276.587 247.156 276.251C246.83 275.913 246.668 275.485 246.671 274.968C246.668 274.531 246.787 274.152 247.027 273.832C247.27 273.509 247.607 273.26 248.038 273.085C248.472 272.906 248.972 272.817 249.538 272.817C250.369 272.817 251.023 272.994 251.5 273.348C251.98 273.702 252.277 274.18 252.391 274.783Z" fill="black"/>
</g>
<path d="M129.553 37.1129C128.695 33.9121 130.595 30.6221 133.796 29.7645L239.081 1.55319C242.282 0.695543 245.572 2.59504 246.43 5.79583L252.642 28.9781C253.499 32.1789 251.6 35.4689 248.399 36.3265L137.317 66.0907L129.553 37.1129Z" fill="white"/>
<path d="M130.036 36.9835C129.25 34.0495 130.991 31.0336 133.925 30.2474L239.211 2.03616C242.145 1.24998 245.161 2.99118 245.947 5.92524L252.159 29.1075C252.945 32.0415 251.204 35.0574 248.27 35.8436L137.671 65.4783L130.036 36.9835Z" stroke="black" stroke-opacity="0.1"/>
<path d="M161.108 41.3627C161.372 42.3467 161.414 43.2389 161.233 44.0393C161.055 44.8358 160.698 45.5048 160.165 46.046C159.634 46.5865 158.969 46.9639 158.169 47.1781C157.37 47.3924 156.603 47.3986 155.871 47.1966C155.14 46.9909 154.497 46.5882 153.941 45.9883C153.387 45.3847 152.979 44.5924 152.716 43.6114C152.453 42.6274 152.41 41.7371 152.588 40.9406C152.769 40.1402 153.125 39.4698 153.655 38.9293C154.189 38.3881 154.856 38.0103 155.655 37.796C156.455 37.5818 157.22 37.576 157.95 37.7787C158.682 37.9806 159.326 38.3834 159.879 38.987C160.435 39.5868 160.845 40.3788 161.108 41.3627ZM159.445 41.8084C159.26 41.1158 158.995 40.5607 158.65 40.1432C158.308 39.7219 157.914 39.4404 157.468 39.2986C157.021 39.1538 156.55 39.1479 156.053 39.2809C155.557 39.414 155.151 39.6548 154.837 40.0035C154.522 40.3493 154.32 40.7905 154.231 41.3273C154.144 41.8603 154.194 42.4731 154.38 43.1657C154.565 43.8584 154.829 44.4154 155.171 44.8366C155.516 45.2541 155.911 45.5353 156.358 45.6801C156.804 45.8219 157.275 45.8263 157.771 45.6932C158.268 45.5602 158.674 45.3208 158.989 44.9751C159.303 44.6264 159.504 44.1856 159.59 43.6526C159.679 43.1158 159.631 42.5011 159.445 41.8084ZM164.513 48.0975L161.989 38.6797L163.577 38.2543L163.88 39.3869L163.974 39.3619C164.013 39.1731 164.083 38.9647 164.184 38.7368C164.285 38.5059 164.446 38.289 164.669 38.0859C164.891 37.8798 165.203 37.723 165.604 37.6155C166.133 37.4737 166.647 37.4811 167.144 37.6378C167.644 37.7906 168.089 38.0967 168.48 38.5559C168.873 39.0114 169.171 39.6197 169.375 40.3807C169.577 41.1329 169.625 41.8051 169.519 42.3974C169.413 42.9896 169.185 43.481 168.834 43.8714C168.483 44.2617 168.038 44.529 167.5 44.6732C167.108 44.7783 166.765 44.8002 166.471 44.7387C166.177 44.6772 165.927 44.5754 165.72 44.4333C165.515 44.2874 165.347 44.1428 165.217 43.9994L165.15 44.0173L166.127 47.6649L164.513 48.0975ZM164.49 41.6802C164.609 42.1231 164.775 42.4943 164.989 42.7938C165.206 43.0925 165.459 43.3037 165.747 43.4272C166.037 43.547 166.353 43.5611 166.695 43.4695C167.052 43.3739 167.325 43.1987 167.515 42.9439C167.704 42.6862 167.815 42.3745 167.847 42.0089C167.882 41.6395 167.842 41.2408 167.727 40.8127C167.613 40.3876 167.451 40.0264 167.241 39.7291C167.031 39.4317 166.78 39.2217 166.489 39.0989C166.198 38.9762 165.873 38.963 165.513 39.0594C165.168 39.1518 164.9 39.3209 164.708 39.5668C164.515 39.8126 164.401 40.1158 164.363 40.4762C164.329 40.8359 164.371 41.2372 164.49 41.6802ZM173.258 35.6603L173.592 36.9089L169.655 37.9639L169.32 36.7154L173.258 35.6603ZM169.853 34.8139L171.467 34.3814L173.19 40.8115C173.248 41.0285 173.325 41.1863 173.422 41.2847C173.52 41.3793 173.63 41.4327 173.751 41.4449C173.873 41.457 174 41.4452 174.134 41.4093C174.235 41.3822 174.325 41.3501 174.404 41.3129C174.487 41.275 174.548 41.2441 174.59 41.2202L175.2 42.4093C175.122 42.4621 175.007 42.5279 174.856 42.6066C174.708 42.6845 174.52 42.757 174.293 42.8243C173.892 42.9445 173.512 42.9812 173.152 42.9342C172.791 42.8843 172.477 42.7421 172.211 42.5077C171.947 42.2725 171.759 41.9405 171.647 41.5116L169.853 34.8139ZM176.443 42.1479L174.608 35.2986L176.222 34.8661L178.057 41.7154L176.443 42.1479ZM175.159 34.109C174.903 34.1775 174.66 34.1518 174.431 34.0317C174.2 33.9087 174.053 33.7268 173.988 33.486C173.923 33.2422 173.96 33.0109 174.099 32.7921C174.237 32.5702 174.434 32.4251 174.689 32.3566C174.948 32.2873 175.191 32.3146 175.419 32.4384C175.648 32.5584 175.796 32.7404 175.861 32.9841C175.926 33.2249 175.889 33.4562 175.751 33.678C175.615 33.8961 175.417 34.0397 175.159 34.109ZM179.717 41.2706L177.882 34.4213L179.425 34.0079L179.737 35.1717L179.817 35.1502C179.854 34.7196 180.009 34.3501 180.28 34.0417C180.55 33.7303 180.914 33.5133 181.372 33.3906C181.836 33.2663 182.257 33.2745 182.635 33.4152C183.016 33.5522 183.324 33.7963 183.558 34.1478L183.629 34.1286C183.679 33.7075 183.854 33.3358 184.153 33.0135C184.454 32.6874 184.853 32.4578 185.349 32.3248C185.98 32.1559 186.547 32.2173 187.052 32.5089C187.557 32.8005 187.912 33.3283 188.117 34.0923L189.349 38.6898L187.73 39.1235L186.565 34.7758C186.451 34.3507 186.255 34.0703 185.977 33.9346C185.697 33.796 185.394 33.7705 185.067 33.8581C184.678 33.9624 184.406 34.166 184.251 34.4687C184.099 34.7676 184.074 35.1103 184.178 35.4968L185.322 39.7687L183.739 40.1929L182.556 35.7783C182.462 35.4245 182.279 35.1708 182.008 35.0171C181.741 34.8625 181.436 34.8311 181.094 34.9227C180.862 34.9848 180.667 35.1008 180.509 35.2707C180.35 35.4376 180.242 35.6433 180.187 35.8876C180.13 36.1289 180.14 36.3908 180.215 36.6732L181.331 40.8381L179.717 41.2706ZM190.987 38.2509L189.151 31.4017L190.766 30.9691L192.601 37.8184L190.987 38.2509ZM189.702 30.2121C189.447 30.2806 189.204 30.2548 188.974 30.1348C188.744 30.0117 188.596 29.8298 188.532 29.589C188.466 29.3452 188.503 29.1139 188.642 28.8951C188.78 28.6733 188.977 28.5281 189.233 28.4596C189.491 28.3903 189.735 28.4176 189.962 28.5414C190.192 28.6615 190.339 28.8434 190.405 29.0872C190.469 29.328 190.432 29.5593 190.294 29.7811C190.158 29.9991 189.961 30.1428 189.702 30.2121ZM194.172 37.3975L193.897 36.3719L196.242 30.9977L196.226 30.9397L192.811 31.8549L192.452 30.5172L197.843 29.0726L198.139 30.174L195.942 35.4271L195.958 35.4851L199.436 34.5531L199.795 35.8909L194.172 37.3975ZM203.32 35.0944C202.886 35.2107 202.474 35.2382 202.085 35.1768C201.698 35.1116 201.362 34.953 201.078 34.701C200.797 34.4482 200.596 34.0973 200.476 33.6484C200.372 33.262 200.358 32.9233 200.433 32.6324C200.508 32.3414 200.648 32.0871 200.855 31.8694C201.061 31.6517 201.308 31.4627 201.596 31.3026C201.887 31.1387 202.194 30.9943 202.517 30.8694C202.908 30.7203 203.223 30.5959 203.464 30.4963C203.704 30.3937 203.871 30.2916 203.965 30.19C204.061 30.0846 204.089 29.9546 204.047 29.8L204.04 29.7733C203.95 29.4373 203.781 29.2039 203.532 29.073C203.284 28.942 202.972 28.9267 202.597 29.0271C202.202 29.133 201.911 29.3033 201.726 29.5378C201.543 29.7716 201.443 30.0166 201.426 30.273L199.861 30.4628C199.869 30.0148 199.972 29.6144 200.17 29.2617C200.368 28.906 200.646 28.6053 201.004 28.3596C201.361 28.111 201.779 27.9225 202.257 27.7943C202.587 27.7059 202.926 27.6565 203.274 27.6462C203.622 27.6358 203.955 27.6836 204.273 27.7895C204.591 27.8924 204.872 28.0736 205.116 28.333C205.364 28.5916 205.549 28.9483 205.671 29.4032L206.899 33.9872L205.347 34.403L205.095 33.4621L205.042 33.4764C204.995 33.693 204.904 33.9084 204.77 34.1227C204.639 34.3332 204.453 34.5248 204.212 34.6976C203.974 34.8666 203.677 34.9988 203.32 35.0944ZM203.421 33.796C203.745 33.7092 204.009 33.57 204.213 33.3784C204.415 33.1839 204.552 32.9625 204.622 32.7142C204.696 32.4651 204.699 32.2142 204.631 31.9615L204.415 31.1544C204.375 31.2096 204.3 31.2713 204.187 31.3396C204.078 31.4072 203.952 31.4742 203.811 31.5408C203.67 31.6074 203.529 31.6706 203.389 31.7305C203.249 31.7903 203.127 31.842 203.024 31.8855C202.792 31.9828 202.591 32.094 202.42 32.2193C202.25 32.3446 202.128 32.4889 202.054 32.6521C201.979 32.8124 201.969 32.9966 202.025 33.2047C202.105 33.502 202.273 33.6973 202.531 33.7908C202.788 33.8843 203.085 33.886 203.421 33.796ZM210.107 25.7865L210.442 27.0351L206.504 28.0901L206.17 26.8416L210.107 25.7865ZM206.702 24.9401L208.316 24.5076L210.039 30.9377C210.097 31.1547 210.175 31.3125 210.271 31.4109C210.37 31.5055 210.48 31.5589 210.601 31.5711C210.722 31.5832 210.85 31.5714 210.983 31.5355C211.084 31.5084 211.175 31.4763 211.254 31.4391C211.336 31.4012 211.398 31.3703 211.439 31.3464L212.049 32.5355C211.971 32.5883 211.857 32.6541 211.706 32.7328C211.558 32.8107 211.37 32.8832 211.143 32.9505C210.742 33.0707 210.361 33.1074 210.001 33.0604C209.64 33.0105 209.327 32.8683 209.06 32.6339C208.796 32.3987 208.609 32.0667 208.497 31.6378L206.702 24.9401ZM213.293 32.2741L211.457 25.4248L213.071 24.9923L214.907 31.8416L213.293 32.2741ZM212.008 24.2352C211.753 24.3038 211.51 24.278 211.28 24.1579C211.05 24.0349 210.902 23.853 210.838 23.6122C210.772 23.3684 210.809 23.1371 210.948 22.9183C211.086 22.6965 211.283 22.5513 211.539 22.4828C211.797 22.4135 212.04 22.4408 212.268 22.5646C212.498 22.6847 212.645 22.8666 212.711 23.1103C212.775 23.3511 212.738 23.5824 212.6 23.8042C212.464 24.0223 212.267 24.1659 212.008 24.2352ZM219.59 30.73C218.921 30.9093 218.302 30.9174 217.733 30.7546C217.163 30.5917 216.673 30.2819 216.26 29.8252C215.851 29.3678 215.551 28.7853 215.362 28.0778C215.172 27.3702 215.14 26.7146 215.265 26.1108C215.393 25.5061 215.663 24.991 216.074 24.5652C216.486 24.1395 217.026 23.837 217.695 23.6578C218.364 23.4786 218.983 23.4704 219.553 23.6333C220.122 23.7961 220.612 24.1078 221.022 24.5682C221.435 25.0279 221.736 25.6114 221.926 26.319C222.115 27.0265 222.146 27.6811 222.017 28.2827C221.891 28.8836 221.623 29.3969 221.211 29.8226C220.799 30.2483 220.259 30.5508 219.59 30.73ZM219.253 29.4345C219.615 29.3373 219.892 29.1565 220.082 28.892C220.272 28.6245 220.381 28.3054 220.409 27.9346C220.44 27.5631 220.4 27.1692 220.288 26.753C220.176 26.3339 220.013 25.9712 219.801 25.6649C219.59 25.3549 219.336 25.1315 219.038 24.9947C218.74 24.8578 218.41 24.838 218.047 24.9352C217.675 25.0347 217.393 25.2187 217.201 25.4869C217.011 25.7544 216.901 26.0754 216.871 26.4499C216.843 26.8207 216.885 27.2156 216.997 27.6348C217.109 28.051 217.269 28.4126 217.479 28.7196C217.692 29.0259 217.947 29.2474 218.245 29.3842C218.545 29.5173 218.881 29.5341 219.253 29.4345ZM224.745 24.904L225.821 28.9172L224.206 29.3497L222.371 22.5005L223.914 22.087L224.226 23.2509L224.306 23.2294C224.361 22.8037 224.53 22.4317 224.815 22.1133C225.102 21.7942 225.501 21.5661 226.013 21.4291C226.485 21.3025 226.924 21.2932 227.329 21.4014C227.737 21.5087 228.089 21.7283 228.385 22.06C228.684 22.3909 228.905 22.8303 229.049 23.378L230.217 27.7391L228.603 28.1716L227.501 24.0603C227.379 23.6025 227.164 23.2761 226.857 23.0812C226.553 22.8855 226.192 22.8434 225.776 22.9549C225.494 23.0306 225.259 23.1603 225.073 23.3441C224.888 23.5242 224.765 23.7469 224.702 24.0122C224.642 24.2767 224.657 24.574 224.745 24.904Z" fill="black"/>
<defs>
<filter id="filter0_ddddi_332_1121" x="0.959266" y="46.7296" width="442.081" height="282.081" filterUnits="userSpaceOnUse" color-interpolation-filters="sRGB">
<feFlood flood-opacity="0" result="BackgroundImageFix"/>
<feColorMatrix in="SourceAlpha" type="matrix" values="0 0 0 0 0 0 0 0 0 0 0 0 0 0 0 0 0 0 127 0" result="hardAlpha"/>
<feMorphology radius="55.4366" operator="erode" in="SourceAlpha" result="effect1_dropShadow_332_1121"/>
<feOffset/>
<feComposite in2="hardAlpha" operator="out"/>
<feColorMatrix type="matrix" values="0 0 0 0 0 0 0 0 0 0 0 0 0 0 0 0 0 0 0.04 0"/>
<feBlend mode="normal" in2="BackgroundImageFix" result="effect1_dropShadow_332_1121"/>
<feColorMatrix in="SourceAlpha" type="matrix" values="0 0 0 0 0 0 0 0 0 0 0 0 0 0 0 0 0 0 127 0" result="hardAlpha"/>
<feOffset dy="1.81759"/>
<feGaussianBlur stdDeviation="1.81759"/>
<feComposite in2="hardAlpha" operator="out"/>
<feColorMatrix type="matrix" values="0 0 0 0 0 0 0 0 0 0 0 0 0 0 0 0 0 0 0.12 0"/>
<feBlend mode="normal" in2="effect1_dropShadow_332_1121" result="effect2_dropShadow_332_1121"/>
<feColorMatrix in="SourceAlpha" type="matrix" values="0 0 0 0 0 0 0 0 0 0 0 0 0 0 0 0 0 0 127 0" result="hardAlpha"/>
<feOffset dy="0.908796"/>
<feGaussianBlur stdDeviation="0.454398"/>
<feComposite in2="hardAlpha" operator="out"/>
<feColorMatrix type="matrix" values="0 0 0 0 0 0 0 0 0 0 0 0 0 0 0 0 0 0 0.08 0"/>
<feBlend mode="normal" in2="effect2_dropShadow_332_1121" result="effect3_dropShadow_332_1121"/>
<feColorMatrix in="SourceAlpha" type="matrix" values="0 0 0 0 0 0 0 0 0 0 0 0 0 0 0 0 0 0 127 0" result="hardAlpha"/>
<feOffset dy="7.27037"/>
<feGaussianBlur stdDeviation="7.27037"/>
<feComposite in2="hardAlpha" operator="out"/>
<feColorMatrix type="matrix" values="0 0 0 0 0.117647 0 0 0 0 0.117647 0 0 0 0 0.117647 0 0 0 0.06 0"/>
<feBlend mode="normal" in2="effect3_dropShadow_332_1121" result="effect4_dropShadow_332_1121"/>
<feBlend mode="normal" in="SourceGraphic" in2="effect4_dropShadow_332_1121" result="shape"/>
<feColorMatrix in="SourceAlpha" type="matrix" values="0 0 0 0 0 0 0 0 0 0 0 0 0 0 0 0 0 0 127 0" result="hardAlpha"/>
<feOffset dy="-5.45277"/>
<feGaussianBlur stdDeviation="4.99838"/>
<feComposite in2="hardAlpha" operator="arithmetic" k2="-1" k3="1"/>
<feColorMatrix type="matrix" values="0 0 0 0 0.956863 0 0 0 0 0.960784 0 0 0 0 0.960784 0 0 0 1 0"/>
<feBlend mode="normal" in2="shape" result="effect5_innerShadow_332_1121"/>
</filter>
<linearGradient id="paint0_linear_332_1121" x1="159.5" y1="78" x2="159.5" y2="255" gradientUnits="userSpaceOnUse">
<stop stop-color="#4800FF"/>
<stop offset="1" stop-color="#D4C3FF"/>
</linearGradient>
</defs>
</svg>
