<svg width="452" height="311" viewBox="0 0 452 311" fill="none" xmlns="http://www.w3.org/2000/svg">
<g clip-path="url(#clip0_330_2454)">
<path d="M0 12C0 5.37258 5.37258 0 12 0H440C446.627 0 452 5.37258 452 12V311H0V12Z" fill="white"/>
<g clip-path="url(#clip1_330_2454)">
<g filter="url(#filter0_d_330_2454)">
<rect width="452" height="311" rx="5" fill="white"/>
</g>
<g clip-path="url(#clip2_330_2454)">
<path d="M75 60H411" stroke="#18181B" stroke-opacity="0.12"/>
<path d="M75 112H411" stroke="#18181B" stroke-opacity="0.12"/>
<path d="M75 164H411" stroke="#18181B" stroke-opacity="0.12"/>
<path d="M75 216H411" stroke="#18181B" stroke-opacity="0.12"/>
<path d="M75 268H411" stroke="#18181B" stroke-opacity="0.12"/>
<path d="M79 205C79 205 116.008 124 145.918 124C175.828 124 184.954 169 210.301 169C235.649 169 246 81.9999 268.5 131.5C291 181 316.4 196 348.7 140.5C381 85 404 83 404 83" stroke="#16A34A" stroke-width="2" stroke-linecap="round"/>
<path d="M145.33 123.086C115.235 123.086 78 204.255 78 204.255V322H405V202V82C405 82 381.858 84.0042 349.36 139.62C316.861 195.236 291.305 180.205 268.666 130.601C246.028 80.9979 235.613 168.179 210.109 168.179C184.606 168.179 175.424 123.086 145.33 123.086Z" fill="#16A34A" fill-opacity="0.1"/>
</g>
<path d="M36.2727 198.041L36.2727 196.443L43.0568 193.665L43.0568 193.562L36.2727 190.784L36.2727 189.186L45 189.186L45 190.439L38.6847 190.439L38.6847 190.52L44.9872 193.094L44.9872 194.134L38.6804 196.707L38.6804 196.788L45 196.788L45 198.041L36.2727 198.041ZM45.1321 184.793C45.1321 185.438 44.9943 185.993 44.7187 186.459C44.4403 186.922 44.0497 187.28 43.5469 187.533C43.0412 187.783 42.4489 187.908 41.7699 187.908C41.0994 187.908 40.5085 187.783 39.9972 187.533C39.4858 187.28 39.0866 186.928 38.7997 186.476C38.5128 186.022 38.3693 185.49 38.3693 184.882C38.3693 184.513 38.4304 184.155 38.5526 183.809C38.6747 183.462 38.8665 183.151 39.1278 182.875C39.3892 182.6 39.7287 182.382 40.1463 182.223C40.5611 182.064 41.0653 181.985 41.6591 181.985L42.1108 181.985L42.1108 187.188L41.1562 187.188L41.1562 183.233C40.821 183.233 40.5241 183.301 40.2656 183.438C40.0043 183.574 39.7983 183.766 39.6477 184.013C39.4972 184.257 39.4219 184.544 39.4219 184.874C39.4219 185.232 39.5099 185.544 39.6861 185.811C39.8594 186.076 40.0866 186.28 40.3679 186.425C40.6463 186.567 40.9489 186.638 41.2756 186.638L42.0213 186.638C42.4588 186.638 42.831 186.561 43.1378 186.408C43.4446 186.252 43.679 186.034 43.8409 185.756C44 185.478 44.0795 185.152 44.0795 184.78C44.0795 184.539 44.0455 184.318 43.9773 184.12C43.9062 183.921 43.8011 183.749 43.6619 183.604C43.5227 183.459 43.3509 183.348 43.1463 183.272L43.3636 182.066C43.7187 182.162 44.0298 182.336 44.2969 182.586C44.5611 182.833 44.767 183.144 44.9148 183.519C45.0597 183.891 45.1321 184.316 45.1321 184.793ZM45.1321 177.99C45.1321 178.635 44.9943 179.19 44.7187 179.656C44.4403 180.119 44.0497 180.477 43.5469 180.73C43.0412 180.98 42.4489 181.105 41.7699 181.105C41.0994 181.105 40.5085 180.98 39.9972 180.73C39.4858 180.477 39.0866 180.125 38.7997 179.673C38.5128 179.219 38.3693 178.687 38.3693 178.079C38.3693 177.71 38.4304 177.352 38.5526 177.006C38.6747 176.659 38.8665 176.348 39.1278 176.072C39.3892 175.797 39.7287 175.579 40.1463 175.42C40.5611 175.261 41.0653 175.182 41.6591 175.182L42.1108 175.182L42.1108 180.385L41.1562 180.385L41.1562 176.43C40.821 176.43 40.5241 176.498 40.2656 176.635C40.0043 176.771 39.7983 176.963 39.6477 177.21C39.4972 177.454 39.4219 177.741 39.4219 178.071C39.4219 178.429 39.5099 178.741 39.6861 179.008C39.8594 179.273 40.0866 179.477 40.3679 179.622C40.6463 179.764 40.9489 179.835 41.2756 179.835L42.0213 179.835C42.4588 179.835 42.831 179.758 43.1378 179.605C43.4446 179.449 43.679 179.231 43.8409 178.953C44 178.675 44.0795 178.349 44.0795 177.977C44.0795 177.736 44.0455 177.516 43.9773 177.317C43.9062 177.118 43.8011 176.946 43.6619 176.801C43.5227 176.656 43.3509 176.545 43.1463 176.469L43.3636 175.263C43.7187 175.359 44.0298 175.533 44.2969 175.783C44.5611 176.03 44.767 176.341 44.9148 176.716C45.0597 177.088 45.1321 177.513 45.1321 177.99ZM38.4545 170.953L39.4773 170.953L39.4773 174.528L38.4545 174.528L38.4545 170.953ZM36.8864 173.569L36.8864 172.295L43.0781 172.295C43.3253 172.295 43.5114 172.258 43.6364 172.184C43.7585 172.11 43.8423 172.015 43.8878 171.899C43.9304 171.779 43.9517 171.65 43.9517 171.511C43.9517 171.409 43.9446 171.319 43.9304 171.242C43.9162 171.166 43.9048 171.106 43.8963 171.063L44.9489 170.833C44.9773 170.907 45.0057 171.012 45.0341 171.149C45.0653 171.285 45.0824 171.455 45.0852 171.66C45.0909 171.995 45.0312 172.308 44.9062 172.597C44.7812 172.887 44.5881 173.122 44.3267 173.301C44.0653 173.48 43.7372 173.569 43.3423 173.569L36.8864 173.569ZM45 169.783L38.4545 169.783L38.4545 168.509L45 168.509L45 169.783ZM37.4446 169.14C37.4446 169.361 37.3707 169.552 37.223 169.711C37.0724 169.867 36.8935 169.945 36.6861 169.945C36.4759 169.945 36.2969 169.867 36.1491 169.711C35.9986 169.552 35.9233 169.361 35.9233 169.14C35.9233 168.918 35.9986 168.729 36.1491 168.573C36.2969 168.414 36.4759 168.334 36.6861 168.334C36.8935 168.334 37.0724 168.414 37.223 168.573C37.3707 168.729 37.4446 168.918 37.4446 169.14ZM41.1136 165.761L45 165.761L45 167.035L38.4545 167.035L38.4545 165.812L39.5199 165.812L39.5199 165.731C39.1733 165.58 38.8949 165.345 38.6847 165.024C38.4744 164.7 38.3693 164.292 38.3693 163.8C38.3693 163.354 38.4631 162.964 38.6506 162.629C38.8352 162.293 39.1108 162.033 39.4773 161.849C39.8437 161.664 40.2969 161.572 40.8366 161.572L45 161.572L45 162.846L40.9901 162.846C40.5156 162.846 40.1449 162.97 39.8778 163.217C39.608 163.464 39.473 163.803 39.473 164.235C39.473 164.531 39.5369 164.793 39.6648 165.024C39.7926 165.251 39.9801 165.431 40.2273 165.565C40.4716 165.695 40.767 165.761 41.1136 165.761ZM47.5909 157.359C47.5909 157.879 47.5227 158.326 47.3864 158.701C47.25 159.073 47.0696 159.377 46.8452 159.613C46.6207 159.849 46.375 160.025 46.108 160.141L45.6562 159.046C45.7812 158.969 45.9134 158.867 46.0526 158.739C46.1946 158.609 46.3153 158.433 46.4148 158.211C46.5142 157.987 46.5639 157.698 46.5639 157.346C46.5639 156.863 46.446 156.464 46.2102 156.148C45.9773 155.833 45.6051 155.675 45.0937 155.675L43.8068 155.675L43.8068 155.756C43.946 155.833 44.1009 155.944 44.2713 156.089C44.4418 156.231 44.5895 156.427 44.7145 156.677C44.8395 156.927 44.902 157.252 44.902 157.653C44.902 158.17 44.7812 158.636 44.5398 159.05C44.2955 159.462 43.9361 159.789 43.4616 160.031C42.9844 160.269 42.3977 160.389 41.7017 160.389C41.0057 160.389 40.4091 160.271 39.9119 160.035C39.4148 159.796 39.0341 159.469 38.7699 159.055C38.5028 158.64 38.3693 158.17 38.3693 157.644C38.3693 157.238 38.4375 156.91 38.5739 156.66C38.7074 156.41 38.8636 156.215 39.0426 156.076C39.2216 155.934 39.3793 155.825 39.5156 155.748L39.5156 155.654L38.4545 155.654L38.4545 154.406L45.1449 154.406C45.7074 154.406 46.169 154.536 46.5298 154.798C46.8906 155.059 47.1577 155.413 47.331 155.859C47.5043 156.302 47.5909 156.802 47.5909 157.359ZM43.8452 157.371C43.8452 157.005 43.7599 156.695 43.5895 156.442C43.4162 156.187 43.169 155.994 42.848 155.863C42.5241 155.729 42.1364 155.663 41.6847 155.663C41.2443 155.663 40.8565 155.728 40.5213 155.859C40.1861 155.989 39.9247 156.181 39.7372 156.434C39.5469 156.687 39.4517 156.999 39.4517 157.371C39.4517 157.755 39.5511 158.075 39.75 158.33C39.946 158.586 40.2131 158.779 40.5511 158.91C40.8892 159.038 41.267 159.102 41.6847 159.102C42.1136 159.102 42.4901 159.036 42.8139 158.906C43.1378 158.775 43.3906 158.582 43.5724 158.326C43.7543 158.067 43.8452 157.749 43.8452 157.371ZM40.0526 148.032L40.2571 149.187C40.1094 149.235 39.9687 149.312 39.8352 149.417C39.7017 149.519 39.5923 149.658 39.5071 149.834C39.4219 150.011 39.3793 150.231 39.3793 150.495C39.3793 150.856 39.4602 151.157 39.6222 151.398C39.7812 151.64 39.9872 151.761 40.2401 151.761C40.4588 151.761 40.6349 151.68 40.7685 151.518C40.902 151.356 41.0114 151.094 41.0966 150.734L41.3352 149.694C41.4744 149.092 41.6889 148.643 41.9787 148.347C42.2685 148.052 42.6449 147.904 43.108 147.904C43.5 147.904 43.8494 148.018 44.1562 148.245C44.4602 148.469 44.6989 148.783 44.8722 149.187C45.0455 149.587 45.1321 150.052 45.1321 150.58C45.1321 151.313 44.9759 151.911 44.6634 152.374C44.348 152.837 43.9006 153.121 43.321 153.227L43.1335 151.995C43.4545 151.918 43.6974 151.761 43.8622 151.522C44.0241 151.283 44.1051 150.972 44.1051 150.589C44.1051 150.171 44.0185 149.837 43.8452 149.587C43.669 149.337 43.4545 149.212 43.2017 149.212C42.9972 149.212 42.8253 149.289 42.6861 149.442C42.5469 149.593 42.4418 149.825 42.3707 150.137L42.1278 151.245C41.9886 151.856 41.767 152.307 41.4631 152.6C41.1591 152.89 40.7741 153.035 40.3082 153.035C39.9219 153.035 39.5838 152.927 39.294 152.711C39.0043 152.495 38.7784 152.197 38.6165 151.816C38.4517 151.435 38.3693 150.999 38.3693 150.508C38.3693 149.8 38.5227 149.244 38.8295 148.837C39.1335 148.431 39.5412 148.163 40.0526 148.032Z" fill="#1E1E1E"/>
<path d="M41 140.333V129.666M41 129.666L45 133.666M41 129.666L37 133.666" stroke="black" stroke-linecap="round" stroke-linejoin="round"/>
<path d="M35.5666 28.22V30.218H29.3026V33.602H35.3506V35.564H29.3026V39.002H35.7106V41H27.0346V28.22H35.5666ZM39.2318 31.172C39.2318 30.212 39.4778 29.48 39.9698 28.976C40.4738 28.472 41.2298 28.22 42.2378 28.22H44.0018V29.966H42.4898C42.1778 29.966 41.9258 30.074 41.7338 30.29C41.5538 30.506 41.4638 30.8 41.4638 31.172V41H39.2318V31.172ZM37.8818 31.694H43.8578V33.44H37.8818V31.694ZM45.1178 31.172C45.1178 30.212 45.3638 29.48 45.8558 28.976C46.3598 28.472 47.1158 28.22 48.1238 28.22H49.8878V29.966H48.3758C48.0638 29.966 47.8118 30.074 47.6198 30.29C47.4398 30.506 47.3498 30.8 47.3498 31.172V41H45.1178V31.172ZM43.7678 31.694H49.7438V33.44H43.7678V31.694ZM54.4086 31.46V41H52.1766V31.46H54.4086ZM54.4626 28.22V30.11H52.1406V28.22H54.4626ZM56.7814 36.23C56.7814 35.222 56.9734 34.346 57.3574 33.602C57.7414 32.846 58.2874 32.264 58.9954 31.856C59.7034 31.448 60.5254 31.244 61.4614 31.244C62.2894 31.244 63.0334 31.43 63.6934 31.802C64.3534 32.174 64.8814 32.738 65.2774 33.494C65.6734 34.238 65.8834 35.156 65.9074 36.248V36.842H59.1214C59.1694 37.658 59.3974 38.294 59.8054 38.75C60.2134 39.194 60.7654 39.416 61.4614 39.416C61.9054 39.416 62.3074 39.302 62.6674 39.074C63.0394 38.834 63.3154 38.504 63.4954 38.084L65.7814 38.246C65.4934 39.158 64.9534 39.884 64.1614 40.424C63.3814 40.952 62.4814 41.216 61.4614 41.216C60.5254 41.216 59.7034 41.012 58.9954 40.604C58.2874 40.196 57.7414 39.614 57.3574 38.858C56.9734 38.102 56.7814 37.226 56.7814 36.23ZM63.6034 35.312C63.5074 34.532 63.2614 33.956 62.8654 33.584C62.4814 33.212 62.0134 33.026 61.4614 33.026C60.8134 33.026 60.2914 33.23 59.8954 33.638C59.4994 34.034 59.2474 34.592 59.1394 35.312H63.6034ZM70.1969 31.46L70.3049 34.106L70.0169 33.944C70.1609 33.02 70.5089 32.342 71.0609 31.91C71.6249 31.466 72.3149 31.244 73.1309 31.244C74.1749 31.244 74.9789 31.574 75.5429 32.234C76.1069 32.882 76.3889 33.758 76.3889 34.862V41H74.1569V35.564C74.1569 35 74.1029 34.538 73.9949 34.178C73.8869 33.818 73.7069 33.542 73.4549 33.35C73.2149 33.158 72.8909 33.062 72.4829 33.062C71.8349 33.062 71.3249 33.278 70.9529 33.71C70.5929 34.13 70.4129 34.748 70.4129 35.564V41H68.1809V31.46H70.1969ZM84.5413 34.934C84.4573 34.346 84.2233 33.89 83.8393 33.566C83.4553 33.242 82.9993 33.08 82.4713 33.08C81.7153 33.08 81.1273 33.356 80.7073 33.908C80.2993 34.46 80.0953 35.234 80.0953 36.23C80.0953 37.226 80.2993 38 80.7073 38.552C81.1273 39.104 81.7153 39.38 82.4713 39.38C83.0353 39.38 83.5093 39.212 83.8933 38.876C84.2773 38.528 84.5173 38.036 84.6133 37.4L86.9173 37.508C86.8333 38.264 86.5873 38.924 86.1793 39.488C85.7713 40.04 85.2433 40.466 84.5953 40.766C83.9593 41.066 83.2513 41.216 82.4713 41.216C81.5353 41.216 80.7133 41.012 80.0053 40.604C79.3093 40.196 78.7633 39.614 78.3673 38.858C77.9833 38.102 77.7913 37.226 77.7913 36.23C77.7913 35.222 77.9833 34.346 78.3673 33.602C78.7633 32.846 79.3093 32.264 80.0053 31.856C80.7133 31.448 81.5353 31.244 82.4713 31.244C83.2273 31.244 83.9233 31.388 84.5593 31.676C85.1953 31.964 85.7113 32.378 86.1073 32.918C86.5153 33.458 86.7613 34.088 86.8453 34.808L84.5413 34.934ZM89.8531 31.46L92.4091 38.66L94.8931 31.46H97.0891L93.2911 42.026C93.0871 42.602 92.7871 43.022 92.3911 43.286C91.9951 43.562 91.4851 43.7 90.8611 43.7H89.4031V41.972H90.4831C90.7471 41.972 90.9571 41.918 91.1131 41.81C91.2691 41.714 91.3891 41.558 91.4731 41.342L91.7611 40.64H91.0951L87.6571 31.46H89.8531ZM108.688 41H106.222L102.712 31.46H104.926L107.446 38.732L109.966 31.46H112.198L108.688 41ZM119.278 34.502C119.182 34.022 118.942 33.644 118.558 33.368C118.186 33.092 117.766 32.954 117.298 32.954C116.83 32.954 116.44 33.068 116.128 33.296C115.828 33.524 115.678 33.824 115.678 34.196C115.69 34.568 115.876 34.856 116.236 35.06C116.596 35.252 117.064 35.402 117.64 35.51C118.552 35.666 119.296 35.858 119.872 36.086C120.448 36.302 120.886 36.602 121.186 36.986C121.498 37.37 121.654 37.862 121.654 38.462C121.654 39.074 121.474 39.584 121.114 39.992C120.754 40.4 120.268 40.706 119.656 40.91C119.056 41.114 118.378 41.216 117.622 41.216C116.77 41.216 116.014 41.084 115.354 40.82C114.694 40.556 114.172 40.184 113.788 39.704C113.416 39.212 113.2 38.636 113.14 37.976L115.426 37.85C115.486 38.198 115.606 38.492 115.786 38.732C115.978 38.972 116.224 39.158 116.524 39.29C116.824 39.422 117.178 39.488 117.586 39.488C118.054 39.488 118.462 39.398 118.81 39.218C119.17 39.038 119.35 38.762 119.35 38.39C119.35 38.138 119.272 37.934 119.116 37.778C118.972 37.622 118.786 37.508 118.558 37.436C118.342 37.352 118.042 37.268 117.658 37.184C117.562 37.172 117.43 37.142 117.262 37.094C116.386 36.914 115.678 36.722 115.138 36.518C114.598 36.314 114.166 36.032 113.842 35.672C113.53 35.3 113.374 34.826 113.374 34.25C113.374 33.638 113.536 33.104 113.86 32.648C114.196 32.192 114.664 31.844 115.264 31.604C115.876 31.352 116.596 31.226 117.424 31.226C118.528 31.226 119.446 31.514 120.178 32.09C120.922 32.654 121.372 33.422 121.528 34.394L119.278 34.502ZM131.781 28.22L135.363 38.246L138.927 28.22H141.987V41H139.719V32.162L136.497 40.982H134.229L131.007 32.162V41H128.739V28.22H131.781ZM144.204 36.23C144.204 35.222 144.396 34.346 144.78 33.602C145.164 32.846 145.71 32.264 146.418 31.856C147.126 31.448 147.948 31.244 148.884 31.244C149.712 31.244 150.456 31.43 151.116 31.802C151.776 32.174 152.304 32.738 152.7 33.494C153.096 34.238 153.306 35.156 153.33 36.248V36.842H146.544C146.592 37.658 146.82 38.294 147.228 38.75C147.636 39.194 148.188 39.416 148.884 39.416C149.328 39.416 149.73 39.302 150.09 39.074C150.462 38.834 150.738 38.504 150.918 38.084L153.204 38.246C152.916 39.158 152.376 39.884 151.584 40.424C150.804 40.952 149.904 41.216 148.884 41.216C147.948 41.216 147.126 41.012 146.418 40.604C145.71 40.196 145.164 39.614 144.78 38.858C144.396 38.102 144.204 37.226 144.204 36.23ZM151.026 35.312C150.93 34.532 150.684 33.956 150.288 33.584C149.904 33.212 149.436 33.026 148.884 33.026C148.236 33.026 147.714 33.23 147.318 33.638C146.922 34.034 146.67 34.592 146.562 35.312H151.026ZM155.168 36.23C155.168 35.222 155.36 34.346 155.744 33.602C156.128 32.846 156.674 32.264 157.382 31.856C158.09 31.448 158.912 31.244 159.848 31.244C160.676 31.244 161.42 31.43 162.08 31.802C162.74 32.174 163.268 32.738 163.664 33.494C164.06 34.238 164.27 35.156 164.294 36.248V36.842H157.508C157.556 37.658 157.784 38.294 158.192 38.75C158.6 39.194 159.152 39.416 159.848 39.416C160.292 39.416 160.694 39.302 161.054 39.074C161.426 38.834 161.702 38.504 161.882 38.084L164.168 38.246C163.88 39.158 163.34 39.884 162.548 40.424C161.768 40.952 160.868 41.216 159.848 41.216C158.912 41.216 158.09 41.012 157.382 40.604C156.674 40.196 156.128 39.614 155.744 38.858C155.36 38.102 155.168 37.226 155.168 36.23ZM161.99 35.312C161.894 34.532 161.648 33.956 161.252 33.584C160.868 33.212 160.4 33.026 159.848 33.026C159.2 33.026 158.678 33.23 158.282 33.638C157.886 34.034 157.634 34.592 157.526 35.312H161.99ZM169.475 29.3V38.102C169.475 38.474 169.565 38.756 169.745 38.948C169.937 39.14 170.207 39.236 170.555 39.236H171.995V41H170.213C169.241 41 168.503 40.754 167.999 40.262C167.495 39.77 167.243 39.05 167.243 38.102V29.3H169.475ZM171.995 31.46V33.206H165.749V31.46H171.995ZM176.459 31.46V41H174.227V31.46H176.459ZM176.513 28.22V30.11H174.191V28.22H176.513ZM181.231 31.46L181.339 34.106L181.051 33.944C181.195 33.02 181.543 32.342 182.095 31.91C182.659 31.466 183.349 31.244 184.165 31.244C185.209 31.244 186.013 31.574 186.577 32.234C187.141 32.882 187.423 33.758 187.423 34.862V41H185.191V35.564C185.191 35 185.137 34.538 185.029 34.178C184.921 33.818 184.741 33.542 184.489 33.35C184.249 33.158 183.925 33.062 183.517 33.062C182.869 33.062 182.359 33.278 181.987 33.71C181.627 34.13 181.447 34.748 181.447 35.564V41H179.215V31.46H181.231ZM193.71 40.532C192.858 40.532 192.108 40.34 191.46 39.956C190.824 39.572 190.332 39.032 189.984 38.336C189.636 37.64 189.462 36.848 189.462 35.96C189.462 35.036 189.636 34.22 189.984 33.512C190.344 32.792 190.842 32.234 191.478 31.838C192.126 31.442 192.87 31.244 193.71 31.244C194.31 31.244 194.85 31.394 195.33 31.694C195.822 31.994 196.182 32.402 196.41 32.918V31.46H198.588V39.938C198.588 40.766 198.396 41.48 198.012 42.08C197.628 42.68 197.094 43.136 196.41 43.448C195.726 43.76 194.934 43.916 194.034 43.916C193.326 43.916 192.672 43.802 192.072 43.574C191.484 43.346 190.986 43.028 190.578 42.62C190.182 42.212 189.9 41.732 189.732 41.18L192.018 41.036C192.186 41.396 192.444 41.678 192.792 41.882C193.14 42.086 193.56 42.188 194.052 42.188C194.784 42.188 195.348 42.02 195.744 41.684C196.14 41.36 196.338 40.88 196.338 40.244V39.002C196.074 39.482 195.702 39.86 195.222 40.136C194.742 40.4 194.238 40.532 193.71 40.532ZM191.766 35.942C191.766 36.506 191.862 37.004 192.054 37.436C192.246 37.868 192.516 38.21 192.864 38.462C193.212 38.714 193.626 38.84 194.106 38.84C194.562 38.84 194.964 38.714 195.312 38.462C195.66 38.21 195.93 37.868 196.122 37.436C196.314 37.004 196.41 36.506 196.41 35.942C196.422 35.378 196.332 34.88 196.14 34.448C195.96 34.016 195.69 33.68 195.33 33.44C194.982 33.188 194.574 33.062 194.106 33.062C193.626 33.062 193.212 33.182 192.864 33.422C192.516 33.662 192.246 34.004 192.054 34.448C191.862 34.88 191.766 35.378 191.766 35.942ZM207.109 34.502C207.013 34.022 206.773 33.644 206.389 33.368C206.017 33.092 205.597 32.954 205.129 32.954C204.661 32.954 204.271 33.068 203.959 33.296C203.659 33.524 203.509 33.824 203.509 34.196C203.521 34.568 203.707 34.856 204.067 35.06C204.427 35.252 204.895 35.402 205.471 35.51C206.383 35.666 207.127 35.858 207.703 36.086C208.279 36.302 208.717 36.602 209.017 36.986C209.329 37.37 209.485 37.862 209.485 38.462C209.485 39.074 209.305 39.584 208.945 39.992C208.585 40.4 208.099 40.706 207.487 40.91C206.887 41.114 206.209 41.216 205.453 41.216C204.601 41.216 203.845 41.084 203.185 40.82C202.525 40.556 202.003 40.184 201.619 39.704C201.247 39.212 201.031 38.636 200.971 37.976L203.257 37.85C203.317 38.198 203.437 38.492 203.617 38.732C203.809 38.972 204.055 39.158 204.355 39.29C204.655 39.422 205.009 39.488 205.417 39.488C205.885 39.488 206.293 39.398 206.641 39.218C207.001 39.038 207.181 38.762 207.181 38.39C207.181 38.138 207.103 37.934 206.947 37.778C206.803 37.622 206.617 37.508 206.389 37.436C206.173 37.352 205.873 37.268 205.489 37.184C205.393 37.172 205.261 37.142 205.093 37.094C204.217 36.914 203.509 36.722 202.969 36.518C202.429 36.314 201.997 36.032 201.673 35.672C201.361 35.3 201.205 34.826 201.205 34.25C201.205 33.638 201.367 33.104 201.691 32.648C202.027 32.192 202.495 31.844 203.095 31.604C203.707 31.352 204.427 31.226 205.255 31.226C206.359 31.226 207.277 31.514 208.009 32.09C208.753 32.654 209.203 33.422 209.359 34.394L207.109 34.502Z" fill="#1E1E1E"/>
<path d="M202.528 277.392V276.258H209.283V277.392H206.56V284.985H205.247V277.392H202.528ZM210.433 284.985V278.44H211.707V284.985H210.433ZM211.076 277.43C210.855 277.43 210.664 277.356 210.505 277.208C210.349 277.058 210.271 276.879 210.271 276.671C210.271 276.461 210.349 276.282 210.505 276.134C210.664 275.984 210.855 275.909 211.076 275.909C211.298 275.909 211.487 275.984 211.643 276.134C211.802 276.282 211.882 276.461 211.882 276.671C211.882 276.879 211.802 277.058 211.643 277.208C211.487 277.356 211.298 277.43 211.076 277.43ZM213.181 284.985V278.44H214.404V279.505H214.485C214.622 279.144 214.845 278.863 215.154 278.661C215.464 278.457 215.835 278.355 216.266 278.355C216.704 278.355 217.07 278.457 217.366 278.661C217.664 278.866 217.884 279.147 218.026 279.505H218.095C218.251 279.156 218.499 278.877 218.84 278.67C219.181 278.46 219.587 278.355 220.059 278.355C220.653 278.355 221.137 278.541 221.512 278.913C221.89 279.285 222.079 279.846 222.079 280.596V284.985H220.805V280.715C220.805 280.272 220.684 279.951 220.443 279.752C220.201 279.554 219.913 279.454 219.578 279.454C219.163 279.454 218.84 279.582 218.61 279.838C218.38 280.09 218.265 280.416 218.265 280.813V284.985H216.995V280.634C216.995 280.279 216.884 279.994 216.663 279.778C216.441 279.562 216.153 279.454 215.798 279.454C215.556 279.454 215.333 279.518 215.129 279.646C214.927 279.771 214.764 279.946 214.639 280.17C214.516 280.394 214.455 280.654 214.455 280.95V284.985H213.181ZM226.368 285.117C225.723 285.117 225.167 284.98 224.702 284.704C224.238 284.426 223.88 284.035 223.628 283.532C223.378 283.027 223.253 282.434 223.253 281.755C223.253 281.085 223.378 280.494 223.628 279.983C223.88 279.471 224.233 279.072 224.684 278.785C225.139 278.498 225.67 278.355 226.278 278.355C226.648 278.355 227.005 278.416 227.352 278.538C227.699 278.66 228.01 278.852 228.285 279.113C228.561 279.375 228.778 279.714 228.937 280.132C229.096 280.546 229.176 281.051 229.176 281.644V282.096H223.973V281.142H227.927C227.927 280.806 227.859 280.509 227.723 280.251C227.586 279.99 227.395 279.784 227.148 279.633C226.903 279.483 226.616 279.407 226.287 279.407C225.929 279.407 225.616 279.495 225.349 279.671C225.085 279.845 224.88 280.072 224.736 280.353C224.594 280.632 224.523 280.934 224.523 281.261V282.007C224.523 282.444 224.599 282.816 224.753 283.123C224.909 283.43 225.126 283.664 225.405 283.826C225.683 283.985 226.008 284.065 226.38 284.065C226.622 284.065 226.842 284.031 227.041 283.963C227.24 283.892 227.412 283.786 227.557 283.647C227.702 283.508 227.812 283.336 227.889 283.132L229.095 283.349C228.998 283.704 228.825 284.015 228.575 284.282C228.328 284.546 228.017 284.752 227.642 284.9C227.27 285.045 226.845 285.117 226.368 285.117Z" fill="#1E1E1E"/>
<path d="M236.667 280.985L247.334 280.985M247.334 280.985L243.334 284.985M247.334 280.985L243.334 276.985" stroke="black" stroke-linecap="round" stroke-linejoin="round"/>
</g>
</g>
<defs>
<filter id="filter0_d_330_2454" x="-35" y="-25" width="522" height="381" filterUnits="userSpaceOnUse" color-interpolation-filters="sRGB">
<feFlood flood-opacity="0" result="BackgroundImageFix"/>
<feColorMatrix in="SourceAlpha" type="matrix" values="0 0 0 0 0 0 0 0 0 0 0 0 0 0 0 0 0 0 127 0" result="hardAlpha"/>
<feOffset dy="10"/>
<feGaussianBlur stdDeviation="17.5"/>
<feColorMatrix type="matrix" values="0 0 0 0 0 0 0 0 0 0 0 0 0 0 0 0 0 0 0.0305125 0"/>
<feBlend mode="normal" in2="BackgroundImageFix" result="effect1_dropShadow_330_2454"/>
<feBlend mode="normal" in="SourceGraphic" in2="effect1_dropShadow_330_2454" result="shape"/>
</filter>
<clipPath id="clip0_330_2454">
<path d="M0 12C0 5.37258 5.37258 0 12 0H440C446.627 0 452 5.37258 452 12V311H0V12Z" fill="white"/>
</clipPath>
<clipPath id="clip1_330_2454">
<rect width="452" height="311" fill="white"/>
</clipPath>
<clipPath id="clip2_330_2454">
<rect width="360" height="208" fill="white" transform="translate(63 60)"/>
</clipPath>
</defs>
</svg>
