<svg width="408" height="388" viewBox="0 0 408 388" fill="none" xmlns="http://www.w3.org/2000/svg">
<g clip-path="url(#clip0_114_3111)">
<rect width="408" height="388" rx="16" fill="url(#paint0_linear_114_3111)"/>
<g opacity="0.1" filter="url(#filter0_i_114_3111)">
<path d="M297.433 223.722L214.02 535.024C209.016 553.701 229.091 569.105 245.836 559.437L1099.8 66.4022C1107.25 62.0991 1111.46 53.7984 1110.52 45.2433L1083.41 -202.25C1081.71 -217.828 1064.56 -226.518 1050.99 -218.683L307.546 210.543C302.561 213.421 298.923 218.162 297.433 223.722Z" fill="url(#paint1_linear_114_3111)"/>
</g>
<path d="M66.305 128.312C64.1696 128.312 62.2894 127.828 60.6644 126.859C59.0498 125.891 57.7894 124.516 56.8831 122.734C55.9769 120.953 55.5237 118.839 55.5237 116.391C55.5237 113.891 55.9873 111.745 56.9144 109.953C57.8519 108.161 59.1227 106.792 60.7269 105.844C62.331 104.885 64.1487 104.406 66.18 104.406C67.4717 104.406 68.6696 104.594 69.7737 104.969C70.8883 105.344 71.8779 105.88 72.7425 106.578C73.6071 107.266 74.3154 108.083 74.8675 109.031C75.43 109.979 75.805 111.021 75.9925 112.156H71.6956C71.5081 111.542 71.2477 110.99 70.9144 110.5C70.5915 110.01 70.1956 109.594 69.7269 109.25C69.2685 108.896 68.7477 108.63 68.1644 108.453C67.581 108.276 66.9352 108.188 66.2269 108.188C64.9873 108.188 63.8779 108.505 62.8987 109.141C61.9196 109.766 61.1487 110.688 60.5862 111.906C60.0342 113.115 59.7581 114.594 59.7581 116.344C59.7581 118.104 60.0342 119.594 60.5862 120.812C61.1383 122.031 61.9092 122.958 62.8987 123.594C63.8883 124.219 65.0342 124.531 66.3362 124.531C67.5133 124.531 68.5342 124.307 69.3987 123.859C70.2633 123.401 70.93 122.755 71.3987 121.922C71.8675 121.089 72.1019 120.104 72.1019 118.969L73.0706 119.125H66.7425V115.828H76.1956V118.609C76.1956 120.609 75.7737 122.333 74.93 123.781C74.0862 125.229 72.9144 126.349 71.4144 127.141C69.9248 127.922 68.2217 128.312 66.305 128.312ZM85.9931 128.344C84.2431 128.344 82.7327 127.979 81.4619 127.25C80.191 126.51 79.2119 125.469 78.5244 124.125C77.8473 122.781 77.5087 121.198 77.5087 119.375C77.5087 117.573 77.8473 115.995 78.5244 114.641C79.2015 113.276 80.1546 112.214 81.3837 111.453C82.6129 110.693 84.0608 110.312 85.7275 110.312C86.8004 110.312 87.816 110.484 88.7744 110.828C89.7431 111.172 90.5973 111.703 91.3369 112.422C92.0869 113.141 92.6754 114.057 93.1025 115.172C93.5296 116.276 93.7431 117.594 93.7431 119.125V120.406H79.4306V117.641H91.6962L89.7744 118.453C89.7744 117.464 89.6233 116.604 89.3212 115.875C89.0192 115.135 88.5712 114.557 87.9775 114.141C87.3837 113.724 86.6442 113.516 85.7587 113.516C84.8733 113.516 84.1181 113.724 83.4931 114.141C82.8681 114.557 82.3942 115.12 82.0712 115.828C81.7483 116.526 81.5869 117.307 81.5869 118.172V120.094C81.5869 121.156 81.7692 122.068 82.1337 122.828C82.5087 123.578 83.0296 124.151 83.6962 124.547C84.3733 124.943 85.1598 125.141 86.0556 125.141C86.639 125.141 87.1702 125.057 87.6494 124.891C88.139 124.724 88.5556 124.474 88.8994 124.141C89.2535 123.797 89.5244 123.375 89.7119 122.875L93.5556 123.328C93.3056 124.339 92.8421 125.224 92.165 125.984C91.4983 126.734 90.639 127.318 89.5869 127.734C88.5452 128.141 87.3473 128.344 85.9931 128.344ZM104.041 110.531V113.719H94.025V110.531H104.041ZM96.4781 106.375H100.587V122.75C100.587 123.438 100.739 123.948 101.041 124.281C101.343 124.604 101.822 124.766 102.478 124.766C102.655 124.766 102.853 124.75 103.072 124.719C103.291 124.688 103.489 124.651 103.666 124.609L104.369 127.828C103.931 127.964 103.489 128.062 103.041 128.125C102.593 128.198 102.145 128.234 101.697 128.234C100.072 128.234 98.7958 127.807 97.8687 126.953C96.9417 126.089 96.4781 124.911 96.4781 123.422V106.375ZM114.339 134.531C113.776 134.542 113.255 134.5 112.776 134.406C112.307 134.323 111.927 134.224 111.636 134.109L112.604 130.906L112.807 130.969C113.641 131.188 114.349 131.203 114.932 131.016C115.526 130.828 116 130.26 116.354 129.312L116.698 128.375L110.386 110.531H114.745L118.761 123.734H118.948L122.979 110.531H127.37L120.37 130.109C120.047 131.036 119.62 131.828 119.089 132.484C118.557 133.151 117.901 133.656 117.12 134C116.339 134.354 115.412 134.531 114.339 134.531ZM135.402 128.344C133.694 128.344 132.214 127.969 130.964 127.219C129.714 126.469 128.746 125.417 128.058 124.062C127.381 122.708 127.042 121.135 127.042 119.344C127.042 117.542 127.381 115.964 128.058 114.609C128.746 113.245 129.714 112.188 130.964 111.438C132.214 110.688 133.694 110.312 135.402 110.312C137.11 110.312 138.589 110.688 139.839 111.438C141.089 112.188 142.058 113.245 142.746 114.609C143.433 115.964 143.777 117.542 143.777 119.344C143.777 121.135 143.433 122.708 142.746 124.062C142.058 125.417 141.089 126.469 139.839 127.219C138.589 127.969 137.11 128.344 135.402 128.344ZM135.402 125.031C136.35 125.031 137.131 124.781 137.746 124.281C138.36 123.771 138.819 123.083 139.121 122.219C139.433 121.354 139.589 120.396 139.589 119.344C139.589 118.271 139.433 117.302 139.121 116.438C138.819 115.573 138.36 114.891 137.746 114.391C137.131 113.88 136.35 113.625 135.402 113.625C134.475 113.625 133.699 113.88 133.074 114.391C132.449 114.891 131.98 115.573 131.667 116.438C131.365 117.302 131.214 118.271 131.214 119.344C131.214 120.396 131.365 121.354 131.667 122.219C131.98 123.083 132.449 123.771 133.074 124.281C133.699 124.781 134.475 125.031 135.402 125.031ZM156.527 120.672V110.531H160.637V128H156.652V124.891H156.465C156.069 125.87 155.423 126.672 154.527 127.297C153.632 127.922 152.527 128.229 151.215 128.219C150.069 128.219 149.059 127.969 148.184 127.469C147.319 126.958 146.637 126.214 146.137 125.234C145.647 124.245 145.402 123.052 145.402 121.656V110.531H149.512V121.031C149.512 122.125 149.814 123 150.418 123.656C151.033 124.312 151.835 124.635 152.824 124.625C153.429 124.625 154.012 124.479 154.574 124.188C155.147 123.896 155.616 123.458 155.981 122.875C156.345 122.292 156.527 121.557 156.527 120.672ZM163.044 128V110.531H167.028V113.469H167.216C167.528 112.448 168.075 111.667 168.856 111.125C169.637 110.573 170.528 110.297 171.528 110.297C171.747 110.297 171.997 110.307 172.278 110.328C172.57 110.349 172.809 110.375 172.997 110.406V114.188C172.82 114.125 172.544 114.073 172.169 114.031C171.794 113.99 171.434 113.969 171.091 113.969C170.33 113.969 169.653 114.13 169.059 114.453C168.466 114.776 167.997 115.219 167.653 115.781C167.32 116.344 167.153 117 167.153 117.75V128H163.044ZM188.889 110.531V113.719H178.592V110.531H188.889ZM181.154 128V108.891C181.154 107.714 181.399 106.734 181.889 105.953C182.378 105.172 183.035 104.589 183.857 104.203C184.691 103.818 185.607 103.625 186.607 103.625C187.326 103.625 187.962 103.682 188.514 103.797C189.076 103.911 189.488 104.016 189.748 104.109L188.904 107.297C188.738 107.234 188.524 107.177 188.264 107.125C188.003 107.062 187.706 107.031 187.373 107.031C186.613 107.031 186.066 107.219 185.732 107.594C185.41 107.969 185.248 108.5 185.248 109.188V128H181.154ZM190.311 128V110.531H194.421V128H190.311ZM192.374 108.078C191.717 108.078 191.155 107.859 190.686 107.422C190.217 106.984 189.983 106.458 189.983 105.844C189.983 105.219 190.217 104.688 190.686 104.25C191.155 103.812 191.717 103.594 192.374 103.594C193.02 103.594 193.577 103.812 194.046 104.25C194.514 104.688 194.749 105.214 194.749 105.828C194.749 106.453 194.514 106.984 194.046 107.422C193.577 107.859 193.02 108.078 192.374 108.078ZM196.827 128V110.531H200.812V113.469H200.999C201.312 112.448 201.859 111.667 202.64 111.125C203.421 110.573 204.312 110.297 205.312 110.297C205.531 110.297 205.781 110.307 206.062 110.328C206.354 110.349 206.593 110.375 206.781 110.406V114.188C206.604 114.125 206.327 114.073 205.952 114.031C205.577 113.99 205.218 113.969 204.874 113.969C204.114 113.969 203.437 114.13 202.843 114.453C202.249 114.776 201.781 115.219 201.437 115.781C201.104 116.344 200.937 117 200.937 117.75V128H196.827ZM221.469 115.172L217.734 115.562C217.578 114.99 217.24 114.484 216.719 114.047C216.198 113.599 215.464 113.375 214.516 113.375C213.661 113.375 212.943 113.562 212.359 113.938C211.786 114.312 211.5 114.792 211.5 115.375C211.5 115.885 211.688 116.307 212.062 116.641C212.448 116.964 213.083 117.224 213.969 117.422L216.953 118.047C218.589 118.391 219.812 118.953 220.625 119.734C221.438 120.516 221.844 121.526 221.844 122.766C221.844 123.859 221.526 124.828 220.891 125.672C220.255 126.516 219.375 127.172 218.25 127.641C217.135 128.109 215.849 128.344 214.391 128.344C212.255 128.344 210.536 127.896 209.234 127C207.943 126.094 207.167 124.839 206.906 123.234L210.922 122.859C211.099 123.641 211.484 124.234 212.078 124.641C212.682 125.036 213.453 125.234 214.391 125.234C215.37 125.234 216.156 125.036 216.75 124.641C217.344 124.234 217.641 123.74 217.641 123.156C217.641 122.177 216.859 121.51 215.297 121.156L212.312 120.531C210.635 120.167 209.396 119.578 208.594 118.766C207.792 117.943 207.391 116.896 207.391 115.625C207.391 114.542 207.688 113.604 208.281 112.812C208.875 112.021 209.703 111.406 210.766 110.969C211.828 110.531 213.057 110.312 214.453 110.312C216.505 110.312 218.115 110.755 219.281 111.641C220.458 112.516 221.188 113.693 221.469 115.172ZM232.126 110.531V113.719H222.11V110.531H232.126ZM224.563 106.375H228.672V122.75C228.672 123.438 228.824 123.948 229.126 124.281C229.428 124.604 229.907 124.766 230.563 124.766C230.74 124.766 230.938 124.75 231.157 124.719C231.376 124.688 231.574 124.651 231.751 124.609L232.454 127.828C232.016 127.964 231.574 128.062 231.126 128.125C230.678 128.198 230.23 128.234 229.782 128.234C228.157 128.234 226.881 127.807 225.954 126.953C225.027 126.089 224.563 124.911 224.563 123.422V106.375ZM243.971 104.719V128H239.861V104.719H243.971ZM254.112 128.344C252.362 128.344 250.851 127.979 249.581 127.25C248.31 126.51 247.331 125.469 246.643 124.125C245.966 122.781 245.627 121.198 245.627 119.375C245.627 117.573 245.966 115.995 246.643 114.641C247.32 113.276 248.273 112.214 249.502 111.453C250.732 110.693 252.18 110.312 253.846 110.312C254.919 110.312 255.935 110.484 256.893 110.828C257.862 111.172 258.716 111.703 259.456 112.422C260.206 113.141 260.794 114.057 261.221 115.172C261.648 116.276 261.862 117.594 261.862 119.125V120.406H247.549V117.641H259.815L257.893 118.453C257.893 117.464 257.742 116.604 257.44 115.875C257.138 115.135 256.69 114.557 256.096 114.141C255.502 113.724 254.763 113.516 253.877 113.516C252.992 113.516 252.237 113.724 251.612 114.141C250.987 114.557 250.513 115.12 250.19 115.828C249.867 116.526 249.706 117.307 249.706 118.172V120.094C249.706 121.156 249.888 122.068 250.252 122.828C250.627 123.578 251.148 124.151 251.815 124.547C252.492 124.943 253.279 125.141 254.174 125.141C254.758 125.141 255.289 125.057 255.768 124.891C256.258 124.724 256.674 124.474 257.018 124.141C257.372 123.797 257.643 123.375 257.831 122.875L261.674 123.328C261.424 124.339 260.961 125.224 260.284 125.984C259.617 126.734 258.758 127.318 257.706 127.734C256.664 128.141 255.466 128.344 254.112 128.344ZM268.487 128.359C267.373 128.359 266.373 128.161 265.487 127.766C264.602 127.359 263.904 126.766 263.394 125.984C262.883 125.203 262.628 124.24 262.628 123.094C262.628 122.115 262.81 121.302 263.175 120.656C263.54 120.01 264.034 119.495 264.659 119.109C265.295 118.724 266.008 118.432 266.8 118.234C267.592 118.026 268.409 117.88 269.253 117.797C270.284 117.682 271.118 117.583 271.753 117.5C272.389 117.417 272.847 117.281 273.128 117.094C273.42 116.906 273.566 116.615 273.566 116.219V116.141C273.566 115.297 273.316 114.641 272.816 114.172C272.316 113.703 271.586 113.469 270.628 113.469C269.618 113.469 268.816 113.688 268.222 114.125C267.639 114.562 267.243 115.078 267.034 115.672L263.206 115.125C263.508 114.062 264.008 113.177 264.706 112.469C265.404 111.75 266.253 111.214 267.253 110.859C268.264 110.495 269.378 110.312 270.597 110.312C271.43 110.312 272.264 110.411 273.097 110.609C273.93 110.797 274.696 111.12 275.394 111.578C276.092 112.036 276.649 112.651 277.066 113.422C277.482 114.193 277.691 115.156 277.691 116.312V128H273.737V125.594H273.612C273.362 126.073 273.008 126.526 272.55 126.953C272.102 127.37 271.54 127.708 270.862 127.969C270.196 128.229 269.404 128.359 268.487 128.359ZM269.534 125.328C270.368 125.328 271.086 125.167 271.691 124.844C272.295 124.51 272.764 124.073 273.097 123.531C273.43 122.979 273.597 122.38 273.597 121.734V119.688C273.461 119.792 273.243 119.891 272.941 119.984C272.639 120.068 272.295 120.146 271.909 120.219C271.524 120.292 271.144 120.354 270.769 120.406C270.404 120.458 270.086 120.5 269.816 120.531C269.201 120.615 268.649 120.755 268.159 120.953C267.68 121.141 267.3 121.401 267.019 121.734C266.737 122.068 266.597 122.5 266.597 123.031C266.597 123.792 266.873 124.365 267.425 124.75C267.977 125.135 268.68 125.328 269.534 125.328ZM286.535 128.312C285.17 128.312 283.941 127.964 282.847 127.266C281.764 126.557 280.91 125.531 280.285 124.188C279.66 122.844 279.347 121.214 279.347 119.297C279.347 117.349 279.665 115.708 280.301 114.375C280.946 113.042 281.811 112.031 282.894 111.344C283.978 110.656 285.191 110.312 286.535 110.312C287.566 110.312 288.41 110.484 289.066 110.828C289.722 111.172 290.243 111.589 290.629 112.078C291.025 112.557 291.327 113.005 291.535 113.422H291.707V104.719H295.801V128H291.785V125.234H291.535C291.316 125.661 291.009 126.115 290.613 126.594C290.217 127.062 289.691 127.469 289.035 127.812C288.379 128.146 287.545 128.312 286.535 128.312ZM287.676 124.938C288.551 124.938 289.29 124.703 289.894 124.234C290.509 123.755 290.978 123.094 291.301 122.25C291.624 121.396 291.785 120.406 291.785 119.281C291.785 118.146 291.624 117.161 291.301 116.328C290.988 115.484 290.525 114.833 289.91 114.375C289.306 113.917 288.561 113.688 287.676 113.688C286.769 113.688 286.009 113.927 285.394 114.406C284.78 114.885 284.316 115.547 284.004 116.391C283.702 117.234 283.551 118.198 283.551 119.281C283.551 120.365 283.707 121.333 284.019 122.188C284.332 123.042 284.79 123.714 285.394 124.203C286.009 124.693 286.769 124.938 287.676 124.938ZM313.021 110.531V113.719H303.005V110.531H313.021ZM305.458 106.375H309.568V122.75C309.568 123.438 309.719 123.948 310.021 124.281C310.323 124.604 310.802 124.766 311.458 124.766C311.635 124.766 311.833 124.75 312.052 124.719C312.271 124.688 312.469 124.651 312.646 124.609L313.349 127.828C312.911 127.964 312.469 128.062 312.021 128.125C311.573 128.198 311.125 128.234 310.677 128.234C309.052 128.234 307.776 127.807 306.849 126.953C305.922 126.089 305.458 124.911 305.458 123.422V106.375ZM319.131 117.781V128H315.021V104.719H319.037V113.516H319.256C319.662 112.526 320.292 111.745 321.146 111.172C322 110.599 323.099 110.312 324.443 110.312C325.651 110.312 326.704 110.568 327.599 111.078C328.506 111.589 329.209 112.333 329.709 113.312C330.209 114.292 330.459 115.484 330.459 116.891V128H326.334V117.531C326.334 116.344 326.032 115.427 325.427 114.781C324.823 114.125 323.98 113.797 322.896 113.797C322.167 113.797 321.516 113.953 320.943 114.266C320.381 114.578 319.938 115.031 319.615 115.625C319.292 116.208 319.131 116.927 319.131 117.781ZM332.85 128V110.531H336.959V128H332.85ZM334.913 108.078C334.256 108.078 333.694 107.859 333.225 107.422C332.756 106.984 332.522 106.458 332.522 105.844C332.522 105.219 332.756 104.688 333.225 104.25C333.694 103.812 334.256 103.594 334.913 103.594C335.558 103.594 336.116 103.812 336.584 104.25C337.053 104.688 337.288 105.214 337.288 105.828C337.288 106.453 337.053 106.984 336.584 107.422C336.116 107.859 335.558 108.078 334.913 108.078ZM353.147 115.172L349.413 115.562C349.257 114.99 348.918 114.484 348.397 114.047C347.877 113.599 347.142 113.375 346.194 113.375C345.34 113.375 344.621 113.562 344.038 113.938C343.465 114.312 343.179 114.792 343.179 115.375C343.179 115.885 343.366 116.307 343.741 116.641C344.127 116.964 344.762 117.224 345.647 117.422L348.632 118.047C350.267 118.391 351.491 118.953 352.304 119.734C353.116 120.516 353.522 121.526 353.522 122.766C353.522 123.859 353.205 124.828 352.569 125.672C351.934 126.516 351.054 127.172 349.929 127.641C348.814 128.109 347.528 128.344 346.069 128.344C343.934 128.344 342.215 127.896 340.913 127C339.621 126.094 338.845 124.839 338.585 123.234L342.601 122.859C342.778 123.641 343.163 124.234 343.757 124.641C344.361 125.036 345.132 125.234 346.069 125.234C347.049 125.234 347.835 125.036 348.429 124.641C349.022 124.234 349.319 123.74 349.319 123.156C349.319 122.177 348.538 121.51 346.976 121.156L343.991 120.531C342.314 120.167 341.075 119.578 340.272 118.766C339.47 117.943 339.069 116.896 339.069 115.625C339.069 114.542 339.366 113.604 339.96 112.812C340.554 112.021 341.382 111.406 342.444 110.969C343.507 110.531 344.736 110.312 346.132 110.312C348.184 110.312 349.793 110.755 350.96 111.641C352.137 112.516 352.866 113.693 353.147 115.172ZM171.319 164L166.382 146.531H170.569L173.647 158.812H173.804L176.944 146.531H181.085L184.226 158.766H184.382L187.413 146.531H191.616L186.679 164H182.382L179.101 152.203H178.882L175.601 164H171.319ZM199.898 164.344C198.148 164.344 196.638 163.979 195.367 163.25C194.096 162.51 193.117 161.469 192.429 160.125C191.752 158.781 191.414 157.198 191.414 155.375C191.414 153.573 191.752 151.995 192.429 150.641C193.106 149.276 194.06 148.214 195.289 147.453C196.518 146.693 197.966 146.312 199.632 146.312C200.705 146.312 201.721 146.484 202.679 146.828C203.648 147.172 204.502 147.703 205.242 148.422C205.992 149.141 206.58 150.057 207.007 151.172C207.435 152.276 207.648 153.594 207.648 155.125V156.406H193.336V153.641H205.601L203.679 154.453C203.679 153.464 203.528 152.604 203.226 151.875C202.924 151.135 202.476 150.557 201.882 150.141C201.289 149.724 200.549 149.516 199.664 149.516C198.778 149.516 198.023 149.724 197.398 150.141C196.773 150.557 196.299 151.12 195.976 151.828C195.653 152.526 195.492 153.307 195.492 154.172V156.094C195.492 157.156 195.674 158.068 196.039 158.828C196.414 159.578 196.935 160.151 197.601 160.547C198.278 160.943 199.065 161.141 199.961 161.141C200.544 161.141 201.075 161.057 201.554 160.891C202.044 160.724 202.461 160.474 202.804 160.141C203.159 159.797 203.429 159.375 203.617 158.875L207.461 159.328C207.211 160.339 206.747 161.224 206.07 161.984C205.403 162.734 204.544 163.318 203.492 163.734C202.45 164.141 201.252 164.344 199.898 164.344ZM216.977 164.344C215.227 164.344 213.716 163.979 212.446 163.25C211.175 162.51 210.196 161.469 209.508 160.125C208.831 158.781 208.492 157.198 208.492 155.375C208.492 153.573 208.831 151.995 209.508 150.641C210.185 149.276 211.138 148.214 212.367 147.453C213.597 146.693 215.045 146.312 216.711 146.312C217.784 146.312 218.8 146.484 219.758 146.828C220.727 147.172 221.581 147.703 222.321 148.422C223.071 149.141 223.659 150.057 224.086 151.172C224.513 152.276 224.727 153.594 224.727 155.125V156.406H210.414V153.641H222.68L220.758 154.453C220.758 153.464 220.607 152.604 220.305 151.875C220.003 151.135 219.555 150.557 218.961 150.141C218.367 149.724 217.628 149.516 216.742 149.516C215.857 149.516 215.102 149.724 214.477 150.141C213.852 150.557 213.378 151.12 213.055 151.828C212.732 152.526 212.571 153.307 212.571 154.172V156.094C212.571 157.156 212.753 158.068 213.117 158.828C213.492 159.578 214.013 160.151 214.68 160.547C215.357 160.943 216.144 161.141 217.039 161.141C217.623 161.141 218.154 161.057 218.633 160.891C219.123 160.724 219.539 160.474 219.883 160.141C220.237 159.797 220.508 159.375 220.696 158.875L224.539 159.328C224.289 160.339 223.826 161.224 223.149 161.984C222.482 162.734 221.623 163.318 220.571 163.734C219.529 164.141 218.331 164.344 216.977 164.344ZM230.071 158.531L230.056 153.547H230.727L236.993 146.531H241.806L234.087 155.141H233.227L230.071 158.531ZM226.321 164V140.719H230.431V164H226.321ZM237.274 164L231.587 156.062L234.368 153.156L242.196 164H237.274Z" fill="white"/>
<path d="M31.7174 203L28.1379 189.909H29.7487L32.4844 200.571H32.6123L35.3992 189.909H37.189L39.9759 200.571H40.1038L42.8396 189.909H44.4504L40.8708 203H39.2344L36.3452 192.568H36.243L33.3538 203H31.7174ZM49.0634 203.205C48.1173 203.205 47.3013 202.996 46.6152 202.578C45.9334 202.156 45.4071 201.568 45.0364 200.814C44.6699 200.055 44.4867 199.173 44.4867 198.168C44.4867 197.162 44.6699 196.276 45.0364 195.509C45.4071 194.737 45.9227 194.136 46.5833 193.706C47.248 193.271 48.0236 193.054 48.91 193.054C49.4213 193.054 49.9263 193.139 50.4249 193.31C50.9235 193.48 51.3773 193.757 51.7864 194.141C52.1955 194.52 52.5215 195.023 52.7644 195.649C53.0073 196.276 53.1287 197.047 53.1287 197.963V198.602H45.5605V197.298H51.5946C51.5946 196.744 51.4838 196.25 51.2622 195.815C51.0449 195.381 50.7338 195.038 50.329 194.786C49.9284 194.535 49.4554 194.409 48.91 194.409C48.3091 194.409 47.7892 194.558 47.3503 194.857C46.9156 195.151 46.5811 195.534 46.3467 196.007C46.1124 196.48 45.9952 196.987 45.9952 197.528V198.398C45.9952 199.139 46.123 199.768 46.3787 200.283C46.6387 200.795 46.9987 201.185 47.459 201.453C47.9192 201.717 48.454 201.849 49.0634 201.849C49.4597 201.849 49.8176 201.794 50.1372 201.683C50.4611 201.568 50.7402 201.398 50.9746 201.172C51.209 200.942 51.3901 200.656 51.5179 200.315L52.9753 200.724C52.8219 201.219 52.5641 201.653 52.2019 202.028C51.8396 202.399 51.3922 202.689 50.8595 202.898C50.3269 203.102 49.7281 203.205 49.0634 203.205ZM64.1381 193.182V194.46H58.8455V193.182H64.1381ZM60.4307 203V191.827C60.4307 191.264 60.5628 190.795 60.827 190.42C61.0912 190.045 61.4343 189.764 61.8561 189.577C62.278 189.389 62.7233 189.295 63.1921 189.295C63.5628 189.295 63.8654 189.325 64.0998 189.385C64.3341 189.445 64.5088 189.5 64.6239 189.551L64.1892 190.855C64.1125 190.83 64.006 190.798 63.8696 190.759C63.7375 190.721 63.5628 190.702 63.3455 190.702C62.8469 190.702 62.4868 190.827 62.2652 191.079C62.0479 191.33 61.9392 191.699 61.9392 192.185V203H60.4307ZM67.4008 189.909V203H65.8923V189.909H67.4008ZM73.7924 203.205C72.906 203.205 72.1283 202.994 71.4593 202.572C70.7945 202.15 70.2746 201.56 69.8996 200.801C69.5289 200.043 69.3435 199.156 69.3435 198.142C69.3435 197.119 69.5289 196.227 69.8996 195.464C70.2746 194.701 70.7945 194.109 71.4593 193.687C72.1283 193.265 72.906 193.054 73.7924 193.054C74.6788 193.054 75.4543 193.265 76.1191 193.687C76.7881 194.109 77.308 194.701 77.6788 195.464C78.0538 196.227 78.2413 197.119 78.2413 198.142C78.2413 199.156 78.0538 200.043 77.6788 200.801C77.308 201.56 76.7881 202.15 76.1191 202.572C75.4543 202.994 74.6788 203.205 73.7924 203.205ZM73.7924 201.849C74.4657 201.849 75.0197 201.677 75.4543 201.332C75.889 200.987 76.2107 200.533 76.4195 199.97C76.6283 199.408 76.7327 198.798 76.7327 198.142C76.7327 197.486 76.6283 196.874 76.4195 196.308C76.2107 195.741 75.889 195.283 75.4543 194.933C75.0197 194.584 74.4657 194.409 73.7924 194.409C73.1191 194.409 72.5651 194.584 72.1305 194.933C71.6958 195.283 71.3741 195.741 71.1653 196.308C70.9565 196.874 70.8521 197.486 70.8521 198.142C70.8521 198.798 70.9565 199.408 71.1653 199.97C71.3741 200.533 71.6958 200.987 72.1305 201.332C72.5651 201.677 73.1191 201.849 73.7924 201.849ZM84.1726 203.205C83.2863 203.205 82.5086 202.994 81.8395 202.572C81.1748 202.15 80.6549 201.56 80.2799 200.801C79.9091 200.043 79.7238 199.156 79.7238 198.142C79.7238 197.119 79.9091 196.227 80.2799 195.464C80.6549 194.701 81.1748 194.109 81.8395 193.687C82.5086 193.265 83.2863 193.054 84.1726 193.054C85.059 193.054 85.8346 193.265 86.4993 193.687C87.1684 194.109 87.6883 194.701 88.059 195.464C88.434 196.227 88.6215 197.119 88.6215 198.142C88.6215 199.156 88.434 200.043 88.059 200.801C87.6883 201.56 87.1684 202.15 86.4993 202.572C85.8346 202.994 85.059 203.205 84.1726 203.205ZM84.1726 201.849C84.8459 201.849 85.3999 201.677 85.8346 201.332C86.2692 200.987 86.591 200.533 86.7998 199.97C87.0086 199.408 87.113 198.798 87.113 198.142C87.113 197.486 87.0086 196.874 86.7998 196.308C86.591 195.741 86.2692 195.283 85.8346 194.933C85.3999 194.584 84.8459 194.409 84.1726 194.409C83.4993 194.409 82.9454 194.584 82.5107 194.933C82.076 195.283 81.7543 195.741 81.5455 196.308C81.3367 196.874 81.2323 197.486 81.2323 198.142C81.2323 198.798 81.3367 199.408 81.5455 199.97C81.7543 200.533 82.076 200.987 82.5107 201.332C82.9454 201.677 83.4993 201.849 84.1726 201.849ZM94.2716 203.205C93.4534 203.205 92.7311 202.998 92.1047 202.585C91.4783 202.167 90.9882 201.579 90.6345 200.82C90.2808 200.058 90.104 199.156 90.104 198.116C90.104 197.085 90.2808 196.19 90.6345 195.432C90.9882 194.673 91.4804 194.087 92.1111 193.674C92.7418 193.261 93.4705 193.054 94.2972 193.054C94.9364 193.054 95.4414 193.161 95.8121 193.374C96.1871 193.582 96.4726 193.821 96.6686 194.089C96.8689 194.354 97.0245 194.571 97.1353 194.741H97.2631V189.909H98.7716V203H97.3142V201.491H97.1353C97.0245 201.67 96.8668 201.896 96.6622 202.169C96.4577 202.437 96.1658 202.678 95.7865 202.891C95.4073 203.1 94.9023 203.205 94.2716 203.205ZM94.4762 201.849C95.0813 201.849 95.5926 201.692 96.0103 201.376C96.4279 201.057 96.7453 200.616 96.9627 200.053C97.18 199.487 97.2887 198.832 97.2887 198.091C97.2887 197.358 97.1821 196.717 96.9691 196.167C96.756 195.613 96.4407 195.183 96.023 194.876C95.6054 194.565 95.0898 194.409 94.4762 194.409C93.837 194.409 93.3043 194.573 92.8782 194.901C92.4563 195.225 92.1388 195.666 91.9257 196.224C91.7169 196.778 91.6125 197.401 91.6125 198.091C91.6125 198.79 91.7191 199.425 91.9321 199.996C92.1495 200.562 92.4691 201.014 92.8909 201.351C93.3171 201.683 93.8455 201.849 94.4762 201.849ZM107.058 206.682C106.802 206.682 106.574 206.661 106.374 206.618C106.174 206.58 106.035 206.541 105.959 206.503L106.342 205.173C106.709 205.267 107.032 205.301 107.314 205.276C107.595 205.25 107.844 205.124 108.062 204.898C108.283 204.677 108.486 204.317 108.669 203.818L108.95 203.051L105.319 193.182H106.956L109.666 201.006H109.768L112.478 193.182H114.115L109.947 204.432C109.76 204.939 109.527 205.359 109.25 205.691C108.973 206.028 108.652 206.277 108.285 206.439C107.923 206.601 107.514 206.682 107.058 206.682ZM119.383 203.205C118.497 203.205 117.719 202.994 117.05 202.572C116.385 202.15 115.865 201.56 115.49 200.801C115.12 200.043 114.934 199.156 114.934 198.142C114.934 197.119 115.12 196.227 115.49 195.464C115.865 194.701 116.385 194.109 117.05 193.687C117.719 193.265 118.497 193.054 119.383 193.054C120.269 193.054 121.045 193.265 121.71 193.687C122.379 194.109 122.899 194.701 123.269 195.464C123.644 196.227 123.832 197.119 123.832 198.142C123.832 199.156 123.644 200.043 123.269 200.801C122.899 201.56 122.379 202.15 121.71 202.572C121.045 202.994 120.269 203.205 119.383 203.205ZM119.383 201.849C120.056 201.849 120.61 201.677 121.045 201.332C121.48 200.987 121.801 200.533 122.01 199.97C122.219 199.408 122.323 198.798 122.323 198.142C122.323 197.486 122.219 196.874 122.01 196.308C121.801 195.741 121.48 195.283 121.045 194.933C120.61 194.584 120.056 194.409 119.383 194.409C118.71 194.409 118.156 194.584 117.721 194.933C117.286 195.283 116.965 195.741 116.756 196.308C116.547 196.874 116.443 197.486 116.443 198.142C116.443 198.798 116.547 199.408 116.756 199.97C116.965 200.533 117.286 200.987 117.721 201.332C118.156 201.677 118.71 201.849 119.383 201.849ZM131.962 198.986V193.182H133.471V203H131.962V201.338H131.86C131.63 201.837 131.272 202.261 130.786 202.61C130.3 202.955 129.687 203.128 128.945 203.128C128.331 203.128 127.786 202.994 127.309 202.725C126.831 202.452 126.456 202.043 126.184 201.498C125.911 200.948 125.775 200.256 125.775 199.42V193.182H127.283V199.318C127.283 200.034 127.483 200.605 127.884 201.031C128.289 201.457 128.804 201.67 129.431 201.67C129.806 201.67 130.187 201.575 130.575 201.383C130.967 201.191 131.295 200.897 131.559 200.501C131.828 200.104 131.962 199.599 131.962 198.986ZM142.801 203L139.809 193.182H141.394L143.516 200.699H143.619L145.715 193.182H147.326L149.397 200.673H149.499L151.622 193.182H153.207L150.215 203H148.732L146.585 195.457H146.431L144.283 203H142.801ZM154.841 203V193.182H156.35V203H154.841ZM155.608 191.545C155.314 191.545 155.061 191.445 154.847 191.245C154.639 191.045 154.534 190.804 154.534 190.523C154.534 190.241 154.639 190.001 154.847 189.8C155.061 189.6 155.314 189.5 155.608 189.5C155.902 189.5 156.154 189.6 156.362 189.8C156.575 190.001 156.682 190.241 156.682 190.523C156.682 190.804 156.575 191.045 156.362 191.245C156.154 191.445 155.902 191.545 155.608 191.545ZM163.022 193.182V194.46H157.934V193.182H163.022ZM159.417 190.83H160.926V200.188C160.926 200.614 160.988 200.933 161.111 201.146C161.239 201.355 161.401 201.496 161.597 201.568C161.797 201.636 162.008 201.67 162.23 201.67C162.396 201.67 162.532 201.662 162.639 201.645C162.745 201.624 162.831 201.607 162.895 201.594L163.201 202.949C163.099 202.987 162.956 203.026 162.773 203.064C162.59 203.107 162.358 203.128 162.076 203.128C161.65 203.128 161.233 203.036 160.824 202.853C160.419 202.67 160.082 202.391 159.814 202.016C159.549 201.641 159.417 201.168 159.417 200.597V190.83ZM166.651 197.094V203H165.143V189.909H166.651V194.716H166.779C167.009 194.209 167.354 193.806 167.814 193.508C168.279 193.205 168.897 193.054 169.668 193.054C170.337 193.054 170.923 193.188 171.426 193.457C171.929 193.721 172.319 194.128 172.596 194.678C172.877 195.223 173.018 195.918 173.018 196.761V203H171.509V196.864C171.509 196.084 171.307 195.481 170.902 195.055C170.501 194.624 169.945 194.409 169.234 194.409C168.739 194.409 168.296 194.513 167.904 194.722C167.516 194.931 167.209 195.236 166.984 195.636C166.762 196.037 166.651 196.523 166.651 197.094ZM184.108 203.205C183.222 203.205 182.444 202.994 181.775 202.572C181.111 202.15 180.591 201.56 180.216 200.801C179.845 200.043 179.66 199.156 179.66 198.142C179.66 197.119 179.845 196.227 180.216 195.464C180.591 194.701 181.111 194.109 181.775 193.687C182.444 193.265 183.222 193.054 184.108 193.054C184.995 193.054 185.77 193.265 186.435 193.687C187.104 194.109 187.624 194.701 187.995 195.464C188.37 196.227 188.557 197.119 188.557 198.142C188.557 199.156 188.37 200.043 187.995 200.801C187.624 201.56 187.104 202.15 186.435 202.572C185.77 202.994 184.995 203.205 184.108 203.205ZM184.108 201.849C184.782 201.849 185.336 201.677 185.77 201.332C186.205 200.987 186.527 200.533 186.736 199.97C186.944 199.408 187.049 198.798 187.049 198.142C187.049 197.486 186.944 196.874 186.736 196.308C186.527 195.741 186.205 195.283 185.77 194.933C185.336 194.584 184.782 194.409 184.108 194.409C183.435 194.409 182.881 194.584 182.447 194.933C182.012 195.283 181.69 195.741 181.481 196.308C181.273 196.874 181.168 197.486 181.168 198.142C181.168 198.798 181.273 199.408 181.481 199.97C181.69 200.533 182.012 200.987 182.447 201.332C182.881 201.677 183.435 201.849 184.108 201.849ZM190.5 206.682V193.182H191.957V194.741H192.136C192.247 194.571 192.401 194.354 192.597 194.089C192.797 193.821 193.082 193.582 193.453 193.374C193.828 193.161 194.335 193.054 194.975 193.054C195.801 193.054 196.53 193.261 197.161 193.674C197.791 194.087 198.283 194.673 198.637 195.432C198.991 196.19 199.168 197.085 199.168 198.116C199.168 199.156 198.991 200.058 198.637 200.82C198.283 201.579 197.793 202.167 197.167 202.585C196.541 202.998 195.818 203.205 195 203.205C194.369 203.205 193.864 203.1 193.485 202.891C193.106 202.678 192.814 202.437 192.609 202.169C192.405 201.896 192.247 201.67 192.136 201.491H192.009V206.682H190.5ZM191.983 198.091C191.983 198.832 192.092 199.487 192.309 200.053C192.526 200.616 192.844 201.057 193.261 201.376C193.679 201.692 194.19 201.849 194.796 201.849C195.426 201.849 195.953 201.683 196.374 201.351C196.801 201.014 197.12 200.562 197.333 199.996C197.551 199.425 197.659 198.79 197.659 198.091C197.659 197.401 197.553 196.778 197.34 196.224C197.131 195.666 196.813 195.225 196.387 194.901C195.965 194.573 195.435 194.409 194.796 194.409C194.182 194.409 193.666 194.565 193.249 194.876C192.831 195.183 192.516 195.613 192.303 196.167C192.09 196.717 191.983 197.358 191.983 198.091ZM201.109 206.682V193.182H202.566V194.741H202.745C202.856 194.571 203.009 194.354 203.205 194.089C203.406 193.821 203.691 193.582 204.062 193.374C204.437 193.161 204.944 193.054 205.583 193.054C206.41 193.054 207.139 193.261 207.769 193.674C208.4 194.087 208.892 194.673 209.246 195.432C209.6 196.19 209.776 197.085 209.776 198.116C209.776 199.156 209.6 200.058 209.246 200.82C208.892 201.579 208.402 202.167 207.776 202.585C207.149 202.998 206.427 203.205 205.609 203.205C204.978 203.205 204.473 203.1 204.094 202.891C203.715 202.678 203.423 202.437 203.218 202.169C203.014 201.896 202.856 201.67 202.745 201.491H202.617V206.682H201.109ZM202.592 198.091C202.592 198.832 202.7 199.487 202.918 200.053C203.135 200.616 203.453 201.057 203.87 201.376C204.288 201.692 204.799 201.849 205.404 201.849C206.035 201.849 206.561 201.683 206.983 201.351C207.409 201.014 207.729 200.562 207.942 199.996C208.159 199.425 208.268 198.79 208.268 198.091C208.268 197.401 208.161 196.778 207.948 196.224C207.74 195.666 207.422 195.225 206.996 194.901C206.574 194.573 206.044 194.409 205.404 194.409C204.791 194.409 204.275 194.565 203.857 194.876C203.44 195.183 203.124 195.613 202.911 196.167C202.698 196.717 202.592 197.358 202.592 198.091ZM215.706 203.205C214.82 203.205 214.042 202.994 213.373 202.572C212.708 202.15 212.188 201.56 211.813 200.801C211.443 200.043 211.257 199.156 211.257 198.142C211.257 197.119 211.443 196.227 211.813 195.464C212.188 194.701 212.708 194.109 213.373 193.687C214.042 193.265 214.82 193.054 215.706 193.054C216.593 193.054 217.368 193.265 218.033 193.687C218.702 194.109 219.222 194.701 219.593 195.464C219.968 196.227 220.155 197.119 220.155 198.142C220.155 199.156 219.968 200.043 219.593 200.801C219.222 201.56 218.702 202.15 218.033 202.572C217.368 202.994 216.593 203.205 215.706 203.205ZM215.706 201.849C216.38 201.849 216.934 201.677 217.368 201.332C217.803 200.987 218.125 200.533 218.333 199.97C218.542 199.408 218.647 198.798 218.647 198.142C218.647 197.486 218.542 196.874 218.333 196.308C218.125 195.741 217.803 195.283 217.368 194.933C216.934 194.584 216.38 194.409 215.706 194.409C215.033 194.409 214.479 194.584 214.044 194.933C213.61 195.283 213.288 195.741 213.079 196.308C212.87 196.874 212.766 197.486 212.766 198.142C212.766 198.798 212.87 199.408 213.079 199.97C213.288 200.533 213.61 200.987 214.044 201.332C214.479 201.677 215.033 201.849 215.706 201.849ZM222.098 203V193.182H223.555V194.665H223.657C223.836 194.179 224.16 193.785 224.629 193.482C225.098 193.18 225.626 193.028 226.214 193.028C226.325 193.028 226.464 193.031 226.63 193.035C226.796 193.039 226.922 193.045 227.007 193.054V194.588C226.956 194.575 226.839 194.556 226.655 194.531C226.476 194.501 226.287 194.486 226.086 194.486C225.609 194.486 225.183 194.586 224.808 194.786C224.437 194.982 224.143 195.255 223.926 195.604C223.713 195.95 223.606 196.344 223.606 196.787V203H222.098ZM233.32 193.182V194.46H228.232V193.182H233.32ZM229.715 190.83H231.224V200.188C231.224 200.614 231.285 200.933 231.409 201.146C231.537 201.355 231.699 201.496 231.895 201.568C232.095 201.636 232.306 201.67 232.528 201.67C232.694 201.67 232.83 201.662 232.937 201.645C233.043 201.624 233.128 201.607 233.192 201.594L233.499 202.949C233.397 202.987 233.254 203.026 233.071 203.064C232.888 203.107 232.655 203.128 232.374 203.128C231.948 203.128 231.53 203.036 231.121 202.853C230.717 202.67 230.38 202.391 230.111 202.016C229.847 201.641 229.715 201.168 229.715 200.597V190.83ZM241.417 198.986V193.182H242.925V203H241.417V201.338H241.315C241.085 201.837 240.727 202.261 240.241 202.61C239.755 202.955 239.141 203.128 238.4 203.128C237.786 203.128 237.241 202.994 236.763 202.725C236.286 202.452 235.911 202.043 235.638 201.498C235.366 200.948 235.229 200.256 235.229 199.42V193.182H236.738V199.318C236.738 200.034 236.938 200.605 237.339 201.031C237.744 201.457 238.259 201.67 238.886 201.67C239.261 201.67 239.642 201.575 240.03 201.383C240.422 201.191 240.75 200.897 241.014 200.501C241.283 200.104 241.417 199.599 241.417 198.986ZM246.837 197.094V203H245.328V193.182H246.786V194.716H246.914C247.144 194.217 247.493 193.817 247.962 193.514C248.431 193.207 249.036 193.054 249.777 193.054C250.442 193.054 251.024 193.19 251.522 193.463C252.021 193.732 252.409 194.141 252.686 194.69C252.963 195.236 253.101 195.926 253.101 196.761V203H251.593V196.864C251.593 196.092 251.392 195.491 250.992 195.061C250.591 194.626 250.041 194.409 249.343 194.409C248.861 194.409 248.431 194.513 248.051 194.722C247.676 194.931 247.38 195.236 247.163 195.636C246.946 196.037 246.837 196.523 246.837 197.094ZM255.498 203V193.182H257.006V203H255.498ZM256.265 191.545C255.971 191.545 255.717 191.445 255.504 191.245C255.295 191.045 255.191 190.804 255.191 190.523C255.191 190.241 255.295 190.001 255.504 189.8C255.717 189.6 255.971 189.5 256.265 189.5C256.559 189.5 256.81 189.6 257.019 189.8C257.232 190.001 257.339 190.241 257.339 190.523C257.339 190.804 257.232 191.045 257.019 191.245C256.81 191.445 256.559 191.545 256.265 191.545ZM263.679 193.182V194.46H258.591V193.182H263.679ZM260.074 190.83H261.582V200.188C261.582 200.614 261.644 200.933 261.768 201.146C261.896 201.355 262.058 201.496 262.254 201.568C262.454 201.636 262.665 201.67 262.886 201.67C263.053 201.67 263.189 201.662 263.296 201.645C263.402 201.624 263.487 201.607 263.551 201.594L263.858 202.949C263.756 202.987 263.613 203.026 263.43 203.064C263.247 203.107 263.014 203.128 262.733 203.128C262.307 203.128 261.889 203.036 261.48 202.853C261.075 202.67 260.739 202.391 260.47 202.016C260.206 201.641 260.074 201.168 260.074 200.597V190.83ZM265.588 203V193.182H267.097V203H265.588ZM266.355 191.545C266.061 191.545 265.808 191.445 265.595 191.245C265.386 191.045 265.281 190.804 265.281 190.523C265.281 190.241 265.386 190.001 265.595 189.8C265.808 189.6 266.061 189.5 266.355 189.5C266.649 189.5 266.901 189.6 267.11 189.8C267.323 190.001 267.429 190.241 267.429 190.523C267.429 190.804 267.323 191.045 267.11 191.245C266.901 191.445 266.649 191.545 266.355 191.545ZM273.616 203.205C272.67 203.205 271.854 202.996 271.168 202.578C270.486 202.156 269.96 201.568 269.589 200.814C269.223 200.055 269.039 199.173 269.039 198.168C269.039 197.162 269.223 196.276 269.589 195.509C269.96 194.737 270.476 194.136 271.136 193.706C271.801 193.271 272.576 193.054 273.463 193.054C273.974 193.054 274.479 193.139 274.978 193.31C275.476 193.48 275.93 193.757 276.339 194.141C276.748 194.52 277.074 195.023 277.317 195.649C277.56 196.276 277.682 197.047 277.682 197.963V198.602H270.113V197.298H276.147C276.147 196.744 276.037 196.25 275.815 195.815C275.598 195.381 275.287 195.038 274.882 194.786C274.481 194.535 274.008 194.409 273.463 194.409C272.862 194.409 272.342 194.558 271.903 194.857C271.468 195.151 271.134 195.534 270.9 196.007C270.665 196.48 270.548 196.987 270.548 197.528V198.398C270.548 199.139 270.676 199.768 270.932 200.283C271.191 200.795 271.552 201.185 272.012 201.453C272.472 201.717 273.007 201.849 273.616 201.849C274.012 201.849 274.37 201.794 274.69 201.683C275.014 201.568 275.293 201.398 275.527 201.172C275.762 200.942 275.943 200.656 276.071 200.315L277.528 200.724C277.375 201.219 277.117 201.653 276.755 202.028C276.392 202.399 275.945 202.689 275.412 202.898C274.88 203.102 274.281 203.205 273.616 203.205ZM286.571 195.381L285.216 195.764C285.13 195.538 285.005 195.319 284.839 195.106C284.677 194.888 284.455 194.71 284.174 194.569C283.893 194.428 283.532 194.358 283.094 194.358C282.493 194.358 281.992 194.496 281.591 194.773C281.195 195.046 280.997 195.393 280.997 195.815C280.997 196.19 281.133 196.487 281.406 196.704C281.679 196.921 282.105 197.102 282.684 197.247L284.142 197.605C285.02 197.818 285.674 198.144 286.104 198.583C286.535 199.018 286.75 199.578 286.75 200.264C286.75 200.827 286.588 201.33 286.264 201.773C285.944 202.216 285.497 202.565 284.922 202.821C284.346 203.077 283.677 203.205 282.915 203.205C281.913 203.205 281.084 202.987 280.428 202.553C279.772 202.118 279.356 201.483 279.182 200.648L280.613 200.29C280.75 200.818 281.008 201.214 281.387 201.479C281.77 201.743 282.271 201.875 282.889 201.875C283.592 201.875 284.15 201.726 284.564 201.428C284.981 201.125 285.19 200.763 285.19 200.341C285.19 200 285.071 199.714 284.832 199.484C284.594 199.25 284.227 199.075 283.733 198.96L282.096 198.577C281.197 198.364 280.537 198.033 280.115 197.586C279.697 197.134 279.488 196.57 279.488 195.892C279.488 195.338 279.644 194.848 279.955 194.422C280.27 193.996 280.699 193.661 281.24 193.418C281.785 193.175 282.403 193.054 283.094 193.054C284.065 193.054 284.828 193.267 285.382 193.693C285.94 194.119 286.336 194.682 286.571 195.381ZM300.318 195.381L298.963 195.764C298.877 195.538 298.752 195.319 298.585 195.106C298.423 194.888 298.202 194.71 297.921 194.569C297.639 194.428 297.279 194.358 296.84 194.358C296.239 194.358 295.739 194.496 295.338 194.773C294.942 195.046 294.744 195.393 294.744 195.815C294.744 196.19 294.88 196.487 295.153 196.704C295.426 196.921 295.852 197.102 296.431 197.247L297.889 197.605C298.766 197.818 299.421 198.144 299.851 198.583C300.281 199.018 300.497 199.578 300.497 200.264C300.497 200.827 300.335 201.33 300.011 201.773C299.691 202.216 299.244 202.565 298.668 202.821C298.093 203.077 297.424 203.205 296.661 203.205C295.66 203.205 294.831 202.987 294.175 202.553C293.519 202.118 293.103 201.483 292.928 200.648L294.36 200.29C294.497 200.818 294.754 201.214 295.134 201.479C295.517 201.743 296.018 201.875 296.636 201.875C297.339 201.875 297.897 201.726 298.311 201.428C298.728 201.125 298.937 200.763 298.937 200.341C298.937 200 298.818 199.714 298.579 199.484C298.34 199.25 297.974 199.075 297.48 198.96L295.843 198.577C294.944 198.364 294.284 198.033 293.862 197.586C293.444 197.134 293.235 196.57 293.235 195.892C293.235 195.338 293.391 194.848 293.702 194.422C294.017 193.996 294.445 193.661 294.987 193.418C295.532 193.175 296.15 193.054 296.84 193.054C297.812 193.054 298.575 193.267 299.129 193.693C299.687 194.119 300.083 194.682 300.318 195.381ZM306.396 203.205C305.51 203.205 304.732 202.994 304.063 202.572C303.398 202.15 302.878 201.56 302.503 200.801C302.132 200.043 301.947 199.156 301.947 198.142C301.947 197.119 302.132 196.227 302.503 195.464C302.878 194.701 303.398 194.109 304.063 193.687C304.732 193.265 305.51 193.054 306.396 193.054C307.282 193.054 308.058 193.265 308.723 193.687C309.392 194.109 309.912 194.701 310.282 195.464C310.657 196.227 310.845 197.119 310.845 198.142C310.845 199.156 310.657 200.043 310.282 200.801C309.912 201.56 309.392 202.15 308.723 202.572C308.058 202.994 307.282 203.205 306.396 203.205ZM306.396 201.849C307.069 201.849 307.623 201.677 308.058 201.332C308.493 200.987 308.814 200.533 309.023 199.97C309.232 199.408 309.336 198.798 309.336 198.142C309.336 197.486 309.232 196.874 309.023 196.308C308.814 195.741 308.493 195.283 308.058 194.933C307.623 194.584 307.069 194.409 306.396 194.409C305.723 194.409 305.169 194.584 304.734 194.933C304.299 195.283 303.978 195.741 303.769 196.308C303.56 196.874 303.456 197.486 303.456 198.142C303.456 198.798 303.56 199.408 303.769 199.97C303.978 200.533 304.299 200.987 304.734 201.332C305.169 201.677 305.723 201.849 306.396 201.849ZM318.462 206.682C318.206 206.682 317.978 206.661 317.778 206.618C317.577 206.58 317.439 206.541 317.362 206.503L317.746 205.173C318.112 205.267 318.436 205.301 318.717 205.276C318.999 205.25 319.248 205.124 319.465 204.898C319.687 204.677 319.889 204.317 320.072 203.818L320.354 203.051L316.723 193.182H318.359L321.07 201.006H321.172L323.882 193.182H325.518L321.351 204.432C321.163 204.939 320.931 205.359 320.654 205.691C320.377 206.028 320.055 206.277 319.689 206.439C319.327 206.601 318.918 206.682 318.462 206.682ZM330.787 203.205C329.9 203.205 329.123 202.994 328.454 202.572C327.789 202.15 327.269 201.56 326.894 200.801C326.523 200.043 326.338 199.156 326.338 198.142C326.338 197.119 326.523 196.227 326.894 195.464C327.269 194.701 327.789 194.109 328.454 193.687C329.123 193.265 329.9 193.054 330.787 193.054C331.673 193.054 332.449 193.265 333.113 193.687C333.782 194.109 334.302 194.701 334.673 195.464C335.048 196.227 335.236 197.119 335.236 198.142C335.236 199.156 335.048 200.043 334.673 200.801C334.302 201.56 333.782 202.15 333.113 202.572C332.449 202.994 331.673 203.205 330.787 203.205ZM330.787 201.849C331.46 201.849 332.014 201.677 332.449 201.332C332.883 200.987 333.205 200.533 333.414 199.97C333.623 199.408 333.727 198.798 333.727 198.142C333.727 197.486 333.623 196.874 333.414 196.308C333.205 195.741 332.883 195.283 332.449 194.933C332.014 194.584 331.46 194.409 330.787 194.409C330.113 194.409 329.559 194.584 329.125 194.933C328.69 195.283 328.368 195.741 328.16 196.308C327.951 196.874 327.846 197.486 327.846 198.142C327.846 198.798 327.951 199.408 328.16 199.97C328.368 200.533 328.69 200.987 329.125 201.332C329.559 201.677 330.113 201.849 330.787 201.849ZM343.366 198.986V193.182H344.874V203H343.366V201.338H343.264C343.033 201.837 342.675 202.261 342.19 202.61C341.704 202.955 341.09 203.128 340.349 203.128C339.735 203.128 339.19 202.994 338.712 202.725C338.235 202.452 337.86 202.043 337.587 201.498C337.315 200.948 337.178 200.256 337.178 199.42V193.182H338.687V199.318C338.687 200.034 338.887 200.605 339.288 201.031C339.692 201.457 340.208 201.67 340.835 201.67C341.21 201.67 341.591 201.575 341.979 201.383C342.371 201.191 342.699 200.897 342.963 200.501C343.232 200.104 343.366 199.599 343.366 198.986ZM355.968 203.205C355.048 203.205 354.255 202.987 353.591 202.553C352.926 202.118 352.414 201.519 352.056 200.756C351.699 199.994 351.52 199.122 351.52 198.142C351.52 197.145 351.703 196.265 352.069 195.502C352.44 194.735 352.956 194.136 353.616 193.706C354.281 193.271 355.056 193.054 355.943 193.054C356.633 193.054 357.255 193.182 357.809 193.438C358.363 193.693 358.817 194.051 359.171 194.511C359.525 194.972 359.744 195.509 359.829 196.122H358.321C358.206 195.675 357.95 195.278 357.554 194.933C357.162 194.584 356.633 194.409 355.968 194.409C355.38 194.409 354.865 194.562 354.422 194.869C353.983 195.172 353.64 195.6 353.392 196.154C353.15 196.704 353.028 197.349 353.028 198.091C353.028 198.849 353.147 199.51 353.386 200.072C353.629 200.635 353.97 201.072 354.409 201.383C354.852 201.694 355.372 201.849 355.968 201.849C356.36 201.849 356.716 201.781 357.036 201.645C357.355 201.509 357.626 201.312 357.848 201.057C358.069 200.801 358.227 200.494 358.321 200.136H359.829C359.744 200.716 359.533 201.238 359.196 201.702C358.864 202.163 358.423 202.529 357.873 202.802C357.328 203.07 356.693 203.205 355.968 203.205ZM364.564 203.23C363.942 203.23 363.377 203.113 362.87 202.879C362.363 202.64 361.96 202.297 361.662 201.849C361.363 201.398 361.214 200.852 361.214 200.213C361.214 199.651 361.325 199.195 361.547 198.845C361.768 198.491 362.064 198.214 362.435 198.014C362.806 197.814 363.215 197.665 363.662 197.567C364.114 197.464 364.568 197.384 365.024 197.324C365.62 197.247 366.104 197.19 366.475 197.151C366.85 197.109 367.123 197.038 367.293 196.94C367.468 196.842 367.555 196.672 367.555 196.429V196.378C367.555 195.747 367.383 195.257 367.037 194.908C366.696 194.558 366.179 194.384 365.484 194.384C364.764 194.384 364.199 194.541 363.79 194.857C363.381 195.172 363.094 195.509 362.927 195.866L361.495 195.355C361.751 194.759 362.092 194.294 362.518 193.962C362.949 193.625 363.417 193.391 363.924 193.259C364.436 193.122 364.939 193.054 365.433 193.054C365.748 193.054 366.111 193.092 366.52 193.169C366.933 193.241 367.331 193.393 367.715 193.623C368.103 193.853 368.424 194.2 368.68 194.665C368.936 195.129 369.064 195.751 369.064 196.531V203H367.555V201.67H367.478C367.376 201.884 367.206 202.112 366.967 202.354C366.728 202.597 366.411 202.804 366.015 202.974C365.618 203.145 365.135 203.23 364.564 203.23ZM364.794 201.875C365.39 201.875 365.893 201.758 366.302 201.523C366.716 201.289 367.027 200.987 367.236 200.616C367.449 200.245 367.555 199.855 367.555 199.446V198.065C367.491 198.142 367.351 198.212 367.133 198.276C366.92 198.336 366.673 198.389 366.392 198.436C366.115 198.479 365.844 198.517 365.58 198.551C365.32 198.581 365.109 198.607 364.947 198.628C364.555 198.679 364.189 198.762 363.848 198.877C363.511 198.988 363.238 199.156 363.03 199.382C362.825 199.604 362.723 199.906 362.723 200.29C362.723 200.814 362.917 201.21 363.304 201.479C363.696 201.743 364.193 201.875 364.794 201.875ZM372.966 197.094V203H371.457V193.182H372.914V194.716H373.042C373.272 194.217 373.622 193.817 374.091 193.514C374.559 193.207 375.164 193.054 375.906 193.054C376.571 193.054 377.152 193.19 377.651 193.463C378.15 193.732 378.537 194.141 378.814 194.69C379.091 195.236 379.23 195.926 379.23 196.761V203H377.721V196.864C377.721 196.092 377.521 195.491 377.12 195.061C376.72 194.626 376.17 194.409 375.471 194.409C374.99 194.409 374.559 194.513 374.18 194.722C373.805 194.931 373.509 195.236 373.292 195.636C373.074 196.037 372.966 196.523 372.966 197.094ZM116.778 213.182V214.46H111.486V213.182H116.778ZM113.071 223V211.827C113.071 211.264 113.203 210.795 113.467 210.42C113.731 210.045 114.074 209.764 114.496 209.577C114.918 209.389 115.363 209.295 115.832 209.295C116.203 209.295 116.506 209.325 116.74 209.385C116.974 209.445 117.149 209.5 117.264 209.551L116.829 210.855C116.753 210.83 116.646 210.798 116.51 210.759C116.378 210.721 116.203 210.702 115.986 210.702C115.487 210.702 115.127 210.827 114.905 211.079C114.688 211.33 114.579 211.699 114.579 212.185V223H113.071ZM122.117 223.205C121.23 223.205 120.453 222.994 119.784 222.572C119.119 222.15 118.599 221.56 118.224 220.801C117.853 220.043 117.668 219.156 117.668 218.142C117.668 217.119 117.853 216.227 118.224 215.464C118.599 214.701 119.119 214.109 119.784 213.687C120.453 213.265 121.23 213.054 122.117 213.054C123.003 213.054 123.779 213.265 124.443 213.687C125.113 214.109 125.632 214.701 126.003 215.464C126.378 216.227 126.566 217.119 126.566 218.142C126.566 219.156 126.378 220.043 126.003 220.801C125.632 221.56 125.113 222.15 124.443 222.572C123.779 222.994 123.003 223.205 122.117 223.205ZM122.117 221.849C122.79 221.849 123.344 221.677 123.779 221.332C124.213 220.987 124.535 220.533 124.744 219.97C124.953 219.408 125.057 218.798 125.057 218.142C125.057 217.486 124.953 216.874 124.744 216.308C124.535 215.741 124.213 215.283 123.779 214.933C123.344 214.584 122.79 214.409 122.117 214.409C121.443 214.409 120.89 214.584 120.455 214.933C120.02 215.283 119.698 215.741 119.49 216.308C119.281 216.874 119.176 217.486 119.176 218.142C119.176 218.798 119.281 219.408 119.49 219.97C119.698 220.533 120.02 220.987 120.455 221.332C120.89 221.677 121.443 221.849 122.117 221.849ZM132.497 223.205C131.577 223.205 130.784 222.987 130.119 222.553C129.454 222.118 128.943 221.519 128.585 220.756C128.227 219.994 128.048 219.122 128.048 218.142C128.048 217.145 128.231 216.265 128.598 215.502C128.969 214.735 129.484 214.136 130.145 213.706C130.81 213.271 131.585 213.054 132.471 213.054C133.162 213.054 133.784 213.182 134.338 213.438C134.892 213.693 135.346 214.051 135.699 214.511C136.053 214.972 136.273 215.509 136.358 216.122H134.849C134.734 215.675 134.479 215.278 134.082 214.933C133.69 214.584 133.162 214.409 132.497 214.409C131.909 214.409 131.393 214.562 130.95 214.869C130.511 215.172 130.168 215.6 129.921 216.154C129.678 216.704 129.557 217.349 129.557 218.091C129.557 218.849 129.676 219.51 129.915 220.072C130.158 220.635 130.498 221.072 130.937 221.383C131.381 221.694 131.9 221.849 132.497 221.849C132.889 221.849 133.245 221.781 133.564 221.645C133.884 221.509 134.155 221.312 134.376 221.057C134.598 220.801 134.756 220.494 134.849 220.136H136.358C136.273 220.716 136.062 221.238 135.725 221.702C135.393 222.163 134.952 222.529 134.402 222.802C133.856 223.07 133.221 223.205 132.497 223.205ZM144.391 218.986V213.182H145.899V223H144.391V221.338H144.288C144.058 221.837 143.7 222.261 143.214 222.61C142.729 222.955 142.115 223.128 141.374 223.128C140.76 223.128 140.214 222.994 139.737 222.725C139.26 222.452 138.885 222.043 138.612 221.498C138.339 220.948 138.203 220.256 138.203 219.42V213.182H139.712V219.318C139.712 220.034 139.912 220.605 140.312 221.031C140.717 221.457 141.233 221.67 141.859 221.67C142.234 221.67 142.616 221.575 143.003 221.383C143.396 221.191 143.724 220.897 143.988 220.501C144.256 220.104 144.391 219.599 144.391 218.986ZM155.257 215.381L153.901 215.764C153.816 215.538 153.691 215.319 153.524 215.106C153.362 214.888 153.141 214.71 152.86 214.569C152.578 214.428 152.218 214.358 151.779 214.358C151.178 214.358 150.678 214.496 150.277 214.773C149.881 215.046 149.683 215.393 149.683 215.815C149.683 216.19 149.819 216.487 150.092 216.704C150.365 216.921 150.791 217.102 151.37 217.247L152.828 217.605C153.705 217.818 154.36 218.144 154.79 218.583C155.22 219.018 155.436 219.578 155.436 220.264C155.436 220.827 155.274 221.33 154.95 221.773C154.63 222.216 154.183 222.565 153.607 222.821C153.032 223.077 152.363 223.205 151.6 223.205C150.599 223.205 149.77 222.987 149.114 222.553C148.458 222.118 148.042 221.483 147.867 220.648L149.299 220.29C149.436 220.818 149.693 221.214 150.073 221.479C150.456 221.743 150.957 221.875 151.575 221.875C152.278 221.875 152.836 221.726 153.249 221.428C153.667 221.125 153.876 220.763 153.876 220.341C153.876 220 153.757 219.714 153.518 219.484C153.279 219.25 152.913 219.075 152.419 218.96L150.782 218.577C149.883 218.364 149.223 218.033 148.801 217.586C148.383 217.134 148.174 216.57 148.174 215.892C148.174 215.338 148.33 214.848 148.641 214.422C148.956 213.996 149.384 213.661 149.926 213.418C150.471 213.175 151.089 213.054 151.779 213.054C152.751 213.054 153.514 213.267 154.068 213.693C154.626 214.119 155.022 214.682 155.257 215.381ZM166.037 223.205C165.151 223.205 164.373 222.994 163.704 222.572C163.04 222.15 162.52 221.56 162.145 220.801C161.774 220.043 161.589 219.156 161.589 218.142C161.589 217.119 161.774 216.227 162.145 215.464C162.52 214.701 163.04 214.109 163.704 213.687C164.373 213.265 165.151 213.054 166.037 213.054C166.924 213.054 167.699 213.265 168.364 213.687C169.033 214.109 169.553 214.701 169.924 215.464C170.299 216.227 170.486 217.119 170.486 218.142C170.486 219.156 170.299 220.043 169.924 220.801C169.553 221.56 169.033 222.15 168.364 222.572C167.699 222.994 166.924 223.205 166.037 223.205ZM166.037 221.849C166.711 221.849 167.265 221.677 167.699 221.332C168.134 220.987 168.456 220.533 168.665 219.97C168.873 219.408 168.978 218.798 168.978 218.142C168.978 217.486 168.873 216.874 168.665 216.308C168.456 215.741 168.134 215.283 167.699 214.933C167.265 214.584 166.711 214.409 166.037 214.409C165.364 214.409 164.81 214.584 164.376 214.933C163.941 215.283 163.619 215.741 163.41 216.308C163.202 216.874 163.097 217.486 163.097 218.142C163.097 218.798 163.202 219.408 163.41 219.97C163.619 220.533 163.941 220.987 164.376 221.332C164.81 221.677 165.364 221.849 166.037 221.849ZM173.938 217.094V223H172.429V213.182H173.886V214.716H174.014C174.244 214.217 174.594 213.817 175.063 213.514C175.531 213.207 176.136 213.054 176.878 213.054C177.543 213.054 178.124 213.19 178.623 213.463C179.122 213.732 179.509 214.141 179.786 214.69C180.063 215.236 180.202 215.926 180.202 216.761V223H178.693V216.864C178.693 216.092 178.493 215.491 178.092 215.061C177.692 214.626 177.142 214.409 176.443 214.409C175.962 214.409 175.531 214.513 175.152 214.722C174.777 214.931 174.481 215.236 174.264 215.636C174.046 216.037 173.938 216.523 173.938 217.094ZM191.29 223.205C190.369 223.205 189.576 222.987 188.912 222.553C188.247 222.118 187.736 221.519 187.378 220.756C187.02 219.994 186.841 219.122 186.841 218.142C186.841 217.145 187.024 216.265 187.39 215.502C187.761 214.735 188.277 214.136 188.937 213.706C189.602 213.271 190.378 213.054 191.264 213.054C191.954 213.054 192.576 213.182 193.13 213.438C193.684 213.693 194.138 214.051 194.492 214.511C194.846 214.972 195.065 215.509 195.15 216.122H193.642C193.527 215.675 193.271 215.278 192.875 214.933C192.483 214.584 191.954 214.409 191.29 214.409C190.701 214.409 190.186 214.562 189.743 214.869C189.304 215.172 188.961 215.6 188.714 216.154C188.471 216.704 188.349 217.349 188.349 218.091C188.349 218.849 188.468 219.51 188.707 220.072C188.95 220.635 189.291 221.072 189.73 221.383C190.173 221.694 190.693 221.849 191.29 221.849C191.682 221.849 192.037 221.781 192.357 221.645C192.677 221.509 192.947 221.312 193.169 221.057C193.39 220.801 193.548 220.494 193.642 220.136H195.15C195.065 220.716 194.854 221.238 194.517 221.702C194.185 222.163 193.744 222.529 193.194 222.802C192.649 223.07 192.014 223.205 191.29 223.205ZM198.504 209.909V223H196.996V209.909H198.504ZM204.896 223.205C204.009 223.205 203.232 222.994 202.563 222.572C201.898 222.15 201.378 221.56 201.003 220.801C200.632 220.043 200.447 219.156 200.447 218.142C200.447 217.119 200.632 216.227 201.003 215.464C201.378 214.701 201.898 214.109 202.563 213.687C203.232 213.265 204.009 213.054 204.896 213.054C205.782 213.054 206.558 213.265 207.222 213.687C207.891 214.109 208.411 214.701 208.782 215.464C209.157 216.227 209.345 217.119 209.345 218.142C209.345 219.156 209.157 220.043 208.782 220.801C208.411 221.56 207.891 222.15 207.222 222.572C206.558 222.994 205.782 223.205 204.896 223.205ZM204.896 221.849C205.569 221.849 206.123 221.677 206.558 221.332C206.992 220.987 207.314 220.533 207.523 219.97C207.732 219.408 207.836 218.798 207.836 218.142C207.836 217.486 207.732 216.874 207.523 216.308C207.314 215.741 206.992 215.283 206.558 214.933C206.123 214.584 205.569 214.409 204.896 214.409C204.222 214.409 203.668 214.584 203.234 214.933C202.799 215.283 202.477 215.741 202.269 216.308C202.06 216.874 201.955 217.486 201.955 218.142C201.955 218.798 202.06 219.408 202.269 219.97C202.477 220.533 202.799 220.987 203.234 221.332C203.668 221.677 204.222 221.849 204.896 221.849ZM218.242 215.381L216.887 215.764C216.801 215.538 216.676 215.319 216.51 215.106C216.348 214.888 216.126 214.71 215.845 214.569C215.564 214.428 215.203 214.358 214.765 214.358C214.164 214.358 213.663 214.496 213.262 214.773C212.866 215.046 212.668 215.393 212.668 215.815C212.668 216.19 212.804 216.487 213.077 216.704C213.35 216.921 213.776 217.102 214.355 217.247L215.813 217.605C216.691 217.818 217.345 218.144 217.775 218.583C218.206 219.018 218.421 219.578 218.421 220.264C218.421 220.827 218.259 221.33 217.935 221.773C217.615 222.216 217.168 222.565 216.593 222.821C216.017 223.077 215.348 223.205 214.586 223.205C213.584 223.205 212.755 222.987 212.099 222.553C211.443 222.118 211.027 221.483 210.853 220.648L212.284 220.29C212.421 220.818 212.679 221.214 213.058 221.479C213.441 221.743 213.942 221.875 214.56 221.875C215.263 221.875 215.821 221.726 216.235 221.428C216.652 221.125 216.861 220.763 216.861 220.341C216.861 220 216.742 219.714 216.503 219.484C216.265 219.25 215.898 219.075 215.404 218.96L213.767 218.577C212.868 218.364 212.208 218.033 211.786 217.586C211.368 217.134 211.159 216.57 211.159 215.892C211.159 215.338 211.315 214.848 211.626 214.422C211.941 213.996 212.37 213.661 212.911 213.418C213.456 213.175 214.074 213.054 214.765 213.054C215.736 213.054 216.499 213.267 217.053 213.693C217.611 214.119 218.007 214.682 218.242 215.381ZM220.332 223V213.182H221.84V223H220.332ZM221.099 211.545C220.805 211.545 220.551 211.445 220.338 211.245C220.129 211.045 220.025 210.804 220.025 210.523C220.025 210.241 220.129 210.001 220.338 209.8C220.551 209.6 220.805 209.5 221.099 209.5C221.393 209.5 221.644 209.6 221.853 209.8C222.066 210.001 222.172 210.241 222.172 210.523C222.172 210.804 222.066 211.045 221.853 211.245C221.644 211.445 221.393 211.545 221.099 211.545ZM225.752 217.094V223H224.243V213.182H225.7V214.716H225.828C226.058 214.217 226.408 213.817 226.877 213.514C227.345 213.207 227.95 213.054 228.692 213.054C229.357 213.054 229.938 213.19 230.437 213.463C230.936 213.732 231.323 214.141 231.6 214.69C231.877 215.236 232.016 215.926 232.016 216.761V223H230.507V216.864C230.507 216.092 230.307 215.491 229.906 215.061C229.506 214.626 228.956 214.409 228.257 214.409C227.776 214.409 227.345 214.513 226.966 214.722C226.591 214.931 226.295 215.236 226.078 215.636C225.86 216.037 225.752 216.523 225.752 217.094ZM238.375 226.886C237.647 226.886 237.02 226.793 236.496 226.605C235.972 226.422 235.535 226.179 235.186 225.876C234.841 225.578 234.566 225.259 234.361 224.918L235.563 224.074C235.699 224.253 235.872 224.457 236.081 224.688C236.289 224.922 236.575 225.124 236.937 225.295C237.304 225.469 237.783 225.557 238.375 225.557C239.168 225.557 239.822 225.365 240.338 224.982C240.853 224.598 241.111 223.997 241.111 223.179V221.185H240.983C240.873 221.364 240.715 221.585 240.51 221.849C240.31 222.109 240.02 222.342 239.641 222.546C239.266 222.746 238.759 222.847 238.12 222.847C237.327 222.847 236.615 222.659 235.985 222.284C235.358 221.909 234.862 221.364 234.495 220.648C234.133 219.932 233.952 219.062 233.952 218.04C233.952 217.034 234.129 216.158 234.483 215.413C234.836 214.663 235.329 214.083 235.959 213.674C236.59 213.261 237.319 213.054 238.145 213.054C238.785 213.054 239.292 213.161 239.667 213.374C240.046 213.582 240.336 213.821 240.536 214.089C240.74 214.354 240.898 214.571 241.009 214.741H241.162V213.182H242.62V223.281C242.62 224.125 242.428 224.811 242.044 225.339C241.665 225.872 241.154 226.262 240.51 226.509C239.871 226.761 239.16 226.886 238.375 226.886ZM238.324 221.491C238.929 221.491 239.441 221.353 239.858 221.076C240.276 220.799 240.593 220.401 240.811 219.881C241.028 219.361 241.137 218.739 241.137 218.014C241.137 217.307 241.03 216.683 240.817 216.141C240.604 215.6 240.289 215.176 239.871 214.869C239.454 214.562 238.938 214.409 238.324 214.409C237.685 214.409 237.152 214.571 236.726 214.895C236.304 215.219 235.987 215.653 235.774 216.199C235.565 216.744 235.461 217.349 235.461 218.014C235.461 218.696 235.567 219.299 235.78 219.823C235.998 220.343 236.317 220.752 236.739 221.05C237.165 221.344 237.694 221.491 238.324 221.491ZM253.431 223.205C252.613 223.205 251.891 222.998 251.264 222.585C250.638 222.167 250.148 221.579 249.794 220.82C249.44 220.058 249.263 219.156 249.263 218.116C249.263 217.085 249.44 216.19 249.794 215.432C250.148 214.673 250.64 214.087 251.27 213.674C251.901 213.261 252.63 213.054 253.457 213.054C254.096 213.054 254.601 213.161 254.971 213.374C255.346 213.582 255.632 213.821 255.828 214.089C256.028 214.354 256.184 214.571 256.295 214.741H256.422V209.909H257.931V223H256.474V221.491H256.295C256.184 221.67 256.026 221.896 255.822 222.169C255.617 222.437 255.325 222.678 254.946 222.891C254.567 223.1 254.062 223.205 253.431 223.205ZM253.636 221.849C254.241 221.849 254.752 221.692 255.17 221.376C255.587 221.057 255.905 220.616 256.122 220.053C256.339 219.487 256.448 218.832 256.448 218.091C256.448 217.358 256.342 216.717 256.128 216.167C255.915 215.613 255.6 215.183 255.182 214.876C254.765 214.565 254.249 214.409 253.636 214.409C252.996 214.409 252.464 214.573 252.038 214.901C251.616 215.225 251.298 215.666 251.085 216.224C250.876 216.778 250.772 217.401 250.772 218.091C250.772 218.79 250.878 219.425 251.092 219.996C251.309 220.562 251.628 221.014 252.05 221.351C252.476 221.683 253.005 221.849 253.636 221.849ZM264.66 223.205C263.714 223.205 262.898 222.996 262.212 222.578C261.53 222.156 261.004 221.568 260.633 220.814C260.266 220.055 260.083 219.173 260.083 218.168C260.083 217.162 260.266 216.276 260.633 215.509C261.004 214.737 261.519 214.136 262.18 213.706C262.844 213.271 263.62 213.054 264.506 213.054C265.018 213.054 265.523 213.139 266.021 213.31C266.52 213.48 266.974 213.757 267.383 214.141C267.792 214.52 268.118 215.023 268.361 215.649C268.604 216.276 268.725 217.047 268.725 217.963V218.602H261.157V217.298H267.191C267.191 216.744 267.08 216.25 266.859 215.815C266.641 215.381 266.33 215.038 265.925 214.786C265.525 214.535 265.052 214.409 264.506 214.409C263.906 214.409 263.386 214.558 262.947 214.857C262.512 215.151 262.178 215.534 261.943 216.007C261.709 216.48 261.592 216.987 261.592 217.528V218.398C261.592 219.139 261.719 219.768 261.975 220.283C262.235 220.795 262.595 221.185 263.055 221.453C263.516 221.717 264.05 221.849 264.66 221.849C265.056 221.849 265.414 221.794 265.734 221.683C266.058 221.568 266.337 221.398 266.571 221.172C266.805 220.942 266.986 220.656 267.114 220.315L268.572 220.724C268.418 221.219 268.16 221.653 267.798 222.028C267.436 222.399 266.989 222.689 266.456 222.898C265.923 223.102 265.325 223.205 264.66 223.205ZM273.549 223.23C272.927 223.23 272.362 223.113 271.855 222.879C271.348 222.64 270.945 222.297 270.647 221.849C270.349 221.398 270.2 220.852 270.2 220.213C270.2 219.651 270.31 219.195 270.532 218.845C270.754 218.491 271.05 218.214 271.421 218.014C271.791 217.814 272.2 217.665 272.648 217.567C273.099 217.464 273.553 217.384 274.009 217.324C274.606 217.247 275.09 217.19 275.46 217.151C275.835 217.109 276.108 217.038 276.278 216.94C276.453 216.842 276.541 216.672 276.541 216.429V216.378C276.541 215.747 276.368 215.257 276.023 214.908C275.682 214.558 275.164 214.384 274.47 214.384C273.749 214.384 273.185 214.541 272.776 214.857C272.367 215.172 272.079 215.509 271.913 215.866L270.481 215.355C270.737 214.759 271.077 214.294 271.504 213.962C271.934 213.625 272.403 213.391 272.91 213.259C273.421 213.122 273.924 213.054 274.418 213.054C274.734 213.054 275.096 213.092 275.505 213.169C275.918 213.241 276.317 213.393 276.7 213.623C277.088 213.853 277.41 214.2 277.666 214.665C277.921 215.129 278.049 215.751 278.049 216.531V223H276.541V221.67H276.464C276.362 221.884 276.191 222.112 275.952 222.354C275.714 222.597 275.396 222.804 275 222.974C274.604 223.145 274.12 223.23 273.549 223.23ZM273.779 221.875C274.376 221.875 274.879 221.758 275.288 221.523C275.701 221.289 276.012 220.987 276.221 220.616C276.434 220.245 276.541 219.855 276.541 219.446V218.065C276.477 218.142 276.336 218.212 276.119 218.276C275.906 218.336 275.658 218.389 275.377 218.436C275.1 218.479 274.83 218.517 274.565 218.551C274.305 218.581 274.095 218.607 273.933 218.628C273.541 218.679 273.174 218.762 272.833 218.877C272.497 218.988 272.224 219.156 272.015 219.382C271.81 219.604 271.708 219.906 271.708 220.29C271.708 220.814 271.902 221.21 272.29 221.479C272.682 221.743 273.178 221.875 273.779 221.875ZM281.951 209.909V223H280.442V209.909H281.951ZM291.308 215.381L289.953 215.764C289.868 215.538 289.742 215.319 289.576 215.106C289.414 214.888 289.193 214.71 288.911 214.569C288.63 214.428 288.27 214.358 287.831 214.358C287.23 214.358 286.73 214.496 286.329 214.773C285.933 215.046 285.735 215.393 285.735 215.815C285.735 216.19 285.871 216.487 286.144 216.704C286.416 216.921 286.843 217.102 287.422 217.247L288.879 217.605C289.757 217.818 290.411 218.144 290.842 218.583C291.272 219.018 291.487 219.578 291.487 220.264C291.487 220.827 291.326 221.33 291.002 221.773C290.682 222.216 290.235 222.565 289.659 222.821C289.084 223.077 288.415 223.205 287.652 223.205C286.651 223.205 285.822 222.987 285.166 222.553C284.509 222.118 284.094 221.483 283.919 220.648L285.351 220.29C285.487 220.818 285.745 221.214 286.125 221.479C286.508 221.743 287.009 221.875 287.627 221.875C288.33 221.875 288.888 221.726 289.301 221.428C289.719 221.125 289.928 220.763 289.928 220.341C289.928 220 289.808 219.714 289.57 219.484C289.331 219.25 288.965 219.075 288.47 218.96L286.834 218.577C285.935 218.364 285.274 218.033 284.852 217.586C284.435 217.134 284.226 216.57 284.226 215.892C284.226 215.338 284.382 214.848 284.693 214.422C285.008 213.996 285.436 213.661 285.977 213.418C286.523 213.175 287.141 213.054 287.831 213.054C288.803 213.054 289.566 213.267 290.12 213.693C290.678 214.119 291.074 214.682 291.308 215.381ZM294.498 223.102C294.182 223.102 293.912 222.989 293.686 222.763C293.46 222.538 293.347 222.267 293.347 221.952C293.347 221.636 293.46 221.366 293.686 221.14C293.912 220.914 294.182 220.801 294.498 220.801C294.813 220.801 295.084 220.914 295.309 221.14C295.535 221.366 295.648 221.636 295.648 221.952C295.648 222.161 295.595 222.352 295.488 222.527C295.386 222.702 295.248 222.842 295.073 222.949C294.902 223.051 294.711 223.102 294.498 223.102Z" fill="white"/>
<rect x="142.5" y="258" width="123" height="32" rx="16" fill="#EEF1FF"/>
<g filter="url(#filter1_d_114_3111)">
<path d="M159.057 270.364V268.818H167.18V270.364H164.033V279H162.204V270.364H159.057ZM172.215 275.788V271.364H174.015V279H172.27V277.643H172.19C172.018 278.07 171.734 278.42 171.34 278.692C170.949 278.964 170.467 279.099 169.893 279.099C169.393 279.099 168.95 278.988 168.566 278.766C168.185 278.541 167.886 278.214 167.671 277.787C167.456 277.356 167.348 276.836 167.348 276.226V271.364H169.148V275.947C169.148 276.431 169.28 276.816 169.545 277.101C169.81 277.386 170.158 277.528 170.589 277.528C170.854 277.528 171.111 277.464 171.36 277.335C171.608 277.205 171.812 277.013 171.971 276.758C172.134 276.499 172.215 276.176 172.215 275.788ZM175.585 279V271.364H177.33V272.636H177.41C177.549 272.196 177.788 271.856 178.126 271.617C178.467 271.375 178.857 271.254 179.294 271.254C179.394 271.254 179.505 271.259 179.627 271.269C179.753 271.276 179.858 271.287 179.941 271.304V272.96C179.864 272.933 179.743 272.91 179.578 272.89C179.415 272.867 179.258 272.855 179.105 272.855C178.777 272.855 178.482 272.926 178.22 273.069C177.962 273.208 177.758 273.402 177.609 273.651C177.46 273.899 177.385 274.186 177.385 274.511V279H175.585ZM182.656 274.526V279H180.856V271.364H182.576V272.661H182.666C182.842 272.234 183.122 271.894 183.506 271.642C183.894 271.39 184.373 271.264 184.943 271.264C185.47 271.264 185.929 271.377 186.32 271.602C186.714 271.828 187.019 272.154 187.235 272.582C187.454 273.009 187.561 273.528 187.558 274.138V279H185.758V274.416C185.758 273.906 185.626 273.506 185.36 273.218C185.099 272.93 184.736 272.786 184.272 272.786C183.957 272.786 183.677 272.855 183.431 272.994C183.19 273.13 182.999 273.327 182.86 273.586C182.724 273.844 182.656 274.158 182.656 274.526ZM197.913 271.617C197.867 271.183 197.671 270.845 197.326 270.603C196.985 270.361 196.541 270.24 195.994 270.24C195.61 270.24 195.28 270.298 195.005 270.414C194.73 270.53 194.519 270.687 194.373 270.886C194.227 271.085 194.153 271.312 194.15 271.567C194.15 271.78 194.198 271.964 194.294 272.119C194.393 272.275 194.527 272.408 194.696 272.517C194.865 272.623 195.053 272.713 195.258 272.786C195.464 272.858 195.671 272.92 195.88 272.969L196.834 273.208C197.219 273.298 197.588 273.419 197.943 273.571C198.301 273.723 198.621 273.916 198.902 274.148C199.187 274.38 199.413 274.66 199.579 274.988C199.744 275.316 199.827 275.701 199.827 276.141C199.827 276.738 199.675 277.263 199.37 277.717C199.065 278.168 198.624 278.521 198.047 278.776C197.474 279.028 196.78 279.154 195.964 279.154C195.172 279.154 194.484 279.031 193.901 278.786C193.321 278.541 192.867 278.183 192.539 277.712C192.214 277.242 192.038 276.668 192.012 275.992H193.826C193.853 276.347 193.962 276.642 194.155 276.877C194.347 277.112 194.597 277.288 194.905 277.404C195.217 277.52 195.565 277.578 195.949 277.578C196.35 277.578 196.702 277.518 197.003 277.399C197.308 277.277 197.547 277.107 197.719 276.892C197.891 276.673 197.979 276.418 197.983 276.126C197.979 275.861 197.901 275.643 197.749 275.47C197.597 275.295 197.383 275.149 197.108 275.033C196.836 274.913 196.518 274.807 196.153 274.714L194.995 274.416C194.156 274.201 193.493 273.874 193.006 273.437C192.522 272.996 192.28 272.411 192.28 271.682C192.28 271.082 192.443 270.557 192.767 270.106C193.096 269.655 193.541 269.305 194.105 269.057C194.668 268.805 195.306 268.679 196.019 268.679C196.741 268.679 197.374 268.805 197.918 269.057C198.465 269.305 198.894 269.652 199.206 270.096C199.517 270.537 199.678 271.044 199.688 271.617H197.913ZM203.309 279.154C202.825 279.154 202.39 279.068 202.002 278.896C201.617 278.72 201.312 278.461 201.087 278.12C200.865 277.779 200.754 277.358 200.754 276.857C200.754 276.426 200.833 276.07 200.993 275.788C201.152 275.507 201.369 275.281 201.644 275.112C201.919 274.943 202.229 274.816 202.574 274.729C202.922 274.64 203.281 274.575 203.652 274.536C204.1 274.489 204.463 274.448 204.741 274.411C205.02 274.371 205.222 274.312 205.348 274.232C205.477 274.149 205.542 274.022 205.542 273.849V273.82C205.542 273.445 205.431 273.155 205.208 272.95C204.986 272.744 204.667 272.641 204.249 272.641C203.808 272.641 203.458 272.737 203.2 272.93C202.945 273.122 202.772 273.349 202.683 273.611L201.003 273.372C201.135 272.908 201.354 272.52 201.659 272.209C201.964 271.894 202.337 271.659 202.777 271.503C203.218 271.344 203.705 271.264 204.239 271.264C204.607 271.264 204.973 271.307 205.338 271.393C205.702 271.48 206.035 271.622 206.337 271.821C206.639 272.017 206.881 272.283 207.063 272.621C207.249 272.96 207.341 273.382 207.341 273.889V279H205.611V277.951H205.552C205.442 278.163 205.288 278.362 205.089 278.548C204.894 278.73 204.647 278.877 204.348 278.99C204.053 279.099 203.707 279.154 203.309 279.154ZM203.777 277.832C204.138 277.832 204.451 277.76 204.716 277.618C204.981 277.472 205.185 277.28 205.328 277.041C205.474 276.803 205.547 276.542 205.547 276.261V275.361C205.49 275.407 205.394 275.45 205.258 275.49C205.126 275.53 204.976 275.565 204.811 275.594C204.645 275.624 204.481 275.651 204.319 275.674C204.156 275.697 204.015 275.717 203.896 275.734C203.628 275.77 203.387 275.83 203.175 275.913C202.963 275.996 202.796 276.112 202.673 276.261C202.55 276.406 202.489 276.595 202.489 276.827C202.489 277.159 202.61 277.409 202.852 277.578C203.094 277.747 203.402 277.832 203.777 277.832ZM210.671 268.818V279H208.871V268.818H210.671ZM215.622 279.149C214.856 279.149 214.195 278.99 213.638 278.672C213.085 278.35 212.659 277.896 212.361 277.31C212.062 276.72 211.913 276.025 211.913 275.227C211.913 274.441 212.062 273.752 212.361 273.158C212.662 272.562 213.083 272.098 213.623 271.766C214.164 271.432 214.798 271.264 215.528 271.264C215.998 271.264 216.442 271.34 216.86 271.493C217.281 271.642 217.652 271.874 217.974 272.189C218.298 272.504 218.554 272.905 218.739 273.392C218.925 273.876 219.018 274.453 219.018 275.122V275.674H212.758V274.461H217.292C217.289 274.116 217.215 273.81 217.069 273.541C216.923 273.269 216.719 273.056 216.457 272.9C216.199 272.744 215.897 272.666 215.552 272.666C215.185 272.666 214.861 272.756 214.583 272.935C214.305 273.11 214.087 273.342 213.932 273.631C213.779 273.916 213.701 274.229 213.698 274.57V275.629C213.698 276.073 213.779 276.455 213.942 276.773C214.104 277.088 214.331 277.33 214.623 277.499C214.914 277.664 215.256 277.747 215.647 277.747C215.909 277.747 216.146 277.711 216.358 277.638C216.57 277.562 216.754 277.451 216.91 277.305C217.065 277.159 217.183 276.978 217.263 276.763L218.943 276.952C218.837 277.396 218.635 277.784 218.337 278.115C218.042 278.443 217.664 278.698 217.203 278.881C216.742 279.06 216.215 279.149 215.622 279.149ZM226.296 273.382L224.655 273.561C224.609 273.395 224.527 273.24 224.411 273.094C224.299 272.948 224.146 272.83 223.954 272.741C223.762 272.651 223.527 272.607 223.248 272.607C222.874 272.607 222.559 272.688 222.304 272.85C222.052 273.013 221.927 273.223 221.931 273.482C221.927 273.704 222.009 273.884 222.174 274.023C222.343 274.163 222.622 274.277 223.009 274.366L224.312 274.645C225.035 274.801 225.572 275.048 225.923 275.386C226.277 275.724 226.456 276.166 226.46 276.713C226.456 277.194 226.316 277.618 226.037 277.986C225.762 278.35 225.379 278.635 224.889 278.841C224.398 279.046 223.835 279.149 223.198 279.149C222.264 279.149 221.511 278.954 220.941 278.562C220.371 278.168 220.031 277.62 219.922 276.917L221.677 276.748C221.757 277.093 221.926 277.353 222.184 277.528C222.443 277.704 222.779 277.792 223.193 277.792C223.621 277.792 223.964 277.704 224.223 277.528C224.484 277.353 224.615 277.136 224.615 276.877C224.615 276.658 224.531 276.478 224.362 276.335C224.196 276.193 223.938 276.083 223.586 276.007L222.284 275.734C221.551 275.581 221.009 275.324 220.658 274.963C220.307 274.598 220.133 274.138 220.136 273.581C220.133 273.11 220.26 272.703 220.519 272.358C220.781 272.01 221.143 271.741 221.607 271.553C222.075 271.36 222.613 271.264 223.223 271.264C224.118 271.264 224.822 271.455 225.336 271.836C225.853 272.217 226.173 272.732 226.296 273.382ZM240.034 273.909C240.034 275.006 239.828 275.946 239.418 276.728C239.01 277.507 238.453 278.103 237.747 278.518C237.044 278.932 236.247 279.139 235.356 279.139C234.464 279.139 233.665 278.932 232.959 278.518C232.257 278.1 231.7 277.502 231.289 276.723C230.881 275.941 230.677 275.003 230.677 273.909C230.677 272.812 230.881 271.874 231.289 271.095C231.7 270.313 232.257 269.715 232.959 269.3C233.665 268.886 234.464 268.679 235.356 268.679C236.247 268.679 237.044 268.886 237.747 269.3C238.453 269.715 239.01 270.313 239.418 271.095C239.828 271.874 240.034 272.812 240.034 273.909ZM238.18 273.909C238.18 273.137 238.059 272.486 237.817 271.955C237.578 271.422 237.247 271.019 236.822 270.747C236.398 270.472 235.909 270.335 235.356 270.335C234.802 270.335 234.313 270.472 233.889 270.747C233.465 271.019 233.132 271.422 232.89 271.955C232.651 272.486 232.532 273.137 232.532 273.909C232.532 274.681 232.651 275.334 232.89 275.868C233.132 276.398 233.465 276.801 233.889 277.076C234.313 277.348 234.802 277.484 235.356 277.484C235.909 277.484 236.398 277.348 236.822 277.076C237.247 276.801 237.578 276.398 237.817 275.868C238.059 275.334 238.18 274.681 238.18 273.909ZM243.218 274.526V279H241.418V271.364H243.138V272.661H243.228C243.404 272.234 243.684 271.894 244.068 271.642C244.456 271.39 244.935 271.264 245.505 271.264C246.032 271.264 246.491 271.377 246.882 271.602C247.276 271.828 247.581 272.154 247.797 272.582C248.016 273.009 248.123 273.528 248.12 274.138V279H246.32V274.416C246.32 273.906 246.188 273.506 245.922 273.218C245.661 272.93 245.298 272.786 244.834 272.786C244.519 272.786 244.239 272.855 243.994 272.994C243.752 273.13 243.561 273.327 243.422 273.586C243.286 273.844 243.218 274.158 243.218 274.526Z" fill="black"/>
</g>
</g>
<defs>
<filter id="filter0_i_114_3111" x="213.24" y="-221.613" width="897.41" height="784.026" filterUnits="userSpaceOnUse" color-interpolation-filters="sRGB">
<feFlood flood-opacity="0" result="BackgroundImageFix"/>
<feBlend mode="normal" in="SourceGraphic" in2="BackgroundImageFix" result="shape"/>
<feColorMatrix in="SourceAlpha" type="matrix" values="0 0 0 0 0 0 0 0 0 0 0 0 0 0 0 0 0 0 127 0" result="hardAlpha"/>
<feOffset dy="24"/>
<feComposite in2="hardAlpha" operator="arithmetic" k2="-1" k3="1"/>
<feColorMatrix type="matrix" values="0 0 0 0 1 0 0 0 0 1 0 0 0 0 1 0 0 0 0.26 0"/>
<feBlend mode="normal" in2="shape" result="effect1_innerShadow_114_3111"/>
</filter>
<filter id="filter1_d_114_3111" x="157.057" y="267.679" width="93.0684" height="14.4756" filterUnits="userSpaceOnUse" color-interpolation-filters="sRGB">
<feFlood flood-opacity="0" result="BackgroundImageFix"/>
<feColorMatrix in="SourceAlpha" type="matrix" values="0 0 0 0 0 0 0 0 0 0 0 0 0 0 0 0 0 0 127 0" result="hardAlpha"/>
<feOffset dy="1"/>
<feGaussianBlur stdDeviation="1"/>
<feComposite in2="hardAlpha" operator="out"/>
<feColorMatrix type="matrix" values="0 0 0 0 0 0 0 0 0 0 0 0 0 0 0 0 0 0 0.15 0"/>
<feBlend mode="normal" in2="BackgroundImageFix" result="effect1_dropShadow_114_3111"/>
<feBlend mode="normal" in="SourceGraphic" in2="effect1_dropShadow_114_3111" result="shape"/>
</filter>
<linearGradient id="paint0_linear_114_3111" x1="0" y1="194" x2="408" y2="194" gradientUnits="userSpaceOnUse">
<stop stop-color="#5271FF"/>
<stop offset="1" stop-color="#DD94FF"/>
</linearGradient>
<linearGradient id="paint1_linear_114_3111" x1="132.635" y1="468.161" x2="1147.62" y2="-117.839" gradientUnits="userSpaceOnUse">
<stop stop-color="white"/>
<stop offset="1" stop-color="white" stop-opacity="0.1"/>
</linearGradient>
<clipPath id="clip0_114_3111">
<rect width="408" height="388" rx="16" fill="white"/>
</clipPath>
</defs>
</svg>
