<svg width="1216" height="388" viewBox="0 0 1216 388" fill="none" xmlns="http://www.w3.org/2000/svg">
<g clip-path="url(#clip0_72_947)">
<rect width="1216" height="388" rx="16" fill="url(#paint0_linear_72_947)"/>
<g opacity="0.1" filter="url(#filter0_i_72_947)">
<path d="M297.433 223.722L214.02 535.024C209.016 553.701 229.091 569.105 245.836 559.437L1099.8 66.4022C1107.25 62.0991 1111.46 53.7984 1110.52 45.2433L1083.41 -202.25C1081.71 -217.828 1064.56 -226.518 1050.99 -218.683L307.546 210.543C302.561 213.421 298.923 218.162 297.433 223.722Z" fill="url(#paint1_linear_72_947)"/>
</g>
<path d="M339.667 161.469C336.463 161.469 333.643 160.742 331.206 159.289C328.784 157.836 326.893 155.773 325.534 153.102C324.174 150.43 323.495 147.258 323.495 143.586C323.495 139.836 324.19 136.617 325.581 133.93C326.987 131.242 328.893 129.188 331.299 127.766C333.706 126.328 336.432 125.609 339.479 125.609C341.417 125.609 343.213 125.891 344.87 126.453C346.542 127.016 348.026 127.82 349.323 128.867C350.62 129.898 351.682 131.125 352.51 132.547C353.354 133.969 353.917 135.531 354.198 137.234H347.753C347.471 136.312 347.081 135.484 346.581 134.75C346.096 134.016 345.503 133.391 344.799 132.875C344.112 132.344 343.331 131.945 342.456 131.68C341.581 131.414 340.612 131.281 339.549 131.281C337.69 131.281 336.026 131.758 334.557 132.711C333.088 133.648 331.932 135.031 331.088 136.859C330.26 138.672 329.846 140.891 329.846 143.516C329.846 146.156 330.26 148.391 331.088 150.219C331.917 152.047 333.073 153.438 334.557 154.391C336.042 155.328 337.76 155.797 339.713 155.797C341.479 155.797 343.01 155.461 344.307 154.789C345.604 154.102 346.604 153.133 347.307 151.883C348.01 150.633 348.362 149.156 348.362 147.453L349.815 147.688H340.323V142.742H354.503V146.914C354.503 149.914 353.87 152.5 352.604 154.672C351.338 156.844 349.581 158.523 347.331 159.711C345.096 160.883 342.542 161.469 339.667 161.469ZM369.199 161.516C366.574 161.516 364.308 160.969 362.402 159.875C360.496 158.766 359.027 157.203 357.996 155.188C356.98 153.172 356.472 150.797 356.472 148.062C356.472 145.359 356.98 142.992 357.996 140.961C359.011 138.914 360.441 137.32 362.285 136.18C364.128 135.039 366.3 134.469 368.8 134.469C370.41 134.469 371.933 134.727 373.371 135.242C374.824 135.758 376.105 136.555 377.214 137.633C378.339 138.711 379.222 140.086 379.863 141.758C380.503 143.414 380.824 145.391 380.824 147.688V149.609H359.355V145.461H377.753L374.871 146.68C374.871 145.195 374.644 143.906 374.191 142.812C373.738 141.703 373.066 140.836 372.175 140.211C371.285 139.586 370.175 139.273 368.847 139.273C367.519 139.273 366.386 139.586 365.449 140.211C364.511 140.836 363.8 141.68 363.316 142.742C362.832 143.789 362.589 144.961 362.589 146.258V149.141C362.589 150.734 362.863 152.102 363.41 153.242C363.972 154.367 364.753 155.227 365.753 155.82C366.769 156.414 367.949 156.711 369.293 156.711C370.168 156.711 370.964 156.586 371.683 156.336C372.418 156.086 373.043 155.711 373.558 155.211C374.089 154.695 374.496 154.062 374.777 153.312L380.543 153.992C380.168 155.508 379.472 156.836 378.457 157.977C377.457 159.102 376.168 159.977 374.589 160.602C373.027 161.211 371.23 161.516 369.199 161.516ZM396.27 134.797V139.578H381.247V134.797H396.27ZM384.926 128.562H391.09V153.125C391.09 154.156 391.317 154.922 391.77 155.422C392.223 155.906 392.942 156.148 393.926 156.148C394.192 156.148 394.489 156.125 394.817 156.078C395.145 156.031 395.442 155.977 395.708 155.914L396.762 160.742C396.106 160.945 395.442 161.094 394.77 161.188C394.098 161.297 393.426 161.352 392.754 161.352C390.317 161.352 388.403 160.711 387.012 159.43C385.622 158.133 384.926 156.367 384.926 154.133V128.562ZM411.717 170.797C410.873 170.812 410.092 170.75 409.373 170.609C408.67 170.484 408.1 170.336 407.663 170.164L409.116 165.359L409.42 165.453C410.67 165.781 411.733 165.805 412.608 165.523C413.498 165.242 414.209 164.391 414.741 162.969L415.256 161.562L405.788 134.797H412.327L418.35 154.602H418.631L424.678 134.797H431.264L420.764 164.164C420.28 165.555 419.639 166.742 418.842 167.727C418.045 168.727 417.061 169.484 415.889 170C414.717 170.531 413.327 170.797 411.717 170.797ZM443.312 161.516C440.749 161.516 438.531 160.953 436.656 159.828C434.781 158.703 433.328 157.125 432.296 155.094C431.281 153.062 430.773 150.703 430.773 148.016C430.773 145.312 431.281 142.945 432.296 140.914C433.328 138.867 434.781 137.281 436.656 136.156C438.531 135.031 440.749 134.469 443.312 134.469C445.874 134.469 448.093 135.031 449.968 136.156C451.843 137.281 453.296 138.867 454.328 140.914C455.359 142.945 455.874 145.312 455.874 148.016C455.874 150.703 455.359 153.062 454.328 155.094C453.296 157.125 451.843 158.703 449.968 159.828C448.093 160.953 445.874 161.516 443.312 161.516ZM443.312 156.547C444.734 156.547 445.906 156.172 446.828 155.422C447.749 154.656 448.437 153.625 448.89 152.328C449.359 151.031 449.593 149.594 449.593 148.016C449.593 146.406 449.359 144.953 448.89 143.656C448.437 142.359 447.749 141.336 446.828 140.586C445.906 139.82 444.734 139.438 443.312 139.438C441.921 139.438 440.757 139.82 439.82 140.586C438.882 141.336 438.179 142.359 437.71 143.656C437.257 144.953 437.031 146.406 437.031 148.016C437.031 149.594 437.257 151.031 437.71 152.328C438.179 153.625 438.882 154.656 439.82 155.422C440.757 156.172 441.921 156.547 443.312 156.547ZM475 150.008V134.797H481.164V161H475.188V156.336H474.907C474.313 157.805 473.344 159.008 472 159.945C470.657 160.883 469 161.344 467.032 161.328C465.313 161.328 463.797 160.953 462.485 160.203C461.188 159.438 460.164 158.32 459.414 156.852C458.68 155.367 458.313 153.578 458.313 151.484V134.797H464.477V150.547C464.477 152.188 464.93 153.5 465.836 154.484C466.758 155.469 467.961 155.953 469.446 155.938C470.352 155.938 471.227 155.719 472.071 155.281C472.93 154.844 473.633 154.188 474.18 153.312C474.727 152.438 475 151.336 475 150.008ZM484.775 161V134.797H490.751V139.203H491.033C491.501 137.672 492.322 136.5 493.493 135.688C494.665 134.859 496.001 134.445 497.501 134.445C497.829 134.445 498.204 134.461 498.626 134.492C499.064 134.523 499.423 134.562 499.704 134.609V140.281C499.439 140.188 499.025 140.109 498.462 140.047C497.9 139.984 497.361 139.953 496.845 139.953C495.704 139.953 494.689 140.195 493.798 140.68C492.908 141.164 492.204 141.828 491.689 142.672C491.189 143.516 490.939 144.5 490.939 145.625V161H484.775ZM523.542 134.797V139.578H508.097V134.797H523.542ZM511.941 161V132.336C511.941 130.57 512.308 129.102 513.042 127.93C513.777 126.758 514.761 125.883 515.995 125.305C517.245 124.727 518.62 124.438 520.12 124.438C521.198 124.438 522.152 124.523 522.98 124.695C523.823 124.867 524.441 125.023 524.831 125.164L523.566 129.945C523.316 129.852 522.995 129.766 522.605 129.688C522.214 129.594 521.769 129.547 521.269 129.547C520.128 129.547 519.308 129.828 518.808 130.391C518.323 130.953 518.081 131.75 518.081 132.781V161H511.941ZM525.676 161V134.797H531.84V161H525.676ZM528.77 131.117C527.785 131.117 526.942 130.789 526.238 130.133C525.535 129.477 525.184 128.688 525.184 127.766C525.184 126.828 525.535 126.031 526.238 125.375C526.942 124.719 527.785 124.391 528.77 124.391C529.738 124.391 530.574 124.719 531.277 125.375C531.981 126.031 532.332 126.82 532.332 127.742C532.332 128.68 531.981 129.477 531.277 130.133C530.574 130.789 529.738 131.117 528.77 131.117ZM535.45 161V134.797H541.427V139.203H541.708C542.177 137.672 542.997 136.5 544.169 135.688C545.341 134.859 546.677 134.445 548.177 134.445C548.505 134.445 548.88 134.461 549.302 134.492C549.739 134.523 550.099 134.562 550.38 134.609V140.281C550.114 140.188 549.7 140.109 549.138 140.047C548.575 139.984 548.036 139.953 547.521 139.953C546.38 139.953 545.364 140.195 544.474 140.68C543.583 141.164 542.88 141.828 542.364 142.672C541.864 143.516 541.614 144.5 541.614 145.625V161H535.45ZM572.412 141.758L566.811 142.344C566.576 141.484 566.068 140.727 565.287 140.07C564.506 139.398 563.404 139.062 561.982 139.062C560.701 139.062 559.623 139.344 558.748 139.906C557.889 140.469 557.459 141.188 557.459 142.062C557.459 142.828 557.74 143.461 558.303 143.961C558.881 144.445 559.834 144.836 561.162 145.133L565.639 146.07C568.092 146.586 569.928 147.43 571.147 148.602C572.365 149.773 572.975 151.289 572.975 153.148C572.975 154.789 572.498 156.242 571.545 157.508C570.592 158.773 569.272 159.758 567.584 160.461C565.912 161.164 563.982 161.516 561.795 161.516C558.592 161.516 556.014 160.844 554.061 159.5C552.123 158.141 550.959 156.258 550.568 153.852L556.592 153.289C556.857 154.461 557.436 155.352 558.326 155.961C559.232 156.555 560.389 156.852 561.795 156.852C563.264 156.852 564.443 156.555 565.334 155.961C566.225 155.352 566.67 154.609 566.67 153.734C566.67 152.266 565.498 151.266 563.154 150.734L558.678 149.797C556.162 149.25 554.303 148.367 553.1 147.148C551.897 145.914 551.295 144.344 551.295 142.438C551.295 140.812 551.74 139.406 552.631 138.219C553.522 137.031 554.764 136.109 556.357 135.453C557.951 134.797 559.795 134.469 561.889 134.469C564.967 134.469 567.381 135.133 569.131 136.461C570.897 137.773 571.99 139.539 572.412 141.758ZM588.398 134.797V139.578H573.374V134.797H588.398ZM577.054 128.562H583.218V153.125C583.218 154.156 583.444 154.922 583.898 155.422C584.351 155.906 585.069 156.148 586.054 156.148C586.319 156.148 586.616 156.125 586.944 156.078C587.273 156.031 587.569 155.977 587.835 155.914L588.89 160.742C588.233 160.945 587.569 161.094 586.898 161.188C586.226 161.297 585.554 161.352 584.882 161.352C582.444 161.352 580.53 160.711 579.14 159.43C577.749 158.133 577.054 156.367 577.054 154.133V128.562ZM606.165 126.078V161H600.001V126.078H606.165ZM621.377 161.516C618.752 161.516 616.486 160.969 614.58 159.875C612.674 158.766 611.205 157.203 610.174 155.188C609.158 153.172 608.65 150.797 608.65 148.062C608.65 145.359 609.158 142.992 610.174 140.961C611.189 138.914 612.619 137.32 614.463 136.18C616.307 135.039 618.478 134.469 620.978 134.469C622.588 134.469 624.111 134.727 625.549 135.242C627.002 135.758 628.283 136.555 629.393 137.633C630.518 138.711 631.4 140.086 632.041 141.758C632.682 143.414 633.002 145.391 633.002 147.688V149.609H611.533V145.461H629.932L627.049 146.68C627.049 145.195 626.822 143.906 626.369 142.812C625.916 141.703 625.244 140.836 624.353 140.211C623.463 139.586 622.353 139.273 621.025 139.273C619.697 139.273 618.564 139.586 617.627 140.211C616.689 140.836 615.978 141.68 615.494 142.742C615.01 143.789 614.768 144.961 614.768 146.258V149.141C614.768 150.734 615.041 152.102 615.588 153.242C616.15 154.367 616.932 155.227 617.932 155.82C618.947 156.414 620.127 156.711 621.471 156.711C622.346 156.711 623.143 156.586 623.861 156.336C624.596 156.086 625.221 155.711 625.736 155.211C626.268 154.695 626.674 154.062 626.955 153.312L632.721 153.992C632.346 155.508 631.65 156.836 630.635 157.977C629.635 159.102 628.346 159.977 626.768 160.602C625.205 161.211 623.408 161.516 621.377 161.516ZM642.94 161.539C641.268 161.539 639.768 161.242 638.44 160.648C637.112 160.039 636.065 159.148 635.3 157.977C634.534 156.805 634.151 155.359 634.151 153.641C634.151 152.172 634.425 150.953 634.972 149.984C635.518 149.016 636.261 148.242 637.198 147.664C638.151 147.086 639.222 146.648 640.409 146.352C641.597 146.039 642.823 145.82 644.089 145.695C645.636 145.523 646.886 145.375 647.839 145.25C648.792 145.125 649.479 144.922 649.901 144.641C650.339 144.359 650.557 143.922 650.557 143.328V143.211C650.557 141.945 650.182 140.961 649.432 140.258C648.682 139.555 647.589 139.203 646.151 139.203C644.636 139.203 643.432 139.531 642.542 140.188C641.667 140.844 641.073 141.617 640.761 142.508L635.018 141.688C635.472 140.094 636.222 138.766 637.268 137.703C638.315 136.625 639.589 135.82 641.089 135.289C642.604 134.742 644.276 134.469 646.104 134.469C647.354 134.469 648.604 134.617 649.854 134.914C651.104 135.195 652.253 135.68 653.3 136.367C654.347 137.055 655.182 137.977 655.807 139.133C656.432 140.289 656.745 141.734 656.745 143.469V161H650.815V157.391H650.628C650.253 158.109 649.722 158.789 649.034 159.43C648.362 160.055 647.518 160.562 646.503 160.953C645.503 161.344 644.315 161.539 642.94 161.539ZM644.511 156.992C645.761 156.992 646.839 156.75 647.745 156.266C648.651 155.766 649.354 155.109 649.854 154.297C650.354 153.469 650.604 152.57 650.604 151.602V148.531C650.401 148.688 650.073 148.836 649.62 148.977C649.167 149.102 648.651 149.219 648.073 149.328C647.495 149.438 646.925 149.531 646.362 149.609C645.815 149.688 645.339 149.75 644.932 149.797C644.011 149.922 643.182 150.133 642.448 150.43C641.729 150.711 641.159 151.102 640.737 151.602C640.315 152.102 640.104 152.75 640.104 153.547C640.104 154.688 640.518 155.547 641.347 156.125C642.175 156.703 643.229 156.992 644.511 156.992ZM670.012 161.469C667.965 161.469 666.121 160.945 664.48 159.898C662.855 158.836 661.574 157.297 660.637 155.281C659.699 153.266 659.23 150.82 659.23 147.945C659.23 145.023 659.707 142.562 660.66 140.562C661.629 138.562 662.926 137.047 664.551 136.016C666.176 134.984 667.996 134.469 670.012 134.469C671.558 134.469 672.824 134.727 673.808 135.242C674.793 135.758 675.574 136.383 676.152 137.117C676.746 137.836 677.199 138.508 677.512 139.133H677.769V126.078H683.91V161H677.887V156.852H677.512C677.183 157.492 676.723 158.172 676.129 158.891C675.535 159.594 674.746 160.203 673.762 160.719C672.777 161.219 671.527 161.469 670.012 161.469ZM671.723 156.406C673.035 156.406 674.144 156.055 675.051 155.352C675.973 154.633 676.676 153.641 677.16 152.375C677.644 151.094 677.887 149.609 677.887 147.922C677.887 146.219 677.644 144.742 677.16 143.492C676.691 142.227 675.996 141.25 675.074 140.562C674.168 139.875 673.051 139.531 671.723 139.531C670.363 139.531 669.223 139.891 668.301 140.609C667.379 141.328 666.683 142.32 666.215 143.586C665.762 144.852 665.535 146.297 665.535 147.922C665.535 149.547 665.769 151 666.238 152.281C666.707 153.562 667.394 154.57 668.301 155.305C669.223 156.039 670.363 156.406 671.723 156.406ZM709.74 134.797V139.578H694.717V134.797H709.74ZM698.396 128.562H704.56V153.125C704.56 154.156 704.787 154.922 705.24 155.422C705.693 155.906 706.412 156.148 707.396 156.148C707.662 156.148 707.959 156.125 708.287 156.078C708.615 156.031 708.912 155.977 709.177 155.914L710.232 160.742C709.576 160.945 708.912 161.094 708.24 161.188C707.568 161.297 706.896 161.352 706.224 161.352C703.787 161.352 701.873 160.711 700.482 159.43C699.092 158.133 698.396 156.367 698.396 154.133V128.562ZM718.905 145.672V161H712.741V126.078H718.764V139.273H719.093C719.702 137.789 720.647 136.617 721.928 135.758C723.21 134.898 724.858 134.469 726.874 134.469C728.686 134.469 730.264 134.852 731.608 135.617C732.968 136.383 734.022 137.5 734.772 138.969C735.522 140.438 735.897 142.227 735.897 144.336V161H729.71V145.297C729.71 143.516 729.257 142.141 728.35 141.172C727.444 140.188 726.178 139.695 724.553 139.695C723.46 139.695 722.483 139.93 721.624 140.398C720.78 140.867 720.116 141.547 719.632 142.438C719.147 143.312 718.905 144.391 718.905 145.672ZM739.484 161V134.797H745.648V161H739.484ZM742.578 131.117C741.593 131.117 740.75 130.789 740.047 130.133C739.343 129.477 738.992 128.688 738.992 127.766C738.992 126.828 739.343 126.031 740.047 125.375C740.75 124.719 741.593 124.391 742.578 124.391C743.547 124.391 744.383 124.719 745.086 125.375C745.789 126.031 746.14 126.82 746.14 127.742C746.14 128.68 745.789 129.477 745.086 130.133C744.383 130.789 743.547 131.117 742.578 131.117ZM769.93 141.758L764.329 142.344C764.094 141.484 763.587 140.727 762.805 140.07C762.024 139.398 760.922 139.062 759.501 139.062C758.219 139.062 757.141 139.344 756.266 139.906C755.407 140.469 754.977 141.188 754.977 142.062C754.977 142.828 755.258 143.461 755.821 143.961C756.399 144.445 757.352 144.836 758.68 145.133L763.157 146.07C765.61 146.586 767.446 147.43 768.665 148.602C769.883 149.773 770.493 151.289 770.493 153.148C770.493 154.789 770.016 156.242 769.063 157.508C768.11 158.773 766.79 159.758 765.102 160.461C763.43 161.164 761.501 161.516 759.313 161.516C756.11 161.516 753.532 160.844 751.579 159.5C749.641 158.141 748.477 156.258 748.087 153.852L754.11 153.289C754.376 154.461 754.954 155.352 755.844 155.961C756.751 156.555 757.907 156.852 759.313 156.852C760.782 156.852 761.962 156.555 762.852 155.961C763.743 155.352 764.188 154.609 764.188 153.734C764.188 152.266 763.016 151.266 760.672 150.734L756.196 149.797C753.68 149.25 751.821 148.367 750.618 147.148C749.415 145.914 748.813 144.344 748.813 142.438C748.813 140.812 749.258 139.406 750.149 138.219C751.04 137.031 752.282 136.109 753.876 135.453C755.469 134.797 757.313 134.469 759.407 134.469C762.485 134.469 764.899 135.133 766.649 136.461C768.415 137.773 769.508 139.539 769.93 141.758ZM787.44 161L780.034 134.797H786.315L790.932 153.219H791.167L795.878 134.797H802.088L806.799 153.148H807.034L811.581 134.797H817.885L810.479 161H804.034L799.112 143.305H798.784L793.862 161H787.44ZM830.308 161.516C827.683 161.516 825.417 160.969 823.511 159.875C821.605 158.766 820.136 157.203 819.105 155.188C818.089 153.172 817.582 150.797 817.582 148.062C817.582 145.359 818.089 142.992 819.105 140.961C820.121 138.914 821.55 137.32 823.394 136.18C825.238 135.039 827.41 134.469 829.91 134.469C831.519 134.469 833.042 134.727 834.48 135.242C835.933 135.758 837.214 136.555 838.324 137.633C839.449 138.711 840.332 140.086 840.972 141.758C841.613 143.414 841.933 145.391 841.933 147.688V149.609H820.464V145.461H838.863L835.98 146.68C835.98 145.195 835.753 143.906 835.3 142.812C834.847 141.703 834.175 140.836 833.285 140.211C832.394 139.586 831.285 139.273 829.957 139.273C828.628 139.273 827.496 139.586 826.558 140.211C825.621 140.836 824.91 141.68 824.425 142.742C823.941 143.789 823.699 144.961 823.699 146.258V149.141C823.699 150.734 823.972 152.102 824.519 153.242C825.082 154.367 825.863 155.227 826.863 155.82C827.878 156.414 829.058 156.711 830.402 156.711C831.277 156.711 832.074 156.586 832.792 156.336C833.527 156.086 834.152 155.711 834.667 155.211C835.199 154.695 835.605 154.062 835.886 153.312L841.652 153.992C841.277 155.508 840.582 156.836 839.566 157.977C838.566 159.102 837.277 159.977 835.699 160.602C834.136 161.211 832.339 161.516 830.308 161.516ZM855.926 161.516C853.301 161.516 851.036 160.969 849.129 159.875C847.223 158.766 845.754 157.203 844.723 155.188C843.708 153.172 843.2 150.797 843.2 148.062C843.2 145.359 843.708 142.992 844.723 140.961C845.739 138.914 847.168 137.32 849.012 136.18C850.856 135.039 853.028 134.469 855.528 134.469C857.137 134.469 858.661 134.727 860.098 135.242C861.551 135.758 862.833 136.555 863.942 137.633C865.067 138.711 865.95 140.086 866.59 141.758C867.231 143.414 867.551 145.391 867.551 147.688V149.609H846.083V145.461H864.481L861.598 146.68C861.598 145.195 861.372 143.906 860.918 142.812C860.465 141.703 859.793 140.836 858.903 140.211C858.012 139.586 856.903 139.273 855.575 139.273C854.247 139.273 853.114 139.586 852.176 140.211C851.239 140.836 850.528 141.68 850.043 142.742C849.559 143.789 849.317 144.961 849.317 146.258V149.141C849.317 150.734 849.59 152.102 850.137 153.242C850.7 154.367 851.481 155.227 852.481 155.82C853.497 156.414 854.676 156.711 856.02 156.711C856.895 156.711 857.692 156.586 858.411 156.336C859.145 156.086 859.77 155.711 860.286 155.211C860.817 154.695 861.223 154.062 861.504 153.312L867.27 153.992C866.895 155.508 866.2 156.836 865.184 157.977C864.184 159.102 862.895 159.977 861.317 160.602C859.754 161.211 857.958 161.516 855.926 161.516ZM875.568 152.797L875.544 145.32H876.552L885.951 134.797H893.169L881.591 147.711H880.302L875.568 152.797ZM869.943 161V126.078H876.107V161H869.943ZM886.372 161L877.841 149.094L882.013 144.734L893.755 161H886.372Z" fill="white"/>
<path d="M339.892 204L336.312 190.909H337.923L340.659 201.571H340.786L343.573 190.909H345.363L348.15 201.571H348.278L351.014 190.909H352.625L349.045 204H347.409L344.519 193.568H344.417L341.528 204H339.892ZM357.238 204.205C356.292 204.205 355.475 203.996 354.789 203.578C354.108 203.156 353.581 202.568 353.211 201.814C352.844 201.055 352.661 200.173 352.661 199.168C352.661 198.162 352.844 197.276 353.211 196.509C353.581 195.737 354.097 195.136 354.757 194.706C355.422 194.271 356.198 194.054 357.084 194.054C357.596 194.054 358.1 194.139 358.599 194.31C359.098 194.48 359.551 194.757 359.961 195.141C360.37 195.52 360.696 196.023 360.939 196.649C361.181 197.276 361.303 198.047 361.303 198.963V199.602H353.735V198.298H359.769C359.769 197.744 359.658 197.25 359.436 196.815C359.219 196.381 358.908 196.038 358.503 195.786C358.103 195.535 357.63 195.409 357.084 195.409C356.483 195.409 355.963 195.558 355.524 195.857C355.09 196.151 354.755 196.534 354.521 197.007C354.287 197.48 354.169 197.987 354.169 198.528V199.398C354.169 200.139 354.297 200.768 354.553 201.283C354.813 201.795 355.173 202.185 355.633 202.453C356.093 202.717 356.628 202.849 357.238 202.849C357.634 202.849 357.992 202.794 358.311 202.683C358.635 202.568 358.914 202.398 359.149 202.172C359.383 201.942 359.564 201.656 359.692 201.315L361.149 201.724C360.996 202.219 360.738 202.653 360.376 203.028C360.014 203.399 359.566 203.689 359.034 203.898C358.501 204.102 357.902 204.205 357.238 204.205ZM372.312 194.182V195.46H367.02V194.182H372.312ZM368.605 204V192.827C368.605 192.264 368.737 191.795 369.001 191.42C369.265 191.045 369.608 190.764 370.03 190.577C370.452 190.389 370.898 190.295 371.366 190.295C371.737 190.295 372.04 190.325 372.274 190.385C372.508 190.445 372.683 190.5 372.798 190.551L372.363 191.855C372.287 191.83 372.18 191.798 372.044 191.759C371.912 191.721 371.737 191.702 371.52 191.702C371.021 191.702 370.661 191.827 370.439 192.079C370.222 192.33 370.113 192.699 370.113 193.185V204H368.605ZM375.575 190.909V204H374.066V190.909H375.575ZM381.967 204.205C381.08 204.205 380.303 203.994 379.633 203.572C378.969 203.15 378.449 202.56 378.074 201.801C377.703 201.043 377.518 200.156 377.518 199.142C377.518 198.119 377.703 197.227 378.074 196.464C378.449 195.701 378.969 195.109 379.633 194.687C380.303 194.265 381.08 194.054 381.967 194.054C382.853 194.054 383.629 194.265 384.293 194.687C384.962 195.109 385.482 195.701 385.853 196.464C386.228 197.227 386.415 198.119 386.415 199.142C386.415 200.156 386.228 201.043 385.853 201.801C385.482 202.56 384.962 203.15 384.293 203.572C383.629 203.994 382.853 204.205 381.967 204.205ZM381.967 202.849C382.64 202.849 383.194 202.677 383.629 202.332C384.063 201.987 384.385 201.533 384.594 200.97C384.803 200.408 384.907 199.798 384.907 199.142C384.907 198.486 384.803 197.874 384.594 197.308C384.385 196.741 384.063 196.283 383.629 195.933C383.194 195.584 382.64 195.409 381.967 195.409C381.293 195.409 380.739 195.584 380.305 195.933C379.87 196.283 379.548 196.741 379.339 197.308C379.131 197.874 379.026 198.486 379.026 199.142C379.026 199.798 379.131 200.408 379.339 200.97C379.548 201.533 379.87 201.987 380.305 202.332C380.739 202.677 381.293 202.849 381.967 202.849ZM392.347 204.205C391.46 204.205 390.683 203.994 390.014 203.572C389.349 203.15 388.829 202.56 388.454 201.801C388.083 201.043 387.898 200.156 387.898 199.142C387.898 198.119 388.083 197.227 388.454 196.464C388.829 195.701 389.349 195.109 390.014 194.687C390.683 194.265 391.46 194.054 392.347 194.054C393.233 194.054 394.009 194.265 394.674 194.687C395.343 195.109 395.862 195.701 396.233 196.464C396.608 197.227 396.796 198.119 396.796 199.142C396.796 200.156 396.608 201.043 396.233 201.801C395.862 202.56 395.343 203.15 394.674 203.572C394.009 203.994 393.233 204.205 392.347 204.205ZM392.347 202.849C393.02 202.849 393.574 202.677 394.009 202.332C394.443 201.987 394.765 201.533 394.974 200.97C395.183 200.408 395.287 199.798 395.287 199.142C395.287 198.486 395.183 197.874 394.974 197.308C394.765 196.741 394.443 196.283 394.009 195.933C393.574 195.584 393.02 195.409 392.347 195.409C391.674 195.409 391.12 195.584 390.685 195.933C390.25 196.283 389.929 196.741 389.72 197.308C389.511 197.874 389.406 198.486 389.406 199.142C389.406 199.798 389.511 200.408 389.72 200.97C389.929 201.533 390.25 201.987 390.685 202.332C391.12 202.677 391.674 202.849 392.347 202.849ZM402.446 204.205C401.628 204.205 400.905 203.998 400.279 203.585C399.653 203.167 399.162 202.579 398.809 201.82C398.455 201.058 398.278 200.156 398.278 199.116C398.278 198.085 398.455 197.19 398.809 196.432C399.162 195.673 399.655 195.087 400.285 194.674C400.916 194.261 401.645 194.054 402.471 194.054C403.111 194.054 403.616 194.161 403.986 194.374C404.361 194.582 404.647 194.821 404.843 195.089C405.043 195.354 405.199 195.571 405.309 195.741H405.437V190.909H406.946V204H405.488V202.491H405.309C405.199 202.67 405.041 202.896 404.836 203.169C404.632 203.437 404.34 203.678 403.961 203.891C403.581 204.1 403.077 204.205 402.446 204.205ZM402.65 202.849C403.255 202.849 403.767 202.692 404.184 202.376C404.602 202.057 404.92 201.616 405.137 201.053C405.354 200.487 405.463 199.832 405.463 199.091C405.463 198.358 405.356 197.717 405.143 197.167C404.93 196.613 404.615 196.183 404.197 195.876C403.78 195.565 403.264 195.409 402.65 195.409C402.011 195.409 401.478 195.573 401.052 195.901C400.63 196.225 400.313 196.666 400.1 197.224C399.891 197.778 399.787 198.401 399.787 199.091C399.787 199.79 399.893 200.425 400.106 200.996C400.324 201.562 400.643 202.014 401.065 202.351C401.491 202.683 402.02 202.849 402.65 202.849ZM415.232 207.682C414.977 207.682 414.749 207.661 414.548 207.618C414.348 207.58 414.209 207.541 414.133 207.503L414.516 206.173C414.883 206.267 415.207 206.301 415.488 206.276C415.769 206.25 416.018 206.124 416.236 205.898C416.457 205.677 416.66 205.317 416.843 204.818L417.124 204.051L413.494 194.182H415.13L417.84 202.006H417.942L420.653 194.182H422.289L418.121 205.432C417.934 205.939 417.702 206.359 417.425 206.691C417.148 207.028 416.826 207.277 416.459 207.439C416.097 207.601 415.688 207.682 415.232 207.682ZM427.557 204.205C426.671 204.205 425.893 203.994 425.224 203.572C424.559 203.15 424.039 202.56 423.664 201.801C423.294 201.043 423.108 200.156 423.108 199.142C423.108 198.119 423.294 197.227 423.664 196.464C424.039 195.701 424.559 195.109 425.224 194.687C425.893 194.265 426.671 194.054 427.557 194.054C428.444 194.054 429.219 194.265 429.884 194.687C430.553 195.109 431.073 195.701 431.444 196.464C431.819 197.227 432.006 198.119 432.006 199.142C432.006 200.156 431.819 201.043 431.444 201.801C431.073 202.56 430.553 203.15 429.884 203.572C429.219 203.994 428.444 204.205 427.557 204.205ZM427.557 202.849C428.231 202.849 428.784 202.677 429.219 202.332C429.654 201.987 429.976 201.533 430.184 200.97C430.393 200.408 430.498 199.798 430.498 199.142C430.498 198.486 430.393 197.874 430.184 197.308C429.976 196.741 429.654 196.283 429.219 195.933C428.784 195.584 428.231 195.409 427.557 195.409C426.884 195.409 426.33 195.584 425.895 195.933C425.461 196.283 425.139 196.741 424.93 197.308C424.721 197.874 424.617 198.486 424.617 199.142C424.617 199.798 424.721 200.408 424.93 200.97C425.139 201.533 425.461 201.987 425.895 202.332C426.33 202.677 426.884 202.849 427.557 202.849ZM440.136 199.986V194.182H441.645V204H440.136V202.338H440.034C439.804 202.837 439.446 203.261 438.96 203.61C438.474 203.955 437.861 204.128 437.119 204.128C436.506 204.128 435.96 203.994 435.483 203.725C435.006 203.452 434.631 203.043 434.358 202.498C434.085 201.948 433.949 201.256 433.949 200.42V194.182H435.457V200.318C435.457 201.034 435.658 201.605 436.058 202.031C436.463 202.457 436.979 202.67 437.605 202.67C437.98 202.67 438.361 202.575 438.749 202.383C439.141 202.191 439.469 201.897 439.734 201.501C440.002 201.104 440.136 200.599 440.136 199.986ZM450.975 204L447.983 194.182H449.568L451.691 201.699H451.793L453.89 194.182H455.5L457.571 201.673H457.674L459.796 194.182H461.381L458.39 204H456.907L454.759 196.457H454.605L452.458 204H450.975ZM463.015 204V194.182H464.524V204H463.015ZM463.782 192.545C463.488 192.545 463.235 192.445 463.022 192.245C462.813 192.045 462.708 191.804 462.708 191.523C462.708 191.241 462.813 191.001 463.022 190.8C463.235 190.6 463.488 190.5 463.782 190.5C464.076 190.5 464.328 190.6 464.537 190.8C464.75 191.001 464.856 191.241 464.856 191.523C464.856 191.804 464.75 192.045 464.537 192.245C464.328 192.445 464.076 192.545 463.782 192.545ZM471.197 194.182V195.46H466.109V194.182H471.197ZM467.592 191.83H469.1V201.188C469.1 201.614 469.162 201.933 469.285 202.146C469.413 202.355 469.575 202.496 469.771 202.568C469.972 202.636 470.182 202.67 470.404 202.67C470.57 202.67 470.707 202.662 470.813 202.645C470.92 202.624 471.005 202.607 471.069 202.594L471.376 203.949C471.273 203.987 471.131 204.026 470.947 204.064C470.764 204.107 470.532 204.128 470.251 204.128C469.825 204.128 469.407 204.036 468.998 203.853C468.593 203.67 468.256 203.391 467.988 203.016C467.724 202.641 467.592 202.168 467.592 201.597V191.83ZM474.825 198.094V204H473.317V190.909H474.825V195.716H474.953C475.183 195.209 475.528 194.806 475.989 194.508C476.453 194.205 477.071 194.054 477.842 194.054C478.511 194.054 479.097 194.188 479.6 194.457C480.103 194.721 480.493 195.128 480.77 195.678C481.051 196.223 481.192 196.918 481.192 197.761V204H479.683V197.864C479.683 197.084 479.481 196.481 479.076 196.055C478.675 195.624 478.119 195.409 477.408 195.409C476.913 195.409 476.47 195.513 476.078 195.722C475.69 195.931 475.384 196.236 475.158 196.636C474.936 197.037 474.825 197.523 474.825 198.094ZM492.283 204.205C491.396 204.205 490.619 203.994 489.95 203.572C489.285 203.15 488.765 202.56 488.39 201.801C488.019 201.043 487.834 200.156 487.834 199.142C487.834 198.119 488.019 197.227 488.39 196.464C488.765 195.701 489.285 195.109 489.95 194.687C490.619 194.265 491.396 194.054 492.283 194.054C493.169 194.054 493.945 194.265 494.609 194.687C495.278 195.109 495.798 195.701 496.169 196.464C496.544 197.227 496.732 198.119 496.732 199.142C496.732 200.156 496.544 201.043 496.169 201.801C495.798 202.56 495.278 203.15 494.609 203.572C493.945 203.994 493.169 204.205 492.283 204.205ZM492.283 202.849C492.956 202.849 493.51 202.677 493.945 202.332C494.379 201.987 494.701 201.533 494.91 200.97C495.119 200.408 495.223 199.798 495.223 199.142C495.223 198.486 495.119 197.874 494.91 197.308C494.701 196.741 494.379 196.283 493.945 195.933C493.51 195.584 492.956 195.409 492.283 195.409C491.609 195.409 491.055 195.584 490.621 195.933C490.186 196.283 489.864 196.741 489.656 197.308C489.447 197.874 489.342 198.486 489.342 199.142C489.342 199.798 489.447 200.408 489.656 200.97C489.864 201.533 490.186 201.987 490.621 202.332C491.055 202.677 491.609 202.849 492.283 202.849ZM498.674 207.682V194.182H500.132V195.741H500.311C500.421 195.571 500.575 195.354 500.771 195.089C500.971 194.821 501.257 194.582 501.627 194.374C502.002 194.161 502.51 194.054 503.149 194.054C503.975 194.054 504.704 194.261 505.335 194.674C505.965 195.087 506.458 195.673 506.811 196.432C507.165 197.19 507.342 198.085 507.342 199.116C507.342 200.156 507.165 201.058 506.811 201.82C506.458 202.579 505.968 203.167 505.341 203.585C504.715 203.998 503.992 204.205 503.174 204.205C502.544 204.205 502.039 204.1 501.659 203.891C501.28 203.678 500.988 203.437 500.784 203.169C500.579 202.896 500.421 202.67 500.311 202.491H500.183V207.682H498.674ZM500.157 199.091C500.157 199.832 500.266 200.487 500.483 201.053C500.701 201.616 501.018 202.057 501.436 202.376C501.853 202.692 502.365 202.849 502.97 202.849C503.6 202.849 504.127 202.683 504.549 202.351C504.975 202.014 505.294 201.562 505.507 200.996C505.725 200.425 505.833 199.79 505.833 199.091C505.833 198.401 505.727 197.778 505.514 197.224C505.305 196.666 504.988 196.225 504.561 195.901C504.139 195.573 503.609 195.409 502.97 195.409C502.356 195.409 501.84 195.565 501.423 195.876C501.005 196.183 500.69 196.613 500.477 197.167C500.264 197.717 500.157 198.358 500.157 199.091ZM509.283 207.682V194.182H510.74V195.741H510.919C511.03 195.571 511.184 195.354 511.38 195.089C511.58 194.821 511.865 194.582 512.236 194.374C512.611 194.161 513.118 194.054 513.757 194.054C514.584 194.054 515.313 194.261 515.944 194.674C516.574 195.087 517.066 195.673 517.42 196.432C517.774 197.19 517.951 198.085 517.951 199.116C517.951 200.156 517.774 201.058 517.42 201.82C517.066 202.579 516.576 203.167 515.95 203.585C515.324 203.998 514.601 204.205 513.783 204.205C513.152 204.205 512.647 204.1 512.268 203.891C511.889 203.678 511.597 203.437 511.392 203.169C511.188 202.896 511.03 202.67 510.919 202.491H510.792V207.682H509.283ZM510.766 199.091C510.766 199.832 510.875 200.487 511.092 201.053C511.309 201.616 511.627 202.057 512.044 202.376C512.462 202.692 512.973 202.849 513.578 202.849C514.209 202.849 514.735 202.683 515.157 202.351C515.583 202.014 515.903 201.562 516.116 200.996C516.333 200.425 516.442 199.79 516.442 199.091C516.442 198.401 516.336 197.778 516.123 197.224C515.914 196.666 515.596 196.225 515.17 195.901C514.748 195.573 514.218 195.409 513.578 195.409C512.965 195.409 512.449 195.565 512.032 195.876C511.614 196.183 511.299 196.613 511.086 197.167C510.873 197.717 510.766 198.358 510.766 199.091ZM523.88 204.205C522.994 204.205 522.216 203.994 521.547 203.572C520.883 203.15 520.363 202.56 519.988 201.801C519.617 201.043 519.432 200.156 519.432 199.142C519.432 198.119 519.617 197.227 519.988 196.464C520.363 195.701 520.883 195.109 521.547 194.687C522.216 194.265 522.994 194.054 523.88 194.054C524.767 194.054 525.542 194.265 526.207 194.687C526.876 195.109 527.396 195.701 527.767 196.464C528.142 197.227 528.329 198.119 528.329 199.142C528.329 200.156 528.142 201.043 527.767 201.801C527.396 202.56 526.876 203.15 526.207 203.572C525.542 203.994 524.767 204.205 523.88 204.205ZM523.88 202.849C524.554 202.849 525.108 202.677 525.542 202.332C525.977 201.987 526.299 201.533 526.508 200.97C526.716 200.408 526.821 199.798 526.821 199.142C526.821 198.486 526.716 197.874 526.508 197.308C526.299 196.741 525.977 196.283 525.542 195.933C525.108 195.584 524.554 195.409 523.88 195.409C523.207 195.409 522.653 195.584 522.218 195.933C521.784 196.283 521.462 196.741 521.253 197.308C521.044 197.874 520.94 198.486 520.94 199.142C520.94 199.798 521.044 200.408 521.253 200.97C521.462 201.533 521.784 201.987 522.218 202.332C522.653 202.677 523.207 202.849 523.88 202.849ZM530.272 204V194.182H531.729V195.665H531.832C532.011 195.179 532.335 194.785 532.803 194.482C533.272 194.18 533.8 194.028 534.389 194.028C534.499 194.028 534.638 194.031 534.804 194.035C534.97 194.039 535.096 194.045 535.181 194.054V195.588C535.13 195.575 535.013 195.556 534.83 195.531C534.651 195.501 534.461 195.486 534.261 195.486C533.783 195.486 533.357 195.586 532.982 195.786C532.612 195.982 532.317 196.255 532.1 196.604C531.887 196.95 531.781 197.344 531.781 197.787V204H530.272ZM541.494 194.182V195.46H536.406V194.182H541.494ZM537.889 191.83H539.398V201.188C539.398 201.614 539.46 201.933 539.583 202.146C539.711 202.355 539.873 202.496 540.069 202.568C540.269 202.636 540.48 202.67 540.702 202.67C540.868 202.67 541.004 202.662 541.111 202.645C541.217 202.624 541.303 202.607 541.367 202.594L541.673 203.949C541.571 203.987 541.428 204.026 541.245 204.064C541.062 204.107 540.83 204.128 540.548 204.128C540.122 204.128 539.705 204.036 539.296 203.853C538.891 203.67 538.554 203.391 538.286 203.016C538.021 202.641 537.889 202.168 537.889 201.597V191.83ZM549.591 199.986V194.182H551.1V204H549.591V202.338H549.489C549.259 202.837 548.901 203.261 548.415 203.61C547.929 203.955 547.316 204.128 546.574 204.128C545.96 204.128 545.415 203.994 544.938 203.725C544.46 203.452 544.085 203.043 543.813 202.498C543.54 201.948 543.404 201.256 543.404 200.42V194.182H544.912V200.318C544.912 201.034 545.112 201.605 545.513 202.031C545.918 202.457 546.433 202.67 547.06 202.67C547.435 202.67 547.816 202.575 548.204 202.383C548.596 202.191 548.924 201.897 549.188 201.501C549.457 201.104 549.591 200.599 549.591 199.986ZM555.011 198.094V204H553.503V194.182H554.96V195.716H555.088C555.318 195.217 555.667 194.817 556.136 194.514C556.605 194.207 557.21 194.054 557.951 194.054C558.616 194.054 559.198 194.19 559.696 194.463C560.195 194.732 560.583 195.141 560.86 195.69C561.137 196.236 561.275 196.926 561.275 197.761V204H559.767V197.864C559.767 197.092 559.566 196.491 559.166 196.061C558.765 195.626 558.216 195.409 557.517 195.409C557.035 195.409 556.605 195.513 556.226 195.722C555.851 195.931 555.554 196.236 555.337 196.636C555.12 197.037 555.011 197.523 555.011 198.094ZM563.672 204V194.182H565.18V204H563.672ZM564.439 192.545C564.145 192.545 563.891 192.445 563.678 192.245C563.469 192.045 563.365 191.804 563.365 191.523C563.365 191.241 563.469 191.001 563.678 190.8C563.891 190.6 564.145 190.5 564.439 190.5C564.733 190.5 564.984 190.6 565.193 190.8C565.406 191.001 565.513 191.241 565.513 191.523C565.513 191.804 565.406 192.045 565.193 192.245C564.984 192.445 564.733 192.545 564.439 192.545ZM571.853 194.182V195.46H566.765V194.182H571.853ZM568.248 191.83H569.757V201.188C569.757 201.614 569.818 201.933 569.942 202.146C570.07 202.355 570.232 202.496 570.428 202.568C570.628 202.636 570.839 202.67 571.061 202.67C571.227 202.67 571.363 202.662 571.47 202.645C571.576 202.624 571.661 202.607 571.725 202.594L572.032 203.949C571.93 203.987 571.787 204.026 571.604 204.064C571.421 204.107 571.188 204.128 570.907 204.128C570.481 204.128 570.063 204.036 569.654 203.853C569.25 203.67 568.913 203.391 568.644 203.016C568.38 202.641 568.248 202.168 568.248 201.597V191.83ZM573.762 204V194.182H575.271V204H573.762ZM574.529 192.545C574.235 192.545 573.982 192.445 573.769 192.245C573.56 192.045 573.456 191.804 573.456 191.523C573.456 191.241 573.56 191.001 573.769 190.8C573.982 190.6 574.235 190.5 574.529 190.5C574.823 190.5 575.075 190.6 575.284 190.8C575.497 191.001 575.603 191.241 575.603 191.523C575.603 191.804 575.497 192.045 575.284 192.245C575.075 192.445 574.823 192.545 574.529 192.545ZM581.79 204.205C580.844 204.205 580.028 203.996 579.342 203.578C578.66 203.156 578.134 202.568 577.763 201.814C577.397 201.055 577.214 200.173 577.214 199.168C577.214 198.162 577.397 197.276 577.763 196.509C578.134 195.737 578.65 195.136 579.31 194.706C579.975 194.271 580.751 194.054 581.637 194.054C582.148 194.054 582.653 194.139 583.152 194.31C583.65 194.48 584.104 194.757 584.513 195.141C584.922 195.52 585.248 196.023 585.491 196.649C585.734 197.276 585.856 198.047 585.856 198.963V199.602H578.288V198.298H584.322C584.322 197.744 584.211 197.25 583.989 196.815C583.772 196.381 583.461 196.038 583.056 195.786C582.655 195.535 582.182 195.409 581.637 195.409C581.036 195.409 580.516 195.558 580.077 195.857C579.643 196.151 579.308 196.534 579.074 197.007C578.839 197.48 578.722 197.987 578.722 198.528V199.398C578.722 200.139 578.85 200.768 579.106 201.283C579.366 201.795 579.726 202.185 580.186 202.453C580.646 202.717 581.181 202.849 581.79 202.849C582.187 202.849 582.545 202.794 582.864 202.683C583.188 202.568 583.467 202.398 583.702 202.172C583.936 201.942 584.117 201.656 584.245 201.315L585.702 201.724C585.549 202.219 585.291 202.653 584.929 203.028C584.567 203.399 584.119 203.689 583.587 203.898C583.054 204.102 582.455 204.205 581.79 204.205ZM594.745 196.381L593.39 196.764C593.305 196.538 593.179 196.319 593.013 196.106C592.851 195.888 592.629 195.71 592.348 195.569C592.067 195.428 591.707 195.358 591.268 195.358C590.667 195.358 590.166 195.496 589.766 195.773C589.369 196.046 589.171 196.393 589.171 196.815C589.171 197.19 589.308 197.487 589.58 197.704C589.853 197.921 590.279 198.102 590.859 198.247L592.316 198.605C593.194 198.818 593.848 199.144 594.278 199.583C594.709 200.018 594.924 200.578 594.924 201.264C594.924 201.827 594.762 202.33 594.438 202.773C594.119 203.216 593.671 203.565 593.096 203.821C592.521 204.077 591.852 204.205 591.089 204.205C590.087 204.205 589.259 203.987 588.602 203.553C587.946 203.118 587.531 202.483 587.356 201.648L588.788 201.29C588.924 201.818 589.182 202.214 589.561 202.479C589.945 202.743 590.445 202.875 591.063 202.875C591.766 202.875 592.325 202.726 592.738 202.428C593.156 202.125 593.364 201.763 593.364 201.341C593.364 201 593.245 200.714 593.006 200.484C592.768 200.25 592.401 200.075 591.907 199.96L590.271 199.577C589.371 199.364 588.711 199.033 588.289 198.586C587.871 198.134 587.663 197.57 587.663 196.892C587.663 196.338 587.818 195.848 588.129 195.422C588.445 194.996 588.873 194.661 589.414 194.418C589.96 194.175 590.577 194.054 591.268 194.054C592.239 194.054 593.002 194.267 593.556 194.693C594.114 195.119 594.511 195.682 594.745 196.381ZM608.492 196.381L607.137 196.764C607.051 196.538 606.926 196.319 606.76 196.106C606.598 195.888 606.376 195.71 606.095 195.569C605.814 195.428 605.453 195.358 605.015 195.358C604.414 195.358 603.913 195.496 603.512 195.773C603.116 196.046 602.918 196.393 602.918 196.815C602.918 197.19 603.054 197.487 603.327 197.704C603.6 197.921 604.026 198.102 604.605 198.247L606.063 198.605C606.941 198.818 607.595 199.144 608.025 199.583C608.456 200.018 608.671 200.578 608.671 201.264C608.671 201.827 608.509 202.33 608.185 202.773C607.865 203.216 607.418 203.565 606.843 203.821C606.267 204.077 605.598 204.205 604.836 204.205C603.834 204.205 603.005 203.987 602.349 203.553C601.693 203.118 601.277 202.483 601.103 201.648L602.534 201.29C602.671 201.818 602.929 202.214 603.308 202.479C603.691 202.743 604.192 202.875 604.81 202.875C605.513 202.875 606.071 202.726 606.485 202.428C606.902 202.125 607.111 201.763 607.111 201.341C607.111 201 606.992 200.714 606.753 200.484C606.515 200.25 606.148 200.075 605.654 199.96L604.017 199.577C603.118 199.364 602.458 199.033 602.036 198.586C601.618 198.134 601.409 197.57 601.409 196.892C601.409 196.338 601.565 195.848 601.876 195.422C602.191 194.996 602.62 194.661 603.161 194.418C603.706 194.175 604.324 194.054 605.015 194.054C605.986 194.054 606.749 194.267 607.303 194.693C607.861 195.119 608.257 195.682 608.492 196.381ZM614.57 204.205C613.684 204.205 612.906 203.994 612.237 203.572C611.572 203.15 611.052 202.56 610.677 201.801C610.307 201.043 610.121 200.156 610.121 199.142C610.121 198.119 610.307 197.227 610.677 196.464C611.052 195.701 611.572 195.109 612.237 194.687C612.906 194.265 613.684 194.054 614.57 194.054C615.457 194.054 616.232 194.265 616.897 194.687C617.566 195.109 618.086 195.701 618.457 196.464C618.832 197.227 619.019 198.119 619.019 199.142C619.019 200.156 618.832 201.043 618.457 201.801C618.086 202.56 617.566 203.15 616.897 203.572C616.232 203.994 615.457 204.205 614.57 204.205ZM614.57 202.849C615.243 202.849 615.797 202.677 616.232 202.332C616.667 201.987 616.989 201.533 617.197 200.97C617.406 200.408 617.511 199.798 617.511 199.142C617.511 198.486 617.406 197.874 617.197 197.308C616.989 196.741 616.667 196.283 616.232 195.933C615.797 195.584 615.243 195.409 614.57 195.409C613.897 195.409 613.343 195.584 612.908 195.933C612.474 196.283 612.152 196.741 611.943 197.308C611.734 197.874 611.63 198.486 611.63 199.142C611.63 199.798 611.734 200.408 611.943 200.97C612.152 201.533 612.474 201.987 612.908 202.332C613.343 202.677 613.897 202.849 614.57 202.849ZM626.636 207.682C626.38 207.682 626.152 207.661 625.952 207.618C625.752 207.58 625.613 207.541 625.536 207.503L625.92 206.173C626.286 206.267 626.61 206.301 626.892 206.276C627.173 206.25 627.422 206.124 627.639 205.898C627.861 205.677 628.063 205.317 628.247 204.818L628.528 204.051L624.897 194.182H626.534L629.244 202.006H629.346L632.056 194.182H633.693L629.525 205.432C629.338 205.939 629.105 206.359 628.828 206.691C628.551 207.028 628.23 207.277 627.863 207.439C627.501 207.601 627.092 207.682 626.636 207.682ZM638.961 204.205C638.075 204.205 637.297 203.994 636.628 203.572C635.963 203.15 635.443 202.56 635.068 201.801C634.697 201.043 634.512 200.156 634.512 199.142C634.512 198.119 634.697 197.227 635.068 196.464C635.443 195.701 635.963 195.109 636.628 194.687C637.297 194.265 638.075 194.054 638.961 194.054C639.847 194.054 640.623 194.265 641.288 194.687C641.957 195.109 642.477 195.701 642.847 196.464C643.222 197.227 643.41 198.119 643.41 199.142C643.41 200.156 643.222 201.043 642.847 201.801C642.477 202.56 641.957 203.15 641.288 203.572C640.623 203.994 639.847 204.205 638.961 204.205ZM638.961 202.849C639.634 202.849 640.188 202.677 640.623 202.332C641.057 201.987 641.379 201.533 641.588 200.97C641.797 200.408 641.901 199.798 641.901 199.142C641.901 198.486 641.797 197.874 641.588 197.308C641.379 196.741 641.057 196.283 640.623 195.933C640.188 195.584 639.634 195.409 638.961 195.409C638.288 195.409 637.734 195.584 637.299 195.933C636.864 196.283 636.543 196.741 636.334 197.308C636.125 197.874 636.021 198.486 636.021 199.142C636.021 199.798 636.125 200.408 636.334 200.97C636.543 201.533 636.864 201.987 637.299 202.332C637.734 202.677 638.288 202.849 638.961 202.849ZM651.54 199.986V194.182H653.049V204H651.54V202.338H651.438C651.208 202.837 650.85 203.261 650.364 203.61C649.878 203.955 649.264 204.128 648.523 204.128C647.909 204.128 647.364 203.994 646.887 203.725C646.409 203.452 646.034 203.043 645.762 202.498C645.489 201.948 645.352 201.256 645.352 200.42V194.182H646.861V200.318C646.861 201.034 647.061 201.605 647.462 202.031C647.867 202.457 648.382 202.67 649.009 202.67C649.384 202.67 649.765 202.575 650.153 202.383C650.545 202.191 650.873 201.897 651.137 201.501C651.406 201.104 651.54 200.599 651.54 199.986ZM664.143 204.205C663.222 204.205 662.43 203.987 661.765 203.553C661.1 203.118 660.589 202.519 660.231 201.756C659.873 200.994 659.694 200.122 659.694 199.142C659.694 198.145 659.877 197.265 660.243 196.502C660.614 195.735 661.13 195.136 661.79 194.706C662.455 194.271 663.231 194.054 664.117 194.054C664.807 194.054 665.43 194.182 665.984 194.438C666.538 194.693 666.991 195.051 667.345 195.511C667.699 195.972 667.918 196.509 668.003 197.122H666.495C666.38 196.675 666.124 196.278 665.728 195.933C665.336 195.584 664.807 195.409 664.143 195.409C663.555 195.409 663.039 195.562 662.596 195.869C662.157 196.172 661.814 196.6 661.567 197.154C661.324 197.704 661.202 198.349 661.202 199.091C661.202 199.849 661.322 200.51 661.56 201.072C661.803 201.635 662.144 202.072 662.583 202.383C663.026 202.694 663.546 202.849 664.143 202.849C664.535 202.849 664.891 202.781 665.21 202.645C665.53 202.509 665.8 202.312 666.022 202.057C666.243 201.801 666.401 201.494 666.495 201.136H668.003C667.918 201.716 667.707 202.238 667.371 202.702C667.038 203.163 666.597 203.529 666.047 203.802C665.502 204.07 664.867 204.205 664.143 204.205ZM672.738 204.23C672.116 204.23 671.551 204.113 671.044 203.879C670.537 203.64 670.134 203.297 669.836 202.849C669.538 202.398 669.388 201.852 669.388 201.213C669.388 200.651 669.499 200.195 669.721 199.845C669.942 199.491 670.239 199.214 670.609 199.014C670.98 198.814 671.389 198.665 671.837 198.567C672.288 198.464 672.742 198.384 673.198 198.324C673.795 198.247 674.278 198.19 674.649 198.151C675.024 198.109 675.297 198.038 675.467 197.94C675.642 197.842 675.729 197.672 675.729 197.429V197.378C675.729 196.747 675.557 196.257 675.212 195.908C674.871 195.558 674.353 195.384 673.658 195.384C672.938 195.384 672.374 195.541 671.964 195.857C671.555 196.172 671.268 196.509 671.102 196.866L669.67 196.355C669.925 195.759 670.266 195.294 670.692 194.962C671.123 194.625 671.592 194.391 672.099 194.259C672.61 194.122 673.113 194.054 673.607 194.054C673.923 194.054 674.285 194.092 674.694 194.169C675.107 194.241 675.506 194.393 675.889 194.623C676.277 194.853 676.599 195.2 676.854 195.665C677.11 196.129 677.238 196.751 677.238 197.531V204H675.729V202.67H675.653C675.55 202.884 675.38 203.112 675.141 203.354C674.903 203.597 674.585 203.804 674.189 203.974C673.793 204.145 673.309 204.23 672.738 204.23ZM672.968 202.875C673.565 202.875 674.067 202.758 674.477 202.523C674.89 202.289 675.201 201.987 675.41 201.616C675.623 201.245 675.729 200.855 675.729 200.446V199.065C675.665 199.142 675.525 199.212 675.308 199.276C675.094 199.336 674.847 199.389 674.566 199.436C674.289 199.479 674.018 199.517 673.754 199.551C673.494 199.581 673.283 199.607 673.121 199.628C672.729 199.679 672.363 199.762 672.022 199.877C671.685 199.988 671.413 200.156 671.204 200.382C670.999 200.604 670.897 200.906 670.897 201.29C670.897 201.814 671.091 202.21 671.479 202.479C671.871 202.743 672.367 202.875 672.968 202.875ZM681.14 198.094V204H679.631V194.182H681.089V195.716H681.216C681.447 195.217 681.796 194.817 682.265 194.514C682.734 194.207 683.339 194.054 684.08 194.054C684.745 194.054 685.327 194.19 685.825 194.463C686.324 194.732 686.711 195.141 686.988 195.69C687.265 196.236 687.404 196.926 687.404 197.761V204H685.895V197.864C685.895 197.092 685.695 196.491 685.295 196.061C684.894 195.626 684.344 195.409 683.645 195.409C683.164 195.409 682.734 195.513 682.354 195.722C681.979 195.931 681.683 196.236 681.466 196.636C681.248 197.037 681.14 197.523 681.14 198.094ZM698.875 194.182V195.46H693.583V194.182H698.875ZM695.168 204V192.827C695.168 192.264 695.3 191.795 695.564 191.42C695.828 191.045 696.171 190.764 696.593 190.577C697.015 190.389 697.46 190.295 697.929 190.295C698.3 190.295 698.602 190.325 698.837 190.385C699.071 190.445 699.246 190.5 699.361 190.551L698.926 191.855C698.85 191.83 698.743 191.798 698.607 191.759C698.475 191.721 698.3 191.702 698.083 191.702C697.584 191.702 697.224 191.827 697.002 192.079C696.785 192.33 696.676 192.699 696.676 193.185V204H695.168ZM704.214 204.205C703.327 204.205 702.55 203.994 701.881 203.572C701.216 203.15 700.696 202.56 700.321 201.801C699.95 201.043 699.765 200.156 699.765 199.142C699.765 198.119 699.95 197.227 700.321 196.464C700.696 195.701 701.216 195.109 701.881 194.687C702.55 194.265 703.327 194.054 704.214 194.054C705.1 194.054 705.876 194.265 706.54 194.687C707.209 195.109 707.729 195.701 708.1 196.464C708.475 197.227 708.663 198.119 708.663 199.142C708.663 200.156 708.475 201.043 708.1 201.801C707.729 202.56 707.209 203.15 706.54 203.572C705.876 203.994 705.1 204.205 704.214 204.205ZM704.214 202.849C704.887 202.849 705.441 202.677 705.876 202.332C706.31 201.987 706.632 201.533 706.841 200.97C707.05 200.408 707.154 199.798 707.154 199.142C707.154 198.486 707.05 197.874 706.841 197.308C706.632 196.741 706.31 196.283 705.876 195.933C705.441 195.584 704.887 195.409 704.214 195.409C703.54 195.409 702.986 195.584 702.552 195.933C702.117 196.283 701.795 196.741 701.587 197.308C701.378 197.874 701.273 198.486 701.273 199.142C701.273 199.798 701.378 200.408 701.587 200.97C701.795 201.533 702.117 201.987 702.552 202.332C702.986 202.677 703.54 202.849 704.214 202.849ZM714.594 204.205C713.673 204.205 712.881 203.987 712.216 203.553C711.551 203.118 711.04 202.519 710.682 201.756C710.324 200.994 710.145 200.122 710.145 199.142C710.145 198.145 710.328 197.265 710.695 196.502C711.066 195.735 711.581 195.136 712.242 194.706C712.906 194.271 713.682 194.054 714.568 194.054C715.259 194.054 715.881 194.182 716.435 194.438C716.989 194.693 717.443 195.051 717.796 195.511C718.15 195.972 718.369 196.509 718.455 197.122H716.946C716.831 196.675 716.575 196.278 716.179 195.933C715.787 195.584 715.259 195.409 714.594 195.409C714.006 195.409 713.49 195.562 713.047 195.869C712.608 196.172 712.265 196.6 712.018 197.154C711.775 197.704 711.654 198.349 711.654 199.091C711.654 199.849 711.773 200.51 712.012 201.072C712.254 201.635 712.595 202.072 713.034 202.383C713.477 202.694 713.997 202.849 714.594 202.849C714.986 202.849 715.342 202.781 715.661 202.645C715.981 202.509 716.252 202.312 716.473 202.057C716.695 201.801 716.852 201.494 716.946 201.136H718.455C718.369 201.716 718.159 202.238 717.822 202.702C717.49 203.163 717.048 203.529 716.499 203.802C715.953 204.07 715.318 204.205 714.594 204.205ZM726.487 199.986V194.182H727.996V204H726.487V202.338H726.385C726.155 202.837 725.797 203.261 725.311 203.61C724.826 203.955 724.212 204.128 723.47 204.128C722.857 204.128 722.311 203.994 721.834 203.725C721.357 203.452 720.982 203.043 720.709 202.498C720.436 201.948 720.3 201.256 720.3 200.42V194.182H721.809V200.318C721.809 201.034 722.009 201.605 722.409 202.031C722.814 202.457 723.33 202.67 723.956 202.67C724.331 202.67 724.713 202.575 725.1 202.383C725.492 202.191 725.821 201.897 726.085 201.501C726.353 201.104 726.487 200.599 726.487 199.986ZM737.354 196.381L735.998 196.764C735.913 196.538 735.787 196.319 735.621 196.106C735.459 195.888 735.238 195.71 734.957 195.569C734.675 195.428 734.315 195.358 733.876 195.358C733.275 195.358 732.775 195.496 732.374 195.773C731.978 196.046 731.78 196.393 731.78 196.815C731.78 197.19 731.916 197.487 732.189 197.704C732.461 197.921 732.888 198.102 733.467 198.247L734.925 198.605C735.802 198.818 736.457 199.144 736.887 199.583C737.317 200.018 737.533 200.578 737.533 201.264C737.533 201.827 737.371 202.33 737.047 202.773C736.727 203.216 736.28 203.565 735.704 203.821C735.129 204.077 734.46 204.205 733.697 204.205C732.696 204.205 731.867 203.987 731.211 203.553C730.555 203.118 730.139 202.483 729.964 201.648L731.396 201.29C731.533 201.818 731.79 202.214 732.17 202.479C732.553 202.743 733.054 202.875 733.672 202.875C734.375 202.875 734.933 202.726 735.346 202.428C735.764 202.125 735.973 201.763 735.973 201.341C735.973 201 735.854 200.714 735.615 200.484C735.376 200.25 735.01 200.075 734.515 199.96L732.879 199.577C731.98 199.364 731.319 199.033 730.898 198.586C730.48 198.134 730.271 197.57 730.271 196.892C730.271 196.338 730.427 195.848 730.738 195.422C731.053 194.996 731.481 194.661 732.023 194.418C732.568 194.175 733.186 194.054 733.876 194.054C734.848 194.054 735.611 194.267 736.165 194.693C736.723 195.119 737.119 195.682 737.354 196.381ZM748.134 204.205C747.248 204.205 746.47 203.994 745.801 203.572C745.137 203.15 744.617 202.56 744.242 201.801C743.871 201.043 743.686 200.156 743.686 199.142C743.686 198.119 743.871 197.227 744.242 196.464C744.617 195.701 745.137 195.109 745.801 194.687C746.47 194.265 747.248 194.054 748.134 194.054C749.021 194.054 749.796 194.265 750.461 194.687C751.13 195.109 751.65 195.701 752.021 196.464C752.396 197.227 752.583 198.119 752.583 199.142C752.583 200.156 752.396 201.043 752.021 201.801C751.65 202.56 751.13 203.15 750.461 203.572C749.796 203.994 749.021 204.205 748.134 204.205ZM748.134 202.849C748.808 202.849 749.362 202.677 749.796 202.332C750.231 201.987 750.553 201.533 750.762 200.97C750.97 200.408 751.075 199.798 751.075 199.142C751.075 198.486 750.97 197.874 750.762 197.308C750.553 196.741 750.231 196.283 749.796 195.933C749.362 195.584 748.808 195.409 748.134 195.409C747.461 195.409 746.907 195.584 746.472 195.933C746.038 196.283 745.716 196.741 745.507 197.308C745.298 197.874 745.194 198.486 745.194 199.142C745.194 199.798 745.298 200.408 745.507 200.97C745.716 201.533 746.038 201.987 746.472 202.332C746.907 202.677 747.461 202.849 748.134 202.849ZM756.035 198.094V204H754.526V194.182H755.983V195.716H756.111C756.341 195.217 756.691 194.817 757.16 194.514C757.628 194.207 758.233 194.054 758.975 194.054C759.64 194.054 760.221 194.19 760.72 194.463C761.218 194.732 761.606 195.141 761.883 195.69C762.16 196.236 762.299 196.926 762.299 197.761V204H760.79V197.864C760.79 197.092 760.59 196.491 760.189 196.061C759.789 195.626 759.239 195.409 758.54 195.409C758.059 195.409 757.628 195.513 757.249 195.722C756.874 195.931 756.578 196.236 756.361 196.636C756.143 197.037 756.035 197.523 756.035 198.094ZM773.386 204.205C772.466 204.205 771.673 203.987 771.009 203.553C770.344 203.118 769.832 202.519 769.474 201.756C769.117 200.994 768.938 200.122 768.938 199.142C768.938 198.145 769.121 197.265 769.487 196.502C769.858 195.735 770.374 195.136 771.034 194.706C771.699 194.271 772.474 194.054 773.361 194.054C774.051 194.054 774.673 194.182 775.227 194.438C775.781 194.693 776.235 195.051 776.589 195.511C776.943 195.972 777.162 196.509 777.247 197.122H775.739C775.624 196.675 775.368 196.278 774.972 195.933C774.58 195.584 774.051 195.409 773.386 195.409C772.798 195.409 772.283 195.562 771.84 195.869C771.401 196.172 771.058 196.6 770.81 197.154C770.568 197.704 770.446 198.349 770.446 199.091C770.446 199.849 770.565 200.51 770.804 201.072C771.047 201.635 771.388 202.072 771.827 202.383C772.27 202.694 772.79 202.849 773.386 202.849C773.778 202.849 774.134 202.781 774.454 202.645C774.773 202.509 775.044 202.312 775.266 202.057C775.487 201.801 775.645 201.494 775.739 201.136H777.247C777.162 201.716 776.951 202.238 776.614 202.702C776.282 203.163 775.841 203.529 775.291 203.802C774.746 204.07 774.111 204.205 773.386 204.205ZM780.601 190.909V204H779.092V190.909H780.601ZM786.993 204.205C786.106 204.205 785.329 203.994 784.66 203.572C783.995 203.15 783.475 202.56 783.1 201.801C782.729 201.043 782.544 200.156 782.544 199.142C782.544 198.119 782.729 197.227 783.1 196.464C783.475 195.701 783.995 195.109 784.66 194.687C785.329 194.265 786.106 194.054 786.993 194.054C787.879 194.054 788.655 194.265 789.319 194.687C789.988 195.109 790.508 195.701 790.879 196.464C791.254 197.227 791.441 198.119 791.441 199.142C791.441 200.156 791.254 201.043 790.879 201.801C790.508 202.56 789.988 203.15 789.319 203.572C788.655 203.994 787.879 204.205 786.993 204.205ZM786.993 202.849C787.666 202.849 788.22 202.677 788.655 202.332C789.089 201.987 789.411 201.533 789.62 200.97C789.829 200.408 789.933 199.798 789.933 199.142C789.933 198.486 789.829 197.874 789.62 197.308C789.411 196.741 789.089 196.283 788.655 195.933C788.22 195.584 787.666 195.409 786.993 195.409C786.319 195.409 785.765 195.584 785.331 195.933C784.896 196.283 784.574 196.741 784.365 197.308C784.157 197.874 784.052 198.486 784.052 199.142C784.052 199.798 784.157 200.408 784.365 200.97C784.574 201.533 784.896 201.987 785.331 202.332C785.765 202.677 786.319 202.849 786.993 202.849ZM800.339 196.381L798.984 196.764C798.898 196.538 798.773 196.319 798.607 196.106C798.445 195.888 798.223 195.71 797.942 195.569C797.661 195.428 797.3 195.358 796.861 195.358C796.261 195.358 795.76 195.496 795.359 195.773C794.963 196.046 794.765 196.393 794.765 196.815C794.765 197.19 794.901 197.487 795.174 197.704C795.447 197.921 795.873 198.102 796.452 198.247L797.91 198.605C798.788 198.818 799.442 199.144 799.872 199.583C800.303 200.018 800.518 200.578 800.518 201.264C800.518 201.827 800.356 202.33 800.032 202.773C799.712 203.216 799.265 203.565 798.69 203.821C798.114 204.077 797.445 204.205 796.683 204.205C795.681 204.205 794.852 203.987 794.196 203.553C793.54 203.118 793.124 202.483 792.95 201.648L794.381 201.29C794.518 201.818 794.776 202.214 795.155 202.479C795.538 202.743 796.039 202.875 796.657 202.875C797.36 202.875 797.918 202.726 798.332 202.428C798.749 202.125 798.958 201.763 798.958 201.341C798.958 201 798.839 200.714 798.6 200.484C798.361 200.25 797.995 200.075 797.501 199.96L795.864 199.577C794.965 199.364 794.305 199.033 793.883 198.586C793.465 198.134 793.256 197.57 793.256 196.892C793.256 196.338 793.412 195.848 793.723 195.422C794.038 194.996 794.467 194.661 795.008 194.418C795.553 194.175 796.171 194.054 796.861 194.054C797.833 194.054 798.596 194.267 799.15 194.693C799.708 195.119 800.104 195.682 800.339 196.381ZM802.429 204V194.182H803.937V204H802.429ZM803.196 192.545C802.902 192.545 802.648 192.445 802.435 192.245C802.226 192.045 802.122 191.804 802.122 191.523C802.122 191.241 802.226 191.001 802.435 190.8C802.648 190.6 802.902 190.5 803.196 190.5C803.49 190.5 803.741 190.6 803.95 190.8C804.163 191.001 804.269 191.241 804.269 191.523C804.269 191.804 804.163 192.045 803.95 192.245C803.741 192.445 803.49 192.545 803.196 192.545ZM807.849 198.094V204H806.34V194.182H807.797V195.716H807.925C808.155 195.217 808.505 194.817 808.974 194.514C809.442 194.207 810.047 194.054 810.789 194.054C811.454 194.054 812.035 194.19 812.534 194.463C813.033 194.732 813.42 195.141 813.697 195.69C813.974 196.236 814.113 196.926 814.113 197.761V204H812.604V197.864C812.604 197.092 812.404 196.491 812.003 196.061C811.603 195.626 811.053 195.409 810.354 195.409C809.873 195.409 809.442 195.513 809.063 195.722C808.688 195.931 808.392 196.236 808.175 196.636C807.957 197.037 807.849 197.523 807.849 198.094ZM820.472 207.886C819.744 207.886 819.117 207.793 818.593 207.605C818.069 207.422 817.632 207.179 817.283 206.876C816.938 206.578 816.663 206.259 816.458 205.918L817.66 205.074C817.796 205.253 817.969 205.457 818.178 205.688C818.386 205.922 818.672 206.124 819.034 206.295C819.401 206.469 819.88 206.557 820.472 206.557C821.265 206.557 821.919 206.365 822.435 205.982C822.95 205.598 823.208 204.997 823.208 204.179V202.185H823.08C822.97 202.364 822.812 202.585 822.607 202.849C822.407 203.109 822.117 203.342 821.738 203.546C821.363 203.746 820.856 203.847 820.217 203.847C819.424 203.847 818.712 203.659 818.082 203.284C817.455 202.909 816.959 202.364 816.592 201.648C816.23 200.932 816.049 200.062 816.049 199.04C816.049 198.034 816.226 197.158 816.58 196.413C816.933 195.663 817.425 195.083 818.056 194.674C818.687 194.261 819.416 194.054 820.242 194.054C820.881 194.054 821.389 194.161 821.764 194.374C822.143 194.582 822.433 194.821 822.633 195.089C822.837 195.354 822.995 195.571 823.106 195.741H823.259V194.182H824.717V204.281C824.717 205.125 824.525 205.811 824.141 206.339C823.762 206.872 823.251 207.262 822.607 207.509C821.968 207.761 821.256 207.886 820.472 207.886ZM820.421 202.491C821.026 202.491 821.538 202.353 821.955 202.076C822.373 201.799 822.69 201.401 822.908 200.881C823.125 200.361 823.234 199.739 823.234 199.014C823.234 198.307 823.127 197.683 822.914 197.141C822.701 196.6 822.386 196.176 821.968 195.869C821.55 195.562 821.035 195.409 820.421 195.409C819.782 195.409 819.249 195.571 818.823 195.895C818.401 196.219 818.084 196.653 817.871 197.199C817.662 197.744 817.558 198.349 817.558 199.014C817.558 199.696 817.664 200.299 817.877 200.823C818.095 201.343 818.414 201.752 818.836 202.05C819.262 202.344 819.791 202.491 820.421 202.491ZM835.528 204.205C834.71 204.205 833.987 203.998 833.361 203.585C832.735 203.167 832.245 202.579 831.891 201.82C831.537 201.058 831.36 200.156 831.36 199.116C831.36 198.085 831.537 197.19 831.891 196.432C832.245 195.673 832.737 195.087 833.367 194.674C833.998 194.261 834.727 194.054 835.553 194.054C836.193 194.054 836.698 194.161 837.068 194.374C837.443 194.582 837.729 194.821 837.925 195.089C838.125 195.354 838.281 195.571 838.392 195.741H838.519V190.909H840.028V204H838.571V202.491H838.392C838.281 202.67 838.123 202.896 837.919 203.169C837.714 203.437 837.422 203.678 837.043 203.891C836.664 204.1 836.159 204.205 835.528 204.205ZM835.732 202.849C836.338 202.849 836.849 202.692 837.267 202.376C837.684 202.057 838.002 201.616 838.219 201.053C838.436 200.487 838.545 199.832 838.545 199.091C838.545 198.358 838.438 197.717 838.225 197.167C838.012 196.613 837.697 196.183 837.279 195.876C836.862 195.565 836.346 195.409 835.732 195.409C835.093 195.409 834.561 195.573 834.134 195.901C833.713 196.225 833.395 196.666 833.182 197.224C832.973 197.778 832.869 198.401 832.869 199.091C832.869 199.79 832.975 200.425 833.188 200.996C833.406 201.562 833.725 202.014 834.147 202.351C834.573 202.683 835.102 202.849 835.732 202.849ZM846.757 204.205C845.811 204.205 844.995 203.996 844.309 203.578C843.627 203.156 843.1 202.568 842.73 201.814C842.363 201.055 842.18 200.173 842.18 199.168C842.18 198.162 842.363 197.276 842.73 196.509C843.1 195.737 843.616 195.136 844.277 194.706C844.941 194.271 845.717 194.054 846.603 194.054C847.115 194.054 847.62 194.139 848.118 194.31C848.617 194.48 849.071 194.757 849.48 195.141C849.889 195.52 850.215 196.023 850.458 196.649C850.701 197.276 850.822 198.047 850.822 198.963V199.602H843.254V198.298H849.288C849.288 197.744 849.177 197.25 848.956 196.815C848.738 196.381 848.427 196.038 848.022 195.786C847.622 195.535 847.149 195.409 846.603 195.409C846.002 195.409 845.483 195.558 845.044 195.857C844.609 196.151 844.274 196.534 844.04 197.007C843.806 197.48 843.688 197.987 843.688 198.528V199.398C843.688 200.139 843.816 200.768 844.072 201.283C844.332 201.795 844.692 202.185 845.152 202.453C845.613 202.717 846.147 202.849 846.757 202.849C847.153 202.849 847.511 202.794 847.831 202.683C848.154 202.568 848.434 202.398 848.668 202.172C848.902 201.942 849.083 201.656 849.211 201.315L850.669 201.724C850.515 202.219 850.257 202.653 849.895 203.028C849.533 203.399 849.086 203.689 848.553 203.898C848.02 204.102 847.421 204.205 846.757 204.205ZM855.646 204.23C855.024 204.23 854.459 204.113 853.952 203.879C853.445 203.64 853.042 203.297 852.744 202.849C852.446 202.398 852.297 201.852 852.297 201.213C852.297 200.651 852.407 200.195 852.629 199.845C852.851 199.491 853.147 199.214 853.517 199.014C853.888 198.814 854.297 198.665 854.745 198.567C855.196 198.464 855.65 198.384 856.106 198.324C856.703 198.247 857.186 198.19 857.557 198.151C857.932 198.109 858.205 198.038 858.375 197.94C858.55 197.842 858.637 197.672 858.637 197.429V197.378C858.637 196.747 858.465 196.257 858.12 195.908C857.779 195.558 857.261 195.384 856.566 195.384C855.846 195.384 855.282 195.541 854.873 195.857C854.463 196.172 854.176 196.509 854.01 196.866L852.578 196.355C852.833 195.759 853.174 195.294 853.601 194.962C854.031 194.625 854.5 194.391 855.007 194.259C855.518 194.122 856.021 194.054 856.515 194.054C856.831 194.054 857.193 194.092 857.602 194.169C858.015 194.241 858.414 194.393 858.797 194.623C859.185 194.853 859.507 195.2 859.762 195.665C860.018 196.129 860.146 196.751 860.146 197.531V204H858.637V202.67H858.561C858.458 202.884 858.288 203.112 858.049 203.354C857.811 203.597 857.493 203.804 857.097 203.974C856.701 204.145 856.217 204.23 855.646 204.23ZM855.876 202.875C856.473 202.875 856.976 202.758 857.385 202.523C857.798 202.289 858.109 201.987 858.318 201.616C858.531 201.245 858.637 200.855 858.637 200.446V199.065C858.574 199.142 858.433 199.212 858.216 199.276C858.003 199.336 857.755 199.389 857.474 199.436C857.197 199.479 856.927 199.517 856.662 199.551C856.402 199.581 856.191 199.607 856.03 199.628C855.637 199.679 855.271 199.762 854.93 199.877C854.593 199.988 854.321 200.156 854.112 200.382C853.907 200.604 853.805 200.906 853.805 201.29C853.805 201.814 853.999 202.21 854.387 202.479C854.779 202.743 855.275 202.875 855.876 202.875ZM864.048 190.909V204H862.539V190.909H864.048ZM873.405 196.381L872.05 196.764C871.965 196.538 871.839 196.319 871.673 196.106C871.511 195.888 871.29 195.71 871.008 195.569C870.727 195.428 870.367 195.358 869.928 195.358C869.327 195.358 868.827 195.496 868.426 195.773C868.03 196.046 867.832 196.393 867.832 196.815C867.832 197.19 867.968 197.487 868.241 197.704C868.513 197.921 868.94 198.102 869.519 198.247L870.976 198.605C871.854 198.818 872.508 199.144 872.939 199.583C873.369 200.018 873.584 200.578 873.584 201.264C873.584 201.827 873.422 202.33 873.099 202.773C872.779 203.216 872.332 203.565 871.756 203.821C871.181 204.077 870.512 204.205 869.749 204.205C868.748 204.205 867.919 203.987 867.263 203.553C866.606 203.118 866.191 202.483 866.016 201.648L867.448 201.29C867.584 201.818 867.842 202.214 868.221 202.479C868.605 202.743 869.106 202.875 869.724 202.875C870.427 202.875 870.985 202.726 871.398 202.428C871.816 202.125 872.025 201.763 872.025 201.341C872.025 201 871.905 200.714 871.667 200.484C871.428 200.25 871.062 200.075 870.567 199.96L868.931 199.577C868.032 199.364 867.371 199.033 866.949 198.586C866.532 198.134 866.323 197.57 866.323 196.892C866.323 196.338 866.479 195.848 866.79 195.422C867.105 194.996 867.533 194.661 868.074 194.418C868.62 194.175 869.238 194.054 869.928 194.054C870.9 194.054 871.663 194.267 872.216 194.693C872.775 195.119 873.171 195.682 873.405 196.381ZM876.595 204.102C876.279 204.102 876.009 203.989 875.783 203.763C875.557 203.538 875.444 203.267 875.444 202.952C875.444 202.636 875.557 202.366 875.783 202.14C876.009 201.914 876.279 201.801 876.595 201.801C876.91 201.801 877.18 201.914 877.406 202.14C877.632 202.366 877.745 202.636 877.745 202.952C877.745 203.161 877.692 203.352 877.585 203.527C877.483 203.702 877.345 203.842 877.17 203.949C876.999 204.051 876.808 204.102 876.595 204.102Z" fill="white"/>
<rect x="546" y="239" width="123" height="32" rx="16" fill="#EEF1FF"/>
<g filter="url(#filter1_d_72_947)">
<path d="M562.557 251.364V249.818H570.68V251.364H567.533V260H565.704V251.364H562.557ZM575.715 256.788V252.364H577.515V260H575.77V258.643H575.69C575.518 259.07 575.234 259.42 574.84 259.692C574.449 259.964 573.967 260.099 573.393 260.099C572.893 260.099 572.45 259.988 572.066 259.766C571.685 259.541 571.386 259.214 571.171 258.787C570.956 258.356 570.848 257.836 570.848 257.226V252.364H572.648V256.947C572.648 257.431 572.78 257.816 573.045 258.101C573.31 258.386 573.658 258.528 574.089 258.528C574.354 258.528 574.611 258.464 574.86 258.335C575.108 258.205 575.312 258.013 575.471 257.758C575.634 257.499 575.715 257.176 575.715 256.788ZM579.085 260V252.364H580.83V253.636H580.91C581.049 253.196 581.288 252.856 581.626 252.617C581.967 252.375 582.357 252.254 582.794 252.254C582.894 252.254 583.005 252.259 583.127 252.269C583.253 252.276 583.358 252.287 583.441 252.304V253.96C583.364 253.933 583.243 253.91 583.078 253.89C582.915 253.867 582.758 253.855 582.605 253.855C582.277 253.855 581.982 253.926 581.72 254.069C581.462 254.208 581.258 254.402 581.109 254.651C580.96 254.899 580.885 255.186 580.885 255.511V260H579.085ZM586.156 255.526V260H584.356V252.364H586.076V253.661H586.166C586.342 253.234 586.622 252.894 587.006 252.642C587.394 252.39 587.873 252.264 588.443 252.264C588.97 252.264 589.429 252.377 589.82 252.602C590.214 252.828 590.519 253.154 590.735 253.582C590.954 254.009 591.061 254.528 591.058 255.138V260H589.258V255.416C589.258 254.906 589.126 254.506 588.86 254.218C588.599 253.93 588.236 253.786 587.772 253.786C587.457 253.786 587.177 253.855 586.931 253.994C586.69 254.13 586.499 254.327 586.36 254.586C586.224 254.844 586.156 255.158 586.156 255.526ZM601.413 252.617C601.367 252.183 601.171 251.845 600.826 251.603C600.485 251.361 600.041 251.24 599.494 251.24C599.11 251.24 598.78 251.298 598.505 251.414C598.23 251.53 598.019 251.687 597.873 251.886C597.727 252.085 597.653 252.312 597.65 252.567C597.65 252.78 597.698 252.964 597.794 253.119C597.893 253.275 598.027 253.408 598.196 253.517C598.365 253.623 598.553 253.713 598.758 253.786C598.964 253.858 599.171 253.92 599.38 253.969L600.334 254.208C600.719 254.298 601.088 254.419 601.443 254.571C601.801 254.723 602.121 254.916 602.402 255.148C602.687 255.38 602.913 255.66 603.079 255.988C603.244 256.316 603.327 256.701 603.327 257.141C603.327 257.738 603.175 258.263 602.87 258.717C602.565 259.168 602.124 259.521 601.547 259.776C600.974 260.028 600.28 260.154 599.464 260.154C598.672 260.154 597.984 260.031 597.401 259.786C596.821 259.541 596.367 259.183 596.039 258.712C595.714 258.242 595.538 257.668 595.512 256.992H597.326C597.353 257.347 597.462 257.642 597.655 257.877C597.847 258.112 598.097 258.288 598.405 258.404C598.717 258.52 599.065 258.578 599.449 258.578C599.85 258.578 600.202 258.518 600.503 258.399C600.808 258.277 601.047 258.107 601.219 257.892C601.391 257.673 601.479 257.418 601.483 257.126C601.479 256.861 601.401 256.643 601.249 256.47C601.097 256.295 600.883 256.149 600.608 256.033C600.336 255.913 600.018 255.807 599.653 255.714L598.495 255.416C597.656 255.201 596.993 254.874 596.506 254.437C596.022 253.996 595.78 253.411 595.78 252.682C595.78 252.082 595.943 251.557 596.267 251.106C596.596 250.655 597.041 250.305 597.605 250.057C598.168 249.805 598.806 249.679 599.519 249.679C600.241 249.679 600.874 249.805 601.418 250.057C601.965 250.305 602.394 250.652 602.706 251.096C603.017 251.537 603.178 252.044 603.188 252.617H601.413ZM606.809 260.154C606.325 260.154 605.89 260.068 605.502 259.896C605.117 259.72 604.812 259.461 604.587 259.12C604.365 258.779 604.254 258.358 604.254 257.857C604.254 257.426 604.333 257.07 604.493 256.788C604.652 256.507 604.869 256.281 605.144 256.112C605.419 255.943 605.729 255.816 606.074 255.729C606.422 255.64 606.781 255.575 607.152 255.536C607.6 255.489 607.963 255.448 608.241 255.411C608.52 255.371 608.722 255.312 608.848 255.232C608.977 255.149 609.042 255.022 609.042 254.849V254.82C609.042 254.445 608.931 254.155 608.708 253.95C608.486 253.744 608.167 253.641 607.749 253.641C607.308 253.641 606.958 253.737 606.7 253.93C606.445 254.122 606.272 254.349 606.183 254.611L604.503 254.372C604.635 253.908 604.854 253.52 605.159 253.209C605.464 252.894 605.837 252.659 606.277 252.503C606.718 252.344 607.205 252.264 607.739 252.264C608.107 252.264 608.473 252.307 608.838 252.393C609.202 252.48 609.535 252.622 609.837 252.821C610.139 253.017 610.381 253.283 610.563 253.621C610.749 253.96 610.841 254.382 610.841 254.889V260H609.111V258.951H609.052C608.942 259.163 608.788 259.362 608.589 259.548C608.394 259.73 608.147 259.877 607.848 259.99C607.553 260.099 607.207 260.154 606.809 260.154ZM607.277 258.832C607.638 258.832 607.951 258.76 608.216 258.618C608.481 258.472 608.685 258.28 608.828 258.041C608.974 257.803 609.047 257.542 609.047 257.261V256.361C608.99 256.407 608.894 256.45 608.758 256.49C608.626 256.53 608.476 256.565 608.311 256.594C608.145 256.624 607.981 256.651 607.819 256.674C607.656 256.697 607.515 256.717 607.396 256.734C607.128 256.77 606.887 256.83 606.675 256.913C606.463 256.996 606.296 257.112 606.173 257.261C606.05 257.406 605.989 257.595 605.989 257.827C605.989 258.159 606.11 258.409 606.352 258.578C606.594 258.747 606.902 258.832 607.277 258.832ZM614.171 249.818V260H612.371V249.818H614.171ZM619.122 260.149C618.356 260.149 617.695 259.99 617.138 259.672C616.585 259.35 616.159 258.896 615.861 258.31C615.562 257.72 615.413 257.025 615.413 256.227C615.413 255.441 615.562 254.752 615.861 254.158C616.162 253.562 616.583 253.098 617.123 252.766C617.664 252.432 618.298 252.264 619.028 252.264C619.498 252.264 619.942 252.34 620.36 252.493C620.781 252.642 621.152 252.874 621.474 253.189C621.798 253.504 622.054 253.905 622.239 254.392C622.425 254.876 622.518 255.453 622.518 256.122V256.674H616.258V255.461H620.792C620.789 255.116 620.715 254.81 620.569 254.541C620.423 254.269 620.219 254.056 619.957 253.9C619.699 253.744 619.397 253.666 619.052 253.666C618.685 253.666 618.361 253.756 618.083 253.935C617.805 254.11 617.587 254.342 617.432 254.631C617.279 254.916 617.201 255.229 617.198 255.57V256.629C617.198 257.073 617.279 257.455 617.442 257.773C617.604 258.088 617.831 258.33 618.123 258.499C618.414 258.664 618.756 258.747 619.147 258.747C619.409 258.747 619.646 258.711 619.858 258.638C620.07 258.562 620.254 258.451 620.41 258.305C620.565 258.159 620.683 257.978 620.763 257.763L622.443 257.952C622.337 258.396 622.135 258.784 621.837 259.115C621.542 259.443 621.164 259.698 620.703 259.881C620.242 260.06 619.715 260.149 619.122 260.149ZM629.796 254.382L628.155 254.561C628.109 254.395 628.027 254.24 627.911 254.094C627.799 253.948 627.646 253.83 627.454 253.741C627.262 253.651 627.027 253.607 626.748 253.607C626.374 253.607 626.059 253.688 625.804 253.85C625.552 254.013 625.427 254.223 625.431 254.482C625.427 254.704 625.509 254.884 625.674 255.023C625.843 255.163 626.122 255.277 626.509 255.366L627.812 255.645C628.535 255.801 629.072 256.048 629.423 256.386C629.777 256.724 629.956 257.166 629.96 257.713C629.956 258.194 629.816 258.618 629.537 258.986C629.262 259.35 628.879 259.635 628.389 259.841C627.898 260.046 627.335 260.149 626.698 260.149C625.764 260.149 625.011 259.954 624.441 259.562C623.871 259.168 623.531 258.62 623.422 257.917L625.177 257.748C625.257 258.093 625.426 258.353 625.684 258.528C625.943 258.704 626.279 258.792 626.693 258.792C627.121 258.792 627.464 258.704 627.723 258.528C627.984 258.353 628.115 258.136 628.115 257.877C628.115 257.658 628.031 257.478 627.862 257.335C627.696 257.193 627.438 257.083 627.086 257.007L625.784 256.734C625.051 256.581 624.509 256.324 624.158 255.963C623.807 255.598 623.633 255.138 623.636 254.581C623.633 254.11 623.76 253.703 624.019 253.358C624.281 253.01 624.643 252.741 625.107 252.553C625.575 252.36 626.113 252.264 626.723 252.264C627.618 252.264 628.322 252.455 628.836 252.836C629.353 253.217 629.673 253.732 629.796 254.382ZM643.534 254.909C643.534 256.006 643.328 256.946 642.918 257.728C642.51 258.507 641.953 259.103 641.247 259.518C640.544 259.932 639.747 260.139 638.856 260.139C637.964 260.139 637.165 259.932 636.459 259.518C635.757 259.1 635.2 258.502 634.789 257.723C634.381 256.941 634.177 256.003 634.177 254.909C634.177 253.812 634.381 252.874 634.789 252.095C635.2 251.313 635.757 250.715 636.459 250.3C637.165 249.886 637.964 249.679 638.856 249.679C639.747 249.679 640.544 249.886 641.247 250.3C641.953 250.715 642.51 251.313 642.918 252.095C643.328 252.874 643.534 253.812 643.534 254.909ZM641.68 254.909C641.68 254.137 641.559 253.486 641.317 252.955C641.078 252.422 640.747 252.019 640.322 251.747C639.898 251.472 639.409 251.335 638.856 251.335C638.302 251.335 637.813 251.472 637.389 251.747C636.965 252.019 636.632 252.422 636.39 252.955C636.151 253.486 636.032 254.137 636.032 254.909C636.032 255.681 636.151 256.334 636.39 256.868C636.632 257.398 636.965 257.801 637.389 258.076C637.813 258.348 638.302 258.484 638.856 258.484C639.409 258.484 639.898 258.348 640.322 258.076C640.747 257.801 641.078 257.398 641.317 256.868C641.559 256.334 641.68 255.681 641.68 254.909ZM646.718 255.526V260H644.918V252.364H646.638V253.661H646.728C646.904 253.234 647.184 252.894 647.568 252.642C647.956 252.39 648.435 252.264 649.005 252.264C649.532 252.264 649.991 252.377 650.382 252.602C650.776 252.828 651.081 253.154 651.297 253.582C651.516 254.009 651.623 254.528 651.62 255.138V260H649.82V255.416C649.82 254.906 649.688 254.506 649.422 254.218C649.161 253.93 648.798 253.786 648.334 253.786C648.019 253.786 647.739 253.855 647.494 253.994C647.252 254.13 647.061 254.327 646.922 254.586C646.786 254.844 646.718 255.158 646.718 255.526Z" fill="black"/>
</g>
</g>
<defs>
<filter id="filter0_i_72_947" x="213.24" y="-221.613" width="897.41" height="784.026" filterUnits="userSpaceOnUse" color-interpolation-filters="sRGB">
<feFlood flood-opacity="0" result="BackgroundImageFix"/>
<feBlend mode="normal" in="SourceGraphic" in2="BackgroundImageFix" result="shape"/>
<feColorMatrix in="SourceAlpha" type="matrix" values="0 0 0 0 0 0 0 0 0 0 0 0 0 0 0 0 0 0 127 0" result="hardAlpha"/>
<feOffset dy="24"/>
<feComposite in2="hardAlpha" operator="arithmetic" k2="-1" k3="1"/>
<feColorMatrix type="matrix" values="0 0 0 0 1 0 0 0 0 1 0 0 0 0 1 0 0 0 0.26 0"/>
<feBlend mode="normal" in2="shape" result="effect1_innerShadow_72_947"/>
</filter>
<filter id="filter1_d_72_947" x="560.557" y="248.679" width="93.0684" height="14.4756" filterUnits="userSpaceOnUse" color-interpolation-filters="sRGB">
<feFlood flood-opacity="0" result="BackgroundImageFix"/>
<feColorMatrix in="SourceAlpha" type="matrix" values="0 0 0 0 0 0 0 0 0 0 0 0 0 0 0 0 0 0 127 0" result="hardAlpha"/>
<feOffset dy="1"/>
<feGaussianBlur stdDeviation="1"/>
<feComposite in2="hardAlpha" operator="out"/>
<feColorMatrix type="matrix" values="0 0 0 0 0 0 0 0 0 0 0 0 0 0 0 0 0 0 0.15 0"/>
<feBlend mode="normal" in2="BackgroundImageFix" result="effect1_dropShadow_72_947"/>
<feBlend mode="normal" in="SourceGraphic" in2="effect1_dropShadow_72_947" result="shape"/>
</filter>
<linearGradient id="paint0_linear_72_947" x1="0" y1="194" x2="1216" y2="194" gradientUnits="userSpaceOnUse">
<stop stop-color="#5271FF"/>
<stop offset="1" stop-color="#DD94FF"/>
</linearGradient>
<linearGradient id="paint1_linear_72_947" x1="132.635" y1="468.161" x2="1147.62" y2="-117.839" gradientUnits="userSpaceOnUse">
<stop stop-color="white"/>
<stop offset="1" stop-color="white" stop-opacity="0.1"/>
</linearGradient>
<clipPath id="clip0_72_947">
<rect width="1216" height="388" rx="16" fill="white"/>
</clipPath>
</defs>
</svg>
