<svg width="1282" height="2037" viewBox="0 0 1282 2037" fill="none" xmlns="http://www.w3.org/2000/svg">
<path d="M903.562 754.906L980.787 754.906L980.787 677.682L903.562 677.682L903.562 754.906Z" fill="url(#paint0_linear_201_1394)" fill-opacity="0.02" stroke="url(#paint1_radial_201_1394)" stroke-opacity="0.08" stroke-width="1.93062"/>
<path d="M978.861 303.142L1056.09 303.142L1056.09 225.917L978.861 225.917L978.861 303.142Z" fill="url(#paint2_linear_201_1394)" fill-opacity="0.02" stroke="url(#paint3_radial_201_1394)" stroke-opacity="0.08" stroke-width="1.93062"/>
<path d="M225.918 679.613L303.143 679.613L303.143 602.388L225.918 602.388L225.918 679.613Z" fill="url(#paint4_linear_201_1394)" fill-opacity="0.02" stroke="url(#paint5_radial_201_1394)" stroke-opacity="0.08" stroke-width="1.93062"/>
<path d="M1205.71 904.53L1281 904.53L1281 829.236M1205.71 904.53L1205.71 829.236M1205.71 904.53L1130.41 904.53M1205.71 829.236L1281 829.236M1205.71 829.236L1130.41 829.236M1205.71 829.236L1205.71 753.942M1281 829.236L1281 753.942M1130.41 904.53L1130.41 829.236M1130.41 904.53L1055.12 904.53M1130.41 829.236L1055.12 829.236M1130.41 829.236L1130.41 753.942M1055.12 904.53L1055.12 829.236M1055.12 904.53L979.824 904.53M1055.12 829.236L979.824 829.236M1055.12 829.236L1055.12 753.942M979.824 904.53L979.824 829.236M979.824 904.53L904.529 904.53M979.824 829.236L904.529 829.236M979.824 829.236L979.824 753.942M904.529 904.53L904.529 829.236M904.529 904.53L829.235 904.53M904.529 829.236L829.235 829.236M904.529 829.236L904.529 753.941M829.235 904.53L829.235 829.236M829.235 904.53L753.941 904.53M829.235 829.236L753.941 829.236M829.235 829.236L829.235 753.941M753.941 904.53L753.941 829.236M753.941 904.53L678.647 904.53M753.941 829.236L678.647 829.236M753.941 829.236L753.941 753.941M678.647 904.53L678.647 829.236M678.647 904.53L603.353 904.53M678.647 829.236L603.353 829.236M678.647 829.236L678.647 753.941M603.353 904.53L603.353 829.236M603.353 904.53L528.059 904.53M603.353 829.236L528.059 829.236M603.353 829.236L603.353 753.941M528.059 904.53L528.059 829.236M528.059 904.53L452.765 904.53M528.059 829.236L452.765 829.236M528.059 829.236L528.059 753.941M452.765 904.53L452.765 829.236M452.765 904.53L377.471 904.53M452.765 829.236L377.471 829.236M452.765 829.236L452.765 753.941M377.471 904.53L377.471 829.236M377.471 904.53L302.177 904.53M377.471 829.236L302.177 829.236M377.471 829.236L377.471 753.941M302.177 904.53L302.177 829.236M302.177 904.53L226.883 904.53M302.177 829.236L226.883 829.236M302.177 829.236L302.177 753.941M226.883 904.53L226.883 829.236M226.883 904.53L151.588 904.53M226.883 829.236L151.588 829.236M226.883 829.236L226.883 753.941M151.588 904.53L151.588 829.236M151.588 904.53L76.2943 904.53M151.588 829.236L76.2943 829.236M151.588 829.236L151.588 753.941M76.2943 904.53L76.2943 829.236M76.2943 904.53L1.00012 904.53L1.00013 829.236M76.2943 829.236L1.00013 829.236M76.2943 829.236L76.2943 753.941M1.00013 829.236L1.00014 753.941M1205.71 753.942L1281 753.942M1205.71 753.942L1130.41 753.942M1205.71 753.942L1205.71 678.647M1281 753.942L1281 678.647M1130.41 753.942L1055.12 753.942M1130.41 753.942L1130.41 678.647M1055.12 753.942L979.824 753.942M1055.12 753.942L1055.12 678.647M979.824 753.942L904.529 753.941M979.824 753.942L979.824 678.647M904.529 753.941L829.235 753.941M904.529 753.941L904.529 678.647M829.235 753.941L753.941 753.941M829.235 753.941L829.235 678.647M753.941 753.941L678.647 753.941M753.941 753.941L753.941 678.647M678.647 753.941L603.353 753.941M678.647 753.941L678.647 678.647M603.353 753.941L528.059 753.941M603.353 753.941L603.353 678.647M528.059 753.941L452.765 753.941M528.059 753.941L528.059 678.647M452.765 753.941L377.471 753.941M452.765 753.941L452.765 678.647M377.471 753.941L302.177 753.941M377.471 753.941L377.471 678.647M302.177 753.941L226.883 753.941M302.177 753.941L302.177 678.647M226.883 753.941L151.588 753.941M226.883 753.941L226.883 678.647M151.588 753.941L76.2943 753.941M151.588 753.941L151.588 678.647M76.2943 753.941L1.00014 753.941M76.2943 753.941L76.2943 678.647M1.00014 753.941L1.00014 678.647M1205.71 678.647L1281 678.647M1205.71 678.647L1130.41 678.647M1205.71 678.647L1205.71 603.353M1281 678.647L1281 603.353M1130.41 678.647L1055.12 678.647M1130.41 678.647L1130.41 603.353M1055.12 678.647L979.824 678.647M1055.12 678.647L1055.12 603.353M979.824 678.647L904.529 678.647M979.824 678.647L979.824 603.353M904.529 678.647L829.235 678.647M904.529 678.647L904.53 603.353M829.235 678.647L753.941 678.647M829.235 678.647L829.235 603.353M753.941 678.647L678.647 678.647M753.941 678.647L753.941 603.353M678.647 678.647L603.353 678.647M678.647 678.647L678.647 603.353M603.353 678.647L528.059 678.647M603.353 678.647L603.353 603.353M528.059 678.647L452.765 678.647M528.059 678.647L528.059 603.353M452.765 678.647L377.471 678.647M452.765 678.647L452.765 603.353M377.471 678.647L302.177 678.647M377.471 678.647L377.471 603.353M302.177 678.647L226.883 678.647M302.177 678.647L302.177 603.353M226.883 678.647L151.588 678.647M226.883 678.647L226.883 603.353M151.588 678.647L76.2943 678.647M151.588 678.647L151.588 603.353M76.2943 678.647L1.00014 678.647M76.2943 678.647L76.2943 603.353M1.00014 678.647L1.00015 603.353M1205.71 603.353L1281 603.353M1205.71 603.353L1130.41 603.353M1205.71 603.353L1205.71 528.059M1281 603.353L1281 528.059M1130.41 603.353L1055.12 603.353M1130.41 603.353L1130.41 528.059M1055.12 603.353L979.824 603.353M1055.12 603.353L1055.12 528.059M979.824 603.353L904.53 603.353M979.824 603.353L979.824 528.059M904.53 603.353L829.235 603.353M904.53 603.353L904.53 528.059M829.235 603.353L753.941 603.353M829.235 603.353L829.235 528.059M753.941 603.353L678.647 603.353M753.941 603.353L753.941 528.059M678.647 603.353L603.353 603.353M678.647 603.353L678.647 528.059M603.353 603.353L528.059 603.353M603.353 603.353L603.353 528.059M528.059 603.353L452.765 603.353M528.059 603.353L528.059 528.059M452.765 603.353L377.471 603.353M452.765 603.353L452.765 528.059M377.471 603.353L302.177 603.353M377.471 603.353L377.471 528.059M302.177 603.353L226.883 603.353M302.177 603.353L302.177 528.059M226.883 603.353L151.588 603.353M226.883 603.353L226.883 528.059M151.588 603.353L76.2943 603.353M151.588 603.353L151.588 528.059M76.2943 603.353L1.00015 603.353M76.2943 603.353L76.2943 528.059M1.00015 603.353L1.00015 528.059M1205.71 528.059L1281 528.059M1205.71 528.059L1130.41 528.059M1205.71 528.059L1205.71 452.765M1281 528.059L1281 452.765M1130.41 528.059L1055.12 528.059M1130.41 528.059L1130.41 452.765M1055.12 528.059L979.824 528.059M1055.12 528.059L1055.12 452.765M979.824 528.059L904.53 528.059M979.824 528.059L979.824 452.765M904.53 528.059L829.235 528.059M904.53 528.059L904.53 452.765M829.235 528.059L753.941 528.059M829.235 528.059L829.235 452.765M753.941 528.059L678.647 528.059M753.941 528.059L753.941 452.765M678.647 528.059L603.353 528.059M678.647 528.059L678.647 452.765M603.353 528.059L528.059 528.059M603.353 528.059L603.353 452.765M528.059 528.059L452.765 528.059M528.059 528.059L528.059 452.765M452.765 528.059L377.471 528.059M452.765 528.059L452.765 452.765M377.471 528.059L302.177 528.059M377.471 528.059L377.471 452.765M302.177 528.059L226.883 528.059M302.177 528.059L302.177 452.765M226.883 528.059L151.588 528.059M226.883 528.059L226.883 452.765M151.588 528.059L76.2943 528.059M151.588 528.059L151.588 452.765M76.2943 528.059L1.00015 528.059M76.2943 528.059L76.2944 452.765M1.00015 528.059L1.00016 452.765M1205.71 452.765L1281 452.765M1205.71 452.765L1130.41 452.765M1205.71 452.765L1205.71 377.471M1281 452.765L1281 377.471M1130.41 452.765L1055.12 452.765M1130.41 452.765L1130.41 377.471M1055.12 452.765L979.824 452.765M1055.12 452.765L1055.12 377.471M979.824 452.765L904.53 452.765M979.824 452.765L979.824 377.471M904.53 452.765L829.235 452.765M904.53 452.765L904.53 377.471M829.235 452.765L753.941 452.765M829.235 452.765L829.235 377.471M753.941 452.765L678.647 452.765M753.941 452.765L753.941 377.471M678.647 452.765L603.353 452.765M678.647 452.765L678.647 377.471M603.353 452.765L528.059 452.765M603.353 452.765L603.353 377.471M528.059 452.765L452.765 452.765M528.059 452.765L528.059 377.471M452.765 452.765L377.471 452.765M452.765 452.765L452.765 377.471M377.471 452.765L302.177 452.765M377.471 452.765L377.471 377.471M302.177 452.765L226.883 452.765M302.177 452.765L302.177 377.471M226.883 452.765L151.588 452.765M226.883 452.765L226.883 377.471M151.588 452.765L76.2944 452.765M151.588 452.765L151.588 377.471M76.2944 452.765L1.00016 452.765M76.2944 452.765L76.2944 377.471M1.00016 452.765L1.00017 377.471M1205.71 377.471L1281 377.471M1205.71 377.471L1130.41 377.471M1205.71 377.471L1205.71 302.177M1281 377.471L1281 302.177M1130.41 377.471L1055.12 377.471M1130.41 377.471L1130.41 302.177M1055.12 377.471L979.824 377.471M1055.12 377.471L1055.12 302.177M979.824 377.471L904.53 377.471M979.824 377.471L979.824 302.177M904.53 377.471L829.235 377.471M904.53 377.471L904.53 302.177M829.235 377.471L753.941 377.471M829.235 377.471L829.235 302.177M753.941 377.471L678.647 377.471M753.941 377.471L753.941 302.177M678.647 377.471L603.353 377.471M678.647 377.471L678.647 302.177M603.353 377.471L528.059 377.471M603.353 377.471L603.353 302.177M528.059 377.471L452.765 377.471M528.059 377.471L528.059 302.177M452.765 377.471L377.471 377.471M452.765 377.471L452.765 302.177M377.471 377.471L302.177 377.471M377.471 377.471L377.471 302.177M302.177 377.471L226.883 377.471M302.177 377.471L302.177 302.177M226.883 377.471L151.588 377.471M226.883 377.471L226.883 302.177M151.588 377.471L76.2944 377.471M151.588 377.471L151.588 302.177M76.2944 377.471L1.00017 377.471M76.2944 377.471L76.2944 302.177M1.00017 377.471L1.00017 302.177M1205.71 302.177L1281 302.177M1205.71 302.177L1130.41 302.177M1205.71 302.177L1205.71 226.883M1281 302.177L1281 226.883M1130.41 302.177L1055.12 302.177M1130.41 302.177L1130.41 226.883M1055.12 302.177L979.824 302.177M1055.12 302.177L1055.12 226.883M979.824 302.177L904.53 302.177M979.824 302.177L979.824 226.883M904.53 302.177L829.235 302.177M904.53 302.177L904.53 226.883M829.235 302.177L753.941 302.177M829.235 302.177L829.235 226.883M753.941 302.177L678.647 302.177M753.941 302.177L753.941 226.883M678.647 302.177L603.353 302.177M678.647 302.177L678.647 226.883M603.353 302.177L528.059 302.177M603.353 302.177L603.353 226.883M528.059 302.177L452.765 302.177M528.059 302.177L528.059 226.883M452.765 302.177L377.471 302.177M452.765 302.177L452.765 226.883M377.471 302.177L302.177 302.177M377.471 302.177L377.471 226.883M302.177 302.177L226.883 302.177M302.177 302.177L302.177 226.883M226.883 302.177L151.588 302.177M226.883 302.177L226.883 226.883M151.588 302.177L76.2944 302.177M151.588 302.177L151.588 226.883M76.2944 302.177L1.00017 302.177M76.2944 302.177L76.2944 226.883M1.00017 302.177L1.00018 226.883M1205.71 226.883L1281 226.883M1205.71 226.883L1130.41 226.883M1205.71 226.883L1205.71 151.588M1281 226.883L1281 151.589M1130.41 226.883L1055.12 226.883M1130.41 226.883L1130.41 151.588M1055.12 226.883L979.824 226.883M1055.12 226.883L1055.12 151.588M979.824 226.883L904.53 226.883M979.824 226.883L979.824 151.588M904.53 226.883L829.235 226.883M904.53 226.883L904.53 151.588M829.235 226.883L753.941 226.883M829.235 226.883L829.235 151.588M753.941 226.883L678.647 226.883M753.941 226.883L753.941 151.588M678.647 226.883L603.353 226.883M678.647 226.883L678.647 151.588M603.353 226.883L528.059 226.883M603.353 226.883L603.353 151.588M528.059 226.883L452.765 226.883M528.059 226.883L528.059 151.588M452.765 226.883L377.471 226.883M452.765 226.883L452.765 151.588M377.471 226.883L302.177 226.883M377.471 226.883L377.471 151.588M302.177 226.883L226.883 226.883M302.177 226.883L302.177 151.588M226.883 226.883L151.588 226.883M226.883 226.883L226.883 151.588M151.588 226.883L76.2944 226.883M151.588 226.883L151.588 151.588M76.2944 226.883L1.00018 226.883M76.2944 226.883L76.2944 151.588M1.00018 226.883L1.00019 151.588M1205.71 151.588L1281 151.589M1205.71 151.588L1130.41 151.588M1205.71 151.588L1205.71 76.2944M1281 151.589L1281 76.2944M1130.41 151.588L1055.12 151.588M1130.41 151.588L1130.41 76.2944M1055.12 151.588L979.824 151.588M1055.12 151.588L1055.12 76.2944M979.824 151.588L904.53 151.588M979.824 151.588L979.824 76.2943M904.53 151.588L829.235 151.588M904.53 151.588L904.53 76.2943M829.235 151.588L753.941 151.588M829.235 151.588L829.235 76.2943M753.941 151.588L678.647 151.588M753.941 151.588L753.941 76.2943M678.647 151.588L603.353 151.588M678.647 151.588L678.647 76.2943M603.353 151.588L528.059 151.588M603.353 151.588L603.353 76.2943M528.059 151.588L452.765 151.588M528.059 151.588L528.059 76.2943M452.765 151.588L377.471 151.588M452.765 151.588L452.765 76.2943M377.471 151.588L302.177 151.588M377.471 151.588L377.471 76.2943M302.177 151.588L226.883 151.588M302.177 151.588L302.177 76.2943M226.883 151.588L151.588 151.588M226.883 151.588L226.883 76.2943M151.588 151.588L76.2944 151.588M151.588 151.588L151.588 76.2943M76.2944 151.588L1.00019 151.588M76.2944 151.588L76.2944 76.2943M1.00019 151.588L1.00019 76.2943M1205.71 76.2944L1281 76.2944M1205.71 76.2944L1130.41 76.2944M1205.71 76.2944L1205.71 1.00024M1281 76.2944L1281 1.00024L1205.71 1.00024M1130.41 76.2944L1055.12 76.2944M1130.41 76.2944L1130.41 1.00023M1055.12 76.2944L979.824 76.2943M1055.12 76.2944L1055.12 1.00022M979.824 76.2943L904.53 76.2943M979.824 76.2943L979.824 1.00022M904.53 76.2943L829.235 76.2943M904.53 76.2943L904.53 1.00021M829.235 76.2943L753.941 76.2943M829.235 76.2943L829.235 1.0002M753.941 76.2943L678.647 76.2943M753.941 76.2943L753.941 1.0002M678.647 76.2943L603.353 76.2943M678.647 76.2943L678.647 1.00019M603.353 76.2943L528.059 76.2943M603.353 76.2943L603.353 1.00018M528.059 76.2943L452.765 76.2943M528.059 76.2943L528.059 1.00018M452.765 76.2943L377.471 76.2943M452.765 76.2943L452.765 1.00017M377.471 76.2943L302.177 76.2943M377.471 76.2943L377.471 1.00017M302.177 76.2943L226.883 76.2943M302.177 76.2943L302.177 1.00016M226.883 76.2943L151.588 76.2943M226.883 76.2943L226.883 1.00015M151.588 76.2943L76.2944 76.2943M151.588 76.2943L151.588 1.00015M76.2944 76.2943L1.00019 76.2943M76.2944 76.2943L76.2944 1.00014M1.00019 76.2943L1.0002 1.00013L76.2944 1.00014M1205.71 1.00024L1130.41 1.00023M1130.41 1.00023L1055.12 1.00022M1055.12 1.00022L979.824 1.00022M979.824 1.00022L904.53 1.00021M904.53 1.00021L829.235 1.0002M829.235 1.0002L753.941 1.0002M753.941 1.0002L678.647 1.00019M678.647 1.00019L603.353 1.00018M603.353 1.00018L528.059 1.00018M528.059 1.00018L452.765 1.00017M452.765 1.00017L377.471 1.00017M377.471 1.00017L302.177 1.00016M302.177 1.00016L226.883 1.00015M226.883 1.00015L151.588 1.00015M151.588 1.00015L76.2944 1.00014" stroke="url(#paint6_radial_201_1394)" stroke-opacity="0.08" stroke-width="1.93062"/>
<path d="M903.562 1282.44L980.787 1282.44L980.787 1205.21L903.562 1205.21L903.562 1282.44Z" fill="url(#paint7_linear_201_1394)" fill-opacity="0.02" stroke="url(#paint8_radial_201_1394)" stroke-opacity="0.08" stroke-width="1.93062"/>
<path d="M978.861 830.671L1056.09 830.671L1056.09 753.447L978.861 753.447L978.861 830.671Z" fill="url(#paint9_linear_201_1394)" fill-opacity="0.02" stroke="url(#paint10_radial_201_1394)" stroke-opacity="0.08" stroke-width="1.93062"/>
<path d="M225.918 1207.14L303.142 1207.14L303.142 1129.92L225.918 1129.92L225.918 1207.14Z" fill="url(#paint11_linear_201_1394)" fill-opacity="0.02" stroke="url(#paint12_radial_201_1394)" stroke-opacity="0.08" stroke-width="1.93062"/>
<path d="M1205.71 1432.06L1281 1432.06L1281 1356.76M1205.71 1432.06L1205.71 1356.76M1205.71 1432.06L1130.41 1432.06M1205.71 1356.76L1281 1356.76M1205.71 1356.76L1130.41 1356.76M1205.71 1356.76L1205.71 1281.47M1281 1356.76L1281 1281.47M1130.41 1432.06L1130.41 1356.76M1130.41 1432.06L1055.12 1432.06M1130.41 1356.76L1055.12 1356.76M1130.41 1356.76L1130.41 1281.47M1055.12 1432.06L1055.12 1356.76M1055.12 1432.06L979.823 1432.06M1055.12 1356.76L979.823 1356.76M1055.12 1356.76L1055.12 1281.47M979.823 1432.06L979.823 1356.76M979.823 1432.06L904.529 1432.06M979.823 1356.76L904.529 1356.76M979.823 1356.76L979.823 1281.47M904.529 1432.06L904.529 1356.76M904.529 1432.06L829.235 1432.06M904.529 1356.76L829.235 1356.76M904.529 1356.76L904.529 1281.47M829.235 1432.06L829.235 1356.76M829.235 1432.06L753.941 1432.06M829.235 1356.76L753.941 1356.76M829.235 1356.76L829.235 1281.47M753.941 1432.06L753.941 1356.76M753.941 1432.06L678.647 1432.06M753.941 1356.76L678.647 1356.76M753.941 1356.76L753.941 1281.47M678.647 1432.06L678.647 1356.76M678.647 1432.06L603.353 1432.06M678.647 1356.76L603.353 1356.76M678.647 1356.76L678.647 1281.47M603.353 1432.06L603.353 1356.76M603.353 1432.06L528.059 1432.06M603.353 1356.76L528.059 1356.76M603.353 1356.76L603.353 1281.47M528.059 1432.06L528.059 1356.76M528.059 1432.06L452.765 1432.06M528.059 1356.76L452.765 1356.76M528.059 1356.76L528.059 1281.47M452.765 1432.06L452.765 1356.76M452.765 1432.06L377.471 1432.06M452.765 1356.76L377.471 1356.76M452.765 1356.76L452.765 1281.47M377.471 1432.06L377.471 1356.76M377.471 1432.06L302.176 1432.06M377.471 1356.76L302.176 1356.76M377.471 1356.76L377.471 1281.47M302.176 1432.06L302.176 1356.76M302.176 1432.06L226.882 1432.06M302.176 1356.76L226.882 1356.76M302.176 1356.76L302.176 1281.47M226.882 1432.06L226.882 1356.76M226.882 1432.06L151.588 1432.06M226.882 1356.76L151.588 1356.76M226.882 1356.76L226.882 1281.47M151.588 1432.06L151.588 1356.76M151.588 1432.06L76.2942 1432.06M151.588 1356.76L76.2942 1356.76M151.588 1356.76L151.588 1281.47M76.2942 1432.06L76.2942 1356.76M76.2942 1432.06L1 1432.06L1.00001 1356.76M76.2942 1356.76L1.00001 1356.76M76.2942 1356.76L76.2942 1281.47M1.00001 1356.76L1.00001 1281.47M1205.71 1281.47L1281 1281.47M1205.71 1281.47L1130.41 1281.47M1205.71 1281.47L1205.71 1206.18M1281 1281.47L1281 1206.18M1130.41 1281.47L1055.12 1281.47M1130.41 1281.47L1130.41 1206.18M1055.12 1281.47L979.823 1281.47M1055.12 1281.47L1055.12 1206.18M979.823 1281.47L904.529 1281.47M979.823 1281.47L979.823 1206.18M904.529 1281.47L829.235 1281.47M904.529 1281.47L904.529 1206.18M829.235 1281.47L753.941 1281.47M829.235 1281.47L829.235 1206.18M753.941 1281.47L678.647 1281.47M753.941 1281.47L753.941 1206.18M678.647 1281.47L603.353 1281.47M678.647 1281.47L678.647 1206.18M603.353 1281.47L528.059 1281.47M603.353 1281.47L603.353 1206.18M528.059 1281.47L452.765 1281.47M528.059 1281.47L528.059 1206.18M452.765 1281.47L377.471 1281.47M452.765 1281.47L452.765 1206.18M377.471 1281.47L302.176 1281.47M377.471 1281.47L377.471 1206.18M302.176 1281.47L226.882 1281.47M302.176 1281.47L302.176 1206.18M226.882 1281.47L151.588 1281.47M226.882 1281.47L226.882 1206.18M151.588 1281.47L76.2942 1281.47M151.588 1281.47L151.588 1206.18M76.2942 1281.47L1.00001 1281.47M76.2942 1281.47L76.2942 1206.18M1.00001 1281.47L1.00002 1206.18M1205.71 1206.18L1281 1206.18M1205.71 1206.18L1130.41 1206.18M1205.71 1206.18L1205.71 1130.88M1281 1206.18L1281 1130.88M1130.41 1206.18L1055.12 1206.18M1130.41 1206.18L1130.41 1130.88M1055.12 1206.18L979.823 1206.18M1055.12 1206.18L1055.12 1130.88M979.823 1206.18L904.529 1206.18M979.823 1206.18L979.823 1130.88M904.529 1206.18L829.235 1206.18M904.529 1206.18L904.529 1130.88M829.235 1206.18L753.941 1206.18M829.235 1206.18L829.235 1130.88M753.941 1206.18L678.647 1206.18M753.941 1206.18L753.941 1130.88M678.647 1206.18L603.353 1206.18M678.647 1206.18L678.647 1130.88M603.353 1206.18L528.059 1206.18M603.353 1206.18L603.353 1130.88M528.059 1206.18L452.765 1206.18M528.059 1206.18L528.059 1130.88M452.765 1206.18L377.471 1206.18M452.765 1206.18L452.765 1130.88M377.471 1206.18L302.176 1206.18M377.471 1206.18L377.471 1130.88M302.176 1206.18L226.882 1206.18M302.176 1206.18L302.176 1130.88M226.882 1206.18L151.588 1206.18M226.882 1206.18L226.882 1130.88M151.588 1206.18L76.2942 1206.18M151.588 1206.18L151.588 1130.88M76.2942 1206.18L1.00002 1206.18M76.2942 1206.18L76.2942 1130.88M1.00002 1206.18L1.00003 1130.88M1205.71 1130.88L1281 1130.88M1205.71 1130.88L1130.41 1130.88M1205.71 1130.88L1205.71 1055.59M1281 1130.88L1281 1055.59M1130.41 1130.88L1055.12 1130.88M1130.41 1130.88L1130.41 1055.59M1055.12 1130.88L979.823 1130.88M1055.12 1130.88L1055.12 1055.59M979.823 1130.88L904.529 1130.88M979.823 1130.88L979.823 1055.59M904.529 1130.88L829.235 1130.88M904.529 1130.88L904.529 1055.59M829.235 1130.88L753.941 1130.88M829.235 1130.88L829.235 1055.59M753.941 1130.88L678.647 1130.88M753.941 1130.88L753.941 1055.59M678.647 1130.88L603.353 1130.88M678.647 1130.88L678.647 1055.59M603.353 1130.88L528.059 1130.88M603.353 1130.88L603.353 1055.59M528.059 1130.88L452.765 1130.88M528.059 1130.88L528.059 1055.59M452.765 1130.88L377.471 1130.88M452.765 1130.88L452.765 1055.59M377.471 1130.88L302.176 1130.88M377.471 1130.88L377.471 1055.59M302.176 1130.88L226.882 1130.88M302.176 1130.88L302.176 1055.59M226.882 1130.88L151.588 1130.88M226.882 1130.88L226.882 1055.59M151.588 1130.88L76.2942 1130.88M151.588 1130.88L151.588 1055.59M76.2942 1130.88L1.00003 1130.88M76.2942 1130.88L76.2942 1055.59M1.00003 1130.88L1.00003 1055.59M1205.71 1055.59L1281 1055.59M1205.71 1055.59L1130.41 1055.59M1205.71 1055.59L1205.71 980.294M1281 1055.59L1281 980.294M1130.41 1055.59L1055.12 1055.59M1130.41 1055.59L1130.41 980.294M1055.12 1055.59L979.823 1055.59M1055.12 1055.59L1055.12 980.294M979.823 1055.59L904.529 1055.59M979.823 1055.59L979.823 980.294M904.529 1055.59L829.235 1055.59M904.529 1055.59L904.529 980.294M829.235 1055.59L753.941 1055.59M829.235 1055.59L829.235 980.294M753.941 1055.59L678.647 1055.59M753.941 1055.59L753.941 980.294M678.647 1055.59L603.353 1055.59M678.647 1055.59L678.647 980.294M603.353 1055.59L528.059 1055.59M603.353 1055.59L603.353 980.294M528.059 1055.59L452.765 1055.59M528.059 1055.59L528.059 980.294M452.765 1055.59L377.471 1055.59M452.765 1055.59L452.765 980.294M377.471 1055.59L302.176 1055.59M377.471 1055.59L377.471 980.294M302.176 1055.59L226.882 1055.59M302.176 1055.59L302.176 980.294M226.882 1055.59L151.588 1055.59M226.882 1055.59L226.882 980.294M151.588 1055.59L76.2942 1055.59M151.588 1055.59L151.588 980.294M76.2942 1055.59L1.00003 1055.59M76.2942 1055.59L76.2942 980.294M1.00003 1055.59L1.00004 980.294M1205.71 980.294L1281 980.294M1205.71 980.294L1130.41 980.294M1205.71 980.294L1205.71 905M1281 980.294L1281 905M1130.41 980.294L1055.12 980.294M1130.41 980.294L1130.41 905M1055.12 980.294L979.823 980.294M1055.12 980.294L1055.12 905M979.823 980.294L904.529 980.294M979.823 980.294L979.824 905M904.529 980.294L829.235 980.294M904.529 980.294L904.529 905M829.235 980.294L753.941 980.294M829.235 980.294L829.235 905M753.941 980.294L678.647 980.294M753.941 980.294L753.941 905M678.647 980.294L603.353 980.294M678.647 980.294L678.647 905M603.353 980.294L528.059 980.294M603.353 980.294L603.353 905M528.059 980.294L452.765 980.294M528.059 980.294L528.059 905M452.765 980.294L377.471 980.294M452.765 980.294L452.765 905M377.471 980.294L302.176 980.294M377.471 980.294L377.471 905M302.176 980.294L226.882 980.294M302.176 980.294L302.176 905M226.882 980.294L151.588 980.294M226.882 980.294L226.882 905M151.588 980.294L76.2942 980.294M151.588 980.294L151.588 905M76.2942 980.294L1.00004 980.294M76.2942 980.294L76.2942 905M1.00004 980.294L1.00005 905M1205.71 905L1281 905M1205.71 905L1130.41 905M1205.71 905L1205.71 829.706M1281 905L1281 829.706M1130.41 905L1055.12 905M1130.41 905L1130.41 829.706M1055.12 905L979.824 905M1055.12 905L1055.12 829.706M979.824 905L904.529 905M979.824 905L979.824 829.706M904.529 905L829.235 905M904.529 905L904.529 829.706M829.235 905L753.941 905M829.235 905L829.235 829.706M753.941 905L678.647 905M753.941 905L753.941 829.706M678.647 905L603.353 905M678.647 905L678.647 829.706M603.353 905L528.059 905M603.353 905L603.353 829.706M528.059 905L452.765 905M528.059 905L528.059 829.706M452.765 905L377.471 905M452.765 905L452.765 829.706M377.471 905L302.176 905M377.471 905L377.471 829.706M302.176 905L226.882 905M302.176 905L302.177 829.706M226.882 905L151.588 905M226.882 905L226.882 829.706M151.588 905L76.2942 905M151.588 905L151.588 829.706M76.2942 905L1.00005 905M76.2942 905L76.2942 829.706M1.00005 905L1.00005 829.706M1205.71 829.706L1281 829.706M1205.71 829.706L1130.41 829.706M1205.71 829.706L1205.71 754.412M1281 829.706L1281 754.412M1130.41 829.706L1055.12 829.706M1130.41 829.706L1130.41 754.412M1055.12 829.706L979.824 829.706M1055.12 829.706L1055.12 754.412M979.824 829.706L904.529 829.706M979.824 829.706L979.824 754.412M904.529 829.706L829.235 829.706M904.529 829.706L904.529 754.412M829.235 829.706L753.941 829.706M829.235 829.706L829.235 754.412M753.941 829.706L678.647 829.706M753.941 829.706L753.941 754.412M678.647 829.706L603.353 829.706M678.647 829.706L678.647 754.412M603.353 829.706L528.059 829.706M603.353 829.706L603.353 754.412M528.059 829.706L452.765 829.706M528.059 829.706L528.059 754.412M452.765 829.706L377.471 829.706M452.765 829.706L452.765 754.412M377.471 829.706L302.177 829.706M377.471 829.706L377.471 754.412M302.177 829.706L226.882 829.706M302.177 829.706L302.177 754.412M226.882 829.706L151.588 829.706M226.882 829.706L226.883 754.412M151.588 829.706L76.2942 829.706M151.588 829.706L151.588 754.412M76.2942 829.706L1.00005 829.706M76.2942 829.706L76.2942 754.412M1.00005 829.706L1.00006 754.412M1205.71 754.412L1281 754.412M1205.71 754.412L1130.41 754.412M1205.71 754.412L1205.71 679.118M1281 754.412L1281 679.118M1130.41 754.412L1055.12 754.412M1130.41 754.412L1130.41 679.118M1055.12 754.412L979.824 754.412M1055.12 754.412L1055.12 679.118M979.824 754.412L904.529 754.412M979.824 754.412L979.824 679.118M904.529 754.412L829.235 754.412M904.529 754.412L904.529 679.118M829.235 754.412L753.941 754.412M829.235 754.412L829.235 679.118M753.941 754.412L678.647 754.412M753.941 754.412L753.941 679.118M678.647 754.412L603.353 754.412M678.647 754.412L678.647 679.118M603.353 754.412L528.059 754.412M603.353 754.412L603.353 679.118M528.059 754.412L452.765 754.412M528.059 754.412L528.059 679.118M452.765 754.412L377.471 754.412M452.765 754.412L452.765 679.118M377.471 754.412L302.177 754.412M377.471 754.412L377.471 679.118M302.177 754.412L226.883 754.412M302.177 754.412L302.177 679.118M226.883 754.412L151.588 754.412M226.883 754.412L226.883 679.118M151.588 754.412L76.2942 754.412M151.588 754.412L151.588 679.118M76.2942 754.412L1.00006 754.412M76.2942 754.412L76.2943 679.118M1.00006 754.412L1.00007 679.118M1205.71 679.118L1281 679.118M1205.71 679.118L1130.41 679.118M1205.71 679.118L1205.71 603.824M1281 679.118L1281 603.824M1130.41 679.118L1055.12 679.118M1130.41 679.118L1130.41 603.824M1055.12 679.118L979.824 679.118M1055.12 679.118L1055.12 603.824M979.824 679.118L904.529 679.118M979.824 679.118L979.824 603.824M904.529 679.118L829.235 679.118M904.529 679.118L904.529 603.824M829.235 679.118L753.941 679.118M829.235 679.118L829.235 603.824M753.941 679.118L678.647 679.118M753.941 679.118L753.941 603.824M678.647 679.118L603.353 679.118M678.647 679.118L678.647 603.824M603.353 679.118L528.059 679.118M603.353 679.118L603.353 603.824M528.059 679.118L452.765 679.118M528.059 679.118L528.059 603.824M452.765 679.118L377.471 679.118M452.765 679.118L452.765 603.824M377.471 679.118L302.177 679.118M377.471 679.118L377.471 603.824M302.177 679.118L226.883 679.118M302.177 679.118L302.177 603.824M226.883 679.118L151.588 679.118M226.883 679.118L226.883 603.824M151.588 679.118L76.2943 679.118M151.588 679.118L151.588 603.824M76.2943 679.118L1.00007 679.118M76.2943 679.118L76.2943 603.824M1.00007 679.118L1.00007 603.824M1205.71 603.824L1281 603.824M1205.71 603.824L1130.41 603.824M1205.71 603.824L1205.71 528.53M1281 603.824L1281 528.53L1205.71 528.53M1130.41 603.824L1055.12 603.824M1130.41 603.824L1130.41 528.53M1055.12 603.824L979.824 603.824M1055.12 603.824L1055.12 528.53M979.824 603.824L904.529 603.824M979.824 603.824L979.824 528.53M904.529 603.824L829.235 603.824M904.529 603.824L904.529 528.53M829.235 603.824L753.941 603.824M829.235 603.824L829.235 528.53M753.941 603.824L678.647 603.824M753.941 603.824L753.941 528.529M678.647 603.824L603.353 603.824M678.647 603.824L678.647 528.529M603.353 603.824L528.059 603.824M603.353 603.824L603.353 528.529M528.059 603.824L452.765 603.824M528.059 603.824L528.059 528.529M452.765 603.824L377.471 603.824M452.765 603.824L452.765 528.529M377.471 603.824L302.177 603.824M377.471 603.824L377.471 528.529M302.177 603.824L226.883 603.824M302.177 603.824L302.177 528.529M226.883 603.824L151.588 603.824M226.883 603.824L226.883 528.529M151.588 603.824L76.2943 603.824M151.588 603.824L151.588 528.529M76.2943 603.824L1.00007 603.824M76.2943 603.824L76.2943 528.529M1.00007 603.824L1.00008 528.529L76.2943 528.529M1205.71 528.53L1130.41 528.53M1130.41 528.53L1055.12 528.53M1055.12 528.53L979.824 528.53M979.824 528.53L904.529 528.53M904.529 528.53L829.235 528.53M829.235 528.53L753.941 528.529M753.941 528.529L678.647 528.529M678.647 528.529L603.353 528.529M603.353 528.529L528.059 528.529M528.059 528.529L452.765 528.529M452.765 528.529L377.471 528.529M377.471 528.529L302.177 528.529M302.177 528.529L226.883 528.529M226.883 528.529L151.588 528.529M151.588 528.529L76.2943 528.529" stroke="url(#paint13_radial_201_1394)" stroke-opacity="0.08" stroke-width="1.93062"/>
<path d="M903.562 1885.44L980.787 1885.44L980.787 1808.21L903.562 1808.21L903.562 1885.44Z" fill="url(#paint14_linear_201_1394)" fill-opacity="0.02" stroke="url(#paint15_radial_201_1394)" stroke-opacity="0.08" stroke-width="1.93062"/>
<path d="M978.861 1433.67L1056.09 1433.67L1056.09 1356.45L978.861 1356.45L978.861 1433.67Z" fill="url(#paint16_linear_201_1394)" fill-opacity="0.02" stroke="url(#paint17_radial_201_1394)" stroke-opacity="0.08" stroke-width="1.93062"/>
<path d="M225.918 1810.14L303.142 1810.14L303.142 1732.92L225.918 1732.92L225.918 1810.14Z" fill="url(#paint18_linear_201_1394)" fill-opacity="0.02" stroke="url(#paint19_radial_201_1394)" stroke-opacity="0.08" stroke-width="1.93062"/>
<path d="M1205.71 2035.06L1281 2035.06L1281 1959.76M1205.71 2035.06L1205.71 1959.76M1205.71 2035.06L1130.41 2035.06M1205.71 1959.76L1281 1959.76M1205.71 1959.76L1130.41 1959.76M1205.71 1959.76L1205.71 1884.47M1281 1959.76L1281 1884.47M1130.41 2035.06L1130.41 1959.76M1130.41 2035.06L1055.12 2035.06M1130.41 1959.76L1055.12 1959.76M1130.41 1959.76L1130.41 1884.47M1055.12 2035.06L1055.12 1959.76M1055.12 2035.06L979.823 2035.06M1055.12 1959.76L979.823 1959.76M1055.12 1959.76L1055.12 1884.47M979.823 2035.06L979.823 1959.76M979.823 2035.06L904.529 2035.06M979.823 1959.76L904.529 1959.76M979.823 1959.76L979.823 1884.47M904.529 2035.06L904.529 1959.76M904.529 2035.06L829.235 2035.06M904.529 1959.76L829.235 1959.76M904.529 1959.76L904.529 1884.47M829.235 2035.06L829.235 1959.76M829.235 2035.06L753.941 2035.06M829.235 1959.76L753.941 1959.76M829.235 1959.76L829.235 1884.47M753.941 2035.06L753.941 1959.76M753.941 2035.06L678.647 2035.06M753.941 1959.76L678.647 1959.76M753.941 1959.76L753.941 1884.47M678.647 2035.06L678.647 1959.76M678.647 2035.06L603.353 2035.06M678.647 1959.76L603.353 1959.76M678.647 1959.76L678.647 1884.47M603.353 2035.06L603.353 1959.76M603.353 2035.06L528.059 2035.06M603.353 1959.76L528.059 1959.76M603.353 1959.76L603.353 1884.47M528.059 2035.06L528.059 1959.76M528.059 2035.06L452.765 2035.06M528.059 1959.76L452.765 1959.76M528.059 1959.76L528.059 1884.47M452.765 2035.06L452.765 1959.76M452.765 2035.06L377.471 2035.06M452.765 1959.76L377.471 1959.76M452.765 1959.76L452.765 1884.47M377.471 2035.06L377.471 1959.76M377.471 2035.06L302.176 2035.06M377.471 1959.76L302.176 1959.76M377.471 1959.76L377.471 1884.47M302.176 2035.06L302.176 1959.76M302.176 2035.06L226.882 2035.06M302.176 1959.76L226.882 1959.76M302.176 1959.76L302.176 1884.47M226.882 2035.06L226.882 1959.76M226.882 2035.06L151.588 2035.06M226.882 1959.76L151.588 1959.76M226.882 1959.76L226.882 1884.47M151.588 2035.06L151.588 1959.76M151.588 2035.06L76.2942 2035.06M151.588 1959.76L76.2942 1959.76M151.588 1959.76L151.588 1884.47M76.2942 2035.06L76.2942 1959.76M76.2942 2035.06L1 2035.06L1.00001 1959.76M76.2942 1959.76L1.00001 1959.76M76.2942 1959.76L76.2942 1884.47M1.00001 1959.76L1.00001 1884.47M1205.71 1884.47L1281 1884.47M1205.71 1884.47L1130.41 1884.47M1205.71 1884.47L1205.71 1809.18M1281 1884.47L1281 1809.18M1130.41 1884.47L1055.12 1884.47M1130.41 1884.47L1130.41 1809.18M1055.12 1884.47L979.823 1884.47M1055.12 1884.47L1055.12 1809.18M979.823 1884.47L904.529 1884.47M979.823 1884.47L979.823 1809.18M904.529 1884.47L829.235 1884.47M904.529 1884.47L904.529 1809.18M829.235 1884.47L753.941 1884.47M829.235 1884.47L829.235 1809.18M753.941 1884.47L678.647 1884.47M753.941 1884.47L753.941 1809.18M678.647 1884.47L603.353 1884.47M678.647 1884.47L678.647 1809.18M603.353 1884.47L528.059 1884.47M603.353 1884.47L603.353 1809.18M528.059 1884.47L452.765 1884.47M528.059 1884.47L528.059 1809.18M452.765 1884.47L377.471 1884.47M452.765 1884.47L452.765 1809.18M377.471 1884.47L302.176 1884.47M377.471 1884.47L377.471 1809.18M302.176 1884.47L226.882 1884.47M302.176 1884.47L302.176 1809.18M226.882 1884.47L151.588 1884.47M226.882 1884.47L226.882 1809.18M151.588 1884.47L76.2942 1884.47M151.588 1884.47L151.588 1809.18M76.2942 1884.47L1.00001 1884.47M76.2942 1884.47L76.2942 1809.18M1.00001 1884.47L1.00002 1809.18M1205.71 1809.18L1281 1809.18M1205.71 1809.18L1130.41 1809.18M1205.71 1809.18L1205.71 1733.88M1281 1809.18L1281 1733.88M1130.41 1809.18L1055.12 1809.18M1130.41 1809.18L1130.41 1733.88M1055.12 1809.18L979.823 1809.18M1055.12 1809.18L1055.12 1733.88M979.823 1809.18L904.529 1809.18M979.823 1809.18L979.823 1733.88M904.529 1809.18L829.235 1809.18M904.529 1809.18L904.529 1733.88M829.235 1809.18L753.941 1809.18M829.235 1809.18L829.235 1733.88M753.941 1809.18L678.647 1809.18M753.941 1809.18L753.941 1733.88M678.647 1809.18L603.353 1809.18M678.647 1809.18L678.647 1733.88M603.353 1809.18L528.059 1809.18M603.353 1809.18L603.353 1733.88M528.059 1809.18L452.765 1809.18M528.059 1809.18L528.059 1733.88M452.765 1809.18L377.471 1809.18M452.765 1809.18L452.765 1733.88M377.471 1809.18L302.176 1809.18M377.471 1809.18L377.471 1733.88M302.176 1809.18L226.882 1809.18M302.176 1809.18L302.176 1733.88M226.882 1809.18L151.588 1809.18M226.882 1809.18L226.882 1733.88M151.588 1809.18L76.2942 1809.18M151.588 1809.18L151.588 1733.88M76.2942 1809.18L1.00002 1809.18M76.2942 1809.18L76.2942 1733.88M1.00002 1809.18L1.00003 1733.88M1205.71 1733.88L1281 1733.88M1205.71 1733.88L1130.41 1733.88M1205.71 1733.88L1205.71 1658.59M1281 1733.88L1281 1658.59M1130.41 1733.88L1055.12 1733.88M1130.41 1733.88L1130.41 1658.59M1055.12 1733.88L979.823 1733.88M1055.12 1733.88L1055.12 1658.59M979.823 1733.88L904.529 1733.88M979.823 1733.88L979.823 1658.59M904.529 1733.88L829.235 1733.88M904.529 1733.88L904.529 1658.59M829.235 1733.88L753.941 1733.88M829.235 1733.88L829.235 1658.59M753.941 1733.88L678.647 1733.88M753.941 1733.88L753.941 1658.59M678.647 1733.88L603.353 1733.88M678.647 1733.88L678.647 1658.59M603.353 1733.88L528.059 1733.88M603.353 1733.88L603.353 1658.59M528.059 1733.88L452.765 1733.88M528.059 1733.88L528.059 1658.59M452.765 1733.88L377.471 1733.88M452.765 1733.88L452.765 1658.59M377.471 1733.88L302.176 1733.88M377.471 1733.88L377.471 1658.59M302.176 1733.88L226.882 1733.88M302.176 1733.88L302.176 1658.59M226.882 1733.88L151.588 1733.88M226.882 1733.88L226.882 1658.59M151.588 1733.88L76.2942 1733.88M151.588 1733.88L151.588 1658.59M76.2942 1733.88L1.00003 1733.88M76.2942 1733.88L76.2942 1658.59M1.00003 1733.88L1.00003 1658.59M1205.71 1658.59L1281 1658.59M1205.71 1658.59L1130.41 1658.59M1205.71 1658.59L1205.71 1583.29M1281 1658.59L1281 1583.29M1130.41 1658.59L1055.12 1658.59M1130.41 1658.59L1130.41 1583.29M1055.12 1658.59L979.823 1658.59M1055.12 1658.59L1055.12 1583.29M979.823 1658.59L904.529 1658.59M979.823 1658.59L979.823 1583.29M904.529 1658.59L829.235 1658.59M904.529 1658.59L904.529 1583.29M829.235 1658.59L753.941 1658.59M829.235 1658.59L829.235 1583.29M753.941 1658.59L678.647 1658.59M753.941 1658.59L753.941 1583.29M678.647 1658.59L603.353 1658.59M678.647 1658.59L678.647 1583.29M603.353 1658.59L528.059 1658.59M603.353 1658.59L603.353 1583.29M528.059 1658.59L452.765 1658.59M528.059 1658.59L528.059 1583.29M452.765 1658.59L377.471 1658.59M452.765 1658.59L452.765 1583.29M377.471 1658.59L302.176 1658.59M377.471 1658.59L377.471 1583.29M302.176 1658.59L226.882 1658.59M302.176 1658.59L302.176 1583.29M226.882 1658.59L151.588 1658.59M226.882 1658.59L226.882 1583.29M151.588 1658.59L76.2942 1658.59M151.588 1658.59L151.588 1583.29M76.2942 1658.59L1.00003 1658.59M76.2942 1658.59L76.2942 1583.29M1.00003 1658.59L1.00004 1583.29M1205.71 1583.29L1281 1583.29M1205.71 1583.29L1130.41 1583.29M1205.71 1583.29L1205.71 1508M1281 1583.29L1281 1508M1130.41 1583.29L1055.12 1583.29M1130.41 1583.29L1130.41 1508M1055.12 1583.29L979.823 1583.29M1055.12 1583.29L1055.12 1508M979.823 1583.29L904.529 1583.29M979.823 1583.29L979.824 1508M904.529 1583.29L829.235 1583.29M904.529 1583.29L904.529 1508M829.235 1583.29L753.941 1583.29M829.235 1583.29L829.235 1508M753.941 1583.29L678.647 1583.29M753.941 1583.29L753.941 1508M678.647 1583.29L603.353 1583.29M678.647 1583.29L678.647 1508M603.353 1583.29L528.059 1583.29M603.353 1583.29L603.353 1508M528.059 1583.29L452.765 1583.29M528.059 1583.29L528.059 1508M452.765 1583.29L377.471 1583.29M452.765 1583.29L452.765 1508M377.471 1583.29L302.176 1583.29M377.471 1583.29L377.471 1508M302.176 1583.29L226.882 1583.29M302.176 1583.29L302.176 1508M226.882 1583.29L151.588 1583.29M226.882 1583.29L226.882 1508M151.588 1583.29L76.2942 1583.29M151.588 1583.29L151.588 1508M76.2942 1583.29L1.00004 1583.29M76.2942 1583.29L76.2942 1508M1.00004 1583.29L1.00005 1508M1205.71 1508L1281 1508M1205.71 1508L1130.41 1508M1205.71 1508L1205.71 1432.71M1281 1508L1281 1432.71M1130.41 1508L1055.12 1508M1130.41 1508L1130.41 1432.71M1055.12 1508L979.824 1508M1055.12 1508L1055.12 1432.71M979.824 1508L904.529 1508M979.824 1508L979.824 1432.71M904.529 1508L829.235 1508M904.529 1508L904.529 1432.71M829.235 1508L753.941 1508M829.235 1508L829.235 1432.71M753.941 1508L678.647 1508M753.941 1508L753.941 1432.71M678.647 1508L603.353 1508M678.647 1508L678.647 1432.71M603.353 1508L528.059 1508M603.353 1508L603.353 1432.71M528.059 1508L452.765 1508M528.059 1508L528.059 1432.71M452.765 1508L377.471 1508M452.765 1508L452.765 1432.71M377.471 1508L302.176 1508M377.471 1508L377.471 1432.71M302.176 1508L226.882 1508M302.176 1508L302.177 1432.71M226.882 1508L151.588 1508M226.882 1508L226.882 1432.71M151.588 1508L76.2942 1508M151.588 1508L151.588 1432.71M76.2942 1508L1.00005 1508M76.2942 1508L76.2942 1432.71M1.00005 1508L1.00005 1432.71M1205.71 1432.71L1281 1432.71M1205.71 1432.71L1130.41 1432.71M1205.71 1432.71L1205.71 1357.41M1281 1432.71L1281 1357.41M1130.41 1432.71L1055.12 1432.71M1130.41 1432.71L1130.41 1357.41M1055.12 1432.71L979.824 1432.71M1055.12 1432.71L1055.12 1357.41M979.824 1432.71L904.529 1432.71M979.824 1432.71L979.824 1357.41M904.529 1432.71L829.235 1432.71M904.529 1432.71L904.529 1357.41M829.235 1432.71L753.941 1432.71M829.235 1432.71L829.235 1357.41M753.941 1432.71L678.647 1432.71M753.941 1432.71L753.941 1357.41M678.647 1432.71L603.353 1432.71M678.647 1432.71L678.647 1357.41M603.353 1432.71L528.059 1432.71M603.353 1432.71L603.353 1357.41M528.059 1432.71L452.765 1432.71M528.059 1432.71L528.059 1357.41M452.765 1432.71L377.471 1432.71M452.765 1432.71L452.765 1357.41M377.471 1432.71L302.177 1432.71M377.471 1432.71L377.471 1357.41M302.177 1432.71L226.882 1432.71M302.177 1432.71L302.177 1357.41M226.882 1432.71L151.588 1432.71M226.882 1432.71L226.883 1357.41M151.588 1432.71L76.2942 1432.71M151.588 1432.71L151.588 1357.41M76.2942 1432.71L1.00005 1432.71M76.2942 1432.71L76.2942 1357.41M1.00005 1432.71L1.00006 1357.41M1205.71 1357.41L1281 1357.41M1205.71 1357.41L1130.41 1357.41M1205.71 1357.41L1205.71 1282.12M1281 1357.41L1281 1282.12M1130.41 1357.41L1055.12 1357.41M1130.41 1357.41L1130.41 1282.12M1055.12 1357.41L979.824 1357.41M1055.12 1357.41L1055.12 1282.12M979.824 1357.41L904.529 1357.41M979.824 1357.41L979.824 1282.12M904.529 1357.41L829.235 1357.41M904.529 1357.41L904.529 1282.12M829.235 1357.41L753.941 1357.41M829.235 1357.41L829.235 1282.12M753.941 1357.41L678.647 1357.41M753.941 1357.41L753.941 1282.12M678.647 1357.41L603.353 1357.41M678.647 1357.41L678.647 1282.12M603.353 1357.41L528.059 1357.41M603.353 1357.41L603.353 1282.12M528.059 1357.41L452.765 1357.41M528.059 1357.41L528.059 1282.12M452.765 1357.41L377.471 1357.41M452.765 1357.41L452.765 1282.12M377.471 1357.41L302.177 1357.41M377.471 1357.41L377.471 1282.12M302.177 1357.41L226.883 1357.41M302.177 1357.41L302.177 1282.12M226.883 1357.41L151.588 1357.41M226.883 1357.41L226.883 1282.12M151.588 1357.41L76.2942 1357.41M151.588 1357.41L151.588 1282.12M76.2942 1357.41L1.00006 1357.41M76.2942 1357.41L76.2943 1282.12M1.00006 1357.41L1.00007 1282.12M1205.71 1282.12L1281 1282.12M1205.71 1282.12L1130.41 1282.12M1205.71 1282.12L1205.71 1206.82M1281 1282.12L1281 1206.82M1130.41 1282.12L1055.12 1282.12M1130.41 1282.12L1130.41 1206.82M1055.12 1282.12L979.824 1282.12M1055.12 1282.12L1055.12 1206.82M979.824 1282.12L904.529 1282.12M979.824 1282.12L979.824 1206.82M904.529 1282.12L829.235 1282.12M904.529 1282.12L904.529 1206.82M829.235 1282.12L753.941 1282.12M829.235 1282.12L829.235 1206.82M753.941 1282.12L678.647 1282.12M753.941 1282.12L753.941 1206.82M678.647 1282.12L603.353 1282.12M678.647 1282.12L678.647 1206.82M603.353 1282.12L528.059 1282.12M603.353 1282.12L603.353 1206.82M528.059 1282.12L452.765 1282.12M528.059 1282.12L528.059 1206.82M452.765 1282.12L377.471 1282.12M452.765 1282.12L452.765 1206.82M377.471 1282.12L302.177 1282.12M377.471 1282.12L377.471 1206.82M302.177 1282.12L226.883 1282.12M302.177 1282.12L302.177 1206.82M226.883 1282.12L151.588 1282.12M226.883 1282.12L226.883 1206.82M151.588 1282.12L76.2943 1282.12M151.588 1282.12L151.588 1206.82M76.2943 1282.12L1.00007 1282.12M76.2943 1282.12L76.2943 1206.82M1.00007 1282.12L1.00007 1206.82M1205.71 1206.82L1281 1206.82M1205.71 1206.82L1130.41 1206.82M1205.71 1206.82L1205.71 1131.53M1281 1206.82L1281 1131.53L1205.71 1131.53M1130.41 1206.82L1055.12 1206.82M1130.41 1206.82L1130.41 1131.53M1055.12 1206.82L979.824 1206.82M1055.12 1206.82L1055.12 1131.53M979.824 1206.82L904.529 1206.82M979.824 1206.82L979.824 1131.53M904.529 1206.82L829.235 1206.82M904.529 1206.82L904.529 1131.53M829.235 1206.82L753.941 1206.82M829.235 1206.82L829.235 1131.53M753.941 1206.82L678.647 1206.82M753.941 1206.82L753.941 1131.53M678.647 1206.82L603.353 1206.82M678.647 1206.82L678.647 1131.53M603.353 1206.82L528.059 1206.82M603.353 1206.82L603.353 1131.53M528.059 1206.82L452.765 1206.82M528.059 1206.82L528.059 1131.53M452.765 1206.82L377.471 1206.82M452.765 1206.82L452.765 1131.53M377.471 1206.82L302.177 1206.82M377.471 1206.82L377.471 1131.53M302.177 1206.82L226.883 1206.82M302.177 1206.82L302.177 1131.53M226.883 1206.82L151.588 1206.82M226.883 1206.82L226.883 1131.53M151.588 1206.82L76.2943 1206.82M151.588 1206.82L151.588 1131.53M76.2943 1206.82L1.00007 1206.82M76.2943 1206.82L76.2943 1131.53M1.00007 1206.82L1.00008 1131.53L76.2943 1131.53M1205.71 1131.53L1130.41 1131.53M1130.41 1131.53L1055.12 1131.53M1055.12 1131.53L979.824 1131.53M979.824 1131.53L904.529 1131.53M904.529 1131.53L829.235 1131.53M829.235 1131.53L753.941 1131.53M753.941 1131.53L678.647 1131.53M678.647 1131.53L603.353 1131.53M603.353 1131.53L528.059 1131.53M528.059 1131.53L452.765 1131.53M452.765 1131.53L377.471 1131.53M377.471 1131.53L302.177 1131.53M302.177 1131.53L226.883 1131.53M226.883 1131.53L151.588 1131.53M151.588 1131.53L76.2943 1131.53" stroke="url(#paint20_radial_201_1394)" stroke-opacity="0.08" stroke-width="1.93062"/>
<defs>
<linearGradient id="paint0_linear_201_1394" x1="942.175" y1="754.906" x2="942.175" y2="677.682" gradientUnits="userSpaceOnUse">
<stop stop-color="white" stop-opacity="0"/>
<stop offset="1" stop-color="white"/>
</linearGradient>
<radialGradient id="paint1_radial_201_1394" cx="0" cy="0" r="1" gradientUnits="userSpaceOnUse" gradientTransform="translate(942.175 714.231) rotate(-90) scale(36.4672 38.6706)">
<stop stop-color="white"/>
<stop offset="1" stop-color="white" stop-opacity="0"/>
</radialGradient>
<linearGradient id="paint2_linear_201_1394" x1="1017.47" y1="303.142" x2="1017.47" y2="225.917" gradientUnits="userSpaceOnUse">
<stop stop-color="white" stop-opacity="0"/>
<stop offset="1" stop-color="white"/>
</linearGradient>
<radialGradient id="paint3_radial_201_1394" cx="0" cy="0" r="1" gradientUnits="userSpaceOnUse" gradientTransform="translate(1017.47 262.467) rotate(-90) scale(36.4672 38.6706)">
<stop stop-color="white"/>
<stop offset="1" stop-color="white" stop-opacity="0"/>
</radialGradient>
<linearGradient id="paint4_linear_201_1394" x1="264.53" y1="679.613" x2="264.53" y2="602.388" gradientUnits="userSpaceOnUse">
<stop stop-color="white" stop-opacity="0"/>
<stop offset="1" stop-color="white"/>
</linearGradient>
<radialGradient id="paint5_radial_201_1394" cx="0" cy="0" r="1" gradientUnits="userSpaceOnUse" gradientTransform="translate(264.53 638.938) rotate(-90) scale(36.4672 38.6706)">
<stop stop-color="white"/>
<stop offset="1" stop-color="white" stop-opacity="0"/>
</radialGradient>
<radialGradient id="paint6_radial_201_1394" cx="0" cy="0" r="1" gradientUnits="userSpaceOnUse" gradientTransform="translate(641 428.632) rotate(-90) scale(426.667 640.965)">
<stop stop-color="white"/>
<stop offset="1" stop-color="white" stop-opacity="0"/>
</radialGradient>
<linearGradient id="paint7_linear_201_1394" x1="942.175" y1="1282.44" x2="942.175" y2="1205.21" gradientUnits="userSpaceOnUse">
<stop stop-color="white" stop-opacity="0"/>
<stop offset="1" stop-color="white"/>
</linearGradient>
<radialGradient id="paint8_radial_201_1394" cx="0" cy="0" r="1" gradientUnits="userSpaceOnUse" gradientTransform="translate(942.175 1241.76) rotate(-90) scale(36.4672 38.6706)">
<stop stop-color="white"/>
<stop offset="1" stop-color="white" stop-opacity="0"/>
</radialGradient>
<linearGradient id="paint9_linear_201_1394" x1="1017.47" y1="830.671" x2="1017.47" y2="753.447" gradientUnits="userSpaceOnUse">
<stop stop-color="white" stop-opacity="0"/>
<stop offset="1" stop-color="white"/>
</linearGradient>
<radialGradient id="paint10_radial_201_1394" cx="0" cy="0" r="1" gradientUnits="userSpaceOnUse" gradientTransform="translate(1017.47 789.996) rotate(-90) scale(36.4672 38.6706)">
<stop stop-color="white"/>
<stop offset="1" stop-color="white" stop-opacity="0"/>
</radialGradient>
<linearGradient id="paint11_linear_201_1394" x1="264.53" y1="1207.14" x2="264.53" y2="1129.92" gradientUnits="userSpaceOnUse">
<stop stop-color="white" stop-opacity="0"/>
<stop offset="1" stop-color="white"/>
</linearGradient>
<radialGradient id="paint12_radial_201_1394" cx="0" cy="0" r="1" gradientUnits="userSpaceOnUse" gradientTransform="translate(264.53 1166.47) rotate(-90) scale(36.4672 38.6706)">
<stop stop-color="white"/>
<stop offset="1" stop-color="white" stop-opacity="0"/>
</radialGradient>
<radialGradient id="paint13_radial_201_1394" cx="0" cy="0" r="1" gradientUnits="userSpaceOnUse" gradientTransform="translate(641 956.162) rotate(-90) scale(426.667 640.965)">
<stop stop-color="white"/>
<stop offset="1" stop-color="white" stop-opacity="0"/>
</radialGradient>
<linearGradient id="paint14_linear_201_1394" x1="942.175" y1="1885.44" x2="942.175" y2="1808.21" gradientUnits="userSpaceOnUse">
<stop stop-color="white" stop-opacity="0"/>
<stop offset="1" stop-color="white"/>
</linearGradient>
<radialGradient id="paint15_radial_201_1394" cx="0" cy="0" r="1" gradientUnits="userSpaceOnUse" gradientTransform="translate(942.175 1844.76) rotate(-90) scale(36.4672 38.6706)">
<stop stop-color="white"/>
<stop offset="1" stop-color="white" stop-opacity="0"/>
</radialGradient>
<linearGradient id="paint16_linear_201_1394" x1="1017.47" y1="1433.67" x2="1017.47" y2="1356.45" gradientUnits="userSpaceOnUse">
<stop stop-color="white" stop-opacity="0"/>
<stop offset="1" stop-color="white"/>
</linearGradient>
<radialGradient id="paint17_radial_201_1394" cx="0" cy="0" r="1" gradientUnits="userSpaceOnUse" gradientTransform="translate(1017.47 1393) rotate(-90) scale(36.4672 38.6706)">
<stop stop-color="white"/>
<stop offset="1" stop-color="white" stop-opacity="0"/>
</radialGradient>
<linearGradient id="paint18_linear_201_1394" x1="264.53" y1="1810.14" x2="264.53" y2="1732.92" gradientUnits="userSpaceOnUse">
<stop stop-color="white" stop-opacity="0"/>
<stop offset="1" stop-color="white"/>
</linearGradient>
<radialGradient id="paint19_radial_201_1394" cx="0" cy="0" r="1" gradientUnits="userSpaceOnUse" gradientTransform="translate(264.53 1769.47) rotate(-90) scale(36.4672 38.6706)">
<stop stop-color="white"/>
<stop offset="1" stop-color="white" stop-opacity="0"/>
</radialGradient>
<radialGradient id="paint20_radial_201_1394" cx="0" cy="0" r="1" gradientUnits="userSpaceOnUse" gradientTransform="translate(641 1559.16) rotate(-90) scale(426.667 640.965)">
<stop stop-color="white"/>
<stop offset="1" stop-color="white" stop-opacity="0"/>
</radialGradient>
</defs>
</svg>
