<svg width="150" height="30" viewBox="0 0 150 30" fill="none" xmlns="http://www.w3.org/2000/svg">
<path fill-rule="evenodd" clip-rule="evenodd" d="M12.119 3C12.119 2.46089 12.553 2.02213 13.094 2.00049H16.904C17.447 2.02213 17.88 2.46089 17.88 3C17.88 3.55287 17.425 4.00049 16.863 4.00049H13.135C12.575 4.00049 12.119 3.55287 12.119 3ZM8.032 6.52024C8.051 5.87385 8.619 5.37586 9.271 5.37586H20.779C21.449 5.37586 21.989 5.92365 21.969 6.59295C21.949 7.23934 21.381 7.73733 20.73 7.73733H17.887C17.492 7.73733 17.174 8.07596 17.213 8.47834C17.246 8.82992 17.563 9.08788 17.916 9.08788H26.683C27.292 9.08788 27.855 9.41257 28.156 9.93944C28.424 10.4066 28.667 10.8896 28.885 11.3866C29.176 12.0539 28.679 12.7999 27.949 12.7999H23.837C23.341 12.7999 22.945 13.2242 22.993 13.7271C23.036 14.1664 23.43 14.4881 23.872 14.4881H28.645C29.473 14.4881 30.1 15.2191 29.986 16.0348C29.865 16.9213 29.663 17.7828 29.393 18.6134C29.21 19.1712 28.689 19.5496 28.101 19.5496H16.016C15.445 19.5496 14.983 20.0207 15 20.5944C15.016 21.1482 15.503 21.5755 16.06 21.5755H26.807C27.354 21.5755 27.68 22.19 27.365 22.6332C24.627 26.4846 20.11 29.0005 15 29.0005C9.891 29.0005 5.373 26.4846 2.635 22.6332C2.318 22.19 2.647 21.5755 3.192 21.5755H5.655C6.227 21.5755 6.688 21.1054 6.671 20.5317C6.655 19.9779 6.169 19.5496 5.612 19.5496H1.9C1.31 19.5496 0.79 19.1712 0.607 18.6134C0.336 17.7828 0.136 16.9213 0.013 16.0348C0.005 15.984 0.001 15.9322 0 15.8815V15.8087C0.019 15.0877 0.604 14.4881 1.355 14.4881H15.343C15.838 14.4881 16.234 14.0638 16.186 13.5608C16.143 13.1216 15.748 12.7999 15.305 12.7999H2.05C1.319 12.7999 0.824 12.0539 1.115 11.3866C1.332 10.8896 1.575 10.4066 1.844 9.93944C2.146 9.41257 2.708 9.08788 3.317 9.08788H12.112C12.509 9.08788 12.825 8.74825 12.787 8.34687C12.753 7.99529 12.438 7.73733 12.083 7.73733H9.221C8.552 7.73733 8.012 7.18854 8.032 6.52024Z" fill="#3D60E1"/>
<path fill-rule="evenodd" clip-rule="evenodd" d="M141.353 23C145.901 23 149.588 19.4183 149.588 15C149.588 10.5817 145.901 7 141.353 7C136.805 7 133.118 10.5817 133.118 15C133.118 19.4183 136.805 23 141.353 23ZM141.353 21.4C144.992 21.4 147.941 18.5346 147.941 15C147.941 11.4654 144.992 8.6 141.353 8.6C137.714 8.6 134.765 11.4654 134.765 15C134.765 18.5346 137.714 21.4 141.353 21.4Z" fill="#EDF2FD"/>
<path d="M129.823 7.4C129.823 7.17909 130.008 7 130.235 7H131.059C131.286 7 131.471 7.17909 131.471 7.4V22.6C131.471 22.8209 131.286 23 131.059 23H130.235C130.008 23 129.823 22.8209 129.823 22.6V7.4Z" fill="#EDF2FD"/>
<path d="M126.529 21.7999C126.529 21.579 126.714 21.3999 126.941 21.3999H127.765C127.992 21.3999 128.176 21.579 128.176 21.7999V22.5999C128.176 22.8208 127.992 22.9999 127.765 22.9999H126.941C126.714 22.9999 126.529 22.8208 126.529 22.5999V21.7999Z" fill="#EDF2FD"/>
<path d="M111.706 15V22.6C111.706 22.8209 111.522 23 111.294 23H108.824C108.596 23 108.412 22.8209 108.412 22.6V7.4C108.412 7.17909 108.596 7 108.824 7H110.272C110.646 7 110.988 7.20544 111.155 7.53067L111.617 8.42797C111.663 8.5173 111.781 8.54425 111.865 8.48619C113.213 7.55054 114.864 7 116.647 7C121.195 7 124.882 10.5817 124.882 15V22.6C124.882 22.8209 124.698 23 124.471 23H122C121.773 23 121.588 22.8209 121.588 22.6V15C121.588 12.349 119.376 10.2 116.647 10.2C114.16 10.2 112.101 11.9855 111.757 14.3092L111.706 15Z" fill="#EDF2FD"/>
<path fill-rule="evenodd" clip-rule="evenodd" d="M98.1176 7C93.5694 7 89.8823 10.5817 89.8823 15C89.8823 19.4183 93.5694 23 98.1176 23C99.9008 23 101.552 22.4495 102.9 21.5138C102.983 21.4558 103.101 21.4827 103.147 21.572L103.609 22.4693C103.777 22.7946 104.119 23 104.493 23H105.941C106.169 23 106.353 22.8209 106.353 22.6V15C106.353 10.5817 102.666 7 98.1176 7ZM93.1764 15C93.1764 12.349 95.3887 10.2 98.1176 10.2C100.847 10.2 103.059 12.349 103.059 15C103.059 17.651 100.847 19.8 98.1176 19.8C95.3887 19.8 93.1764 17.651 93.1764 15Z" fill="#EDF2FD"/>
<path fill-rule="evenodd" clip-rule="evenodd" d="M86.7603 19.5698C86.8987 19.3769 86.8212 19.1132 86.6047 19.008L84.3577 17.9166C84.1756 17.8282 83.9557 17.8835 83.8269 18.0366C82.9207 19.113 81.5429 19.8 79.9999 19.8C77.8031 19.8 75.9412 18.4073 75.2985 16.4813C75.265 16.3807 75.3439 16.28 75.4527 16.28H87.4117C87.8665 16.28 88.2352 15.9218 88.2352 15.48V15C88.2352 10.5817 84.5482 7 79.9999 7C75.4517 7 71.7646 10.5817 71.7646 15C71.7646 19.4183 75.4517 23 79.9999 23C82.7992 23 85.2722 21.6433 86.7603 19.5698ZM84.5905 13.72C84.696 13.72 84.7744 13.6249 84.7477 13.5258C84.2024 11.5007 82.5262 9.88001 79.9999 9.88001C77.4737 9.88001 75.7975 11.5007 75.2522 13.5258C75.2255 13.6249 75.3039 13.72 75.4094 13.72H84.5905Z" fill="#EDF2FD"/>
<path d="M70.3238 19.8602C70.5211 19.9943 70.5589 20.2642 70.3952 20.4358C68.891 22.0129 66.7407 23 64.353 23C59.8047 23 56.1177 19.4183 56.1177 15C56.1177 10.5817 59.8047 7 64.353 7C66.7407 7 68.891 7.98711 70.3952 9.56417C70.5589 9.73576 70.5211 10.0057 70.3238 10.1398L68.2701 11.5363C68.1016 11.6509 67.8732 11.6257 67.7228 11.4895C66.8401 10.6895 65.6554 10.2 64.353 10.2C61.624 10.2 59.4118 12.349 59.4118 15C59.4118 17.651 61.624 19.8 64.353 19.8C65.6554 19.8 66.8401 19.3105 67.7228 18.5105C67.8732 18.3743 68.1016 18.3491 68.2701 18.4637L70.3238 19.8602Z" fill="#EDF2FD"/>
<path fill-rule="evenodd" clip-rule="evenodd" d="M46.2353 23C50.7835 23 54.4706 19.4183 54.4706 15C54.4706 10.5817 50.7835 7 46.2353 7C41.6871 7 38 10.5817 38 15C38 19.4183 41.6871 23 46.2353 23ZM46.2353 19.8C48.9642 19.8 51.1765 17.651 51.1765 15C51.1765 12.349 48.9642 10.2 46.2353 10.2C43.5064 10.2 41.2941 12.349 41.2941 15C41.2941 17.651 43.5064 19.8 46.2353 19.8Z" fill="#EDF2FD"/>
</svg>
