<svg width="138" height="25" viewBox="0 0 138 25" fill="none" xmlns="http://www.w3.org/2000/svg">
<g id="Group 368">
<path id="Vector" d="M0 0.0825195H10.869C13.0173 0.0825195 14.7525 0.691765 16.0736 1.90977C17.395 3.12777 18.0555 4.83917 18.0555 7.0437C18.0555 8.93968 17.4659 10.5902 16.2872 11.9957C15.108 13.401 13.304 14.1038 10.8744 14.1038H3.29023V24.3716H0V0.0825195ZM12.7623 3.42258C12.0399 3.08113 11.0494 2.91004 9.79091 2.91004H3.29023V11.3261H9.79091C11.2573 11.3261 12.4476 11.0119 13.3612 10.3835C14.2751 9.75536 14.7321 8.64757 14.7321 7.06014C14.7321 5.27437 14.0753 4.06202 12.7623 3.42258Z" fill="#336699"/>
<path id="Vector_2" d="M21.9578 6.66328H24.7853V9.72228C25.0168 9.12702 25.5843 8.40241 26.4883 7.54794C27.3919 6.69396 28.4337 6.2666 29.6131 6.2666C29.8124 6.2666 30.1895 6.31373 30.433 6.35301C30.7647 6.40651 31.187 6.50225 31.7997 6.71433L30.4801 9.46356C30.1659 9.40072 30.2204 9.38059 30.0717 9.3693C29.9229 9.3585 29.5724 9.32217 29.3961 9.32217C27.8971 9.32217 26.9454 9.89042 26.141 10.8549C25.3364 11.8195 24.934 12.93 24.934 14.1866V24.3717H21.9578V6.66328Z" fill="#336699"/>
<path id="Vector_3" d="M45.9823 8.43053C47.5474 9.95046 48.3302 12.1859 48.3302 15.1374C48.3302 17.9902 47.6404 20.3469 46.2614 22.2081C44.8824 24.0694 42.7424 25 39.842 25C37.4227 25 35.5019 24.1767 34.0789 22.5303C32.6559 20.8838 31.9446 18.6728 31.9446 15.8974C31.9446 12.9238 32.6945 10.556 34.1938 8.79381C35.6933 7.03186 37.7074 6.15063 40.2359 6.15063C42.5016 6.15063 44.417 6.91084 45.9823 8.43053ZM44.1344 20.1994C44.8593 18.7077 45.2218 17.0479 45.2218 15.2204C45.2218 13.5689 44.9599 12.2257 44.4369 11.1908C43.6087 9.56139 42.1808 8.74668 40.1535 8.74668C38.3547 8.74668 37.0471 9.44037 36.2297 10.8275C35.4123 12.2149 35.0036 13.8882 35.0036 15.8478C35.0036 17.7308 35.4123 19.2995 36.2297 20.5546C37.0471 21.8094 38.3439 22.4371 40.1208 22.4371C42.0718 22.4371 43.4093 21.6911 44.1344 20.1994Z" fill="#336699"/>
<path id="Vector_4" d="M61.7134 7.20885C62.2404 7.53949 62.8388 8.1183 63.5087 8.94504V0H66.3691V24.3716H63.6906V21.9079C62.9986 22.9992 62.1805 23.7874 61.2362 24.2724C60.2916 24.7572 59.2101 25 57.9914 25C56.0257 25 54.3239 24.1706 52.8852 22.5115C51.4468 20.8526 50.7275 18.6454 50.7275 15.8895C50.7275 13.3102 51.3834 11.0754 52.6957 9.18486C54.008 7.29452 55.8826 6.34923 58.3205 6.34923C59.6711 6.34923 60.802 6.63593 61.7134 7.20885ZM55.0698 20.4861C55.8705 21.7648 57.1538 22.4039 58.9195 22.4039C60.2904 22.4039 61.4171 21.8116 62.3 20.6265C63.183 19.4417 63.6243 17.7413 63.6243 15.5257C63.6243 13.2881 63.1692 11.6319 62.2591 10.557C61.3486 9.48236 60.2244 8.94504 58.8866 8.94504C57.3949 8.94504 56.1857 9.5182 55.2591 10.6645C54.3322 11.8111 53.869 13.4977 53.869 15.7241C53.869 17.6201 54.2694 19.2075 55.0698 20.4861Z" fill="#336699"/>
<path id="Vector_5" d="M73.793 6.66309V18.4192C73.793 19.323 73.9325 20.0616 74.2118 20.6348C74.727 21.693 75.6878 22.222 77.0943 22.222C79.1123 22.222 80.4864 21.2961 81.2164 19.4443C81.6136 18.4521 81.8122 17.091 81.8122 15.3602V6.66309H84.7885V24.3715H81.9776L82.0108 21.759C81.6318 22.4316 81.161 22.9991 80.5986 23.4621C79.4844 24.388 78.1326 24.8509 76.5428 24.8509C74.0655 24.8509 72.3784 24.0077 71.4807 22.3211C70.994 21.4176 70.7507 20.2106 70.7507 18.7003V6.66309H73.793Z" fill="#336699"/>
<path id="Vector_6" d="M101.348 7.60576C102.598 8.57584 103.351 10.2457 103.604 12.6157H100.711C100.535 11.5244 100.132 10.6179 99.5038 9.89571C98.8757 9.1738 97.8671 8.81272 96.4782 8.81272C94.5822 8.81272 93.2263 9.73763 92.4106 11.5872C91.8816 12.7873 91.617 14.268 91.617 16.0294C91.617 17.8019 91.9916 19.2936 92.7415 20.5048C93.4909 21.7159 94.6701 22.3212 96.2796 22.3212C97.5141 22.3212 98.4925 21.9454 99.2147 21.193C99.9363 20.4409 100.435 19.4117 100.711 18.1051H103.604C103.274 20.453 102.447 22.17 101.124 23.2555C99.8016 24.3414 98.1093 24.8841 96.0482 24.8841C93.7334 24.8841 91.887 24.0383 90.5092 22.3463C89.1312 20.6543 88.4424 18.5405 88.4424 16.0051C88.4424 12.8968 89.1974 10.4772 90.7075 8.74668C92.2177 7.01614 94.1411 6.15063 96.4782 6.15063C98.4731 6.15063 100.096 6.63592 101.348 7.60576Z" fill="#336699"/>
<path id="Vector_7" d="M107.176 2.56689L110.185 0.714111V6.66323H113.013V9.09383H110.185V20.6514C110.185 21.269 110.395 21.6823 110.814 21.8915C111.045 22.013 111.431 22.0734 111.971 22.0734C112.114 22.0734 112.269 22.0697 112.434 22.0626C112.599 22.0552 112.792 22.0368 113.013 22.0073V24.3717C112.671 24.4708 112.315 24.5425 111.946 24.5867C111.577 24.6306 111.177 24.6527 110.748 24.6527C109.359 24.6527 108.416 24.2973 107.92 23.5862C107.424 22.8753 107.176 21.9521 107.176 20.8168V9.09383H104.779V6.66323H107.176L107.176 2.56689Z" fill="#336699"/>
<path id="Vector_8" d="M115.989 6.74585H119.015V24.3716H115.989V6.74585Z" fill="#336699"/>
<path id="Vector_9" d="M124.975 6.66309L129.704 21.0813L134.631 6.66309H137.888L131.222 24.3715H128.05L121.52 6.66309H124.975Z" fill="#1FD3EC"/>
<path id="Vector_10" d="M129.667 6.54926C131.069 6.54926 132.206 5.41261 132.206 4.01047C132.206 2.60833 131.069 1.47168 129.667 1.47168C128.265 1.47168 127.128 2.60833 127.128 4.01047C127.128 5.41261 128.265 6.54926 129.667 6.54926Z" fill="#1FD3EC"/>
</g>
</svg>
