<?xml version="1.0" standalone="no"?>
<!DOCTYPE svg PUBLIC "-//W3C//DTD SVG 20010904//EN"
 "http://www.w3.org/TR/2001/REC-SVG-20010904/DTD/svg10.dtd">
<svg version="1.0" xmlns="http://www.w3.org/2000/svg"
 width="400" height="200" viewBox="0 0 600.000000 600.000000"
 preserveAspectRatio="xMidYMid meet">

<g transform="translate(0.000000,600.000000) scale(0.100000,-0.100000)"
fill="#161616" stroke="none">
<path d="M2740 4368 c-80 -176 -187 -413 -220 -488 -32 -71 -111 -249 -255
-565 -15 -33 -44 -98 -65 -145 -53 -119 -76 -169 -210 -465 -65 -143 -159
-352 -210 -465 -51 -113 -106 -234 -122 -270 -43 -91 -108 -240 -108 -245 0
-3 115 -5 255 -5 l254 0 34 73 c18 39 64 143 102 229 55 124 75 158 92 163 13
3 262 5 555 5 293 0 536 0 540 0 7 0 -30 86 -134 315 l-64 140 -353 3 c-276 2
-352 5 -348 15 7 15 114 250 168 367 21 47 113 249 203 450 91 201 168 364
172 363 4 -1 21 -35 39 -75 18 -40 119 -264 225 -498 106 -234 212 -468 235
-520 23 -52 86 -192 140 -310 53 -118 117 -260 141 -315 25 -55 75 -167 112
-250 l67 -150 258 -3 c141 -1 257 -1 257 1 0 5 -73 173 -108 247 -50 108 -223
493 -232 515 -4 11 -24 54 -43 95 -43 92 -113 248 -202 445 -37 83 -111 247
-165 365 -135 298 -137 302 -233 515 -47 105 -119 264 -160 355 l-74 165 -257
3 -257 2 -29 -62z"/>
</g>
</svg>
