<?xml version="1.0" encoding="utf-8"?>
<!-- Generator: Adobe Illustrator 28.2.0, SVG Export Plug-In . SVG Version: 6.00 Build 0)  -->
<svg version="1.1" id="katman_1" xmlns="http://www.w3.org/2000/svg" xmlns:xlink="http://www.w3.org/1999/xlink" x="0px" y="0px"
	 viewBox="0 0 218.8 35" style="enable-background:new 0 0 218.8 35;" xml:space="preserve">
<style type="text/css">
	.st0{fill:#FFFFFF;}
	.st1{fill:url(#SVGID_1_);}
</style>
<g>
	<g>
		<path class="st0" d="M59,26V6.3h7.2c1.6,0,3,0.3,4.2,0.8c1.2,0.5,2.2,1.2,3,2.1c0.8,0.9,1.4,1.9,1.8,3.1c0.4,1.2,0.6,2.5,0.6,3.8
			c0,1.5-0.2,2.9-0.7,4.1c-0.5,1.2-1.1,2.2-2,3.1c-0.9,0.9-1.9,1.5-3.1,2c-1.2,0.5-2.5,0.7-4,0.7H59z M72,16.1
			c0-0.9-0.1-1.8-0.4-2.6c-0.3-0.8-0.6-1.5-1.1-2.1c-0.5-0.6-1.1-1-1.8-1.3c-0.7-0.3-1.6-0.5-2.5-0.5h-3.3v13h3.3
			c0.9,0,1.8-0.2,2.5-0.5c0.7-0.3,1.3-0.8,1.8-1.4c0.5-0.6,0.9-1.3,1.1-2.1C71.9,17.9,72,17.1,72,16.1z"/>
		<path class="st0" d="M85.3,26.3c-1.2,0-2.2-0.2-3.2-0.6c-0.9-0.4-1.7-0.9-2.4-1.6c-0.7-0.7-1.2-1.5-1.5-2.4
			c-0.4-0.9-0.5-1.9-0.5-2.9c0-1,0.2-2,0.5-2.9c0.4-0.9,0.9-1.7,1.5-2.4c0.7-0.7,1.5-1.2,2.4-1.7c1-0.4,2-0.6,3.2-0.6
			c1.2,0,2.2,0.2,3.2,0.6c0.9,0.4,1.7,1,2.4,1.6c0.7,0.7,1.2,1.5,1.5,2.4c0.3,0.9,0.5,1.9,0.5,2.8c0,0.2,0,0.5,0,0.7
			c0,0.2,0,0.4-0.1,0.6H81.6c0.1,0.6,0.2,1.1,0.4,1.5s0.5,0.8,0.9,1.1c0.4,0.3,0.7,0.6,1.2,0.7c0.4,0.2,0.9,0.2,1.4,0.2
			c0.7,0,1.4-0.2,2.1-0.5c0.7-0.4,1.1-0.8,1.3-1.4l3.2,0.9c-0.5,1.1-1.4,2-2.6,2.7C88.3,25.9,86.9,26.3,85.3,26.3z M89,17.5
			c-0.1-1.1-0.5-2-1.2-2.6c-0.7-0.7-1.6-1-2.6-1c-0.5,0-1,0.1-1.4,0.3c-0.4,0.2-0.8,0.4-1.2,0.7c-0.3,0.3-0.6,0.7-0.8,1.1
			c-0.2,0.4-0.3,0.9-0.4,1.5H89z"/>
		<path class="st0" d="M101.9,26.3c-1.2,0-2.2-0.2-3.2-0.6c-0.9-0.4-1.7-0.9-2.4-1.6c-0.7-0.7-1.2-1.5-1.5-2.4
			c-0.4-0.9-0.5-1.9-0.5-2.9c0-1,0.2-2,0.5-2.9c0.4-0.9,0.9-1.7,1.5-2.4c0.7-0.7,1.5-1.2,2.4-1.7c1-0.4,2-0.6,3.2-0.6
			c1.2,0,2.2,0.2,3.2,0.6c0.9,0.4,1.7,1,2.4,1.6c0.7,0.7,1.2,1.5,1.5,2.4c0.3,0.9,0.5,1.9,0.5,2.8c0,0.2,0,0.5,0,0.7
			c0,0.2,0,0.4-0.1,0.6H98.2c0.1,0.6,0.2,1.1,0.4,1.5s0.5,0.8,0.9,1.1c0.4,0.3,0.7,0.6,1.2,0.7c0.4,0.2,0.9,0.2,1.4,0.2
			c0.7,0,1.4-0.2,2.1-0.5c0.7-0.4,1.1-0.8,1.3-1.4l3.2,0.9c-0.5,1.1-1.4,2-2.6,2.7C104.9,25.9,103.5,26.3,101.9,26.3z M105.7,17.5
			c-0.1-1.1-0.5-2-1.2-2.6c-0.7-0.7-1.6-1-2.6-1c-0.5,0-1,0.1-1.4,0.3c-0.4,0.2-0.8,0.4-1.2,0.7c-0.3,0.3-0.6,0.7-0.8,1.1
			c-0.2,0.4-0.3,0.9-0.4,1.5H105.7z"/>
		<path class="st0" d="M120.5,26.3c-1.1,0-2.1-0.3-3-0.8c-0.9-0.5-1.5-1.2-2-2.1v8.5h-3.7V11.5h3.3V14c0.5-0.9,1.2-1.5,2.1-2
			c0.9-0.5,1.8-0.7,2.9-0.7c1,0,1.9,0.2,2.7,0.6c0.8,0.4,1.6,0.9,2.2,1.6c0.6,0.7,1.1,1.5,1.4,2.4c0.3,0.9,0.5,1.9,0.5,2.9
			c0,1.1-0.2,2-0.5,3c-0.3,0.9-0.8,1.7-1.3,2.4c-0.6,0.7-1.2,1.2-2,1.6C122.3,26.1,121.4,26.3,120.5,26.3z M119.3,23.1
			c0.6,0,1.1-0.1,1.5-0.4c0.5-0.2,0.9-0.6,1.2-1c0.3-0.4,0.6-0.9,0.8-1.4c0.2-0.5,0.3-1.1,0.3-1.7c0-0.6-0.1-1.2-0.3-1.7
			c-0.2-0.5-0.5-1-0.8-1.4s-0.8-0.7-1.3-0.9c-0.5-0.2-1-0.3-1.6-0.3c-0.4,0-0.7,0.1-1.1,0.2c-0.4,0.1-0.7,0.3-1,0.5
			c-0.3,0.2-0.6,0.5-0.8,0.8c-0.2,0.3-0.4,0.6-0.6,1v3.4c0.3,0.8,0.8,1.5,1.5,2.1C117.7,22.9,118.5,23.1,119.3,23.1z"/>
		<path class="st0" d="M128.9,16c0-1.2,0.2-2.4,0.6-3.5c0.4-1.2,1-2.2,1.8-3.2c0.8-0.9,1.8-1.7,2.9-2.3c1.2-0.6,2.5-0.9,4-0.9
			c1.8,0,3.3,0.4,4.5,1.2c1.2,0.8,2.2,1.8,2.8,3.1l-1.2,0.7c-0.4-0.7-0.8-1.3-1.2-1.7c-0.5-0.5-1-0.8-1.5-1.1
			c-0.5-0.3-1.1-0.5-1.7-0.6c-0.6-0.1-1.2-0.2-1.7-0.2c-1.3,0-2.4,0.3-3.3,0.8c-1,0.5-1.8,1.2-2.4,2c-0.7,0.8-1.2,1.7-1.5,2.8
			c-0.3,1-0.5,2.1-0.5,3.1c0,1.2,0.2,2.3,0.6,3.3c0.4,1.1,1,2,1.7,2.8c0.7,0.8,1.5,1.4,2.5,1.9c1,0.5,2,0.7,3.1,0.7
			c0.6,0,1.2-0.1,1.8-0.2c0.6-0.1,1.2-0.4,1.8-0.7c0.6-0.3,1.1-0.7,1.6-1.2c0.5-0.5,0.9-1.1,1.2-1.7l1.2,0.6c-0.3,0.7-0.8,1.4-1.4,2
			c-0.6,0.6-1.2,1.1-1.9,1.4c-0.7,0.4-1.4,0.7-2.2,0.9c-0.8,0.2-1.6,0.3-2.3,0.3c-1.4,0-2.6-0.3-3.7-0.9c-1.1-0.6-2.1-1.4-2.9-2.3
			c-0.8-1-1.4-2-1.9-3.2C129.2,18.5,128.9,17.3,128.9,16z"/>
		<path class="st0" d="M160.9,26h-1.4V18c0-3.6-1.2-5.4-3.6-5.4c-0.6,0-1.2,0.1-1.7,0.3c-0.6,0.2-1.1,0.5-1.6,0.9
			c-0.5,0.4-0.9,0.9-1.3,1.4c-0.4,0.5-0.6,1.1-0.8,1.8V26H149V5.7h1.4V15c0.6-1.1,1.4-2,2.5-2.7c1-0.7,2.2-1,3.4-1
			c0.8,0,1.5,0.1,2.1,0.4c0.6,0.3,1.1,0.7,1.4,1.3c0.4,0.6,0.7,1.2,0.8,2c0.2,0.8,0.3,1.7,0.3,2.7V26z"/>
		<path class="st0" d="M168.6,26.3c-0.7,0-1.3-0.1-1.9-0.3c-0.6-0.2-1.1-0.5-1.5-0.9c-0.4-0.4-0.8-0.9-1-1.4
			c-0.2-0.5-0.4-1.1-0.4-1.8c0-0.6,0.1-1.2,0.4-1.7c0.3-0.5,0.7-1,1.2-1.3c0.5-0.4,1.2-0.7,1.9-0.9c0.7-0.2,1.6-0.3,2.4-0.3
			c0.8,0,1.6,0.1,2.3,0.2c0.8,0.1,1.5,0.3,2.1,0.6v-1.4c0-1.4-0.4-2.5-1.2-3.3c-0.8-0.8-1.8-1.2-3.2-1.2c-0.7,0-1.4,0.1-2.2,0.4
			c-0.8,0.3-1.6,0.7-2.4,1.3l-0.5-0.9c1.9-1.3,3.6-1.9,5.3-1.9c1.7,0,3.1,0.5,4.1,1.5c1,1,1.5,2.4,1.5,4.2v7.1
			c0,0.5,0.2,0.7,0.6,0.7V26c-0.1,0-0.2,0-0.3,0c-0.1,0-0.2,0-0.3,0c-0.4,0-0.7-0.1-0.9-0.4c-0.2-0.2-0.4-0.6-0.4-0.9v-1.2
			c-0.7,0.9-1.5,1.5-2.6,2C170.9,26.1,169.8,26.3,168.6,26.3z M168.9,25.2c1.1,0,2.1-0.2,3-0.6c0.9-0.4,1.6-0.9,2.1-1.6
			c0.3-0.4,0.4-0.8,0.4-1.1v-2.6c-0.7-0.3-1.4-0.5-2.1-0.6c-0.7-0.1-1.5-0.2-2.2-0.2c-0.7,0-1.4,0.1-2,0.2c-0.6,0.2-1.1,0.4-1.5,0.7
			c-0.4,0.3-0.8,0.6-1,1c-0.2,0.4-0.3,0.8-0.3,1.3c0,0.5,0.1,0.9,0.3,1.4c0.2,0.4,0.4,0.8,0.8,1.1c0.3,0.3,0.7,0.5,1.2,0.7
			C167.9,25.1,168.4,25.2,168.9,25.2z"/>
		<path class="st0" d="M186.8,12.8c-1.3,0-2.4,0.4-3.4,1.2c-1,0.7-1.7,1.7-2,3v9H180V11.6h1.3v3.6c0.5-1,1.2-1.8,2-2.5
			c0.8-0.6,1.7-1,2.7-1.1c0.2,0,0.4,0,0.5,0c0.1,0,0.3,0,0.4,0V12.8z"/>
		<path class="st0" d="M194.5,26.2c-1,0-1.9-0.2-2.7-0.6c-0.8-0.4-1.6-1-2.2-1.7c-0.6-0.7-1.1-1.5-1.4-2.4c-0.3-0.9-0.5-1.8-0.5-2.7
			c0-1,0.2-1.9,0.5-2.8c0.3-0.9,0.8-1.7,1.4-2.4c0.6-0.7,1.3-1.2,2.1-1.7c0.8-0.4,1.7-0.6,2.7-0.6c1.3,0,2.4,0.3,3.3,1
			c0.9,0.7,1.7,1.5,2.4,2.4v-3.1h1.3v14.7c0,1-0.2,1.8-0.6,2.6c-0.4,0.7-0.9,1.4-1.5,1.8c-0.6,0.5-1.3,0.9-2.2,1.1
			c-0.8,0.2-1.7,0.4-2.6,0.4c-0.8,0-1.6-0.1-2.2-0.2c-0.7-0.2-1.3-0.4-1.8-0.7c-0.5-0.3-1-0.6-1.4-1.1c-0.4-0.4-0.7-0.9-1-1.4
			l0.9-0.6c0.6,1,1.4,1.7,2.3,2.2c1,0.5,2,0.7,3.1,0.7c0.7,0,1.4-0.1,2.1-0.3c0.7-0.2,1.2-0.5,1.7-0.9c0.5-0.4,0.9-0.9,1.2-1.5
			c0.3-0.6,0.4-1.3,0.4-2.1v-3.2c-0.6,0.9-1.4,1.7-2.4,2.3C196.6,26,195.6,26.2,194.5,26.2z M194.9,25c0.6,0,1.2-0.1,1.8-0.3
			c0.6-0.2,1.1-0.5,1.6-0.9c0.5-0.4,0.9-0.8,1.2-1.2c0.3-0.5,0.5-0.9,0.6-1.4v-4.7c-0.2-0.6-0.5-1.1-0.9-1.5
			c-0.4-0.5-0.8-0.9-1.3-1.2c-0.5-0.3-1-0.6-1.5-0.8c-0.5-0.2-1.1-0.3-1.7-0.3c-0.9,0-1.6,0.2-2.3,0.6c-0.7,0.4-1.3,0.9-1.7,1.4
			c-0.5,0.6-0.8,1.3-1.1,2c-0.2,0.8-0.4,1.5-0.4,2.3c0,0.8,0.1,1.6,0.4,2.4c0.3,0.7,0.7,1.4,1.2,2c0.5,0.6,1.1,1,1.8,1.4
			C193.3,24.9,194.1,25,194.9,25z"/>
		<path class="st0" d="M211.8,26.3c-1,0-2-0.2-2.8-0.6c-0.9-0.4-1.6-0.9-2.3-1.6c-0.6-0.7-1.1-1.5-1.5-2.4c-0.4-0.9-0.5-1.9-0.5-2.9
			c0-1,0.2-2,0.5-2.9c0.4-0.9,0.9-1.7,1.5-2.4c0.6-0.7,1.4-1.2,2.2-1.6c0.9-0.4,1.8-0.6,2.8-0.6c1,0,2,0.2,2.8,0.6
			c0.9,0.4,1.6,0.9,2.2,1.6c0.6,0.7,1.1,1.5,1.5,2.4c0.4,0.9,0.5,1.8,0.5,2.8c0,0.1,0,0.2,0,0.3s0,0.2,0,0.3h-12.7
			c0.1,0.8,0.2,1.6,0.6,2.3c0.3,0.7,0.8,1.3,1.3,1.8c0.5,0.5,1.1,0.9,1.8,1.2c0.7,0.3,1.4,0.4,2.1,0.4c0.5,0,1-0.1,1.5-0.2
			c0.5-0.1,0.9-0.3,1.3-0.6c0.4-0.2,0.8-0.5,1.1-0.9c0.3-0.3,0.6-0.7,0.8-1.1l1.2,0.3c-0.2,0.5-0.5,1-0.9,1.4
			c-0.4,0.4-0.9,0.8-1.4,1.1c-0.5,0.3-1.1,0.6-1.7,0.7C213.2,26.2,212.5,26.3,211.8,26.3z M217.5,18.2c-0.1-0.9-0.2-1.6-0.6-2.3
			c-0.3-0.7-0.7-1.3-1.2-1.8c-0.5-0.5-1.1-0.9-1.8-1.2c-0.7-0.3-1.4-0.4-2.1-0.4c-0.8,0-1.5,0.1-2.1,0.4c-0.7,0.3-1.3,0.7-1.8,1.2
			c-0.5,0.5-0.9,1.1-1.2,1.8c-0.3,0.7-0.5,1.5-0.5,2.3H217.5z"/>
	</g>
	<g>
		<path class="st0" d="M39.8,35h-5.3v-1h5.3c4.7,0,8.5-3.8,8.5-8.5V9.6c0-4.7-3.8-8.5-8.5-8.5H0V0h39.8c5.3,0,9.6,4.3,9.6,9.6v15.8
			C49.4,30.7,45.1,35,39.8,35z"/>
		<path class="st0" d="M68.8,35H29c-5.3,0-9.6-4.3-9.6-9.6V9.6C19.4,4.3,23.7,0,29,0h7.7v1H29c-4.7,0-8.5,3.8-8.5,8.5v15.8
			c0,4.7,3.8,8.5,8.5,8.5h39.8V35z"/>
		<linearGradient id="SVGID_1_" gradientUnits="userSpaceOnUse" x1="32.5469" y1="15.2736" x2="58.2278" y2="44.6409">
			<stop  offset="0" style="stop-color:#6FC7DA"/>
			<stop  offset="0.3754" style="stop-color:#6AB42D"/>
		</linearGradient>
		<path class="st1" d="M34.5,16.3l6.8,0l-8.2,10.1l2.5-6.1c0.1-0.4,0.1-0.8-0.1-1.1c-0.2-0.3-0.6-0.5-0.9-0.5c0,0,0,0,0,0l-6.8,0
			l8.2-10l-2.5,6.1c-0.1,0.4-0.1,0.8,0.1,1.1C33.8,16.1,34.1,16.3,34.5,16.3C34.5,16.3,34.5,16.3,34.5,16.3L34.5,16.3z"/>
		<path class="st0" d="M49.4,25.4V9.6c0-5.3-4.3-9.6-9.6-9.6H0v1h39.8c4.7,0,8.5,3.8,8.5,8.5v15.8H49.4z"/>
	</g>
</g>
</svg>
