<svg width="1440" height="372" viewBox="0 0 1440 372" fill="none" xmlns="http://www.w3.org/2000/svg">
<g filter="url(#filter0_ddd_162_468)">
<path d="M829.771 253.064C734.617 207.407 730.48 147.121 716 115.633L716 390L1440 390L1440 9.00001C1357.26 9.00001 1245.55 79.8821 1123.51 207.407C1043.61 290.894 929.819 301.069 829.771 253.064Z" fill="#4800FF" fill-opacity="0.5"/>
</g>
<path d="M807.8 271.763C742.603 251.105 700.372 187.858 690 128.631L690 426L1462 426L1456.99 118C1368.76 118 1214.96 188.417 1124.53 242.444C1013.14 308.989 921.373 307.747 807.8 271.763Z" fill="#4800FF"/>
<g filter="url(#filter1_ddd_162_468)">
<path d="M592.229 253.064C687.383 207.407 691.52 147.121 706 115.633L706 390L-18 390L-18 9.00001C64.7429 9.00001 176.446 79.8821 298.491 207.407C378.392 290.894 492.181 301.069 592.229 253.064Z" fill="#4800FF" fill-opacity="0.5"/>
</g>
<path d="M614.2 271.763C679.397 251.105 721.628 187.858 732 128.631L732 426L-40 426L-34.987 118C53.2416 118 207.04 188.417 297.474 242.444C408.863 308.989 500.627 307.747 614.2 271.763Z" fill="#4800FF"/>
<defs>
<filter id="filter0_ddd_162_468" x="706" y="0" width="744" height="401" filterUnits="userSpaceOnUse" color-interpolation-filters="sRGB">
<feFlood flood-opacity="0" result="BackgroundImageFix"/>
<feColorMatrix in="SourceAlpha" type="matrix" values="0 0 0 0 0 0 0 0 0 0 0 0 0 0 0 0 0 0 127 0" result="hardAlpha"/>
<feOffset dy="1"/>
<feGaussianBlur stdDeviation="5"/>
<feColorMatrix type="matrix" values="0 0 0 0 0.258824 0 0 0 0 0.305882 0 0 0 0 0.329412 0 0 0 0.12 0"/>
<feBlend mode="normal" in2="BackgroundImageFix" result="effect1_dropShadow_162_468"/>
<feColorMatrix in="SourceAlpha" type="matrix" values="0 0 0 0 0 0 0 0 0 0 0 0 0 0 0 0 0 0 127 0" result="hardAlpha"/>
<feOffset dy="4"/>
<feGaussianBlur stdDeviation="2.5"/>
<feColorMatrix type="matrix" values="0 0 0 0 0.258824 0 0 0 0 0.305882 0 0 0 0 0.329412 0 0 0 0.14 0"/>
<feBlend mode="normal" in2="effect1_dropShadow_162_468" result="effect2_dropShadow_162_468"/>
<feColorMatrix in="SourceAlpha" type="matrix" values="0 0 0 0 0 0 0 0 0 0 0 0 0 0 0 0 0 0 127 0" result="hardAlpha"/>
<feMorphology radius="1" operator="erode" in="SourceAlpha" result="effect3_dropShadow_162_468"/>
<feOffset dy="2"/>
<feGaussianBlur stdDeviation="2"/>
<feColorMatrix type="matrix" values="0 0 0 0 0.258824 0 0 0 0 0.305882 0 0 0 0 0.329412 0 0 0 0.2 0"/>
<feBlend mode="normal" in2="effect2_dropShadow_162_468" result="effect3_dropShadow_162_468"/>
<feBlend mode="normal" in="SourceGraphic" in2="effect3_dropShadow_162_468" result="shape"/>
</filter>
<filter id="filter1_ddd_162_468" x="-28" y="0" width="744" height="401" filterUnits="userSpaceOnUse" color-interpolation-filters="sRGB">
<feFlood flood-opacity="0" result="BackgroundImageFix"/>
<feColorMatrix in="SourceAlpha" type="matrix" values="0 0 0 0 0 0 0 0 0 0 0 0 0 0 0 0 0 0 127 0" result="hardAlpha"/>
<feOffset dy="1"/>
<feGaussianBlur stdDeviation="5"/>
<feColorMatrix type="matrix" values="0 0 0 0 0.258824 0 0 0 0 0.305882 0 0 0 0 0.329412 0 0 0 0.12 0"/>
<feBlend mode="normal" in2="BackgroundImageFix" result="effect1_dropShadow_162_468"/>
<feColorMatrix in="SourceAlpha" type="matrix" values="0 0 0 0 0 0 0 0 0 0 0 0 0 0 0 0 0 0 127 0" result="hardAlpha"/>
<feOffset dy="4"/>
<feGaussianBlur stdDeviation="2.5"/>
<feColorMatrix type="matrix" values="0 0 0 0 0.258824 0 0 0 0 0.305882 0 0 0 0 0.329412 0 0 0 0.14 0"/>
<feBlend mode="normal" in2="effect1_dropShadow_162_468" result="effect2_dropShadow_162_468"/>
<feColorMatrix in="SourceAlpha" type="matrix" values="0 0 0 0 0 0 0 0 0 0 0 0 0 0 0 0 0 0 127 0" result="hardAlpha"/>
<feMorphology radius="1" operator="erode" in="SourceAlpha" result="effect3_dropShadow_162_468"/>
<feOffset dy="2"/>
<feGaussianBlur stdDeviation="2"/>
<feColorMatrix type="matrix" values="0 0 0 0 0.258824 0 0 0 0 0.305882 0 0 0 0 0.329412 0 0 0 0.2 0"/>
<feBlend mode="normal" in2="effect2_dropShadow_162_468" result="effect3_dropShadow_162_468"/>
<feBlend mode="normal" in="SourceGraphic" in2="effect3_dropShadow_162_468" result="shape"/>
</filter>
</defs>
</svg>
