<svg width="377" height="227" viewBox="0 0 377 227" fill="none" xmlns="http://www.w3.org/2000/svg">
<g filter="url(#filter0_ddddi_245_594)">
<path d="M111 86C111 80.4772 115.477 76 121 76H255C260.523 76 265 80.4772 265 86V134C265 139.523 260.523 144 255 144H121C115.477 144 111 139.523 111 134V86Z" fill="white" shape-rendering="crispEdges"/>
<path d="M121 75.5833C115.247 75.5833 110.583 80.247 110.583 86V134C110.583 139.753 115.247 144.417 121 144.417H255C260.753 144.417 265.417 139.753 265.417 134V86C265.417 80.247 260.753 75.5833 255 75.5833H121Z" stroke="#18181B" stroke-opacity="0.06" stroke-width="0.833333" shape-rendering="crispEdges"/>
<rect x="130.5" y="95.5" width="48" height="29" rx="5.5" fill="#EFF6FF"/>
<rect x="130.5" y="95.5" width="48" height="29" rx="5.5" stroke="#BFDBFE"/>
<path d="M144.271 115.164C143.332 115.164 142.502 114.943 141.782 114.501C141.062 114.059 140.499 113.444 140.094 112.655C139.693 111.867 139.492 110.953 139.492 109.914C139.492 108.848 139.697 107.92 140.107 107.132C140.522 106.343 141.087 105.733 141.803 105.3C142.523 104.867 143.339 104.65 144.25 104.65C145.011 104.65 145.706 104.801 146.335 105.102C146.964 105.398 147.481 105.812 147.887 106.346C148.297 106.874 148.552 107.49 148.652 108.191H146.813C146.686 107.617 146.396 107.155 145.945 106.804C145.499 106.448 144.95 106.271 144.298 106.271C143.687 106.271 143.159 106.421 142.712 106.722C142.265 107.022 141.919 107.446 141.673 107.993C141.431 108.535 141.311 109.176 141.311 109.914C141.311 110.648 141.434 111.288 141.68 111.835C141.926 112.377 142.272 112.799 142.719 113.1C143.17 113.396 143.701 113.544 144.312 113.544C144.813 113.544 145.259 113.444 145.651 113.243C146.048 113.038 146.36 112.753 146.588 112.389C146.816 112.024 146.932 111.603 146.937 111.124H144.571V109.695H148.721V110.926C148.721 111.751 148.527 112.482 148.14 113.12C147.757 113.758 147.23 114.259 146.561 114.624C145.891 114.984 145.127 115.164 144.271 115.164ZM149.172 106.38V104.814H157.313V106.38H154.155V115H152.344V106.38H149.172ZM158.482 115V104.814H161.08L163.062 110.167C163.158 110.45 163.279 110.819 163.425 111.274C163.571 111.726 163.703 112.149 163.821 112.546C163.94 112.149 164.07 111.726 164.211 111.274C164.357 110.819 164.478 110.45 164.573 110.167L166.521 104.814H169.133V115H167.355V109.805C167.355 109.445 167.362 109.003 167.376 108.479C167.39 107.954 167.403 107.433 167.417 106.913C167.235 107.487 167.062 108.036 166.897 108.561C166.733 109.08 166.597 109.495 166.487 109.805L164.546 115H163.069L161.114 109.805C161.009 109.508 160.875 109.114 160.711 108.622C160.551 108.125 160.383 107.604 160.205 107.057C160.219 107.558 160.23 108.057 160.239 108.554C160.253 109.046 160.26 109.463 160.26 109.805V115H158.482Z" fill="#2563EB"/>
<rect x="197.5" y="95.5" width="48" height="29" rx="5.5" fill="#EFF6FF"/>
<rect x="197.5" y="95.5" width="48" height="29" rx="5.5" stroke="#BFDBFE"/>
<path d="M212.652 104.814V115H210.848V104.814H212.652ZM218.791 115.164C217.852 115.164 217.023 114.948 216.303 114.515C215.583 114.082 215.018 113.471 214.607 112.683C214.197 111.894 213.992 110.971 213.992 109.914C213.992 108.848 214.197 107.92 214.607 107.132C215.018 106.343 215.583 105.733 216.303 105.3C217.023 104.867 217.852 104.65 218.791 104.65C219.557 104.65 220.249 104.801 220.869 105.102C221.489 105.402 221.999 105.826 222.4 106.373C222.806 106.92 223.066 107.565 223.18 108.308H221.341C221.204 107.66 220.91 107.159 220.459 106.804C220.008 106.448 219.456 106.271 218.805 106.271C218.185 106.271 217.649 106.421 217.198 106.722C216.752 107.022 216.408 107.446 216.166 107.993C215.929 108.54 215.811 109.18 215.811 109.914C215.811 110.643 215.929 111.281 216.166 111.828C216.408 112.37 216.752 112.792 217.198 113.093C217.645 113.394 218.18 113.544 218.805 113.544C219.452 113.544 220.001 113.368 220.452 113.018C220.903 112.667 221.202 112.168 221.348 111.521H223.18C223.066 112.263 222.806 112.908 222.4 113.455C221.999 113.997 221.489 114.419 220.869 114.72C220.249 115.016 219.557 115.164 218.791 115.164ZM224.492 115V104.814H228.382C229.129 104.814 229.774 104.947 230.316 105.211C230.863 105.475 231.283 105.851 231.574 106.339C231.87 106.826 232.019 107.403 232.019 108.068C232.019 108.738 231.868 109.317 231.567 109.805C231.267 110.292 230.84 110.671 230.289 110.939C229.742 111.204 229.095 111.336 228.348 111.336H226.297V115H224.492ZM226.297 109.791H228.279C228.885 109.791 229.364 109.638 229.715 109.333C230.066 109.023 230.241 108.602 230.241 108.068C230.241 107.54 230.066 107.123 229.715 106.817C229.364 106.512 228.885 106.359 228.279 106.359H226.297V109.791Z" fill="#2563EB"/>
</g>
<g filter="url(#filter1_ddddi_245_594)">
<rect x="298" y="4" width="72" height="72" rx="36" fill="white" shape-rendering="crispEdges"/>
<path d="M315.406 45V34.8182H322.028V36.3643H317.25V39.1286H321.685V40.6747H317.25V43.4538H322.068V45H315.406ZM329.443 37.6172C329.397 37.183 329.201 36.8449 328.856 36.603C328.515 36.361 328.071 36.2401 327.524 36.2401C327.139 36.2401 326.81 36.2981 326.535 36.4141C326.259 36.5301 326.049 36.6875 325.903 36.8864C325.757 37.0852 325.683 37.3123 325.679 37.5675C325.679 37.7796 325.727 37.9635 325.824 38.1193C325.923 38.2751 326.057 38.4077 326.226 38.517C326.395 38.6231 326.583 38.7126 326.788 38.7855C326.994 38.8584 327.201 38.9197 327.41 38.9695L328.364 39.2081C328.749 39.2976 329.118 39.4186 329.473 39.571C329.831 39.7235 330.151 39.9157 330.432 40.1477C330.717 40.3797 330.943 40.6598 331.108 40.9879C331.274 41.3161 331.357 41.7005 331.357 42.1413C331.357 42.7379 331.205 43.2633 330.9 43.7173C330.595 44.1681 330.154 44.5211 329.577 44.7763C329.004 45.0282 328.309 45.1541 327.494 45.1541C326.702 45.1541 326.014 45.0315 325.431 44.7862C324.851 44.541 324.397 44.183 324.069 43.7124C323.744 43.2417 323.568 42.6683 323.542 41.9922H325.356C325.383 42.3468 325.492 42.6418 325.684 42.8771C325.877 43.1125 326.127 43.2881 326.435 43.4041C326.747 43.5201 327.095 43.5781 327.479 43.5781C327.88 43.5781 328.232 43.5185 328.533 43.3991C328.838 43.2765 329.077 43.1075 329.249 42.892C329.421 42.6733 329.509 42.4181 329.513 42.1264C329.509 41.8613 329.431 41.6425 329.279 41.4702C329.126 41.2945 328.913 41.1487 328.638 41.0327C328.366 40.9134 328.048 40.8073 327.683 40.7145L326.525 40.4162C325.686 40.2008 325.023 39.8743 324.536 39.4368C324.052 38.996 323.81 38.411 323.81 37.6818C323.81 37.0819 323.973 36.5566 324.297 36.1058C324.625 35.6551 325.071 35.3054 325.635 35.0568C326.198 34.8049 326.836 34.679 327.549 34.679C328.271 34.679 328.904 34.8049 329.448 35.0568C329.995 35.3054 330.424 35.6518 330.736 36.0959C331.047 36.5367 331.208 37.0438 331.218 37.6172H329.443ZM333.001 45V34.8182H336.82C337.602 34.8182 338.258 34.964 338.788 35.2557C339.322 35.5473 339.725 35.9484 339.996 36.4588C340.271 36.9659 340.409 37.5426 340.409 38.1889C340.409 38.8419 340.271 39.4219 339.996 39.929C339.721 40.4361 339.315 40.8355 338.778 41.1271C338.241 41.4155 337.58 41.5597 336.795 41.5597H334.264V40.0433H336.546C337.003 40.0433 337.378 39.9638 337.67 39.8047C337.961 39.6456 338.177 39.4268 338.316 39.1484C338.458 38.87 338.53 38.5502 338.53 38.1889C338.53 37.8277 338.458 37.5095 338.316 37.2344C338.177 36.9593 337.96 36.7455 337.665 36.593C337.373 36.4373 336.997 36.3594 336.536 36.3594H334.846V45H333.001ZM349.038 45.1392C348.323 45.1392 347.686 45.0166 347.129 44.7713C346.576 44.526 346.138 44.1847 345.817 43.7472C345.495 43.3097 345.325 42.8042 345.305 42.2308H347.174C347.191 42.5059 347.282 42.7462 347.448 42.9517C347.613 43.1539 347.834 43.3113 348.109 43.424C348.384 43.5367 348.692 43.593 349.033 43.593C349.398 43.593 349.721 43.5301 350.003 43.4041C350.285 43.2749 350.505 43.0959 350.664 42.8672C350.823 42.6385 350.901 42.375 350.898 42.0767C350.901 41.7685 350.822 41.4967 350.659 41.2614C350.497 41.026 350.261 40.8421 349.953 40.7095C349.648 40.5769 349.28 40.5107 348.85 40.5107H347.95V39.0888H348.85C349.204 39.0888 349.514 39.0275 349.779 38.9048C350.048 38.7822 350.258 38.6098 350.411 38.3878C350.563 38.1624 350.638 37.9022 350.634 37.6072C350.638 37.3189 350.573 37.0687 350.44 36.8565C350.311 36.6411 350.127 36.4737 349.889 36.3544C349.653 36.2351 349.377 36.1754 349.058 36.1754C348.747 36.1754 348.458 36.2318 348.193 36.3445C347.928 36.4571 347.714 36.6179 347.552 36.8267C347.39 37.0322 347.303 37.2775 347.293 37.5625H345.519C345.532 36.9924 345.696 36.492 346.011 36.0611C346.329 35.6269 346.753 35.2888 347.283 35.0469C347.814 34.8016 348.409 34.679 349.068 34.679C349.748 34.679 350.338 34.8066 350.838 35.0618C351.342 35.3137 351.731 35.6534 352.006 36.081C352.282 36.5085 352.419 36.9808 352.419 37.4979C352.422 38.0713 352.253 38.5518 351.912 38.9396C351.574 39.3274 351.13 39.581 350.58 39.7003V39.7798C351.296 39.8793 351.844 40.1444 352.225 40.5753C352.61 41.0028 352.8 41.5348 352.797 42.1712C352.797 42.7412 352.635 43.2517 352.31 43.7024C351.988 44.1499 351.544 44.5012 350.977 44.7564C350.414 45.0116 349.768 45.1392 349.038 45.1392Z" fill="black"/>
</g>
<g filter="url(#filter2_ddddi_245_594)">
<rect x="298" y="144" width="72" height="72" rx="36" fill="white" shape-rendering="crispEdges"/>
<path d="M315.303 185V174.818H321.925V176.364H317.148V179.129H321.582V180.675H317.148V183.454H321.965V185H315.303ZM329.34 177.617C329.294 177.183 329.098 176.845 328.754 176.603C328.412 176.361 327.968 176.24 327.421 176.24C327.037 176.24 326.707 176.298 326.432 176.414C326.157 176.53 325.946 176.687 325.801 176.886C325.655 177.085 325.58 177.312 325.577 177.567C325.577 177.78 325.625 177.964 325.721 178.119C325.82 178.275 325.955 178.408 326.124 178.517C326.293 178.623 326.48 178.713 326.686 178.786C326.891 178.858 327.098 178.92 327.307 178.969L328.262 179.208C328.646 179.298 329.016 179.419 329.37 179.571C329.728 179.723 330.048 179.916 330.33 180.148C330.615 180.38 330.84 180.66 331.006 180.988C331.172 181.316 331.254 181.701 331.254 182.141C331.254 182.738 331.102 183.263 330.797 183.717C330.492 184.168 330.051 184.521 329.475 184.776C328.901 185.028 328.207 185.154 327.392 185.154C326.599 185.154 325.912 185.031 325.328 184.786C324.748 184.541 324.294 184.183 323.966 183.712C323.641 183.242 323.466 182.668 323.439 181.992H325.254C325.28 182.347 325.39 182.642 325.582 182.877C325.774 183.112 326.024 183.288 326.333 183.404C326.644 183.52 326.992 183.578 327.377 183.578C327.778 183.578 328.129 183.518 328.431 183.399C328.735 183.277 328.974 183.107 329.146 182.892C329.319 182.673 329.407 182.418 329.41 182.126C329.407 181.861 329.329 181.643 329.176 181.47C329.024 181.295 328.81 181.149 328.535 181.033C328.263 180.913 327.945 180.807 327.58 180.714L326.422 180.416C325.584 180.201 324.921 179.874 324.433 179.437C323.95 178.996 323.708 178.411 323.708 177.682C323.708 177.082 323.87 176.557 324.195 176.106C324.523 175.655 324.969 175.305 325.532 175.057C326.096 174.805 326.734 174.679 327.446 174.679C328.169 174.679 328.802 174.805 329.345 175.057C329.892 175.305 330.321 175.652 330.633 176.096C330.945 176.537 331.105 177.044 331.115 177.617H329.34ZM332.899 185V174.818H336.717C337.499 174.818 338.155 174.964 338.686 175.256C339.219 175.547 339.622 175.948 339.894 176.459C340.169 176.966 340.306 177.543 340.306 178.189C340.306 178.842 340.169 179.422 339.894 179.929C339.619 180.436 339.213 180.835 338.676 181.127C338.139 181.415 337.478 181.56 336.692 181.56H334.162V180.043H336.444C336.901 180.043 337.275 179.964 337.567 179.805C337.859 179.646 338.074 179.427 338.213 179.148C338.356 178.87 338.427 178.55 338.427 178.189C338.427 177.828 338.356 177.509 338.213 177.234C338.074 176.959 337.857 176.746 337.562 176.593C337.27 176.437 336.894 176.359 336.434 176.359H334.743V185H332.899ZM345.098 183.111V181.644L349.418 174.818H350.641V176.906H349.895L346.987 181.515V181.594H353.018V183.111H345.098ZM349.955 185V182.663L349.975 182.007V174.818H351.715V185H349.955Z" fill="black"/>
</g>
<g filter="url(#filter3_ddddi_245_594)">
<rect x="7" y="4" width="72" height="72" rx="36" fill="white" shape-rendering="crispEdges"/>
<path d="M25.6019 45V34.8182H32.2241V36.3643H27.4464V39.1286H31.881V40.6747H27.4464V43.4538H32.2638V45H25.6019ZM39.6392 37.6172C39.5928 37.183 39.3973 36.8449 39.0526 36.603C38.7112 36.361 38.267 36.2401 37.7202 36.2401C37.3357 36.2401 37.0059 36.2981 36.7308 36.4141C36.4557 36.5301 36.2453 36.6875 36.0994 36.8864C35.9536 37.0852 35.879 37.3123 35.8757 37.5675C35.8757 37.7796 35.9238 37.9635 36.0199 38.1193C36.1193 38.2751 36.2536 38.4077 36.4226 38.517C36.5916 38.6231 36.7789 38.7126 36.9844 38.7855C37.1899 38.8584 37.397 38.9197 37.6058 38.9695L38.5604 39.2081C38.9448 39.2976 39.3144 39.4186 39.669 39.571C40.027 39.7235 40.3468 39.9157 40.6286 40.1477C40.9136 40.3797 41.139 40.6598 41.3047 40.9879C41.4704 41.3161 41.5533 41.7005 41.5533 42.1413C41.5533 42.7379 41.4008 43.2633 41.0959 43.7173C40.791 44.1681 40.3501 44.5211 39.7734 44.7763C39.2 45.0282 38.5057 45.1541 37.6903 45.1541C36.8982 45.1541 36.2105 45.0315 35.6271 44.7862C35.0471 44.541 34.593 44.183 34.2649 43.7124C33.9401 43.2417 33.7644 42.6683 33.7379 41.9922H35.5526C35.5791 42.3468 35.6884 42.6418 35.8807 42.8771C36.0729 43.1125 36.3232 43.2881 36.6314 43.4041C36.9429 43.5201 37.291 43.5781 37.6754 43.5781C38.0765 43.5781 38.4278 43.5185 38.7294 43.3991C39.0343 43.2765 39.273 43.1075 39.4453 42.892C39.6177 42.6733 39.7055 42.4181 39.7088 42.1264C39.7055 41.8613 39.6276 41.6425 39.4751 41.4702C39.3227 41.2945 39.1089 41.1487 38.8338 41.0327C38.562 40.9134 38.2438 40.8073 37.8793 40.7145L36.7209 40.4162C35.8823 40.2008 35.2195 39.8743 34.7322 39.4368C34.2483 38.996 34.0064 38.411 34.0064 37.6818C34.0064 37.0819 34.1688 36.5566 34.4936 36.1058C34.8217 35.6551 35.2675 35.3054 35.831 35.0568C36.3944 34.8049 37.0324 34.679 37.745 34.679C38.4676 34.679 39.1006 34.8049 39.6442 35.0568C40.1911 35.3054 40.6203 35.6518 40.9318 36.0959C41.2434 36.5367 41.4041 37.0438 41.4141 37.6172H39.6392ZM43.1976 45V34.8182H47.0158C47.798 34.8182 48.4542 34.964 48.9846 35.2557C49.5182 35.5473 49.9209 35.9484 50.1926 36.4588C50.4677 36.9659 50.6053 37.5426 50.6053 38.1889C50.6053 38.8419 50.4677 39.4219 50.1926 39.929C49.9176 40.4361 49.5115 40.8355 48.9746 41.1271C48.4377 41.4155 47.7765 41.5597 46.9909 41.5597H44.4604V40.0433H46.7424C47.1998 40.0433 47.5743 39.9638 47.8659 39.8047C48.1576 39.6456 48.373 39.4268 48.5123 39.1484C48.6548 38.87 48.726 38.5502 48.726 38.1889C48.726 37.8277 48.6548 37.5095 48.5123 37.2344C48.373 36.9593 48.156 36.7455 47.861 36.593C47.5693 36.4373 47.1931 36.3594 46.7324 36.3594H45.0421V45H43.1976ZM59.7219 34.8182V45H57.8775V36.6129H57.8178L55.4364 38.1342V36.4439L57.967 34.8182H59.7219Z" fill="black"/>
</g>
<g filter="url(#filter4_ddddi_245_594)">
<rect x="7" y="145" width="72" height="72" rx="36" fill="white" shape-rendering="crispEdges"/>
<path d="M24.6175 186V175.818H31.2397V177.364H26.462V180.129H30.8967V181.675H26.462V184.454H31.2795V186H24.6175ZM38.6548 178.617C38.6084 178.183 38.4129 177.845 38.0682 177.603C37.7268 177.361 37.2827 177.24 36.7358 177.24C36.3513 177.24 36.0215 177.298 35.7464 177.414C35.4714 177.53 35.2609 177.687 35.1151 177.886C34.9692 178.085 34.8946 178.312 34.8913 178.567C34.8913 178.78 34.9394 178.964 35.0355 179.119C35.1349 179.275 35.2692 179.408 35.4382 179.517C35.6072 179.623 35.7945 179.713 36 179.786C36.2055 179.858 36.4126 179.92 36.6214 179.969L37.576 180.208C37.9605 180.298 38.33 180.419 38.6847 180.571C39.0426 180.723 39.3625 180.916 39.6442 181.148C39.9292 181.38 40.1546 181.66 40.3203 181.988C40.486 182.316 40.5689 182.701 40.5689 183.141C40.5689 183.738 40.4164 184.263 40.1115 184.717C39.8066 185.168 39.3658 185.521 38.7891 185.776C38.2157 186.028 37.5213 186.154 36.706 186.154C35.9138 186.154 35.2261 186.031 34.6428 185.786C34.0627 185.541 33.6087 185.183 33.2805 184.712C32.9557 184.242 32.7801 183.668 32.7536 182.992H34.5682C34.5947 183.347 34.7041 183.642 34.8963 183.877C35.0885 184.112 35.3388 184.288 35.647 184.404C35.9586 184.52 36.3066 184.578 36.6911 184.578C37.0921 184.578 37.4434 184.518 37.745 184.399C38.05 184.277 38.2886 184.107 38.4609 183.892C38.6333 183.673 38.7211 183.418 38.7244 183.126C38.7211 182.861 38.6432 182.643 38.4908 182.47C38.3383 182.295 38.1245 182.149 37.8494 182.033C37.5777 181.913 37.2595 181.807 36.8949 181.714L35.7365 181.416C34.898 181.201 34.2351 180.874 33.7479 180.437C33.264 179.996 33.022 179.411 33.022 178.682C33.022 178.082 33.1844 177.557 33.5092 177.106C33.8374 176.655 34.2831 176.305 34.8466 176.057C35.41 175.805 36.0481 175.679 36.7607 175.679C37.4832 175.679 38.1162 175.805 38.6598 176.057C39.2067 176.305 39.6359 176.652 39.9474 177.096C40.259 177.537 40.4197 178.044 40.4297 178.617H38.6548ZM42.2132 186V175.818H46.0314C46.8136 175.818 47.4699 175.964 48.0002 176.256C48.5338 176.547 48.9365 176.948 49.2083 177.459C49.4834 177.966 49.6209 178.543 49.6209 179.189C49.6209 179.842 49.4834 180.422 49.2083 180.929C48.9332 181.436 48.5272 181.835 47.9902 182.127C47.4533 182.415 46.7921 182.56 46.0066 182.56H43.476V181.043H45.758C46.2154 181.043 46.5899 180.964 46.8816 180.805C47.1732 180.646 47.3887 180.427 47.5279 180.148C47.6704 179.87 47.7417 179.55 47.7417 179.189C47.7417 178.828 47.6704 178.509 47.5279 178.234C47.3887 177.959 47.1716 177.746 46.8766 177.593C46.5849 177.437 46.2087 177.359 45.748 177.359H44.0577V186H42.2132ZM54.5962 186V184.668L58.131 181.202C58.4691 180.861 58.7508 180.558 58.9762 180.293C59.2016 180.027 59.3706 179.771 59.4833 179.522C59.596 179.273 59.6523 179.008 59.6523 178.727C59.6523 178.405 59.5794 178.13 59.4336 177.901C59.2878 177.669 59.0872 177.49 58.832 177.364C58.5768 177.238 58.2868 177.175 57.962 177.175C57.6272 177.175 57.3339 177.245 57.082 177.384C56.8301 177.52 56.6346 177.714 56.4954 177.966C56.3595 178.218 56.2915 178.518 56.2915 178.866H54.5366C54.5366 178.219 54.6841 177.658 54.979 177.18C55.274 176.703 55.68 176.334 56.1971 176.072C56.7174 175.81 57.314 175.679 57.9869 175.679C58.6696 175.679 59.2695 175.807 59.7866 176.062C60.3036 176.317 60.7047 176.667 60.9897 177.111C61.2781 177.555 61.4222 178.062 61.4222 178.632C61.4222 179.013 61.3493 179.388 61.2035 179.756C61.0576 180.124 60.8008 180.531 60.4329 180.979C60.0683 181.426 59.5562 181.968 58.8967 182.604L57.1417 184.389V184.459H61.5763V186H54.5962Z" fill="black"/>
</g>
<line x1="263.858" y1="78.5205" x2="307.858" y2="65.5205" stroke="#1F2129" stroke-opacity="0.2" stroke-dasharray="2 2"/>
<line x1="261.142" y1="144.52" x2="305.142" y2="157.52" stroke="#1F2129" stroke-opacity="0.2" stroke-dasharray="2 2"/>
<line x1="69.1417" y1="65.5205" x2="113.142" y2="78.5205" stroke="#1F2129" stroke-opacity="0.2" stroke-dasharray="2 2"/>
<line x1="68.8583" y1="154.52" x2="112.858" y2="141.521" stroke="#1F2129" stroke-opacity="0.2" stroke-dasharray="2 2"/>
<defs>
<filter id="filter0_ddddi_245_594" x="103.5" y="71.8333" width="168.999" height="83" filterUnits="userSpaceOnUse" color-interpolation-filters="sRGB">
<feFlood flood-opacity="0" result="BackgroundImageFix"/>
<feColorMatrix in="SourceAlpha" type="matrix" values="0 0 0 0 0 0 0 0 0 0 0 0 0 0 0 0 0 0 127 0" result="hardAlpha"/>
<feMorphology radius="0.833333" operator="dilate" in="SourceAlpha" result="effect1_dropShadow_245_594"/>
<feOffset/>
<feComposite in2="hardAlpha" operator="out"/>
<feColorMatrix type="matrix" values="0 0 0 0 0.160784 0 0 0 0 0.160784 0 0 0 0 0.160784 0 0 0 0.08 0"/>
<feBlend mode="normal" in2="BackgroundImageFix" result="effect1_dropShadow_245_594"/>
<feColorMatrix in="SourceAlpha" type="matrix" values="0 0 0 0 0 0 0 0 0 0 0 0 0 0 0 0 0 0 127 0" result="hardAlpha"/>
<feOffset dy="0.833333"/>
<feGaussianBlur stdDeviation="0.833333"/>
<feComposite in2="hardAlpha" operator="out"/>
<feColorMatrix type="matrix" values="0 0 0 0 0.160784 0 0 0 0 0.160784 0 0 0 0 0.160784 0 0 0 0.04 0"/>
<feBlend mode="normal" in2="effect1_dropShadow_245_594" result="effect2_dropShadow_245_594"/>
<feColorMatrix in="SourceAlpha" type="matrix" values="0 0 0 0 0 0 0 0 0 0 0 0 0 0 0 0 0 0 127 0" result="hardAlpha"/>
<feOffset dy="1.66667"/>
<feGaussianBlur stdDeviation="1.66667"/>
<feComposite in2="hardAlpha" operator="out"/>
<feColorMatrix type="matrix" values="0 0 0 0 0.160784 0 0 0 0 0.160784 0 0 0 0 0.160784 0 0 0 0.04 0"/>
<feBlend mode="normal" in2="effect2_dropShadow_245_594" result="effect3_dropShadow_245_594"/>
<feColorMatrix in="SourceAlpha" type="matrix" values="0 0 0 0 0 0 0 0 0 0 0 0 0 0 0 0 0 0 127 0" result="hardAlpha"/>
<feOffset dy="3.33333"/>
<feGaussianBlur stdDeviation="3.33333"/>
<feComposite in2="hardAlpha" operator="out"/>
<feColorMatrix type="matrix" values="0 0 0 0 0.160784 0 0 0 0 0.160784 0 0 0 0 0.160784 0 0 0 0.06 0"/>
<feBlend mode="normal" in2="effect3_dropShadow_245_594" result="effect4_dropShadow_245_594"/>
<feBlend mode="normal" in="SourceGraphic" in2="effect4_dropShadow_245_594" result="shape"/>
<feColorMatrix in="SourceAlpha" type="matrix" values="0 0 0 0 0 0 0 0 0 0 0 0 0 0 0 0 0 0 127 0" result="hardAlpha"/>
<feOffset dy="-0.416667"/>
<feGaussianBlur stdDeviation="0.208333"/>
<feComposite in2="hardAlpha" operator="arithmetic" k2="-1" k3="1"/>
<feColorMatrix type="matrix" values="0 0 0 0 0.160784 0 0 0 0 0.160784 0 0 0 0 0.160784 0 0 0 0.08 0"/>
<feBlend mode="normal" in2="shape" result="effect5_innerShadow_245_594"/>
</filter>
<filter id="filter1_ddddi_245_594" x="291.333" y="0.666667" width="85.3333" height="85.3333" filterUnits="userSpaceOnUse" color-interpolation-filters="sRGB">
<feFlood flood-opacity="0" result="BackgroundImageFix"/>
<feColorMatrix in="SourceAlpha" type="matrix" values="0 0 0 0 0 0 0 0 0 0 0 0 0 0 0 0 0 0 127 0" result="hardAlpha"/>
<feMorphology radius="0.833333" operator="dilate" in="SourceAlpha" result="effect1_dropShadow_245_594"/>
<feOffset/>
<feComposite in2="hardAlpha" operator="out"/>
<feColorMatrix type="matrix" values="0 0 0 0 0.160784 0 0 0 0 0.160784 0 0 0 0 0.160784 0 0 0 0.08 0"/>
<feBlend mode="normal" in2="BackgroundImageFix" result="effect1_dropShadow_245_594"/>
<feColorMatrix in="SourceAlpha" type="matrix" values="0 0 0 0 0 0 0 0 0 0 0 0 0 0 0 0 0 0 127 0" result="hardAlpha"/>
<feOffset dy="0.833333"/>
<feGaussianBlur stdDeviation="0.833333"/>
<feComposite in2="hardAlpha" operator="out"/>
<feColorMatrix type="matrix" values="0 0 0 0 0.160784 0 0 0 0 0.160784 0 0 0 0 0.160784 0 0 0 0.04 0"/>
<feBlend mode="normal" in2="effect1_dropShadow_245_594" result="effect2_dropShadow_245_594"/>
<feColorMatrix in="SourceAlpha" type="matrix" values="0 0 0 0 0 0 0 0 0 0 0 0 0 0 0 0 0 0 127 0" result="hardAlpha"/>
<feOffset dy="1.66667"/>
<feGaussianBlur stdDeviation="1.66667"/>
<feComposite in2="hardAlpha" operator="out"/>
<feColorMatrix type="matrix" values="0 0 0 0 0.160784 0 0 0 0 0.160784 0 0 0 0 0.160784 0 0 0 0.04 0"/>
<feBlend mode="normal" in2="effect2_dropShadow_245_594" result="effect3_dropShadow_245_594"/>
<feColorMatrix in="SourceAlpha" type="matrix" values="0 0 0 0 0 0 0 0 0 0 0 0 0 0 0 0 0 0 127 0" result="hardAlpha"/>
<feOffset dy="3.33333"/>
<feGaussianBlur stdDeviation="3.33333"/>
<feComposite in2="hardAlpha" operator="out"/>
<feColorMatrix type="matrix" values="0 0 0 0 0.160784 0 0 0 0 0.160784 0 0 0 0 0.160784 0 0 0 0.06 0"/>
<feBlend mode="normal" in2="effect3_dropShadow_245_594" result="effect4_dropShadow_245_594"/>
<feBlend mode="normal" in="SourceGraphic" in2="effect4_dropShadow_245_594" result="shape"/>
<feColorMatrix in="SourceAlpha" type="matrix" values="0 0 0 0 0 0 0 0 0 0 0 0 0 0 0 0 0 0 127 0" result="hardAlpha"/>
<feOffset dy="-0.416667"/>
<feGaussianBlur stdDeviation="0.208333"/>
<feComposite in2="hardAlpha" operator="arithmetic" k2="-1" k3="1"/>
<feColorMatrix type="matrix" values="0 0 0 0 0.160784 0 0 0 0 0.160784 0 0 0 0 0.160784 0 0 0 0.08 0"/>
<feBlend mode="normal" in2="shape" result="effect5_innerShadow_245_594"/>
</filter>
<filter id="filter2_ddddi_245_594" x="291.333" y="140.667" width="85.3333" height="85.3333" filterUnits="userSpaceOnUse" color-interpolation-filters="sRGB">
<feFlood flood-opacity="0" result="BackgroundImageFix"/>
<feColorMatrix in="SourceAlpha" type="matrix" values="0 0 0 0 0 0 0 0 0 0 0 0 0 0 0 0 0 0 127 0" result="hardAlpha"/>
<feMorphology radius="0.833333" operator="dilate" in="SourceAlpha" result="effect1_dropShadow_245_594"/>
<feOffset/>
<feComposite in2="hardAlpha" operator="out"/>
<feColorMatrix type="matrix" values="0 0 0 0 0.160784 0 0 0 0 0.160784 0 0 0 0 0.160784 0 0 0 0.08 0"/>
<feBlend mode="normal" in2="BackgroundImageFix" result="effect1_dropShadow_245_594"/>
<feColorMatrix in="SourceAlpha" type="matrix" values="0 0 0 0 0 0 0 0 0 0 0 0 0 0 0 0 0 0 127 0" result="hardAlpha"/>
<feOffset dy="0.833333"/>
<feGaussianBlur stdDeviation="0.833333"/>
<feComposite in2="hardAlpha" operator="out"/>
<feColorMatrix type="matrix" values="0 0 0 0 0.160784 0 0 0 0 0.160784 0 0 0 0 0.160784 0 0 0 0.04 0"/>
<feBlend mode="normal" in2="effect1_dropShadow_245_594" result="effect2_dropShadow_245_594"/>
<feColorMatrix in="SourceAlpha" type="matrix" values="0 0 0 0 0 0 0 0 0 0 0 0 0 0 0 0 0 0 127 0" result="hardAlpha"/>
<feOffset dy="1.66667"/>
<feGaussianBlur stdDeviation="1.66667"/>
<feComposite in2="hardAlpha" operator="out"/>
<feColorMatrix type="matrix" values="0 0 0 0 0.160784 0 0 0 0 0.160784 0 0 0 0 0.160784 0 0 0 0.04 0"/>
<feBlend mode="normal" in2="effect2_dropShadow_245_594" result="effect3_dropShadow_245_594"/>
<feColorMatrix in="SourceAlpha" type="matrix" values="0 0 0 0 0 0 0 0 0 0 0 0 0 0 0 0 0 0 127 0" result="hardAlpha"/>
<feOffset dy="3.33333"/>
<feGaussianBlur stdDeviation="3.33333"/>
<feComposite in2="hardAlpha" operator="out"/>
<feColorMatrix type="matrix" values="0 0 0 0 0.160784 0 0 0 0 0.160784 0 0 0 0 0.160784 0 0 0 0.06 0"/>
<feBlend mode="normal" in2="effect3_dropShadow_245_594" result="effect4_dropShadow_245_594"/>
<feBlend mode="normal" in="SourceGraphic" in2="effect4_dropShadow_245_594" result="shape"/>
<feColorMatrix in="SourceAlpha" type="matrix" values="0 0 0 0 0 0 0 0 0 0 0 0 0 0 0 0 0 0 127 0" result="hardAlpha"/>
<feOffset dy="-0.416667"/>
<feGaussianBlur stdDeviation="0.208333"/>
<feComposite in2="hardAlpha" operator="arithmetic" k2="-1" k3="1"/>
<feColorMatrix type="matrix" values="0 0 0 0 0.160784 0 0 0 0 0.160784 0 0 0 0 0.160784 0 0 0 0.08 0"/>
<feBlend mode="normal" in2="shape" result="effect5_innerShadow_245_594"/>
</filter>
<filter id="filter3_ddddi_245_594" x="0.333333" y="0.666667" width="85.3333" height="85.3333" filterUnits="userSpaceOnUse" color-interpolation-filters="sRGB">
<feFlood flood-opacity="0" result="BackgroundImageFix"/>
<feColorMatrix in="SourceAlpha" type="matrix" values="0 0 0 0 0 0 0 0 0 0 0 0 0 0 0 0 0 0 127 0" result="hardAlpha"/>
<feMorphology radius="0.833333" operator="dilate" in="SourceAlpha" result="effect1_dropShadow_245_594"/>
<feOffset/>
<feComposite in2="hardAlpha" operator="out"/>
<feColorMatrix type="matrix" values="0 0 0 0 0.160784 0 0 0 0 0.160784 0 0 0 0 0.160784 0 0 0 0.08 0"/>
<feBlend mode="normal" in2="BackgroundImageFix" result="effect1_dropShadow_245_594"/>
<feColorMatrix in="SourceAlpha" type="matrix" values="0 0 0 0 0 0 0 0 0 0 0 0 0 0 0 0 0 0 127 0" result="hardAlpha"/>
<feOffset dy="0.833333"/>
<feGaussianBlur stdDeviation="0.833333"/>
<feComposite in2="hardAlpha" operator="out"/>
<feColorMatrix type="matrix" values="0 0 0 0 0.160784 0 0 0 0 0.160784 0 0 0 0 0.160784 0 0 0 0.04 0"/>
<feBlend mode="normal" in2="effect1_dropShadow_245_594" result="effect2_dropShadow_245_594"/>
<feColorMatrix in="SourceAlpha" type="matrix" values="0 0 0 0 0 0 0 0 0 0 0 0 0 0 0 0 0 0 127 0" result="hardAlpha"/>
<feOffset dy="1.66667"/>
<feGaussianBlur stdDeviation="1.66667"/>
<feComposite in2="hardAlpha" operator="out"/>
<feColorMatrix type="matrix" values="0 0 0 0 0.160784 0 0 0 0 0.160784 0 0 0 0 0.160784 0 0 0 0.04 0"/>
<feBlend mode="normal" in2="effect2_dropShadow_245_594" result="effect3_dropShadow_245_594"/>
<feColorMatrix in="SourceAlpha" type="matrix" values="0 0 0 0 0 0 0 0 0 0 0 0 0 0 0 0 0 0 127 0" result="hardAlpha"/>
<feOffset dy="3.33333"/>
<feGaussianBlur stdDeviation="3.33333"/>
<feComposite in2="hardAlpha" operator="out"/>
<feColorMatrix type="matrix" values="0 0 0 0 0.160784 0 0 0 0 0.160784 0 0 0 0 0.160784 0 0 0 0.06 0"/>
<feBlend mode="normal" in2="effect3_dropShadow_245_594" result="effect4_dropShadow_245_594"/>
<feBlend mode="normal" in="SourceGraphic" in2="effect4_dropShadow_245_594" result="shape"/>
<feColorMatrix in="SourceAlpha" type="matrix" values="0 0 0 0 0 0 0 0 0 0 0 0 0 0 0 0 0 0 127 0" result="hardAlpha"/>
<feOffset dy="-0.416667"/>
<feGaussianBlur stdDeviation="0.208333"/>
<feComposite in2="hardAlpha" operator="arithmetic" k2="-1" k3="1"/>
<feColorMatrix type="matrix" values="0 0 0 0 0.160784 0 0 0 0 0.160784 0 0 0 0 0.160784 0 0 0 0.08 0"/>
<feBlend mode="normal" in2="shape" result="effect5_innerShadow_245_594"/>
</filter>
<filter id="filter4_ddddi_245_594" x="0.333333" y="141.667" width="85.3333" height="85.3333" filterUnits="userSpaceOnUse" color-interpolation-filters="sRGB">
<feFlood flood-opacity="0" result="BackgroundImageFix"/>
<feColorMatrix in="SourceAlpha" type="matrix" values="0 0 0 0 0 0 0 0 0 0 0 0 0 0 0 0 0 0 127 0" result="hardAlpha"/>
<feMorphology radius="0.833333" operator="dilate" in="SourceAlpha" result="effect1_dropShadow_245_594"/>
<feOffset/>
<feComposite in2="hardAlpha" operator="out"/>
<feColorMatrix type="matrix" values="0 0 0 0 0.160784 0 0 0 0 0.160784 0 0 0 0 0.160784 0 0 0 0.08 0"/>
<feBlend mode="normal" in2="BackgroundImageFix" result="effect1_dropShadow_245_594"/>
<feColorMatrix in="SourceAlpha" type="matrix" values="0 0 0 0 0 0 0 0 0 0 0 0 0 0 0 0 0 0 127 0" result="hardAlpha"/>
<feOffset dy="0.833333"/>
<feGaussianBlur stdDeviation="0.833333"/>
<feComposite in2="hardAlpha" operator="out"/>
<feColorMatrix type="matrix" values="0 0 0 0 0.160784 0 0 0 0 0.160784 0 0 0 0 0.160784 0 0 0 0.04 0"/>
<feBlend mode="normal" in2="effect1_dropShadow_245_594" result="effect2_dropShadow_245_594"/>
<feColorMatrix in="SourceAlpha" type="matrix" values="0 0 0 0 0 0 0 0 0 0 0 0 0 0 0 0 0 0 127 0" result="hardAlpha"/>
<feOffset dy="1.66667"/>
<feGaussianBlur stdDeviation="1.66667"/>
<feComposite in2="hardAlpha" operator="out"/>
<feColorMatrix type="matrix" values="0 0 0 0 0.160784 0 0 0 0 0.160784 0 0 0 0 0.160784 0 0 0 0.04 0"/>
<feBlend mode="normal" in2="effect2_dropShadow_245_594" result="effect3_dropShadow_245_594"/>
<feColorMatrix in="SourceAlpha" type="matrix" values="0 0 0 0 0 0 0 0 0 0 0 0 0 0 0 0 0 0 127 0" result="hardAlpha"/>
<feOffset dy="3.33333"/>
<feGaussianBlur stdDeviation="3.33333"/>
<feComposite in2="hardAlpha" operator="out"/>
<feColorMatrix type="matrix" values="0 0 0 0 0.160784 0 0 0 0 0.160784 0 0 0 0 0.160784 0 0 0 0.06 0"/>
<feBlend mode="normal" in2="effect3_dropShadow_245_594" result="effect4_dropShadow_245_594"/>
<feBlend mode="normal" in="SourceGraphic" in2="effect4_dropShadow_245_594" result="shape"/>
<feColorMatrix in="SourceAlpha" type="matrix" values="0 0 0 0 0 0 0 0 0 0 0 0 0 0 0 0 0 0 127 0" result="hardAlpha"/>
<feOffset dy="-0.416667"/>
<feGaussianBlur stdDeviation="0.208333"/>
<feComposite in2="hardAlpha" operator="arithmetic" k2="-1" k3="1"/>
<feColorMatrix type="matrix" values="0 0 0 0 0.160784 0 0 0 0 0.160784 0 0 0 0 0.160784 0 0 0 0.08 0"/>
<feBlend mode="normal" in2="shape" result="effect5_innerShadow_245_594"/>
</filter>
</defs>
</svg>
