<svg width="619" height="209" viewBox="0 0 619 209" fill="none" xmlns="http://www.w3.org/2000/svg">
<g filter="url(#filter0_ddddi_245_564)">
<rect x="7" y="4" width="177" height="195" rx="10" fill="white"/>
<path fill-rule="evenodd" clip-rule="evenodd" d="M90.745 30H100.255C101.414 30 101.993 30 102.461 30.1626C103.347 30.471 104.043 31.1872 104.342 32.0995C104.5 32.5806 104.5 33.1771 104.5 34.3701V48.3742C104.5 49.2325 103.515 49.6878 102.892 49.1176C102.526 48.7827 101.974 48.7827 101.608 49.1176L101.125 49.5597C100.483 50.1468 99.5166 50.1468 98.875 49.5597C98.2334 48.9726 97.2666 48.9726 96.625 49.5597C95.9834 50.1468 95.0166 50.1468 94.375 49.5597C93.7334 48.9726 92.7666 48.9726 92.125 49.5597C91.4834 50.1468 90.5166 50.1468 89.875 49.5597L89.3919 49.1176C89.0258 48.7827 88.4742 48.7827 88.1081 49.1176C87.485 49.6878 86.5 49.2325 86.5 48.3742V34.3701C86.5 33.1771 86.5 32.5806 86.658 32.0995C86.9575 31.1872 87.6532 30.471 88.5394 30.1626C89.0067 30 89.5861 30 90.745 30ZM90.5 34.75C90.0858 34.75 89.75 35.0858 89.75 35.5C89.75 35.9142 90.0858 36.25 90.5 36.25H91C91.4142 36.25 91.75 35.9142 91.75 35.5C91.75 35.0858 91.4142 34.75 91 34.75H90.5ZM94 34.75C93.5858 34.75 93.25 35.0858 93.25 35.5C93.25 35.9142 93.5858 36.25 94 36.25H100.5C100.914 36.25 101.25 35.9142 101.25 35.5C101.25 35.0858 100.914 34.75 100.5 34.75H94ZM90.5 38.25C90.0858 38.25 89.75 38.5858 89.75 39C89.75 39.4142 90.0858 39.75 90.5 39.75H91C91.4142 39.75 91.75 39.4142 91.75 39C91.75 38.5858 91.4142 38.25 91 38.25H90.5ZM94 38.25C93.5858 38.25 93.25 38.5858 93.25 39C93.25 39.4142 93.5858 39.75 94 39.75H100.5C100.914 39.75 101.25 39.4142 101.25 39C101.25 38.5858 100.914 38.25 100.5 38.25H94ZM90.5 41.75C90.0858 41.75 89.75 42.0858 89.75 42.5C89.75 42.9142 90.0858 43.25 90.5 43.25H91C91.4142 43.25 91.75 42.9142 91.75 42.5C91.75 42.0858 91.4142 41.75 91 41.75H90.5ZM94 41.75C93.5858 41.75 93.25 42.0858 93.25 42.5C93.25 42.9142 93.5858 43.25 94 43.25H100.5C100.914 43.25 101.25 42.9142 101.25 42.5C101.25 42.0858 100.914 41.75 100.5 41.75H94Z" fill="#2563EB"/>
<g opacity="0.1">
<rect x="31" y="68" width="105" height="8" rx="4" fill="#2563EB"/>
</g>
<g opacity="0.1">
<rect x="31" y="92" width="129" height="8" rx="4" fill="#2563EB"/>
</g>
<g opacity="0.1">
<rect x="31" y="116" width="129" height="8" rx="4" fill="#2563EB"/>
</g>
<path d="M50.7794 171V159.359H55.2247C56.0789 159.359 56.8158 159.51 57.4356 159.812C58.0606 160.115 58.5398 160.544 58.8731 161.102C59.2117 161.659 59.3809 162.318 59.3809 163.078C59.3809 163.844 59.2091 164.505 58.8653 165.062C58.5216 165.62 58.0346 166.052 57.4044 166.359C56.7794 166.661 56.0398 166.812 55.1856 166.812H52.8419V171H50.7794ZM52.8419 165.047H55.1075C55.8002 165.047 56.3471 164.872 56.7481 164.523C57.1492 164.169 57.3497 163.688 57.3497 163.078C57.3497 162.474 57.1492 161.997 56.7481 161.648C56.3471 161.299 55.8002 161.125 55.1075 161.125H52.8419V165.047ZM60.2562 171V162.75H62.1547V164.117H62.1781C62.3292 163.648 62.5661 163.292 62.8891 163.047C63.2172 162.797 63.6469 162.672 64.1781 162.672C64.3135 162.672 64.4333 162.677 64.5375 162.688C64.6469 162.693 64.7406 162.698 64.8187 162.703V164.453C64.7458 164.443 64.6208 164.43 64.4437 164.414C64.2667 164.398 64.0818 164.391 63.8891 164.391C63.4203 164.391 63.0245 164.552 62.7016 164.875C62.3839 165.198 62.225 165.682 62.225 166.328V171H60.2562ZM69.2175 171.188C68.405 171.188 67.6941 171.008 67.0847 170.648C66.4753 170.284 65.9987 169.779 65.655 169.133C65.3165 168.487 65.1472 167.737 65.1472 166.883C65.1472 166.029 65.3165 165.279 65.655 164.633C65.9987 163.982 66.4753 163.474 67.0847 163.109C67.6941 162.745 68.405 162.562 69.2175 162.562C70.0248 162.562 70.7331 162.745 71.3425 163.109C71.9571 163.474 72.4336 163.982 72.7722 164.633C73.1159 165.279 73.2878 166.029 73.2878 166.883C73.2878 167.737 73.1159 168.487 72.7722 169.133C72.4336 169.779 71.9571 170.284 71.3425 170.648C70.7331 171.008 70.0248 171.188 69.2175 171.188ZM69.2175 169.539C69.8477 169.539 70.3503 169.302 70.7253 168.828C71.1003 168.354 71.2878 167.706 71.2878 166.883C71.2878 166.06 71.1003 165.409 70.7253 164.93C70.3503 164.451 69.8477 164.211 69.2175 164.211C68.5821 164.211 68.0769 164.451 67.7019 164.93C67.3269 165.404 67.1394 166.055 67.1394 166.883C67.1394 167.706 67.3269 168.354 67.7019 168.828C68.0769 169.302 68.5821 169.539 69.2175 169.539ZM77.5694 171.195C76.5642 171.195 75.723 170.961 75.0459 170.492C74.3741 170.018 74.0069 169.339 73.9444 168.453H75.8897C75.9314 168.854 76.0928 169.167 76.3741 169.391C76.6553 169.609 77.0433 169.719 77.5381 169.719C78.0121 169.719 78.3845 169.625 78.6553 169.438C78.9314 169.25 79.0694 169.01 79.0694 168.719C79.0694 168.469 78.9678 168.268 78.7647 168.117C78.5616 167.966 78.2881 167.854 77.9444 167.781L76.5381 167.492C74.934 167.159 74.1319 166.365 74.1319 165.109C74.1319 164.349 74.434 163.737 75.0381 163.273C75.6423 162.805 76.447 162.57 77.4522 162.57C78.4522 162.57 79.2647 162.818 79.8897 163.312C80.5199 163.802 80.8454 164.471 80.8662 165.32H79.0147C79.0043 164.951 78.861 164.646 78.585 164.406C78.309 164.167 77.947 164.047 77.4991 164.047C77.0668 164.047 76.7256 164.143 76.4756 164.336C76.2256 164.529 76.1006 164.766 76.1006 165.047C76.1006 165.292 76.197 165.492 76.3897 165.648C76.5824 165.799 76.8506 165.914 77.1944 165.992L78.6787 166.297C79.4965 166.469 80.098 166.74 80.4834 167.109C80.8741 167.479 81.0694 167.966 81.0694 168.57C81.0694 169.107 80.9183 169.573 80.6162 169.969C80.3194 170.359 79.9079 170.661 79.3819 170.875C78.8558 171.089 78.2517 171.195 77.5694 171.195ZM82.0931 174.266V162.75H84.0306V163.898H84.0541C84.3145 163.461 84.6634 163.133 85.1009 162.914C85.5384 162.695 86.0228 162.586 86.5541 162.586C87.2624 162.586 87.8822 162.768 88.4134 163.133C88.9499 163.492 89.3666 163.995 89.6634 164.641C89.9655 165.281 90.1166 166.023 90.1166 166.867C90.1166 167.727 89.9681 168.479 89.6712 169.125C89.3796 169.766 88.9655 170.266 88.4291 170.625C87.8926 170.984 87.265 171.164 86.5462 171.164C86.0046 171.164 85.5228 171.047 85.1009 170.812C84.6843 170.578 84.3457 170.227 84.0853 169.758H84.0619V174.266H82.0931ZM86.0853 169.516C86.6947 169.516 87.1869 169.289 87.5619 168.836C87.9369 168.378 88.1244 167.721 88.1244 166.867C88.1244 166.018 87.9369 165.365 87.5619 164.906C87.1869 164.448 86.6947 164.219 86.0853 164.219C85.4395 164.219 84.9212 164.461 84.5306 164.945C84.1452 165.424 83.9525 166.065 83.9525 166.867C83.9525 167.669 84.1452 168.312 84.5306 168.797C84.9212 169.276 85.4395 169.516 86.0853 169.516ZM94.8044 171.188C93.9815 171.188 93.2679 171.003 92.6637 170.633C92.0596 170.263 91.5934 169.755 91.2653 169.109C90.9424 168.458 90.7809 167.716 90.7809 166.883C90.7809 166.044 90.9476 165.302 91.2809 164.656C91.6195 164.005 92.0856 163.495 92.6794 163.125C93.2731 162.75 93.9554 162.562 94.7262 162.562C95.5179 162.562 96.2106 162.745 96.8044 163.109C97.3981 163.474 97.8591 163.979 98.1872 164.625C98.5153 165.266 98.6794 166.008 98.6794 166.852V167.391H92.7106C92.7367 168.062 92.9346 168.604 93.3044 169.016C93.6742 169.427 94.1898 169.633 94.8512 169.633C95.346 169.633 95.7549 169.526 96.0778 169.312C96.4007 169.094 96.6195 168.807 96.7341 168.453H98.5778C98.4736 168.99 98.2445 169.464 97.8903 169.875C97.5414 170.286 97.1012 170.609 96.57 170.844C96.0387 171.073 95.4502 171.188 94.8044 171.188ZM92.7262 166.031H96.7887C96.7262 165.443 96.5127 164.979 96.1481 164.641C95.7887 164.297 95.3252 164.125 94.7575 164.125C94.1846 164.125 93.7184 164.297 93.3591 164.641C93.0049 164.979 92.794 165.443 92.7262 166.031ZM103.352 171.188C102.549 171.188 101.844 171.005 101.234 170.641C100.63 170.276 100.159 169.771 99.8203 169.125C99.487 168.479 99.3203 167.732 99.3203 166.883C99.3203 166.034 99.487 165.286 99.8203 164.641C100.159 163.99 100.63 163.482 101.234 163.117C101.844 162.747 102.549 162.562 103.352 162.562C104.044 162.562 104.661 162.698 105.203 162.969C105.745 163.234 106.18 163.604 106.508 164.078C106.841 164.547 107.036 165.089 107.094 165.703H105.164C105.091 165.26 104.901 164.901 104.594 164.625C104.292 164.344 103.885 164.203 103.375 164.203C102.729 164.203 102.224 164.445 101.859 164.93C101.495 165.414 101.312 166.065 101.312 166.883C101.312 167.695 101.495 168.344 101.859 168.828C102.224 169.307 102.729 169.547 103.375 169.547C103.891 169.547 104.292 169.411 104.578 169.141C104.865 168.865 105.055 168.497 105.148 168.039H107.094C107.047 168.643 106.857 169.182 106.523 169.656C106.195 170.13 105.758 170.505 105.211 170.781C104.669 171.052 104.049 171.188 103.352 171.188ZM112.453 162.75V164.336H110.774V168.633C110.774 168.93 110.834 169.135 110.953 169.25C111.073 169.359 111.292 169.414 111.61 169.414H112.453V171H111.266C110.427 171 109.805 170.831 109.399 170.492C108.998 170.154 108.797 169.63 108.797 168.922V164.336H107.36V162.75H108.797V160.5H110.774V162.75H112.453ZM116.774 171V159.359H118.837V169.211H124.235V171H116.774ZM125.158 171V162.75H127.126V171H125.158ZM126.142 161.523C125.803 161.523 125.522 161.417 125.298 161.203C125.074 160.984 124.962 160.716 124.962 160.398C124.962 160.081 125.074 159.815 125.298 159.602C125.522 159.388 125.803 159.281 126.142 159.281C126.475 159.281 126.754 159.388 126.978 159.602C127.202 159.815 127.314 160.081 127.314 160.398C127.314 160.716 127.202 160.984 126.978 161.203C126.754 161.417 126.475 161.523 126.142 161.523ZM131.791 171.195C130.785 171.195 129.944 170.961 129.267 170.492C128.595 170.018 128.228 169.339 128.166 168.453H130.111C130.153 168.854 130.314 169.167 130.595 169.391C130.877 169.609 131.265 169.719 131.759 169.719C132.233 169.719 132.606 169.625 132.877 169.438C133.153 169.25 133.291 169.01 133.291 168.719C133.291 168.469 133.189 168.268 132.986 168.117C132.783 167.966 132.509 167.854 132.166 167.781L130.759 167.492C129.155 167.159 128.353 166.365 128.353 165.109C128.353 164.349 128.655 163.737 129.259 163.273C129.864 162.805 130.668 162.57 131.673 162.57C132.673 162.57 133.486 162.818 134.111 163.312C134.741 163.802 135.067 164.471 135.088 165.32H133.236C133.226 164.951 133.082 164.646 132.806 164.406C132.53 164.167 132.168 164.047 131.72 164.047C131.288 164.047 130.947 164.143 130.697 164.336C130.447 164.529 130.322 164.766 130.322 165.047C130.322 165.292 130.418 165.492 130.611 165.648C130.804 165.799 131.072 165.914 131.416 165.992L132.9 166.297C133.718 166.469 134.319 166.74 134.705 167.109C135.095 167.479 135.291 167.966 135.291 168.57C135.291 169.107 135.14 169.573 134.838 169.969C134.541 170.359 134.129 170.661 133.603 170.875C133.077 171.089 132.473 171.195 131.791 171.195ZM140.822 162.75V164.336H139.143V168.633C139.143 168.93 139.202 169.135 139.322 169.25C139.442 169.359 139.661 169.414 139.978 169.414H140.822V171H139.635C138.796 171 138.174 170.831 137.768 170.492C137.366 170.154 137.166 169.63 137.166 168.922V164.336H135.728V162.75H137.166V160.5H139.143V162.75H140.822Z" fill="black"/>
</g>
<g filter="url(#filter1_ddddi_245_564)">
<rect x="221" y="4" width="177" height="195" rx="10" fill="white"/>
<path d="M307.5 50.0002H311.5C315.271 50.0002 317.157 50.0002 318.328 48.8286C319.5 47.6571 319.5 45.7714 319.5 42.0002C319.5 38.229 319.5 36.3434 318.328 35.1718C317.966 34.8092 317.534 34.5588 317 34.3859C317 34.5554 317 34.7288 317 34.9052L317 37.0633C317 37.0926 317 37.1246 317.001 37.1589C317.004 37.4994 317.009 38.07 316.764 38.592C316.519 39.1141 316.078 39.4756 315.815 39.6913C315.788 39.7128 315.763 39.7334 315.741 39.752L314.234 41.0075C313.373 41.7248 312.624 42.3493 311.951 42.7825C311.224 43.2495 310.439 43.5949 309.5 43.5949C308.561 43.5949 307.776 43.2495 307.049 42.7825C306.376 42.3493 305.627 41.7248 304.766 41.0075L303.259 39.752C303.237 39.7333 303.212 39.713 303.186 39.6913C302.922 39.4756 302.481 39.1141 302.236 38.592C301.992 38.07 301.996 37.4994 301.999 37.1589C302 37.1246 302 37.0926 302 37.0633L302 34.9052C302 34.7286 302 34.5553 302 34.3856C301.466 34.5585 301.034 34.8089 300.672 35.1718C299.5 36.3434 299.5 38.229 299.5 42.0002C299.5 45.7714 299.5 47.6571 300.672 48.8286C301.843 50.0002 303.729 50.0002 307.5 50.0002Z" fill="#16A34A"/>
<path fill-rule="evenodd" clip-rule="evenodd" d="M304.22 38.5997L305.659 39.7991C307.496 41.3296 308.414 42.0949 309.5 42.0949C310.586 42.0949 311.505 41.3296 313.341 39.7991L314.78 38.5997C315.134 38.3048 315.311 38.1574 315.406 37.9558C315.5 37.7542 315.5 37.5239 315.5 37.0633V35C315.5 34.6794 315.5 34.3805 315.498 34.1017C315.487 32.3306 315.4 31.3649 314.768 30.7322C314.036 30 312.857 30 310.5 30H308.5C306.143 30 304.965 30 304.232 30.7322C303.6 31.3649 303.512 32.3306 303.5 34.1017C303.498 34.3805 303.5 34.6794 303.5 35V37.0633C303.5 37.5239 303.5 37.7542 303.594 37.9558C303.689 38.1574 303.866 38.3048 304.22 38.5997ZM306.75 34C306.75 33.5858 307.086 33.25 307.5 33.25H311.5C311.914 33.25 312.25 33.5858 312.25 34C312.25 34.4142 311.914 34.75 311.5 34.75H307.5C307.086 34.75 306.75 34.4142 306.75 34ZM307.75 37C307.75 36.5858 308.086 36.25 308.5 36.25H310.5C310.914 36.25 311.25 36.5858 311.25 37C311.25 37.4142 310.914 37.75 310.5 37.75H308.5C308.086 37.75 307.75 37.4142 307.75 37Z" fill="#16A34A"/>
<g opacity="0.1">
<rect x="257" y="68" width="105" height="8" rx="4" fill="#16A34A"/>
</g>
<g opacity="0.1">
<rect x="245" y="92" width="129" height="8" rx="4" fill="#16A34A"/>
</g>
<g opacity="0.1">
<rect x="245" y="116" width="129" height="8" rx="4" fill="#16A34A"/>
</g>
<path d="M271.081 171V159.359H279.167V161.148H273.143V164.211H278.713V165.969H273.143V169.211H279.167V171H271.081ZM280.245 171V162.75H282.151V164.18C282.401 163.648 282.748 163.25 283.19 162.984C283.633 162.719 284.115 162.586 284.636 162.586C285.193 162.586 285.685 162.729 286.112 163.016C286.539 163.297 286.839 163.674 287.011 164.148C287.229 163.674 287.571 163.297 288.034 163.016C288.498 162.729 289.031 162.586 289.636 162.586C290.417 162.586 291.073 162.839 291.604 163.344C292.136 163.849 292.401 164.586 292.401 165.555V171H290.425V165.836C290.425 165.289 290.274 164.891 289.972 164.641C289.675 164.385 289.315 164.258 288.893 164.258C288.393 164.258 287.998 164.414 287.706 164.727C287.419 165.039 287.276 165.443 287.276 165.938V171H285.362V165.742C285.362 165.294 285.222 164.935 284.94 164.664C284.659 164.393 284.3 164.258 283.862 164.258C283.419 164.258 283.034 164.414 282.706 164.727C282.378 165.034 282.214 165.484 282.214 166.078V171H280.245ZM296.347 171.133C295.524 171.133 294.842 170.927 294.3 170.516C293.764 170.099 293.495 169.479 293.495 168.656C293.495 168.031 293.646 167.549 293.948 167.211C294.256 166.867 294.654 166.617 295.144 166.461C295.639 166.305 296.17 166.198 296.737 166.141C297.503 166.052 298.037 165.974 298.339 165.906C298.641 165.839 298.792 165.664 298.792 165.383V165.32C298.792 164.966 298.657 164.677 298.386 164.453C298.12 164.229 297.753 164.117 297.284 164.117C296.805 164.117 296.415 164.229 296.112 164.453C295.816 164.677 295.654 164.964 295.628 165.312H293.73C293.777 164.495 294.118 163.836 294.753 163.336C295.389 162.836 296.245 162.586 297.323 162.586C298.396 162.586 299.235 162.836 299.839 163.336C300.443 163.836 300.745 164.516 300.745 165.375V171H298.808V169.836H298.777C298.579 170.201 298.292 170.508 297.917 170.758C297.542 171.008 297.019 171.133 296.347 171.133ZM296.831 169.672C297.477 169.672 297.967 169.505 298.3 169.172C298.633 168.833 298.8 168.424 298.8 167.945V167.055C298.68 167.133 298.448 167.206 298.105 167.273C297.761 167.336 297.386 167.398 296.98 167.461C296.558 167.523 296.191 167.643 295.878 167.82C295.571 167.992 295.417 168.266 295.417 168.641C295.417 168.964 295.545 169.216 295.8 169.398C296.055 169.581 296.399 169.672 296.831 169.672ZM302.167 171V162.75H304.136V171H302.167ZM303.152 161.523C302.813 161.523 302.532 161.417 302.308 161.203C302.084 160.984 301.972 160.716 301.972 160.398C301.972 160.081 302.084 159.815 302.308 159.602C302.532 159.388 302.813 159.281 303.152 159.281C303.485 159.281 303.764 159.388 303.988 159.602C304.212 159.815 304.324 160.081 304.324 160.398C304.324 160.716 304.212 160.984 303.988 161.203C303.764 161.417 303.485 161.523 303.152 161.523ZM307.535 159.359V171H305.566V159.359H307.535ZM317.442 171.188C316.369 171.188 315.421 170.94 314.598 170.445C313.775 169.951 313.129 169.253 312.661 168.352C312.192 167.451 311.958 166.396 311.958 165.188C311.958 163.969 312.192 162.909 312.661 162.008C313.129 161.107 313.775 160.409 314.598 159.914C315.421 159.419 316.369 159.172 317.442 159.172C318.317 159.172 319.109 159.344 319.817 159.688C320.525 160.031 321.109 160.516 321.567 161.141C322.03 161.766 322.327 162.503 322.458 163.352H320.356C320.2 162.612 319.864 162.039 319.348 161.633C318.833 161.227 318.202 161.023 317.458 161.023C316.749 161.023 316.137 161.195 315.622 161.539C315.111 161.883 314.718 162.367 314.442 162.992C314.171 163.617 314.036 164.349 314.036 165.188C314.036 166.021 314.171 166.75 314.442 167.375C314.718 167.995 315.111 168.477 315.622 168.82C316.132 169.164 316.744 169.336 317.458 169.336C318.197 169.336 318.825 169.135 319.34 168.734C319.856 168.333 320.197 167.763 320.364 167.023H322.458C322.327 167.872 322.03 168.609 321.567 169.234C321.109 169.854 320.525 170.336 319.817 170.68C319.109 171.018 318.317 171.188 317.442 171.188ZM327.231 171.188C326.419 171.188 325.708 171.008 325.098 170.648C324.489 170.284 324.012 169.779 323.669 169.133C323.33 168.487 323.161 167.737 323.161 166.883C323.161 166.029 323.33 165.279 323.669 164.633C324.012 163.982 324.489 163.474 325.098 163.109C325.708 162.745 326.419 162.562 327.231 162.562C328.039 162.562 328.747 162.745 329.356 163.109C329.971 163.474 330.447 163.982 330.786 164.633C331.13 165.279 331.302 166.029 331.302 166.883C331.302 167.737 331.13 168.487 330.786 169.133C330.447 169.779 329.971 170.284 329.356 170.648C328.747 171.008 328.039 171.188 327.231 171.188ZM327.231 169.539C327.861 169.539 328.364 169.302 328.739 168.828C329.114 168.354 329.302 167.706 329.302 166.883C329.302 166.06 329.114 165.409 328.739 164.93C328.364 164.451 327.861 164.211 327.231 164.211C326.596 164.211 326.091 164.451 325.716 164.93C325.341 165.404 325.153 166.055 325.153 166.883C325.153 167.706 325.341 168.354 325.716 168.828C326.091 169.302 326.596 169.539 327.231 169.539ZM332.349 174.266V162.75H334.286V163.898H334.31C334.57 163.461 334.919 163.133 335.357 162.914C335.794 162.695 336.278 162.586 336.81 162.586C337.518 162.586 338.138 162.768 338.669 163.133C339.206 163.492 339.622 163.995 339.919 164.641C340.221 165.281 340.372 166.023 340.372 166.867C340.372 167.727 340.224 168.479 339.927 169.125C339.635 169.766 339.221 170.266 338.685 170.625C338.148 170.984 337.521 171.164 336.802 171.164C336.26 171.164 335.778 171.047 335.357 170.812C334.94 170.578 334.601 170.227 334.341 169.758H334.317V174.266H332.349ZM336.341 169.516C336.95 169.516 337.442 169.289 337.817 168.836C338.192 168.378 338.38 167.721 338.38 166.867C338.38 166.018 338.192 165.365 337.817 164.906C337.442 164.448 336.95 164.219 336.341 164.219C335.695 164.219 335.177 164.461 334.786 164.945C334.401 165.424 334.208 166.065 334.208 166.867C334.208 167.669 334.401 168.312 334.786 168.797C335.177 169.276 335.695 169.516 336.341 169.516ZM341.271 174.266V172.664H342.247C342.513 172.664 342.719 172.591 342.865 172.445C343.016 172.305 343.149 172.073 343.263 171.75L343.568 170.953L340.388 162.75H342.474L343.99 167.047C344.094 167.354 344.195 167.661 344.294 167.969C344.393 168.271 344.49 168.573 344.583 168.875C344.771 168.271 344.969 167.661 345.177 167.047L346.685 162.75H348.747L345.06 172.359C344.57 173.63 343.737 174.266 342.56 174.266H341.271Z" fill="black"/>
</g>
<g filter="url(#filter2_ddddi_245_564)">
<rect x="435" y="4" width="177" height="195" rx="10" fill="white"/>
<path fill-rule="evenodd" clip-rule="evenodd" d="M521.092 31.2003C520.849 31.4078 520.727 31.5116 520.597 31.5987C520.299 31.7985 519.964 31.9372 519.612 32.0067C519.459 32.037 519.299 32.0498 518.98 32.0752C518.179 32.1392 517.778 32.1712 517.444 32.2892C516.671 32.5623 516.062 33.1705 515.789 33.9437C515.671 34.278 515.639 34.6787 515.575 35.4801C515.55 35.799 515.537 35.9585 515.507 36.1121C515.437 36.4642 515.299 36.799 515.099 37.0971C515.012 37.2271 514.908 37.3489 514.7 37.5924C514.179 38.2043 513.918 38.5102 513.765 38.8301C513.412 39.57 513.412 40.43 513.765 41.1699C513.918 41.4898 514.179 41.7957 514.7 42.4076C514.908 42.6511 515.012 42.7729 515.099 42.9029C515.299 43.201 515.437 43.5358 515.507 43.8879C515.537 44.0415 515.55 44.201 515.575 44.5199C515.639 45.3213 515.671 45.722 515.789 46.0563C516.062 46.8295 516.671 47.4377 517.444 47.7108C517.778 47.8288 518.179 47.8608 518.98 47.9248C519.299 47.9502 519.459 47.963 519.612 47.9933C519.964 48.0628 520.299 48.2015 520.597 48.4013C520.727 48.4884 520.849 48.5922 521.092 48.7997C521.704 49.3212 522.01 49.5819 522.33 49.7348C523.07 50.0884 523.93 50.0884 524.67 49.7348C524.99 49.5819 525.296 49.3212 525.908 48.7997C526.151 48.5922 526.273 48.4884 526.403 48.4013C526.701 48.2015 527.036 48.0628 527.388 47.9933C527.541 47.963 527.701 47.9502 528.02 47.9248C528.821 47.8608 529.222 47.8288 529.556 47.7108C530.329 47.4377 530.938 46.8295 531.211 46.0563C531.329 45.722 531.361 45.3213 531.425 44.5199C531.45 44.201 531.463 44.0415 531.493 43.8879C531.563 43.5358 531.701 43.201 531.901 42.9029C531.988 42.7729 532.092 42.6511 532.3 42.4076C532.821 41.7957 533.082 41.4898 533.235 41.1699C533.588 40.43 533.588 39.57 533.235 38.8301C533.082 38.5102 532.821 38.2043 532.3 37.5924C532.092 37.3489 531.988 37.2271 531.901 37.0971C531.701 36.799 531.563 36.4642 531.493 36.1121C531.463 35.9585 531.45 35.799 531.425 35.4801C531.361 34.6787 531.329 34.278 531.211 33.9437C530.938 33.1705 530.329 32.5623 529.556 32.2892C529.222 32.1712 528.821 32.1392 528.02 32.0752C527.701 32.0498 527.541 32.037 527.388 32.0067C527.036 31.9372 526.701 31.7985 526.403 31.5987C526.273 31.5116 526.151 31.4078 525.908 31.2003C525.296 30.6788 524.99 30.4181 524.67 30.2652C523.93 29.9116 523.07 29.9116 522.33 30.2652C522.01 30.4181 521.704 30.6788 521.092 31.2003ZM527.873 37.8631C528.191 37.5453 528.191 37.03 527.873 36.7122C527.556 36.3943 527.04 36.3943 526.723 36.7122L521.872 41.5624L520.277 39.9676C519.96 39.6498 519.444 39.6498 519.126 39.9676C518.809 40.2854 518.809 40.8007 519.126 41.1186L521.297 43.2889C521.615 43.6067 522.13 43.6067 522.448 43.2889L527.873 37.8631Z" fill="#7C3AED"/>
<g opacity="0.1">
<rect x="459" y="68" width="129" height="8" rx="4" fill="#7C3AED"/>
</g>
<g opacity="0.1">
<rect x="459" y="92" width="108" height="8" rx="4" fill="#7C3AED"/>
</g>
<g opacity="0.1">
<rect x="459" y="116" width="129" height="8" rx="4" fill="#7C3AED"/>
</g>
<path d="M471.631 161.148V159.359H480.936V161.148H477.326V171H475.256V161.148H471.631ZM483.561 171.188C482.738 171.188 482.024 171.003 481.42 170.633C480.816 170.263 480.35 169.755 480.022 169.109C479.699 168.458 479.537 167.716 479.537 166.883C479.537 166.044 479.704 165.302 480.037 164.656C480.376 164.005 480.842 163.495 481.436 163.125C482.03 162.75 482.712 162.562 483.483 162.562C484.274 162.562 484.967 162.745 485.561 163.109C486.155 163.474 486.616 163.979 486.944 164.625C487.272 165.266 487.436 166.008 487.436 166.852V167.391H481.467C481.493 168.062 481.691 168.604 482.061 169.016C482.431 169.427 482.946 169.633 483.608 169.633C484.103 169.633 484.511 169.526 484.834 169.312C485.157 169.094 485.376 168.807 485.491 168.453H487.334C487.23 168.99 487.001 169.464 486.647 169.875C486.298 170.286 485.858 170.609 485.327 170.844C484.795 171.073 484.207 171.188 483.561 171.188ZM481.483 166.031H485.545C485.483 165.443 485.269 164.979 484.905 164.641C484.545 164.297 484.082 164.125 483.514 164.125C482.941 164.125 482.475 164.297 482.116 164.641C481.761 164.979 481.551 165.443 481.483 166.031ZM491.085 171.133C490.262 171.133 489.579 170.927 489.038 170.516C488.501 170.099 488.233 169.479 488.233 168.656C488.233 168.031 488.384 167.549 488.686 167.211C488.994 166.867 489.392 166.617 489.882 166.461C490.376 166.305 490.908 166.198 491.475 166.141C492.241 166.052 492.775 165.974 493.077 165.906C493.379 165.839 493.53 165.664 493.53 165.383V165.32C493.53 164.966 493.395 164.677 493.124 164.453C492.858 164.229 492.491 164.117 492.022 164.117C491.543 164.117 491.152 164.229 490.85 164.453C490.553 164.677 490.392 164.964 490.366 165.312H488.467C488.514 164.495 488.856 163.836 489.491 163.336C490.126 162.836 490.983 162.586 492.061 162.586C493.134 162.586 493.973 162.836 494.577 163.336C495.181 163.836 495.483 164.516 495.483 165.375V171H493.546V169.836H493.514C493.316 170.201 493.03 170.508 492.655 170.758C492.28 171.008 491.757 171.133 491.085 171.133ZM491.569 169.672C492.215 169.672 492.704 169.505 493.038 169.172C493.371 168.833 493.538 168.424 493.538 167.945V167.055C493.418 167.133 493.186 167.206 492.842 167.273C492.499 167.336 492.124 167.398 491.717 167.461C491.296 167.523 490.928 167.643 490.616 167.82C490.309 167.992 490.155 168.266 490.155 168.641C490.155 168.964 490.283 169.216 490.538 169.398C490.793 169.581 491.137 169.672 491.569 169.672ZM496.905 171V162.75H498.812V164.18C499.062 163.648 499.408 163.25 499.851 162.984C500.293 162.719 500.775 162.586 501.296 162.586C501.853 162.586 502.345 162.729 502.772 163.016C503.2 163.297 503.499 163.674 503.671 164.148C503.89 163.674 504.231 163.297 504.694 163.016C505.158 162.729 505.692 162.586 506.296 162.586C507.077 162.586 507.733 162.839 508.265 163.344C508.796 163.849 509.062 164.586 509.062 165.555V171H507.085V165.836C507.085 165.289 506.934 164.891 506.632 164.641C506.335 164.385 505.976 164.258 505.554 164.258C505.054 164.258 504.658 164.414 504.366 164.727C504.08 165.039 503.937 165.443 503.937 165.938V171H502.022V165.742C502.022 165.294 501.882 164.935 501.601 164.664C501.319 164.393 500.96 164.258 500.522 164.258C500.08 164.258 499.694 164.414 499.366 164.727C499.038 165.034 498.874 165.484 498.874 166.078V171H496.905ZM513.023 171L517.179 159.359H519.773L523.914 171H521.64L520.711 168.219H516.195L515.242 171H513.023ZM516.773 166.523H520.148L519.601 164.883C519.429 164.346 519.252 163.786 519.07 163.203C518.893 162.62 518.695 161.961 518.476 161.227C518.257 161.961 518.057 162.62 517.875 163.203C517.692 163.786 517.513 164.346 517.336 164.883L516.773 166.523ZM524.57 174.266V162.75H526.508V163.898H526.531C526.792 163.461 527.141 163.133 527.578 162.914C528.016 162.695 528.5 162.586 529.031 162.586C529.74 162.586 530.359 162.768 530.891 163.133C531.427 163.492 531.844 163.995 532.141 164.641C532.443 165.281 532.594 166.023 532.594 166.867C532.594 167.727 532.445 168.479 532.148 169.125C531.857 169.766 531.443 170.266 530.906 170.625C530.37 170.984 529.742 171.164 529.023 171.164C528.482 171.164 528 171.047 527.578 170.812C527.161 170.578 526.823 170.227 526.562 169.758H526.539V174.266H524.57ZM528.562 169.516C529.172 169.516 529.664 169.289 530.039 168.836C530.414 168.378 530.602 167.721 530.602 166.867C530.602 166.018 530.414 165.365 530.039 164.906C529.664 164.448 529.172 164.219 528.562 164.219C527.917 164.219 527.398 164.461 527.008 164.945C526.622 165.424 526.43 166.065 526.43 166.867C526.43 167.669 526.622 168.312 527.008 168.797C527.398 169.276 527.917 169.516 528.562 169.516ZM533.641 174.266V162.75H535.578V163.898H535.602C535.862 163.461 536.211 163.133 536.649 162.914C537.086 162.695 537.571 162.586 538.102 162.586C538.81 162.586 539.43 162.768 539.961 163.133C540.498 163.492 540.914 163.995 541.211 164.641C541.513 165.281 541.664 166.023 541.664 166.867C541.664 167.727 541.516 168.479 541.219 169.125C540.927 169.766 540.513 170.266 539.977 170.625C539.44 170.984 538.813 171.164 538.094 171.164C537.552 171.164 537.071 171.047 536.649 170.812C536.232 170.578 535.894 170.227 535.633 169.758H535.61V174.266H533.641ZM537.633 169.516C538.242 169.516 538.735 169.289 539.11 168.836C539.485 168.378 539.672 167.721 539.672 166.867C539.672 166.018 539.485 165.365 539.11 164.906C538.735 164.448 538.242 164.219 537.633 164.219C536.987 164.219 536.469 164.461 536.078 164.945C535.693 165.424 535.5 166.065 535.5 166.867C535.5 167.669 535.693 168.312 536.078 168.797C536.469 169.276 536.987 169.516 537.633 169.516ZM542.712 171V162.75H544.61V164.117H544.633C544.784 163.648 545.021 163.292 545.344 163.047C545.673 162.797 546.102 162.672 546.633 162.672C546.769 162.672 546.889 162.677 546.993 162.688C547.102 162.693 547.196 162.698 547.274 162.703V164.453C547.201 164.443 547.076 164.43 546.899 164.414C546.722 164.398 546.537 164.391 546.344 164.391C545.876 164.391 545.48 164.552 545.157 164.875C544.839 165.198 544.68 165.682 544.68 166.328V171H542.712ZM551.673 171.188C550.86 171.188 550.149 171.008 549.54 170.648C548.931 170.284 548.454 169.779 548.11 169.133C547.772 168.487 547.603 167.737 547.603 166.883C547.603 166.029 547.772 165.279 548.11 164.633C548.454 163.982 548.931 163.474 549.54 163.109C550.149 162.745 550.86 162.562 551.673 162.562C552.48 162.562 553.188 162.745 553.798 163.109C554.412 163.474 554.889 163.982 555.228 164.633C555.571 165.279 555.743 166.029 555.743 166.883C555.743 167.737 555.571 168.487 555.228 169.133C554.889 169.779 554.412 170.284 553.798 170.648C553.188 171.008 552.48 171.188 551.673 171.188ZM551.673 169.539C552.303 169.539 552.806 169.302 553.181 168.828C553.556 168.354 553.743 167.706 553.743 166.883C553.743 166.06 553.556 165.409 553.181 164.93C552.806 164.451 552.303 164.211 551.673 164.211C551.037 164.211 550.532 164.451 550.157 164.93C549.782 165.404 549.595 166.055 549.595 166.883C549.595 167.706 549.782 168.354 550.157 168.828C550.532 169.302 551.037 169.539 551.673 169.539ZM558.861 171L555.759 162.75H557.845L559.353 167.047C559.462 167.375 559.566 167.703 559.665 168.031C559.769 168.354 559.871 168.677 559.97 169C560.069 168.677 560.168 168.354 560.267 168.031C560.366 167.703 560.467 167.375 560.572 167.047L562.056 162.75H564.118L561.017 171H558.861ZM567.064 171.133C566.241 171.133 565.559 170.927 565.017 170.516C564.481 170.099 564.213 169.479 564.213 168.656C564.213 168.031 564.364 167.549 564.666 167.211C564.973 166.867 565.371 166.617 565.861 166.461C566.356 166.305 566.887 166.198 567.455 166.141C568.22 166.052 568.754 165.974 569.056 165.906C569.358 165.839 569.509 165.664 569.509 165.383V165.32C569.509 164.966 569.374 164.677 569.103 164.453C568.838 164.229 568.47 164.117 568.002 164.117C567.522 164.117 567.132 164.229 566.83 164.453C566.533 164.677 566.371 164.964 566.345 165.312H564.447C564.494 164.495 564.835 163.836 565.47 163.336C566.106 162.836 566.963 162.586 568.041 162.586C569.114 162.586 569.952 162.836 570.556 163.336C571.16 163.836 571.463 164.516 571.463 165.375V171H569.525V169.836H569.494C569.296 170.201 569.009 170.508 568.634 170.758C568.259 171.008 567.736 171.133 567.064 171.133ZM567.548 169.672C568.194 169.672 568.684 169.505 569.017 169.172C569.351 168.833 569.517 168.424 569.517 167.945V167.055C569.397 167.133 569.166 167.206 568.822 167.273C568.478 167.336 568.103 167.398 567.697 167.461C567.275 167.523 566.908 167.643 566.595 167.82C566.288 167.992 566.134 168.266 566.134 168.641C566.134 168.964 566.262 169.216 566.517 169.398C566.772 169.581 567.116 169.672 567.548 169.672ZM574.853 159.359V171H572.885V159.359H574.853Z" fill="black"/>
</g>
<path opacity="0.2" d="M184 101C183.724 101 183.5 101.224 183.5 101.5C183.5 101.776 183.724 102 184 102V101ZM221.354 101.854C221.549 101.658 221.549 101.342 221.354 101.146L218.172 97.9645C217.976 97.7692 217.66 97.7692 217.464 97.9645C217.269 98.1597 217.269 98.4763 217.464 98.6716L220.293 101.5L217.464 104.328C217.269 104.524 217.269 104.84 217.464 105.036C217.66 105.231 217.976 105.231 218.172 105.036L221.354 101.854ZM184 102H221V101H184V102Z" fill="#1F2129"/>
<path opacity="0.2" d="M398 101C397.724 101 397.5 101.224 397.5 101.5C397.5 101.776 397.724 102 398 102V101ZM435.354 101.854C435.549 101.658 435.549 101.342 435.354 101.146L432.172 97.9645C431.976 97.7692 431.66 97.7692 431.464 97.9645C431.269 98.1597 431.269 98.4763 431.464 98.6716L434.293 101.5L431.464 104.328C431.269 104.524 431.269 104.84 431.464 105.036C431.66 105.231 431.976 105.231 432.172 105.036L435.354 101.854ZM398 102H435V101H398V102Z" fill="#1F2129"/>
<defs>
<filter id="filter0_ddddi_245_564" x="0.333333" y="0.666667" width="190.333" height="208.333" filterUnits="userSpaceOnUse" color-interpolation-filters="sRGB">
<feFlood flood-opacity="0" result="BackgroundImageFix"/>
<feColorMatrix in="SourceAlpha" type="matrix" values="0 0 0 0 0 0 0 0 0 0 0 0 0 0 0 0 0 0 127 0" result="hardAlpha"/>
<feMorphology radius="0.833333" operator="dilate" in="SourceAlpha" result="effect1_dropShadow_245_564"/>
<feOffset/>
<feComposite in2="hardAlpha" operator="out"/>
<feColorMatrix type="matrix" values="0 0 0 0 0.160784 0 0 0 0 0.160784 0 0 0 0 0.160784 0 0 0 0.08 0"/>
<feBlend mode="normal" in2="BackgroundImageFix" result="effect1_dropShadow_245_564"/>
<feColorMatrix in="SourceAlpha" type="matrix" values="0 0 0 0 0 0 0 0 0 0 0 0 0 0 0 0 0 0 127 0" result="hardAlpha"/>
<feOffset dy="0.833333"/>
<feGaussianBlur stdDeviation="0.833333"/>
<feComposite in2="hardAlpha" operator="out"/>
<feColorMatrix type="matrix" values="0 0 0 0 0.160784 0 0 0 0 0.160784 0 0 0 0 0.160784 0 0 0 0.04 0"/>
<feBlend mode="normal" in2="effect1_dropShadow_245_564" result="effect2_dropShadow_245_564"/>
<feColorMatrix in="SourceAlpha" type="matrix" values="0 0 0 0 0 0 0 0 0 0 0 0 0 0 0 0 0 0 127 0" result="hardAlpha"/>
<feOffset dy="1.66667"/>
<feGaussianBlur stdDeviation="1.66667"/>
<feComposite in2="hardAlpha" operator="out"/>
<feColorMatrix type="matrix" values="0 0 0 0 0.160784 0 0 0 0 0.160784 0 0 0 0 0.160784 0 0 0 0.04 0"/>
<feBlend mode="normal" in2="effect2_dropShadow_245_564" result="effect3_dropShadow_245_564"/>
<feColorMatrix in="SourceAlpha" type="matrix" values="0 0 0 0 0 0 0 0 0 0 0 0 0 0 0 0 0 0 127 0" result="hardAlpha"/>
<feOffset dy="3.33333"/>
<feGaussianBlur stdDeviation="3.33333"/>
<feComposite in2="hardAlpha" operator="out"/>
<feColorMatrix type="matrix" values="0 0 0 0 0.160784 0 0 0 0 0.160784 0 0 0 0 0.160784 0 0 0 0.06 0"/>
<feBlend mode="normal" in2="effect3_dropShadow_245_564" result="effect4_dropShadow_245_564"/>
<feBlend mode="normal" in="SourceGraphic" in2="effect4_dropShadow_245_564" result="shape"/>
<feColorMatrix in="SourceAlpha" type="matrix" values="0 0 0 0 0 0 0 0 0 0 0 0 0 0 0 0 0 0 127 0" result="hardAlpha"/>
<feOffset dy="-0.416667"/>
<feGaussianBlur stdDeviation="0.208333"/>
<feComposite in2="hardAlpha" operator="arithmetic" k2="-1" k3="1"/>
<feColorMatrix type="matrix" values="0 0 0 0 0.160784 0 0 0 0 0.160784 0 0 0 0 0.160784 0 0 0 0.08 0"/>
<feBlend mode="normal" in2="shape" result="effect5_innerShadow_245_564"/>
</filter>
<filter id="filter1_ddddi_245_564" x="214.333" y="0.666667" width="190.333" height="208.333" filterUnits="userSpaceOnUse" color-interpolation-filters="sRGB">
<feFlood flood-opacity="0" result="BackgroundImageFix"/>
<feColorMatrix in="SourceAlpha" type="matrix" values="0 0 0 0 0 0 0 0 0 0 0 0 0 0 0 0 0 0 127 0" result="hardAlpha"/>
<feMorphology radius="0.833333" operator="dilate" in="SourceAlpha" result="effect1_dropShadow_245_564"/>
<feOffset/>
<feComposite in2="hardAlpha" operator="out"/>
<feColorMatrix type="matrix" values="0 0 0 0 0.160784 0 0 0 0 0.160784 0 0 0 0 0.160784 0 0 0 0.08 0"/>
<feBlend mode="normal" in2="BackgroundImageFix" result="effect1_dropShadow_245_564"/>
<feColorMatrix in="SourceAlpha" type="matrix" values="0 0 0 0 0 0 0 0 0 0 0 0 0 0 0 0 0 0 127 0" result="hardAlpha"/>
<feOffset dy="0.833333"/>
<feGaussianBlur stdDeviation="0.833333"/>
<feComposite in2="hardAlpha" operator="out"/>
<feColorMatrix type="matrix" values="0 0 0 0 0.160784 0 0 0 0 0.160784 0 0 0 0 0.160784 0 0 0 0.04 0"/>
<feBlend mode="normal" in2="effect1_dropShadow_245_564" result="effect2_dropShadow_245_564"/>
<feColorMatrix in="SourceAlpha" type="matrix" values="0 0 0 0 0 0 0 0 0 0 0 0 0 0 0 0 0 0 127 0" result="hardAlpha"/>
<feOffset dy="1.66667"/>
<feGaussianBlur stdDeviation="1.66667"/>
<feComposite in2="hardAlpha" operator="out"/>
<feColorMatrix type="matrix" values="0 0 0 0 0.160784 0 0 0 0 0.160784 0 0 0 0 0.160784 0 0 0 0.04 0"/>
<feBlend mode="normal" in2="effect2_dropShadow_245_564" result="effect3_dropShadow_245_564"/>
<feColorMatrix in="SourceAlpha" type="matrix" values="0 0 0 0 0 0 0 0 0 0 0 0 0 0 0 0 0 0 127 0" result="hardAlpha"/>
<feOffset dy="3.33333"/>
<feGaussianBlur stdDeviation="3.33333"/>
<feComposite in2="hardAlpha" operator="out"/>
<feColorMatrix type="matrix" values="0 0 0 0 0.160784 0 0 0 0 0.160784 0 0 0 0 0.160784 0 0 0 0.06 0"/>
<feBlend mode="normal" in2="effect3_dropShadow_245_564" result="effect4_dropShadow_245_564"/>
<feBlend mode="normal" in="SourceGraphic" in2="effect4_dropShadow_245_564" result="shape"/>
<feColorMatrix in="SourceAlpha" type="matrix" values="0 0 0 0 0 0 0 0 0 0 0 0 0 0 0 0 0 0 127 0" result="hardAlpha"/>
<feOffset dy="-0.416667"/>
<feGaussianBlur stdDeviation="0.208333"/>
<feComposite in2="hardAlpha" operator="arithmetic" k2="-1" k3="1"/>
<feColorMatrix type="matrix" values="0 0 0 0 0.160784 0 0 0 0 0.160784 0 0 0 0 0.160784 0 0 0 0.08 0"/>
<feBlend mode="normal" in2="shape" result="effect5_innerShadow_245_564"/>
</filter>
<filter id="filter2_ddddi_245_564" x="428.333" y="0.666667" width="190.333" height="208.333" filterUnits="userSpaceOnUse" color-interpolation-filters="sRGB">
<feFlood flood-opacity="0" result="BackgroundImageFix"/>
<feColorMatrix in="SourceAlpha" type="matrix" values="0 0 0 0 0 0 0 0 0 0 0 0 0 0 0 0 0 0 127 0" result="hardAlpha"/>
<feMorphology radius="0.833333" operator="dilate" in="SourceAlpha" result="effect1_dropShadow_245_564"/>
<feOffset/>
<feComposite in2="hardAlpha" operator="out"/>
<feColorMatrix type="matrix" values="0 0 0 0 0.160784 0 0 0 0 0.160784 0 0 0 0 0.160784 0 0 0 0.08 0"/>
<feBlend mode="normal" in2="BackgroundImageFix" result="effect1_dropShadow_245_564"/>
<feColorMatrix in="SourceAlpha" type="matrix" values="0 0 0 0 0 0 0 0 0 0 0 0 0 0 0 0 0 0 127 0" result="hardAlpha"/>
<feOffset dy="0.833333"/>
<feGaussianBlur stdDeviation="0.833333"/>
<feComposite in2="hardAlpha" operator="out"/>
<feColorMatrix type="matrix" values="0 0 0 0 0.160784 0 0 0 0 0.160784 0 0 0 0 0.160784 0 0 0 0.04 0"/>
<feBlend mode="normal" in2="effect1_dropShadow_245_564" result="effect2_dropShadow_245_564"/>
<feColorMatrix in="SourceAlpha" type="matrix" values="0 0 0 0 0 0 0 0 0 0 0 0 0 0 0 0 0 0 127 0" result="hardAlpha"/>
<feOffset dy="1.66667"/>
<feGaussianBlur stdDeviation="1.66667"/>
<feComposite in2="hardAlpha" operator="out"/>
<feColorMatrix type="matrix" values="0 0 0 0 0.160784 0 0 0 0 0.160784 0 0 0 0 0.160784 0 0 0 0.04 0"/>
<feBlend mode="normal" in2="effect2_dropShadow_245_564" result="effect3_dropShadow_245_564"/>
<feColorMatrix in="SourceAlpha" type="matrix" values="0 0 0 0 0 0 0 0 0 0 0 0 0 0 0 0 0 0 127 0" result="hardAlpha"/>
<feOffset dy="3.33333"/>
<feGaussianBlur stdDeviation="3.33333"/>
<feComposite in2="hardAlpha" operator="out"/>
<feColorMatrix type="matrix" values="0 0 0 0 0.160784 0 0 0 0 0.160784 0 0 0 0 0.160784 0 0 0 0.06 0"/>
<feBlend mode="normal" in2="effect3_dropShadow_245_564" result="effect4_dropShadow_245_564"/>
<feBlend mode="normal" in="SourceGraphic" in2="effect4_dropShadow_245_564" result="shape"/>
<feColorMatrix in="SourceAlpha" type="matrix" values="0 0 0 0 0 0 0 0 0 0 0 0 0 0 0 0 0 0 127 0" result="hardAlpha"/>
<feOffset dy="-0.416667"/>
<feGaussianBlur stdDeviation="0.208333"/>
<feComposite in2="hardAlpha" operator="arithmetic" k2="-1" k3="1"/>
<feColorMatrix type="matrix" values="0 0 0 0 0.160784 0 0 0 0 0.160784 0 0 0 0 0.160784 0 0 0 0.08 0"/>
<feBlend mode="normal" in2="shape" result="effect5_innerShadow_245_564"/>
</filter>
</defs>
</svg>
