<svg width="243" height="304" viewBox="0 0 243 304" fill="none" xmlns="http://www.w3.org/2000/svg">
<rect x="54.833" y="0.5" width="133" height="29" rx="5.5" fill="#EFF6FF"/>
<rect x="54.833" y="0.5" width="133" height="29" rx="5.5" stroke="#BFDBFE"/>
<path d="M68.8125 20.1641C67.8737 20.1641 67.0443 19.9476 66.3242 19.5146C65.6042 19.0817 65.0391 18.471 64.6289 17.6826C64.2188 16.8942 64.0137 15.9714 64.0137 14.9141C64.0137 13.8477 64.2188 12.9202 64.6289 12.1318C65.0391 11.3434 65.6042 10.7327 66.3242 10.2998C67.0443 9.86686 67.8737 9.65039 68.8125 9.65039C69.5781 9.65039 70.2708 9.80078 70.8906 10.1016C71.5104 10.4023 72.0208 10.8262 72.4219 11.373C72.8275 11.9199 73.0872 12.5648 73.2012 13.3076H71.3623C71.2256 12.6605 70.9316 12.1592 70.4805 11.8037C70.0293 11.4482 69.4779 11.2705 68.8262 11.2705C68.2064 11.2705 67.6709 11.4209 67.2197 11.7217C66.7731 12.0225 66.429 12.4463 66.1875 12.9932C65.9505 13.54 65.832 14.1803 65.832 14.9141C65.832 15.6432 65.9505 16.2812 66.1875 16.8281C66.429 17.3704 66.7731 17.792 67.2197 18.0928C67.6663 18.3936 68.2018 18.5439 68.8262 18.5439C69.4733 18.5439 70.0225 18.3685 70.4736 18.0176C70.9248 17.6667 71.2233 17.1676 71.3691 16.5205H73.2012C73.0872 17.2633 72.8275 17.9082 72.4219 18.4551C72.0208 18.9974 71.5104 19.4189 70.8906 19.7197C70.2708 20.016 69.5781 20.1641 68.8125 20.1641ZM76.6328 20.1162C75.9128 20.1162 75.3158 19.9362 74.8418 19.5762C74.3724 19.2116 74.1377 18.6693 74.1377 17.9492C74.1377 17.4023 74.2699 16.9808 74.5342 16.6846C74.8031 16.3838 75.1517 16.165 75.5801 16.0283C76.013 15.8916 76.4779 15.7982 76.9746 15.748C77.6445 15.6706 78.1117 15.6022 78.376 15.543C78.6403 15.4837 78.7725 15.3311 78.7725 15.085V15.0303C78.7725 14.7204 78.654 14.4674 78.417 14.2715C78.1846 14.0755 77.8633 13.9775 77.4531 13.9775C77.0339 13.9775 76.6921 14.0755 76.4277 14.2715C76.168 14.4674 76.0267 14.7181 76.0039 15.0234H74.3428C74.3838 14.3079 74.6823 13.7314 75.2383 13.2939C75.7943 12.8564 76.5439 12.6377 77.4873 12.6377C78.4261 12.6377 79.1598 12.8564 79.6885 13.2939C80.2171 13.7314 80.4814 14.3262 80.4814 15.0781V20H78.7861V18.9814H78.7588C78.5856 19.3005 78.335 19.5693 78.0068 19.7881C77.6787 20.0068 77.2207 20.1162 76.6328 20.1162ZM77.0566 18.8379C77.6217 18.8379 78.0501 18.6921 78.3418 18.4004C78.6335 18.1042 78.7793 17.7464 78.7793 17.3271V16.5479C78.6745 16.6162 78.4717 16.68 78.1709 16.7393C77.8701 16.7939 77.542 16.8486 77.1865 16.9033C76.8174 16.958 76.4961 17.0628 76.2227 17.2178C75.9538 17.3682 75.8193 17.6074 75.8193 17.9355C75.8193 18.2181 75.931 18.4391 76.1543 18.5986C76.3776 18.7581 76.6784 18.8379 77.0566 18.8379ZM82.0059 20V12.7812H83.6738V14.0322C83.8926 13.5674 84.1956 13.2188 84.583 12.9863C84.9704 12.7539 85.3919 12.6377 85.8477 12.6377C86.3353 12.6377 86.766 12.763 87.1396 13.0137C87.5133 13.2598 87.7754 13.5902 87.9258 14.0049C88.1172 13.5902 88.4157 13.2598 88.8213 13.0137C89.2269 12.763 89.694 12.6377 90.2227 12.6377C90.9062 12.6377 91.4805 12.8587 91.9453 13.3008C92.4102 13.7428 92.6426 14.3877 92.6426 15.2354V20H90.9131V15.4814C90.9131 15.0029 90.7809 14.6543 90.5166 14.4355C90.2568 14.2122 89.9424 14.1006 89.5732 14.1006C89.1357 14.1006 88.7894 14.2373 88.5342 14.5107C88.2835 14.7842 88.1582 15.1374 88.1582 15.5703V20H86.4834V15.3994C86.4834 15.0075 86.3604 14.693 86.1143 14.4561C85.8682 14.2191 85.5537 14.1006 85.1709 14.1006C84.7835 14.1006 84.4463 14.2373 84.1592 14.5107C83.8721 14.7796 83.7285 15.1738 83.7285 15.6934V20H82.0059ZM94.1738 22.8574V12.7812H95.8691V13.7861H95.8896C96.1175 13.4033 96.4229 13.1162 96.8057 12.9248C97.1885 12.7334 97.6123 12.6377 98.0771 12.6377C98.6969 12.6377 99.2393 12.7972 99.7041 13.1162C100.174 13.4307 100.538 13.8704 100.798 14.4355C101.062 14.9961 101.194 15.6455 101.194 16.3838C101.194 17.1357 101.064 17.7943 100.805 18.3594C100.549 18.9199 100.187 19.3574 99.7178 19.6719C99.2484 19.9863 98.6992 20.1436 98.0703 20.1436C97.5964 20.1436 97.1748 20.041 96.8057 19.8359C96.4411 19.6309 96.1449 19.3232 95.917 18.9131H95.8965V22.8574H94.1738ZM97.667 18.7012C98.2002 18.7012 98.6309 18.5029 98.959 18.1064C99.2871 17.7054 99.4512 17.1312 99.4512 16.3838C99.4512 15.641 99.2871 15.069 98.959 14.668C98.6309 14.2669 98.2002 14.0664 97.667 14.0664C97.1019 14.0664 96.6484 14.2783 96.3066 14.7021C95.9694 15.1214 95.8008 15.682 95.8008 16.3838C95.8008 17.0856 95.9694 17.6484 96.3066 18.0723C96.6484 18.4915 97.1019 18.7012 97.667 18.7012ZM104.688 20.1162C103.967 20.1162 103.37 19.9362 102.896 19.5762C102.427 19.2116 102.192 18.6693 102.192 17.9492C102.192 17.4023 102.325 16.9808 102.589 16.6846C102.858 16.3838 103.206 16.165 103.635 16.0283C104.068 15.8916 104.533 15.7982 105.029 15.748C105.699 15.6706 106.166 15.6022 106.431 15.543C106.695 15.4837 106.827 15.3311 106.827 15.085V15.0303C106.827 14.7204 106.709 14.4674 106.472 14.2715C106.239 14.0755 105.918 13.9775 105.508 13.9775C105.089 13.9775 104.747 14.0755 104.482 14.2715C104.223 14.4674 104.081 14.7181 104.059 15.0234H102.397C102.438 14.3079 102.737 13.7314 103.293 13.2939C103.849 12.8564 104.599 12.6377 105.542 12.6377C106.481 12.6377 107.215 12.8564 107.743 13.2939C108.272 13.7314 108.536 14.3262 108.536 15.0781V20H106.841V18.9814H106.813C106.64 19.3005 106.39 19.5693 106.062 19.7881C105.733 20.0068 105.275 20.1162 104.688 20.1162ZM105.111 18.8379C105.676 18.8379 106.105 18.6921 106.396 18.4004C106.688 18.1042 106.834 17.7464 106.834 17.3271V16.5479C106.729 16.6162 106.526 16.68 106.226 16.7393C105.925 16.7939 105.597 16.8486 105.241 16.9033C104.872 16.958 104.551 17.0628 104.277 17.2178C104.008 17.3682 103.874 17.6074 103.874 17.9355C103.874 18.2181 103.986 18.4391 104.209 18.5986C104.432 18.7581 104.733 18.8379 105.111 18.8379ZM110.061 20V12.7812H111.783V20H110.061ZM110.922 11.708C110.626 11.708 110.38 11.6146 110.184 11.4277C109.988 11.2363 109.89 11.0016 109.89 10.7236C109.89 10.4456 109.988 10.2132 110.184 10.0264C110.38 9.83952 110.626 9.74609 110.922 9.74609C111.214 9.74609 111.457 9.83952 111.653 10.0264C111.849 10.2132 111.947 10.4456 111.947 10.7236C111.947 11.0016 111.849 11.2363 111.653 11.4277C111.457 11.6146 111.214 11.708 110.922 11.708ZM116.589 22.9531C115.636 22.9531 114.88 22.748 114.319 22.3379C113.759 21.9277 113.431 21.3717 113.335 20.6699H115.023C115.105 20.9798 115.285 21.2145 115.563 21.374C115.841 21.5381 116.183 21.6201 116.589 21.6201C117.127 21.6201 117.544 21.4743 117.84 21.1826C118.141 20.891 118.291 20.4694 118.291 19.918V18.8174H118.284C118.052 19.2412 117.749 19.5534 117.375 19.7539C117.001 19.9499 116.577 20.0479 116.104 20.0479C115.475 20.0479 114.925 19.8906 114.456 19.5762C113.987 19.2617 113.622 18.8288 113.362 18.2773C113.107 17.7214 112.979 17.0811 112.979 16.3564C112.979 15.6273 113.109 14.9824 113.369 14.4219C113.629 13.8613 113.993 13.4238 114.463 13.1094C114.932 12.7949 115.475 12.6377 116.09 12.6377C116.559 12.6377 116.983 12.738 117.361 12.9385C117.744 13.1344 118.054 13.4398 118.291 13.8545H118.298V12.7812H120V19.8154C120 20.5583 119.852 21.1598 119.556 21.6201C119.259 22.085 118.854 22.4222 118.339 22.6318C117.824 22.846 117.241 22.9531 116.589 22.9531ZM116.507 18.626C117.072 18.626 117.523 18.4186 117.86 18.0039C118.202 17.5846 118.373 17.0286 118.373 16.3359C118.373 15.6432 118.202 15.0895 117.86 14.6748C117.523 14.2555 117.072 14.0459 116.507 14.0459C115.974 14.0459 115.543 14.2441 115.215 14.6406C114.887 15.0371 114.723 15.6022 114.723 16.3359C114.723 17.0742 114.887 17.6416 115.215 18.0381C115.543 18.43 115.974 18.626 116.507 18.626ZM123.254 15.9189V20H121.531V12.7812H123.227V13.8887C123.728 13.0547 124.466 12.6377 125.441 12.6377C126.198 12.6377 126.815 12.8815 127.294 13.3691C127.777 13.8568 128.019 14.5632 128.019 15.4883V20H126.289V15.7617C126.289 15.2331 126.161 14.832 125.906 14.5586C125.651 14.2852 125.293 14.1484 124.833 14.1484C124.382 14.1484 124.006 14.2897 123.705 14.5723C123.404 14.8548 123.254 15.3037 123.254 15.9189ZM137.254 20.1641C136.315 20.1641 135.486 19.9476 134.766 19.5146C134.046 19.0817 133.48 18.471 133.07 17.6826C132.66 16.8942 132.455 15.9714 132.455 14.9141C132.455 13.8477 132.66 12.9202 133.07 12.1318C133.48 11.3434 134.046 10.7327 134.766 10.2998C135.486 9.86686 136.315 9.65039 137.254 9.65039C138.02 9.65039 138.712 9.80078 139.332 10.1016C139.952 10.4023 140.462 10.8262 140.863 11.373C141.269 11.9199 141.529 12.5648 141.643 13.3076H139.804C139.667 12.6605 139.373 12.1592 138.922 11.8037C138.471 11.4482 137.919 11.2705 137.268 11.2705C136.648 11.2705 136.112 11.4209 135.661 11.7217C135.215 12.0225 134.87 12.4463 134.629 12.9932C134.392 13.54 134.273 14.1803 134.273 14.9141C134.273 15.6432 134.392 16.2812 134.629 16.8281C134.87 17.3704 135.215 17.792 135.661 18.0928C136.108 18.3936 136.643 18.5439 137.268 18.5439C137.915 18.5439 138.464 18.3685 138.915 18.0176C139.366 17.6667 139.665 17.1676 139.811 16.5205H141.643C141.529 17.2633 141.269 17.9082 140.863 18.4551C140.462 18.9974 139.952 19.4189 139.332 19.7197C138.712 20.016 138.02 20.1641 137.254 20.1641ZM146.1 20.1641C145.389 20.1641 144.767 20.0068 144.233 19.6924C143.7 19.3734 143.283 18.9313 142.982 18.3662C142.686 17.8011 142.538 17.1449 142.538 16.3975C142.538 15.6501 142.686 14.9938 142.982 14.4287C143.283 13.859 143.7 13.4147 144.233 13.0957C144.767 12.7767 145.389 12.6172 146.1 12.6172C146.806 12.6172 147.426 12.7767 147.959 13.0957C148.497 13.4147 148.914 13.859 149.21 14.4287C149.511 14.9938 149.661 15.6501 149.661 16.3975C149.661 17.1449 149.511 17.8011 149.21 18.3662C148.914 18.9313 148.497 19.3734 147.959 19.6924C147.426 20.0068 146.806 20.1641 146.1 20.1641ZM146.1 18.7217C146.651 18.7217 147.091 18.5143 147.419 18.0996C147.747 17.6849 147.911 17.1175 147.911 16.3975C147.911 15.6774 147.747 15.1077 147.419 14.6885C147.091 14.2692 146.651 14.0596 146.1 14.0596C145.544 14.0596 145.102 14.2692 144.773 14.6885C144.445 15.1032 144.281 15.6729 144.281 16.3975C144.281 17.1175 144.445 17.6849 144.773 18.0996C145.102 18.5143 145.544 18.7217 146.1 18.7217ZM152.58 15.9189V20H150.857V12.7812H152.553V13.8887C153.054 13.0547 153.792 12.6377 154.768 12.6377C155.524 12.6377 156.142 12.8815 156.62 13.3691C157.103 13.8568 157.345 14.5632 157.345 15.4883V20H155.615V15.7617C155.615 15.2331 155.488 14.832 155.232 14.5586C154.977 14.2852 154.619 14.1484 154.159 14.1484C153.708 14.1484 153.332 14.2897 153.031 14.5723C152.73 14.8548 152.58 15.3037 152.58 15.9189ZM162.69 12.7812V14.1689H161.221V17.9287C161.221 18.1885 161.273 18.3685 161.378 18.4688C161.483 18.5645 161.674 18.6123 161.952 18.6123H162.69V20H161.651C160.918 20 160.373 19.8519 160.018 19.5557C159.667 19.2594 159.491 18.8014 159.491 18.1816V14.1689H158.233V12.7812H159.491V10.8125H161.221V12.7812H162.69ZM163.777 20V12.7812H165.438V13.9775H165.459C165.591 13.5674 165.799 13.2552 166.081 13.041C166.368 12.8223 166.744 12.7129 167.209 12.7129C167.327 12.7129 167.432 12.7174 167.523 12.7266C167.619 12.7311 167.701 12.7357 167.77 12.7402V14.2715C167.706 14.2624 167.596 14.251 167.441 14.2373C167.286 14.2236 167.125 14.2168 166.956 14.2168C166.546 14.2168 166.2 14.3581 165.917 14.6406C165.639 14.9232 165.5 15.347 165.5 15.9121V20H163.777ZM171.898 20.1641C171.188 20.1641 170.565 20.0068 170.032 19.6924C169.499 19.3734 169.082 18.9313 168.781 18.3662C168.485 17.8011 168.337 17.1449 168.337 16.3975C168.337 15.6501 168.485 14.9938 168.781 14.4287C169.082 13.859 169.499 13.4147 170.032 13.0957C170.565 12.7767 171.188 12.6172 171.898 12.6172C172.605 12.6172 173.225 12.7767 173.758 13.0957C174.296 13.4147 174.713 13.859 175.009 14.4287C175.31 14.9938 175.46 15.6501 175.46 16.3975C175.46 17.1449 175.31 17.8011 175.009 18.3662C174.713 18.9313 174.296 19.3734 173.758 19.6924C173.225 20.0068 172.605 20.1641 171.898 20.1641ZM171.898 18.7217C172.45 18.7217 172.89 18.5143 173.218 18.0996C173.546 17.6849 173.71 17.1175 173.71 16.3975C173.71 15.6774 173.546 15.1077 173.218 14.6885C172.89 14.2692 172.45 14.0596 171.898 14.0596C171.342 14.0596 170.9 14.2692 170.572 14.6885C170.244 15.1032 170.08 15.6729 170.08 16.3975C170.08 17.1175 170.244 17.6849 170.572 18.0996C170.9 18.5143 171.342 18.7217 171.898 18.7217ZM178.379 9.81445V20H176.656V9.81445H178.379Z" fill="#2563EB"/>
<g filter="url(#filter0_ddddi_245_611)">
<rect x="8" y="53" width="226.667" height="48" rx="10" fill="white" shape-rendering="crispEdges"/>
<path d="M16 77C16 68.1634 23.1634 61 32 61C40.8366 61 48 68.1634 48 77C48 85.8366 40.8366 93 32 93C23.1634 93 16 85.8366 16 77Z" fill="#18181B" fill-opacity="0.1"/>
<path fill-rule="evenodd" clip-rule="evenodd" d="M26.1141 71.9477C25.333 72.7288 25.333 73.9859 25.333 76.5C25.333 79.0142 25.333 80.2713 26.1141 81.0523C26.8951 81.8334 28.1522 81.8334 30.6663 81.8334H33.333C35.8472 81.8334 37.1042 81.8334 37.8853 81.0523C38.6663 80.2713 38.6663 79.0142 38.6663 76.5C38.6663 73.9859 38.6663 72.7288 37.8853 71.9477C37.1042 71.1667 35.8472 71.1667 33.333 71.1667H30.6663C28.1522 71.1667 26.8951 71.1667 26.1141 71.9477ZM36.3838 73.5133C36.5606 73.7254 36.5319 74.0407 36.3198 74.2175L34.8554 75.4377C34.2645 75.9302 33.7856 76.3293 33.3629 76.6012C32.9226 76.8844 32.4937 77.0633 31.9997 77.0633C31.5056 77.0633 31.0768 76.8844 30.6365 76.6012C30.2138 76.3293 29.7348 75.9302 29.1439 75.4377L27.6796 74.2175C27.4674 74.0407 27.4388 73.7254 27.6156 73.5133C27.7923 73.3011 28.1076 73.2725 28.3198 73.4492L29.759 74.6486C30.381 75.1669 30.8128 75.5256 31.1774 75.7601C31.5303 75.9871 31.7696 76.0633 31.9997 76.0633C32.2297 76.0633 32.469 75.9871 32.822 75.7601C33.1865 75.5256 33.6183 75.1669 34.2403 74.6486L35.6796 73.4492C35.8917 73.2725 36.207 73.3011 36.3838 73.5133Z" fill="#18181B"/>
<path d="M59.2646 82V71.8145H66.3398V73.3799H61.0693V76.0596H65.9434V77.5977H61.0693V80.4346H66.3398V82H59.2646ZM67.5635 82V74.7812H69.2314V76.0322C69.4502 75.5674 69.7533 75.2188 70.1406 74.9863C70.528 74.7539 70.9495 74.6377 71.4053 74.6377C71.8929 74.6377 72.3236 74.763 72.6973 75.0137C73.071 75.2598 73.333 75.5902 73.4834 76.0049C73.6748 75.5902 73.9733 75.2598 74.3789 75.0137C74.7845 74.763 75.2516 74.6377 75.7803 74.6377C76.4639 74.6377 77.0381 74.8587 77.5029 75.3008C77.9678 75.7428 78.2002 76.3877 78.2002 77.2354V82H76.4707V77.4814C76.4707 77.0029 76.3385 76.6543 76.0742 76.4355C75.8145 76.2122 75.5 76.1006 75.1309 76.1006C74.6934 76.1006 74.347 76.2373 74.0918 76.5107C73.8411 76.7842 73.7158 77.1374 73.7158 77.5703V82H72.041V77.3994C72.041 77.0075 71.918 76.693 71.6719 76.4561C71.4258 76.2191 71.1113 76.1006 70.7285 76.1006C70.3411 76.1006 70.0039 76.2373 69.7168 76.5107C69.4297 76.7796 69.2861 77.1738 69.2861 77.6934V82H67.5635ZM81.9326 82.1162C81.2126 82.1162 80.6156 81.9362 80.1416 81.5762C79.6722 81.2116 79.4375 80.6693 79.4375 79.9492C79.4375 79.4023 79.5697 78.9808 79.834 78.6846C80.1029 78.3838 80.4515 78.165 80.8799 78.0283C81.3128 77.8916 81.7777 77.7982 82.2744 77.748C82.9443 77.6706 83.4115 77.6022 83.6758 77.543C83.9401 77.4837 84.0723 77.3311 84.0723 77.085V77.0303C84.0723 76.7204 83.9538 76.4674 83.7168 76.2715C83.4844 76.0755 83.1631 75.9775 82.7529 75.9775C82.3337 75.9775 81.9919 76.0755 81.7275 76.2715C81.4678 76.4674 81.3265 76.7181 81.3037 77.0234H79.6426C79.6836 76.3079 79.9821 75.7314 80.5381 75.2939C81.0941 74.8564 81.8438 74.6377 82.7871 74.6377C83.7259 74.6377 84.4596 74.8564 84.9883 75.2939C85.5169 75.7314 85.7812 76.3262 85.7812 77.0781V82H84.0859V80.9814H84.0586C83.8854 81.3005 83.6348 81.5693 83.3066 81.7881C82.9785 82.0068 82.5205 82.1162 81.9326 82.1162ZM82.3564 80.8379C82.9215 80.8379 83.3499 80.6921 83.6416 80.4004C83.9333 80.1042 84.0791 79.7464 84.0791 79.3271V78.5479C83.9743 78.6162 83.7715 78.68 83.4707 78.7393C83.1699 78.7939 82.8418 78.8486 82.4863 78.9033C82.1172 78.958 81.7959 79.0628 81.5225 79.2178C81.2536 79.3682 81.1191 79.6074 81.1191 79.9355C81.1191 80.2181 81.2308 80.4391 81.4541 80.5986C81.6774 80.7581 81.9782 80.8379 82.3564 80.8379ZM87.3057 82V74.7812H89.0283V82H87.3057ZM88.167 73.708C87.8708 73.708 87.6247 73.6146 87.4287 73.4277C87.2327 73.2363 87.1348 73.0016 87.1348 72.7236C87.1348 72.4456 87.2327 72.2132 87.4287 72.0264C87.6247 71.8395 87.8708 71.7461 88.167 71.7461C88.4587 71.7461 88.7025 71.8395 88.8984 72.0264C89.0944 72.2132 89.1924 72.4456 89.1924 72.7236C89.1924 73.0016 89.0944 73.2363 88.8984 73.4277C88.7025 73.6146 88.4587 73.708 88.167 73.708ZM92.2822 71.8145V82H90.5596V71.8145H92.2822ZM101.456 82.1641C100.545 82.1641 99.7311 81.9476 99.0156 81.5146C98.3047 81.0771 97.7419 80.4665 97.3271 79.6826C96.917 78.8942 96.7119 77.9714 96.7119 76.9141C96.7119 75.8522 96.917 74.9271 97.3271 74.1387C97.7419 73.3503 98.3047 72.7396 99.0156 72.3066C99.7311 71.8691 100.545 71.6504 101.456 71.6504C102.363 71.6504 103.174 71.8691 103.89 72.3066C104.605 72.7396 105.168 73.3503 105.578 74.1387C105.993 74.9271 106.2 75.8522 106.2 76.9141C106.2 77.9714 105.993 78.8942 105.578 79.6826C105.168 80.471 104.605 81.0817 103.89 81.5146C103.174 81.9476 102.363 82.1641 101.456 82.1641ZM101.456 80.5439C102.012 80.5439 102.509 80.4027 102.946 80.1201C103.388 79.8376 103.737 79.4274 103.992 78.8896C104.247 78.3473 104.375 77.6888 104.375 76.9141C104.375 76.1348 104.247 75.474 103.992 74.9316C103.737 74.3893 103.388 73.9769 102.946 73.6943C102.509 73.4118 102.012 73.2705 101.456 73.2705C100.9 73.2705 100.401 73.4118 99.959 73.6943C99.5215 73.9769 99.1729 74.3893 98.9131 74.9316C98.6579 75.474 98.5303 76.1348 98.5303 76.9141C98.5303 77.6888 98.6579 78.3473 98.9131 78.8896C99.1729 79.4274 99.5215 79.8376 99.959 80.1201C100.401 80.4027 100.9 80.5439 101.456 80.5439ZM110.028 82.1436C109.272 82.1436 108.654 81.8997 108.176 81.4121C107.697 80.9245 107.458 80.2181 107.458 79.293V74.7812H109.181V79.0195C109.181 79.5482 109.308 79.9492 109.563 80.2227C109.819 80.4961 110.176 80.6328 110.637 80.6328C111.092 80.6328 111.468 80.4915 111.765 80.209C112.065 79.9264 112.216 79.4775 112.216 78.8623V74.7812H113.945V82H112.25V80.8926C111.744 81.7266 111.004 82.1436 110.028 82.1436ZM119.291 74.7812V76.1689H117.821V79.9287C117.821 80.1885 117.874 80.3685 117.979 80.4688C118.083 80.5645 118.275 80.6123 118.553 80.6123H119.291V82H118.252C117.518 82 116.974 81.8519 116.618 81.5557C116.267 81.2594 116.092 80.8014 116.092 80.1816V76.1689H114.834V74.7812H116.092V72.8125H117.821V74.7812H119.291ZM120.378 82V74.7812H122.039V75.9775H122.06C122.192 75.5674 122.399 75.2552 122.682 75.041C122.969 74.8223 123.345 74.7129 123.81 74.7129C123.928 74.7129 124.033 74.7174 124.124 74.7266C124.22 74.7311 124.302 74.7357 124.37 74.7402V76.2715C124.306 76.2624 124.197 76.251 124.042 76.2373C123.887 76.2236 123.725 76.2168 123.557 76.2168C123.146 76.2168 122.8 76.3581 122.518 76.6406C122.24 76.9232 122.101 77.347 122.101 77.9121V82H120.378ZM128.458 82.1641C127.738 82.1641 127.114 82.0023 126.585 81.6787C126.056 81.3551 125.648 80.9108 125.361 80.3457C125.079 79.776 124.938 79.1266 124.938 78.3975C124.938 77.6637 125.083 77.0143 125.375 76.4492C125.671 75.8796 126.079 75.4329 126.599 75.1094C127.118 74.7812 127.715 74.6172 128.39 74.6172C129.082 74.6172 129.688 74.7767 130.208 75.0957C130.728 75.4147 131.131 75.8568 131.418 76.4219C131.705 76.9824 131.849 77.6318 131.849 78.3701V78.8418H126.626C126.649 79.4297 126.822 79.9036 127.146 80.2637C127.469 80.6237 127.92 80.8037 128.499 80.8037C128.932 80.8037 129.29 80.7103 129.572 80.5234C129.855 80.332 130.046 80.0814 130.146 79.7715H131.76C131.669 80.2409 131.468 80.6556 131.158 81.0156C130.853 81.3757 130.468 81.6582 130.003 81.8633C129.538 82.0638 129.023 82.1641 128.458 82.1641ZM126.64 77.6523H130.194C130.14 77.1374 129.953 76.7318 129.634 76.4355C129.319 76.1348 128.914 75.9844 128.417 75.9844C127.916 75.9844 127.508 76.1348 127.193 76.4355C126.883 76.7318 126.699 77.1374 126.64 77.6523ZM135.321 82.1162C134.601 82.1162 134.004 81.9362 133.53 81.5762C133.061 81.2116 132.826 80.6693 132.826 79.9492C132.826 79.4023 132.958 78.9808 133.223 78.6846C133.492 78.3838 133.84 78.165 134.269 78.0283C134.701 77.8916 135.166 77.7982 135.663 77.748C136.333 77.6706 136.8 77.6022 137.064 77.543C137.329 77.4837 137.461 77.3311 137.461 77.085V77.0303C137.461 76.7204 137.342 76.4674 137.105 76.2715C136.873 76.0755 136.552 75.9775 136.142 75.9775C135.722 75.9775 135.381 76.0755 135.116 76.2715C134.856 76.4674 134.715 76.7181 134.692 77.0234H133.031C133.072 76.3079 133.371 75.7314 133.927 75.2939C134.483 74.8564 135.232 74.6377 136.176 74.6377C137.115 74.6377 137.848 74.8564 138.377 75.2939C138.906 75.7314 139.17 76.3262 139.17 77.0781V82H137.475V80.9814H137.447C137.274 81.3005 137.023 81.5693 136.695 81.7881C136.367 82.0068 135.909 82.1162 135.321 82.1162ZM135.745 80.8379C136.31 80.8379 136.739 80.6921 137.03 80.4004C137.322 80.1042 137.468 79.7464 137.468 79.3271V78.5479C137.363 78.6162 137.16 78.68 136.859 78.7393C136.559 78.7939 136.23 78.8486 135.875 78.9033C135.506 78.958 135.185 79.0628 134.911 79.2178C134.642 79.3682 134.508 79.6074 134.508 79.9355C134.508 80.2181 134.619 80.4391 134.843 80.5986C135.066 80.7581 135.367 80.8379 135.745 80.8379ZM143.887 82.1641C143.185 82.1641 142.567 82.0046 142.034 81.6855C141.506 81.3665 141.093 80.9245 140.797 80.3594C140.505 79.7943 140.359 79.1403 140.359 78.3975C140.359 77.6546 140.505 77.0007 140.797 76.4355C141.093 75.8659 141.506 75.4215 142.034 75.1025C142.567 74.779 143.185 74.6172 143.887 74.6172C144.493 74.6172 145.033 74.7357 145.507 74.9727C145.981 75.2051 146.361 75.5286 146.648 75.9434C146.94 76.3535 147.111 76.8275 147.161 77.3652H145.473C145.409 76.9779 145.243 76.6634 144.974 76.4219C144.709 76.1758 144.354 76.0527 143.907 76.0527C143.342 76.0527 142.9 76.2646 142.581 76.6885C142.262 77.1123 142.103 77.682 142.103 78.3975C142.103 79.1084 142.262 79.6758 142.581 80.0996C142.9 80.5189 143.342 80.7285 143.907 80.7285C144.358 80.7285 144.709 80.61 144.96 80.373C145.211 80.1315 145.377 79.8102 145.459 79.4092H147.161C147.12 79.9378 146.954 80.4095 146.662 80.8242C146.375 81.2389 145.992 81.5671 145.514 81.8086C145.04 82.0456 144.497 82.1641 143.887 82.1641ZM150.046 77.9189V82H148.323V71.8145H150.046V75.8408C150.547 75.0387 151.276 74.6377 152.233 74.6377C152.99 74.6377 153.607 74.8815 154.086 75.3691C154.569 75.8568 154.811 76.5632 154.811 77.4883V82H153.081V77.7617C153.081 77.2331 152.953 76.832 152.698 76.5586C152.443 76.2852 152.085 76.1484 151.625 76.1484C151.174 76.1484 150.798 76.2897 150.497 76.5723C150.196 76.8548 150.046 77.3037 150.046 77.9189Z" fill="#1F2129"/>
</g>
<g filter="url(#filter1_ddddi_245_611)">
<path d="M8 127C8 121.477 12.4772 117 18 117H224.667C230.19 117 234.667 121.477 234.667 127V155C234.667 160.523 230.19 165 224.667 165H18C12.4772 165 8 160.523 8 155V127Z" fill="white" shape-rendering="crispEdges"/>
<path d="M18 116.583C12.247 116.583 7.58333 121.247 7.58333 127V155C7.58333 160.753 12.247 165.417 18 165.417H224.667C230.42 165.417 235.083 160.753 235.083 155V127C235.083 121.247 230.42 116.583 224.667 116.583H18Z" stroke="#18181B" stroke-opacity="0.06" stroke-width="0.833333" shape-rendering="crispEdges"/>
<path d="M16 141C16 132.163 23.1634 125 32 125C40.8366 125 48 132.163 48 141C48 149.837 40.8366 157 32 157C23.1634 157 16 149.837 16 141Z" fill="#2563EB" fill-opacity="0.1"/>
<path d="M35.5353 135H28.4647C27.6784 135 26.9243 135.312 26.3683 135.868C25.8123 136.424 25.5 137.178 25.5 137.965V145.035C25.5 145.822 25.8123 146.576 26.3683 147.132C26.9243 147.688 27.6784 148 28.4647 148H35.5353C36.3216 148 37.0757 147.688 37.6317 147.132C38.1877 146.576 38.5 145.822 38.5 145.035V137.965C38.5 137.178 38.1877 136.424 37.6317 135.868C37.0757 135.312 36.3216 135 35.5353 135ZM29.8953 145.495C29.8974 145.531 29.8921 145.567 29.8796 145.601C29.8671 145.636 29.8478 145.667 29.8229 145.693C29.7979 145.72 29.7678 145.741 29.7344 145.755C29.701 145.769 29.665 145.777 29.6287 145.777H28.442C28.3704 145.775 28.3024 145.745 28.2526 145.694C28.2027 145.642 28.175 145.574 28.1753 145.502V140.567C28.1744 140.531 28.1805 140.496 28.1935 140.462C28.2064 140.429 28.2259 140.399 28.2508 140.373C28.2757 140.348 28.3054 140.328 28.3382 140.314C28.3711 140.3 28.4064 140.293 28.442 140.293H29.6287C29.6643 140.293 29.6996 140.3 29.7324 140.314C29.7653 140.328 29.795 140.348 29.8199 140.373C29.8447 140.399 29.8642 140.429 29.8772 140.462C29.8901 140.496 29.8963 140.531 29.8953 140.567V145.495ZM29.0133 139.255C28.8849 139.254 28.7578 139.227 28.6395 139.177C28.5212 139.127 28.4139 139.054 28.3237 138.963C28.2335 138.871 28.1623 138.763 28.114 138.644C28.0657 138.525 28.0414 138.397 28.0423 138.269C28.0433 138.141 28.0696 138.013 28.1196 137.895C28.1697 137.777 28.2425 137.67 28.3341 137.579C28.4256 137.489 28.534 137.418 28.653 137.37C28.7721 137.321 28.8995 137.297 29.028 137.298C29.283 137.306 29.5247 137.414 29.7015 137.598C29.8782 137.782 29.9761 138.028 29.9742 138.283C29.9723 138.538 29.8707 138.782 29.6912 138.964C29.5117 139.145 29.2684 139.249 29.0133 139.253M36.2247 145.487C36.2244 145.554 36.1979 145.619 36.1509 145.667C36.1039 145.715 36.04 145.743 35.9727 145.745H34.72C34.6526 145.743 34.5886 145.715 34.5415 145.667C34.4945 145.618 34.4681 145.553 34.468 145.486V143.203C34.468 142.863 34.572 141.721 33.564 141.721C32.778 141.721 32.6227 142.521 32.5927 142.877V145.538C32.5927 145.606 32.5664 145.671 32.5194 145.719C32.4723 145.768 32.4082 145.796 32.3407 145.798H31.1253C31.0565 145.798 30.9905 145.77 30.9419 145.722C30.8933 145.673 30.866 145.607 30.866 145.538V140.543C30.8681 140.475 30.8964 140.411 30.9449 140.364C30.9935 140.317 31.0584 140.291 31.126 140.291H32.3407C32.4083 140.291 32.4732 140.317 32.5217 140.364C32.5703 140.411 32.5986 140.475 32.6007 140.543V140.973C32.778 140.713 33.0229 140.507 33.3088 140.376C33.5948 140.246 33.911 140.195 34.2233 140.231C36.2467 140.231 36.2393 142.121 36.2393 143.196L36.2247 145.487Z" fill="#2563EB"/>
<path d="M59.4711 146V135.818H61.3155V144.454H65.7999V146H59.4711ZM67.3212 146V138.364H69.1209V146H67.3212ZM68.226 137.28C67.941 137.28 67.6957 137.185 67.4902 136.996C67.2847 136.804 67.182 136.574 67.182 136.305C67.182 136.034 67.2847 135.803 67.4902 135.614C67.6957 135.422 67.941 135.326 68.226 135.326C68.5144 135.326 68.7596 135.422 68.9618 135.614C69.1673 135.803 69.2701 136.034 69.2701 136.305C69.2701 136.574 69.1673 136.804 68.9618 136.996C68.7596 137.185 68.5144 137.28 68.226 137.28ZM72.7713 141.526V146H70.9716V138.364H72.6918V139.661H72.7812C72.9569 139.234 73.237 138.894 73.6214 138.642C74.0092 138.39 74.4882 138.264 75.0582 138.264C75.5852 138.264 76.0443 138.377 76.4354 138.602C76.8298 138.828 77.1347 139.154 77.3501 139.582C77.5689 140.009 77.6766 140.528 77.6733 141.138V146H75.8736V141.416C75.8736 140.906 75.741 140.506 75.4759 140.218C75.214 139.93 74.8511 139.786 74.3871 139.786C74.0722 139.786 73.7921 139.855 73.5469 139.994C73.3049 140.13 73.1143 140.327 72.9751 140.586C72.8393 140.844 72.7713 141.158 72.7713 141.526ZM81.1435 143.604L81.1385 141.431H81.4268L84.1712 138.364H86.2741L82.8984 142.122H82.5256L81.1435 143.604ZM79.5028 146V135.818H81.3026V146H79.5028ZM84.2955 146L81.8097 142.525L83.0227 141.257L86.4482 146H84.2955ZM90.5398 146.149C89.7741 146.149 89.1129 145.99 88.5561 145.672C88.0026 145.35 87.5767 144.896 87.2784 144.31C86.9801 143.72 86.831 143.025 86.831 142.227C86.831 141.441 86.9801 140.752 87.2784 140.158C87.58 139.562 88.0009 139.098 88.5412 138.766C89.0814 138.432 89.7161 138.264 90.4453 138.264C90.916 138.264 91.3601 138.34 91.7777 138.493C92.1986 138.642 92.5698 138.874 92.8913 139.189C93.2161 139.504 93.4714 139.905 93.657 140.392C93.8426 140.876 93.9354 141.453 93.9354 142.122V142.674H87.6761V141.461H92.2102C92.2069 141.116 92.1323 140.81 91.9865 140.541C91.8407 140.269 91.6368 140.056 91.375 139.9C91.1165 139.744 90.8149 139.666 90.4702 139.666C90.1023 139.666 89.7791 139.756 89.5007 139.935C89.2223 140.11 89.0052 140.342 88.8494 140.631C88.697 140.916 88.6191 141.229 88.6158 141.57V142.629C88.6158 143.073 88.697 143.455 88.8594 143.773C89.0218 144.088 89.2488 144.33 89.5405 144.499C89.8321 144.664 90.1735 144.747 90.5646 144.747C90.8265 144.747 91.0634 144.711 91.2756 144.638C91.4877 144.562 91.6716 144.451 91.8274 144.305C91.9832 144.159 92.1009 143.978 92.1804 143.763L93.8608 143.952C93.7547 144.396 93.5526 144.784 93.2543 145.115C92.9593 145.443 92.5814 145.698 92.1207 145.881C91.66 146.06 91.133 146.149 90.5398 146.149ZM98.2917 146.134C97.6918 146.134 97.1549 145.98 96.6809 145.672C96.207 145.364 95.8324 144.916 95.5574 144.33C95.2823 143.743 95.1447 143.03 95.1447 142.192C95.1447 141.343 95.2839 140.627 95.5623 140.044C95.844 139.457 96.2235 139.015 96.7008 138.717C97.1781 138.415 97.71 138.264 98.2967 138.264C98.7441 138.264 99.112 138.34 99.4004 138.493C99.6887 138.642 99.9174 138.823 100.086 139.035C100.256 139.244 100.386 139.441 100.479 139.626H100.554V135.818H102.358V146H100.589V144.797H100.479C100.386 144.982 100.252 145.18 100.077 145.388C99.9009 145.594 99.6689 145.77 99.3805 145.915C99.0922 146.061 98.7292 146.134 98.2917 146.134ZM98.7939 144.658C99.175 144.658 99.4998 144.555 99.7683 144.349C100.037 144.141 100.241 143.851 100.38 143.479C100.519 143.108 100.589 142.676 100.589 142.182C100.589 141.688 100.519 141.259 100.38 140.894C100.244 140.53 100.042 140.246 99.7733 140.044C99.5081 139.842 99.1816 139.741 98.7939 139.741C98.3928 139.741 98.0581 139.845 97.7896 140.054C97.5211 140.263 97.319 140.551 97.1831 140.919C97.0472 141.287 96.9792 141.708 96.9792 142.182C96.9792 142.659 97.0472 143.085 97.1831 143.46C97.3223 143.831 97.5261 144.124 97.7946 144.339C98.0663 144.552 98.3994 144.658 98.7939 144.658ZM104.276 146V138.364H106.076V146H104.276ZM105.181 137.28C104.896 137.28 104.651 137.185 104.445 136.996C104.24 136.804 104.137 136.574 104.137 136.305C104.137 136.034 104.24 135.803 104.445 135.614C104.651 135.422 104.896 135.326 105.181 135.326C105.469 135.326 105.715 135.422 105.917 135.614C106.122 135.803 106.225 136.034 106.225 136.305C106.225 136.574 106.122 136.804 105.917 136.996C105.715 137.185 105.469 137.28 105.181 137.28ZM109.726 141.526V146H107.927V138.364H109.647V139.661H109.736C109.912 139.234 110.192 138.894 110.577 138.642C110.964 138.39 111.443 138.264 112.013 138.264C112.54 138.264 112.999 138.377 113.39 138.602C113.785 138.828 114.09 139.154 114.305 139.582C114.524 140.009 114.632 140.528 114.628 141.138V146H112.829V141.416C112.829 140.906 112.696 140.506 112.431 140.218C112.169 139.93 111.806 139.786 111.342 139.786C111.027 139.786 110.747 139.855 110.502 139.994C110.26 140.13 110.069 140.327 109.93 140.586C109.794 140.844 109.726 141.158 109.726 141.526Z" fill="#1F2129"/>
</g>
<g filter="url(#filter2_ddddi_245_611)">
<path d="M8 191C8 185.477 12.4772 181 18 181H224.667C230.19 181 234.667 185.477 234.667 191V219C234.667 224.523 230.19 229 224.667 229H18C12.4772 229 8 224.523 8 219V191Z" fill="white" shape-rendering="crispEdges"/>
<path d="M18 180.583C12.247 180.583 7.58333 185.247 7.58333 191V219C7.58333 224.753 12.247 229.417 18 229.417H224.667C230.42 229.417 235.083 224.753 235.083 219V191C235.083 185.247 230.42 180.583 224.667 180.583H18Z" stroke="#18181B" stroke-opacity="0.06" stroke-width="0.833333" shape-rendering="crispEdges"/>
<path d="M16 205C16 196.163 23.1634 189 32 189C40.8366 189 48 196.163 48 205C48 213.837 40.8366 221 32 221C23.1634 221 16 213.837 16 205Z" fill="#16A34A" fill-opacity="0.1"/>
<g clip-path="url(#clip0_245_611)">
<path d="M25.833 198.333C25.833 198.057 25.6092 197.833 25.333 197.833C25.0569 197.833 24.833 198.057 24.833 198.333V205.038C24.833 206.577 24.833 207.783 24.9595 208.724C25.089 209.687 25.3592 210.447 25.9558 211.044C26.5523 211.64 27.3123 211.911 28.2755 212.04C29.2165 212.167 30.4225 212.167 31.9614 212.167H38.6663C38.9425 212.167 39.1663 211.943 39.1663 211.667C39.1663 211.391 38.9425 211.167 38.6663 211.167H31.9997C30.4142 211.167 29.2754 211.166 28.4087 211.049C27.5565 210.935 27.0426 210.717 26.6629 210.337C26.2831 209.957 26.0652 209.443 25.9506 208.591C25.8341 207.724 25.833 206.586 25.833 205V198.333Z" fill="#16A34A"/>
<path d="M37.058 201.978C37.2297 201.761 37.1936 201.447 36.9774 201.275C36.7611 201.103 36.4466 201.14 36.2749 201.356L34.1962 203.973C34.0327 204.179 33.9255 204.314 33.8371 204.411C33.7507 204.506 33.7101 204.533 33.6917 204.543C33.5511 204.618 33.3832 204.621 33.2396 204.552C33.2207 204.543 33.179 204.518 33.0886 204.427C32.9961 204.334 32.8831 204.204 32.7108 204.006L32.7 203.993C32.5414 203.811 32.4062 203.655 32.2869 203.535C32.1629 203.41 32.0273 203.293 31.8593 203.213C31.4284 203.006 30.9247 203.017 30.5031 203.242C30.3388 203.33 30.2084 203.452 30.0899 203.582C29.9759 203.707 29.8476 203.869 29.6971 204.059L27.6081 206.689C27.4364 206.905 27.4725 207.22 27.6887 207.392C27.905 207.563 28.2195 207.527 28.3912 207.311L30.47 204.693C30.6335 204.487 30.7408 204.353 30.8291 204.256C30.9156 204.161 30.9561 204.134 30.9746 204.124C31.1151 204.049 31.283 204.045 31.4266 204.114C31.4455 204.123 31.4872 204.149 31.5777 204.24C31.6701 204.333 31.7831 204.462 31.9554 204.661L31.9662 204.673C32.1248 204.856 32.26 205.012 32.3793 205.132C32.5034 205.257 32.639 205.373 32.8069 205.454C33.2379 205.661 33.7416 205.65 34.1631 205.424C34.3274 205.337 34.4579 205.214 34.5763 205.084C34.6903 204.959 34.8186 204.798 34.9691 204.608L37.058 201.978Z" fill="#16A34A"/>
</g>
<path d="M59.1175 210V199.818H62.9357C63.7179 199.818 64.3742 199.964 64.9045 200.256C65.4381 200.547 65.8408 200.948 66.1126 201.459C66.3877 201.966 66.5252 202.543 66.5252 203.189C66.5252 203.842 66.3877 204.422 66.1126 204.929C65.8375 205.436 65.4315 205.835 64.8945 206.127C64.3576 206.415 63.6964 206.56 62.9109 206.56H60.3803V205.043H62.6623C63.1197 205.043 63.4942 204.964 63.7859 204.805C64.0775 204.646 64.293 204.427 64.4322 204.148C64.5747 203.87 64.646 203.55 64.646 203.189C64.646 202.828 64.5747 202.509 64.4322 202.234C64.293 201.959 64.0759 201.746 63.7809 201.593C63.4892 201.437 63.113 201.359 62.6523 201.359H60.962V210H59.1175ZM68.0478 210V202.364H69.7928V203.636H69.8723C70.0115 203.196 70.2502 202.856 70.5882 202.617C70.9296 202.375 71.3191 202.254 71.7566 202.254C71.856 202.254 71.967 202.259 72.0897 202.269C72.2156 202.276 72.32 202.287 72.4029 202.304V203.96C72.3266 203.933 72.2057 203.91 72.04 203.89C71.8775 203.867 71.7201 203.855 71.5676 203.855C71.2395 203.855 70.9445 203.926 70.6827 204.069C70.4242 204.208 70.2203 204.402 70.0712 204.651C69.9221 204.899 69.8475 205.186 69.8475 205.511V210H68.0478ZM76.6151 210.149C75.8693 210.149 75.223 209.985 74.6761 209.657C74.1293 209.329 73.705 208.87 73.4034 208.28C73.1051 207.69 72.956 207 72.956 206.212C72.956 205.423 73.1051 204.732 73.4034 204.138C73.705 203.545 74.1293 203.085 74.6761 202.756C75.223 202.428 75.8693 202.264 76.6151 202.264C77.3608 202.264 78.0071 202.428 78.554 202.756C79.1009 203.085 79.5234 203.545 79.8217 204.138C80.1233 204.732 80.2741 205.423 80.2741 206.212C80.2741 207 80.1233 207.69 79.8217 208.28C79.5234 208.87 79.1009 209.329 78.554 209.657C78.0071 209.985 77.3608 210.149 76.6151 210.149ZM76.625 208.707C77.0294 208.707 77.3674 208.596 77.6392 208.374C77.911 208.149 78.1132 207.847 78.2457 207.469C78.3816 207.092 78.4496 206.671 78.4496 206.207C78.4496 205.739 78.3816 205.317 78.2457 204.939C78.1132 204.558 77.911 204.254 77.6392 204.029C77.3674 203.804 77.0294 203.691 76.625 203.691C76.2107 203.691 75.866 203.804 75.5909 204.029C75.3191 204.254 75.1153 204.558 74.9794 204.939C74.8468 205.317 74.7805 205.739 74.7805 206.207C74.7805 206.671 74.8468 207.092 74.9794 207.469C75.1153 207.847 75.3191 208.149 75.5909 208.374C75.866 208.596 76.2107 208.707 76.625 208.707ZM85.1227 213.023C84.4764 213.023 83.9212 212.935 83.4572 212.759C82.9932 212.587 82.6203 212.355 82.3386 212.063C82.0569 211.772 81.8613 211.448 81.752 211.094L83.3727 210.701C83.4456 210.85 83.5517 210.998 83.6909 211.143C83.8301 211.293 84.0173 211.415 84.2527 211.511C84.4913 211.611 84.7913 211.661 85.1525 211.661C85.6629 211.661 86.0855 211.536 86.4203 211.288C86.755 211.042 86.9224 210.638 86.9224 210.075V208.628H86.8329C86.7401 208.813 86.6042 209.004 86.4252 209.2C86.2496 209.395 86.0159 209.559 85.7243 209.692C85.4359 209.824 85.073 209.891 84.6355 209.891C84.0488 209.891 83.5169 209.753 83.0396 209.478C82.5656 209.2 82.1878 208.785 81.9061 208.235C81.6277 207.682 81.4885 206.989 81.4885 206.157C81.4885 205.318 81.6277 204.611 81.9061 204.034C82.1878 203.454 82.5673 203.015 83.0446 202.717C83.5218 202.415 84.0538 202.264 84.6404 202.264C85.0879 202.264 85.4558 202.34 85.7441 202.493C86.0358 202.642 86.2678 202.823 86.4402 203.035C86.6125 203.244 86.7434 203.441 86.8329 203.626H86.9324V202.364H88.7072V210.124C88.7072 210.777 88.5514 211.317 88.2399 211.745C87.9283 212.173 87.5024 212.492 86.9622 212.705C86.4219 212.917 85.8088 213.023 85.1227 213.023ZM85.1376 208.479C85.5188 208.479 85.8436 208.386 86.112 208.2C86.3805 208.015 86.5843 207.748 86.7235 207.4C86.8627 207.052 86.9324 206.634 86.9324 206.147C86.9324 205.666 86.8627 205.246 86.7235 204.884C86.5877 204.523 86.3855 204.243 86.117 204.044C85.8519 203.842 85.5254 203.741 85.1376 203.741C84.7366 203.741 84.4018 203.845 84.1333 204.054C83.8649 204.263 83.6627 204.549 83.5268 204.914C83.3909 205.275 83.323 205.686 83.323 206.147C83.323 206.614 83.3909 207.024 83.5268 207.375C83.666 207.723 83.8699 207.995 84.1383 208.19C84.4101 208.383 84.7432 208.479 85.1376 208.479ZM90.5517 210V202.364H92.2967V203.636H92.3762C92.5154 203.196 92.7541 202.856 93.0922 202.617C93.4335 202.375 93.823 202.254 94.2605 202.254C94.3599 202.254 94.4709 202.259 94.5936 202.269C94.7195 202.276 94.8239 202.287 94.9068 202.304V203.96C94.8306 203.933 94.7096 203.91 94.5439 203.89C94.3815 203.867 94.224 203.855 94.0716 203.855C93.7434 203.855 93.4484 203.926 93.1866 204.069C92.9281 204.208 92.7243 204.402 92.5751 204.651C92.426 204.899 92.3514 205.186 92.3514 205.511V210H90.5517ZM99.1687 210.149C98.4031 210.149 97.7418 209.99 97.185 209.672C96.6315 209.35 96.2056 208.896 95.9073 208.31C95.609 207.72 95.4599 207.025 95.4599 206.227C95.4599 205.441 95.609 204.752 95.9073 204.158C96.2089 203.562 96.6299 203.098 97.1701 202.766C97.7103 202.432 98.3451 202.264 99.0742 202.264C99.5449 202.264 99.989 202.34 100.407 202.493C100.828 202.642 101.199 202.874 101.52 203.189C101.845 203.504 102.1 203.905 102.286 204.392C102.471 204.876 102.564 205.453 102.564 206.122V206.674H96.305V205.461H100.839C100.836 205.116 100.761 204.81 100.615 204.541C100.47 204.269 100.266 204.056 100.004 203.9C99.7454 203.744 99.4438 203.666 99.0991 203.666C98.7312 203.666 98.408 203.756 98.1296 203.935C97.8512 204.11 97.6341 204.342 97.4783 204.631C97.3259 204.916 97.248 205.229 97.2447 205.57V206.629C97.2447 207.073 97.3259 207.455 97.4883 207.773C97.6507 208.088 97.8777 208.33 98.1694 208.499C98.4611 208.664 98.8024 208.747 99.1935 208.747C99.4554 208.747 99.6924 208.711 99.9045 208.638C100.117 208.562 100.301 208.451 100.456 208.305C100.612 208.159 100.73 207.978 100.809 207.763L102.49 207.952C102.384 208.396 102.181 208.784 101.883 209.115C101.588 209.443 101.21 209.698 100.75 209.881C100.289 210.06 99.762 210.149 99.1687 210.149ZM110.122 204.382L108.482 204.561C108.435 204.395 108.354 204.24 108.238 204.094C108.125 203.948 107.973 203.83 107.781 203.741C107.588 203.651 107.353 203.607 107.075 203.607C106.7 203.607 106.385 203.688 106.13 203.85C105.878 204.013 105.754 204.223 105.757 204.482C105.754 204.704 105.835 204.884 106.001 205.023C106.17 205.163 106.448 205.277 106.836 205.366L108.139 205.645C108.861 205.801 109.398 206.048 109.749 206.386C110.104 206.724 110.283 207.166 110.286 207.713C110.283 208.194 110.142 208.618 109.864 208.986C109.589 209.35 109.206 209.635 108.715 209.841C108.225 210.046 107.661 210.149 107.025 210.149C106.09 210.149 105.338 209.954 104.768 209.562C104.198 209.168 103.858 208.62 103.749 207.917L105.504 207.748C105.583 208.093 105.752 208.353 106.011 208.528C106.269 208.704 106.606 208.792 107.02 208.792C107.448 208.792 107.791 208.704 108.049 208.528C108.311 208.353 108.442 208.136 108.442 207.877C108.442 207.658 108.357 207.478 108.188 207.335C108.023 207.193 107.764 207.083 107.413 207.007L106.11 206.734C105.378 206.581 104.836 206.324 104.485 205.963C104.133 205.598 103.959 205.138 103.963 204.581C103.959 204.11 104.087 203.703 104.345 203.358C104.607 203.01 104.97 202.741 105.434 202.553C105.901 202.36 106.44 202.264 107.05 202.264C107.945 202.264 108.649 202.455 109.163 202.836C109.68 203.217 110 203.732 110.122 204.382ZM117.806 204.382L116.165 204.561C116.119 204.395 116.038 204.24 115.922 204.094C115.809 203.948 115.657 203.83 115.464 203.741C115.272 203.651 115.037 203.607 114.758 203.607C114.384 203.607 114.069 203.688 113.814 203.85C113.562 204.013 113.438 204.223 113.441 204.482C113.438 204.704 113.519 204.884 113.684 205.023C113.854 205.163 114.132 205.277 114.52 205.366L115.822 205.645C116.545 205.801 117.082 206.048 117.433 206.386C117.788 206.724 117.967 207.166 117.97 207.713C117.967 208.194 117.826 208.618 117.547 208.986C117.272 209.35 116.89 209.635 116.399 209.841C115.908 210.046 115.345 210.149 114.709 210.149C113.774 210.149 113.022 209.954 112.452 209.562C111.881 209.168 111.542 208.62 111.432 207.917L113.187 207.748C113.267 208.093 113.436 208.353 113.694 208.528C113.953 208.704 114.289 208.792 114.704 208.792C115.131 208.792 115.474 208.704 115.733 208.528C115.995 208.353 116.126 208.136 116.126 207.877C116.126 207.658 116.041 207.478 115.872 207.335C115.706 207.193 115.448 207.083 115.096 207.007L113.794 206.734C113.061 206.581 112.519 206.324 112.168 205.963C111.817 205.598 111.643 205.138 111.646 204.581C111.643 204.11 111.77 203.703 112.029 203.358C112.291 203.01 112.654 202.741 113.118 202.553C113.585 202.36 114.124 202.264 114.733 202.264C115.628 202.264 116.333 202.455 116.846 202.836C117.363 203.217 117.683 203.732 117.806 204.382ZM122.559 201.364V199.818H130.682V201.364H127.535V210H125.706V201.364H122.559ZM131.376 210V202.364H133.121V203.636H133.2C133.34 203.196 133.578 202.856 133.916 202.617C134.258 202.375 134.647 202.254 135.085 202.254C135.184 202.254 135.295 202.259 135.418 202.269C135.544 202.276 135.648 202.287 135.731 202.304V203.96C135.655 203.933 135.534 203.91 135.368 203.89C135.206 203.867 135.048 203.855 134.896 203.855C134.568 203.855 134.273 203.926 134.011 204.069C133.752 204.208 133.548 204.402 133.399 204.651C133.25 204.899 133.176 205.186 133.176 205.511V210H131.376ZM138.987 210.154C138.503 210.154 138.068 210.068 137.68 209.896C137.295 209.72 136.99 209.461 136.765 209.12C136.543 208.779 136.432 208.358 136.432 207.857C136.432 207.426 136.512 207.07 136.671 206.788C136.83 206.507 137.047 206.281 137.322 206.112C137.597 205.943 137.907 205.816 138.252 205.729C138.6 205.64 138.959 205.575 139.33 205.536C139.778 205.489 140.141 205.448 140.419 205.411C140.698 205.371 140.9 205.312 141.026 205.232C141.155 205.149 141.22 205.022 141.22 204.849V204.82C141.22 204.445 141.109 204.155 140.887 203.95C140.664 203.744 140.345 203.641 139.927 203.641C139.486 203.641 139.137 203.737 138.878 203.93C138.623 204.122 138.45 204.349 138.361 204.611L136.681 204.372C136.813 203.908 137.032 203.52 137.337 203.209C137.642 202.894 138.015 202.659 138.455 202.503C138.896 202.344 139.383 202.264 139.917 202.264C140.285 202.264 140.651 202.307 141.016 202.393C141.38 202.48 141.713 202.622 142.015 202.821C142.317 203.017 142.559 203.283 142.741 203.621C142.927 203.96 143.019 204.382 143.019 204.889V210H141.289V208.951H141.23C141.12 209.163 140.966 209.362 140.767 209.548C140.572 209.73 140.325 209.877 140.026 209.99C139.731 210.099 139.385 210.154 138.987 210.154ZM139.455 208.832C139.816 208.832 140.129 208.76 140.394 208.618C140.66 208.472 140.863 208.28 141.006 208.041C141.152 207.803 141.225 207.542 141.225 207.261V206.361C141.168 206.407 141.072 206.45 140.936 206.49C140.804 206.53 140.655 206.565 140.489 206.594C140.323 206.624 140.159 206.651 139.997 206.674C139.834 206.697 139.693 206.717 139.574 206.734C139.306 206.77 139.065 206.83 138.853 206.913C138.641 206.996 138.474 207.112 138.351 207.261C138.228 207.406 138.167 207.595 138.167 207.827C138.167 208.159 138.288 208.409 138.53 208.578C138.772 208.747 139.08 208.832 139.455 208.832ZM148.16 210.149C147.398 210.149 146.743 209.982 146.196 209.647C145.653 209.312 145.233 208.85 144.938 208.26C144.647 207.667 144.501 206.984 144.501 206.212C144.501 205.436 144.65 204.752 144.948 204.158C145.247 203.562 145.668 203.098 146.211 202.766C146.758 202.432 147.404 202.264 148.15 202.264C148.77 202.264 149.318 202.379 149.796 202.607C150.276 202.833 150.659 203.152 150.944 203.567C151.229 203.978 151.392 204.458 151.431 205.009H149.711C149.642 204.641 149.476 204.334 149.214 204.089C148.955 203.84 148.609 203.716 148.175 203.716C147.807 203.716 147.484 203.815 147.205 204.014C146.927 204.21 146.71 204.491 146.554 204.859C146.402 205.227 146.325 205.668 146.325 206.182C146.325 206.702 146.402 207.15 146.554 207.524C146.707 207.895 146.92 208.182 147.195 208.384C147.474 208.583 147.8 208.683 148.175 208.683C148.44 208.683 148.677 208.633 148.886 208.533C149.098 208.431 149.275 208.283 149.418 208.091C149.56 207.899 149.658 207.665 149.711 207.39H151.431C151.388 207.93 151.229 208.409 150.954 208.827C150.679 209.241 150.304 209.566 149.83 209.801C149.356 210.033 148.8 210.149 148.16 210.149ZM154.55 207.604L154.545 205.431H154.833L157.577 202.364H159.68L156.305 206.122H155.932L154.55 207.604ZM152.909 210V199.818H154.709V210H152.909ZM157.702 210L155.216 206.525L156.429 205.257L159.854 210H157.702ZM160.88 210V202.364H162.68V210H160.88ZM161.785 201.28C161.5 201.28 161.254 201.185 161.049 200.996C160.843 200.804 160.741 200.574 160.741 200.305C160.741 200.034 160.843 199.803 161.049 199.614C161.254 199.422 161.5 199.326 161.785 199.326C162.073 199.326 162.318 199.422 162.52 199.614C162.726 199.803 162.829 200.034 162.829 200.305C162.829 200.574 162.726 200.804 162.52 200.996C162.318 201.185 162.073 201.28 161.785 201.28ZM166.33 205.526V210H164.53V202.364H166.25V203.661H166.34C166.516 203.234 166.796 202.894 167.18 202.642C167.568 202.39 168.047 202.264 168.617 202.264C169.144 202.264 169.603 202.377 169.994 202.602C170.388 202.828 170.693 203.154 170.909 203.582C171.127 204.009 171.235 204.528 171.232 205.138V210H169.432V205.416C169.432 204.906 169.3 204.506 169.034 204.218C168.773 203.93 168.41 203.786 167.946 203.786C167.631 203.786 167.351 203.855 167.105 203.994C166.864 204.13 166.673 204.327 166.534 204.586C166.398 204.844 166.33 205.158 166.33 205.526ZM176.382 213.023C175.736 213.023 175.181 212.935 174.717 212.759C174.253 212.587 173.88 212.355 173.598 212.063C173.317 211.772 173.121 211.448 173.012 211.094L174.632 210.701C174.705 210.85 174.811 210.998 174.951 211.143C175.09 211.293 175.277 211.415 175.512 211.511C175.751 211.611 176.051 211.661 176.412 211.661C176.923 211.661 177.345 211.536 177.68 211.288C178.015 211.042 178.182 210.638 178.182 210.075V208.628H178.093C178 208.813 177.864 209.004 177.685 209.2C177.509 209.395 177.276 209.559 176.984 209.692C176.696 209.824 176.333 209.891 175.895 209.891C175.309 209.891 174.777 209.753 174.299 209.478C173.825 209.2 173.448 208.785 173.166 208.235C172.887 207.682 172.748 206.989 172.748 206.157C172.748 205.318 172.887 204.611 173.166 204.034C173.448 203.454 173.827 203.015 174.304 202.717C174.782 202.415 175.314 202.264 175.9 202.264C176.348 202.264 176.716 202.34 177.004 202.493C177.296 202.642 177.528 202.823 177.7 203.035C177.872 203.244 178.003 203.441 178.093 203.626H178.192V202.364H179.967V210.124C179.967 210.777 179.811 211.317 179.5 211.745C179.188 212.173 178.762 212.492 178.222 212.705C177.682 212.917 177.069 213.023 176.382 213.023ZM176.397 208.479C176.779 208.479 177.103 208.386 177.372 208.2C177.64 208.015 177.844 207.748 177.983 207.4C178.123 207.052 178.192 206.634 178.192 206.147C178.192 205.666 178.123 205.246 177.983 204.884C177.847 204.523 177.645 204.243 177.377 204.044C177.112 203.842 176.785 203.741 176.397 203.741C175.996 203.741 175.662 203.845 175.393 204.054C175.125 204.263 174.922 204.549 174.787 204.914C174.651 205.275 174.583 205.686 174.583 206.147C174.583 206.614 174.651 207.024 174.787 207.375C174.926 207.723 175.13 207.995 175.398 208.19C175.67 208.383 176.003 208.479 176.397 208.479Z" fill="#1F2129"/>
</g>
<g filter="url(#filter3_ddddi_245_611)">
<path d="M8 255C8 249.477 12.4772 245 18 245H224.667C230.19 245 234.667 249.477 234.667 255V283C234.667 288.523 230.19 293 224.667 293H18C12.4772 293 8 288.523 8 283V255Z" fill="white" shape-rendering="crispEdges"/>
<path d="M18 244.583C12.247 244.583 7.58333 249.247 7.58333 255V283C7.58333 288.753 12.247 293.417 18 293.417H224.667C230.42 293.417 235.083 288.753 235.083 283V255C235.083 249.247 230.42 244.583 224.667 244.583H18Z" stroke="#18181B" stroke-opacity="0.06" stroke-width="0.833333" shape-rendering="crispEdges"/>
<path d="M16 269C16 260.163 23.1634 253 32 253C40.8366 253 48 260.163 48 269C48 277.837 40.8366 285 32 285C23.1634 285 16 277.837 16 269Z" fill="#7C3AED" fill-opacity="0.1"/>
<path d="M34.3708 270.698L34.0671 271.018C34.0671 271.018 33.3454 271.778 31.3754 269.704C29.4054 267.63 30.1271 266.87 30.1271 266.87L30.3183 266.669C30.7894 266.173 30.8338 265.377 30.4228 264.795L29.5822 263.606C29.0735 262.887 28.0906 262.792 27.5076 263.406L26.4612 264.507C26.1722 264.812 25.9784 265.206 26.0019 265.644C26.062 266.764 26.5405 269.173 29.2102 271.983C32.0414 274.964 34.6979 275.083 35.7842 274.975C36.1278 274.941 36.4266 274.756 36.6674 274.503L37.6144 273.506C38.2537 272.833 38.0735 271.679 37.2556 271.208L35.9819 270.475C35.4448 270.166 34.7905 270.257 34.3708 270.698Z" fill="#7C3AED"/>
<path d="M32.8393 262.253C32.8835 261.981 33.1412 261.796 33.4138 261.84C33.4306 261.843 33.4849 261.853 33.5134 261.86C33.5702 261.872 33.6496 261.892 33.7485 261.921C33.9464 261.978 34.2228 262.073 34.5545 262.225C35.2187 262.53 36.1026 263.062 37.0198 263.98C37.937 264.897 38.4697 265.781 38.7742 266.445C38.9263 266.777 39.0212 267.053 39.0788 267.251C39.1076 267.35 39.1271 267.429 39.1398 267.486C39.1461 267.514 39.1508 267.537 39.154 267.554L39.1578 267.575C39.202 267.848 39.0187 268.116 38.7461 268.16C38.4743 268.204 38.2183 268.02 38.1731 267.749C38.1717 267.741 38.1678 267.722 38.1637 267.703C38.1555 267.666 38.1413 267.608 38.1187 267.53C38.0736 267.376 37.9952 267.145 37.8651 266.862C37.6053 266.295 37.1379 265.512 36.3127 264.687C35.4874 263.861 34.7047 263.394 34.1378 263.134C33.854 263.004 33.6238 262.926 33.4689 262.881C33.3914 262.858 33.2941 262.836 33.2572 262.828C32.9859 262.782 32.7953 262.525 32.8393 262.253Z" fill="#7C3AED"/>
<path fill-rule="evenodd" clip-rule="evenodd" d="M32.9902 264.553C33.066 264.287 33.3428 264.134 33.6083 264.209L33.4709 264.69C33.6083 264.209 33.6083 264.209 33.6083 264.209L33.6092 264.21L33.6103 264.21L33.6125 264.211L33.6177 264.212L33.6309 264.216C33.6409 264.22 33.6535 264.224 33.6684 264.229C33.6984 264.24 33.7379 264.255 33.7865 264.276C33.8836 264.317 34.0163 264.381 34.1793 264.478C34.5056 264.671 34.9511 264.992 35.4744 265.515C35.9977 266.038 36.3185 266.484 36.5116 266.81C36.6081 266.973 36.6724 267.106 36.714 267.203C36.7348 267.252 36.7499 267.291 36.7605 267.321C36.7658 267.336 36.77 267.349 36.7732 267.359L36.7774 267.372L36.7789 267.377L36.7795 267.379L36.7798 267.38C36.7798 267.38 36.7801 267.381 36.2994 267.519L36.7801 267.381C36.856 267.647 36.7022 267.924 36.4367 267.999C36.1735 268.075 35.8992 267.924 35.8206 267.663L35.8181 267.656C35.8145 267.646 35.8072 267.626 35.7949 267.597C35.7702 267.539 35.7255 267.445 35.651 267.32C35.5024 267.068 35.2339 266.689 34.7673 266.222C34.3007 265.756 33.9212 265.487 33.67 265.339C33.5443 265.264 33.4501 265.219 33.3926 265.195C33.3638 265.182 33.344 265.175 33.334 265.171L33.3268 265.169C33.0655 265.09 32.9149 264.816 32.9902 264.553Z" fill="#7C3AED"/>
<path d="M67.9499 267.254H66.0906C66.0375 266.949 65.9397 266.679 65.7972 266.443C65.6547 266.205 65.4774 266.002 65.2653 265.837C65.0531 265.671 64.8112 265.547 64.5394 265.464C64.271 265.378 63.9809 265.335 63.6694 265.335C63.1159 265.335 62.6254 265.474 62.1978 265.752C61.7702 266.027 61.4355 266.432 61.1935 266.965C60.9516 267.496 60.8306 268.143 60.8306 268.909C60.8306 269.688 60.9516 270.344 61.1935 270.878C61.4388 271.408 61.7736 271.809 62.1978 272.081C62.6254 272.349 63.1142 272.484 63.6644 272.484C63.9693 272.484 64.2544 272.444 64.5195 272.364C64.788 272.281 65.0283 272.161 65.2404 272.001C65.4558 271.842 65.6365 271.647 65.7823 271.415C65.9315 271.183 66.0342 270.918 66.0906 270.619L67.9499 270.629C67.8803 271.113 67.7295 271.567 67.4975 271.991C67.2688 272.416 66.9689 272.79 66.5977 273.115C66.2264 273.437 65.7923 273.688 65.2951 273.871C64.7979 274.05 64.2461 274.139 63.6396 274.139C62.7447 274.139 61.9459 273.932 61.2433 273.518C60.5406 273.103 59.9871 272.505 59.5827 271.723C59.1784 270.941 58.9762 270.003 58.9762 268.909C58.9762 267.812 59.18 266.874 59.5877 266.095C59.9954 265.313 60.5505 264.715 61.2532 264.3C61.9558 263.886 62.7513 263.679 63.6396 263.679C64.2063 263.679 64.7333 263.759 65.2205 263.918C65.7077 264.077 66.1419 264.31 66.5231 264.619C66.9042 264.924 67.2174 265.298 67.4627 265.742C67.7113 266.183 67.8737 266.687 67.9499 267.254ZM72.8904 274.149C72.1447 274.149 71.4984 273.985 70.9515 273.657C70.4047 273.329 69.9804 272.87 69.6788 272.28C69.3805 271.69 69.2314 271 69.2314 270.212C69.2314 269.423 69.3805 268.732 69.6788 268.138C69.9804 267.545 70.4047 267.085 70.9515 266.756C71.4984 266.428 72.1447 266.264 72.8904 266.264C73.6362 266.264 74.2825 266.428 74.8294 266.756C75.3762 267.085 75.7988 267.545 76.0971 268.138C76.3987 268.732 76.5495 269.423 76.5495 270.212C76.5495 271 76.3987 271.69 76.0971 272.28C75.7988 272.87 75.3762 273.329 74.8294 273.657C74.2825 273.985 73.6362 274.149 72.8904 274.149ZM72.9004 272.707C73.3047 272.707 73.6428 272.596 73.9146 272.374C74.1864 272.149 74.3886 271.847 74.5211 271.469C74.657 271.092 74.725 270.671 74.725 270.207C74.725 269.739 74.657 269.317 74.5211 268.939C74.3886 268.558 74.1864 268.254 73.9146 268.029C73.6428 267.804 73.3047 267.691 72.9004 267.691C72.4861 267.691 72.1414 267.804 71.8663 268.029C71.5945 268.254 71.3907 268.558 71.2548 268.939C71.1222 269.317 71.0559 269.739 71.0559 270.207C71.0559 270.671 71.1222 271.092 71.2548 271.469C71.3907 271.847 71.5945 272.149 71.8663 272.374C72.1414 272.596 72.4861 272.707 72.9004 272.707ZM79.8768 263.818V274H78.0771V263.818H79.8768ZM84.5613 274.134C83.9614 274.134 83.4244 273.98 82.9505 273.672C82.4765 273.364 82.102 272.916 81.8269 272.33C81.5518 271.743 81.4142 271.03 81.4142 270.192C81.4142 269.343 81.5534 268.627 81.8319 268.044C82.1136 267.457 82.4931 267.015 82.9703 266.717C83.4476 266.415 83.9796 266.264 84.5662 266.264C85.0137 266.264 85.3816 266.34 85.6699 266.493C85.9583 266.642 86.187 266.823 86.356 267.035C86.525 267.244 86.656 267.441 86.7488 267.626H86.8233V263.818H88.628V274H86.8581V272.797H86.7488C86.656 272.982 86.5217 273.18 86.3461 273.388C86.1704 273.594 85.9384 273.77 85.65 273.915C85.3617 274.061 84.9988 274.134 84.5613 274.134ZM85.0634 272.658C85.4445 272.658 85.7694 272.555 86.0378 272.349C86.3063 272.141 86.5101 271.851 86.6493 271.479C86.7885 271.108 86.8581 270.676 86.8581 270.182C86.8581 269.688 86.7885 269.259 86.6493 268.894C86.5134 268.53 86.3113 268.246 86.0428 268.044C85.7776 267.842 85.4512 267.741 85.0634 267.741C84.6623 267.741 84.3276 267.845 84.0591 268.054C83.7907 268.263 83.5885 268.551 83.4526 268.919C83.3167 269.287 83.2488 269.708 83.2488 270.182C83.2488 270.659 83.3167 271.085 83.4526 271.46C83.5918 271.831 83.7956 272.124 84.0641 272.339C84.3359 272.552 84.669 272.658 85.0634 272.658ZM102.813 267.254H100.954C100.901 266.949 100.803 266.679 100.661 266.443C100.518 266.205 100.341 266.002 100.129 265.837C99.9164 265.671 99.6745 265.547 99.4027 265.464C99.1342 265.378 98.8442 265.335 98.5327 265.335C97.9792 265.335 97.4886 265.474 97.0611 265.752C96.6335 266.027 96.2988 266.432 96.0568 266.965C95.8149 267.496 95.6939 268.143 95.6939 268.909C95.6939 269.688 95.8149 270.344 96.0568 270.878C96.3021 271.408 96.6368 271.809 97.0611 272.081C97.4886 272.349 97.9775 272.484 98.5277 272.484C98.8326 272.484 99.1177 272.444 99.3828 272.364C99.6513 272.281 99.8916 272.161 100.104 272.001C100.319 271.842 100.5 271.647 100.646 271.415C100.795 271.183 100.897 270.918 100.954 270.619L102.813 270.629C102.744 271.113 102.593 271.567 102.361 271.991C102.132 272.416 101.832 272.79 101.461 273.115C101.09 273.437 100.656 273.688 100.158 273.871C99.6612 274.05 99.1094 274.139 98.5028 274.139C97.608 274.139 96.8092 273.932 96.1065 273.518C95.4039 273.103 94.8504 272.505 94.446 271.723C94.0417 270.941 93.8395 270.003 93.8395 268.909C93.8395 267.812 94.0433 266.874 94.451 266.095C94.8587 265.313 95.4138 264.715 96.1165 264.3C96.8191 263.886 97.6146 263.679 98.5028 263.679C99.0696 263.679 99.5966 263.759 100.084 263.918C100.571 264.077 101.005 264.31 101.386 264.619C101.768 264.924 102.081 265.298 102.326 265.742C102.575 266.183 102.737 266.687 102.813 267.254ZM106.62 274.154C106.136 274.154 105.7 274.068 105.313 273.896C104.928 273.72 104.623 273.461 104.398 273.12C104.176 272.779 104.065 272.358 104.065 271.857C104.065 271.426 104.144 271.07 104.303 270.788C104.463 270.507 104.68 270.281 104.955 270.112C105.23 269.943 105.54 269.816 105.884 269.729C106.232 269.64 106.592 269.575 106.963 269.536C107.411 269.489 107.774 269.448 108.052 269.411C108.33 269.371 108.533 269.312 108.659 269.232C108.788 269.149 108.852 269.022 108.852 268.849V268.82C108.852 268.445 108.741 268.155 108.519 267.95C108.297 267.744 107.977 267.641 107.56 267.641C107.119 267.641 106.769 267.737 106.511 267.93C106.256 268.122 106.083 268.349 105.994 268.611L104.313 268.372C104.446 267.908 104.665 267.52 104.97 267.209C105.275 266.894 105.647 266.659 106.088 266.503C106.529 266.344 107.016 266.264 107.55 266.264C107.918 266.264 108.284 266.307 108.649 266.393C109.013 266.48 109.346 266.622 109.648 266.821C109.95 267.017 110.191 267.283 110.374 267.621C110.559 267.96 110.652 268.382 110.652 268.889V274H108.922V272.951H108.862C108.753 273.163 108.599 273.362 108.4 273.548C108.204 273.73 107.958 273.877 107.659 273.99C107.364 274.099 107.018 274.154 106.62 274.154ZM107.088 272.832C107.449 272.832 107.762 272.76 108.027 272.618C108.292 272.472 108.496 272.28 108.639 272.041C108.785 271.803 108.857 271.542 108.857 271.261V270.361C108.801 270.407 108.705 270.45 108.569 270.49C108.436 270.53 108.287 270.565 108.122 270.594C107.956 270.624 107.792 270.651 107.629 270.674C107.467 270.697 107.326 270.717 107.207 270.734C106.938 270.77 106.698 270.83 106.486 270.913C106.274 270.996 106.106 271.112 105.984 271.261C105.861 271.406 105.8 271.595 105.8 271.827C105.8 272.159 105.921 272.409 106.163 272.578C106.405 272.747 106.713 272.832 107.088 272.832ZM114.262 263.818V274H112.462V263.818H114.262ZM117.912 263.818V274H116.112V263.818H117.912ZM119.763 274V266.364H121.562V274H119.763ZM120.667 265.28C120.382 265.28 120.137 265.185 119.932 264.996C119.726 264.804 119.623 264.574 119.623 264.305C119.623 264.034 119.726 263.803 119.932 263.614C120.137 263.422 120.382 263.326 120.667 263.326C120.956 263.326 121.201 263.422 121.403 263.614C121.609 263.803 121.711 264.034 121.711 264.305C121.711 264.574 121.609 264.804 121.403 264.996C121.201 265.185 120.956 265.28 120.667 265.28ZM125.213 269.526V274H123.413V266.364H125.133V267.661H125.223C125.398 267.234 125.678 266.894 126.063 266.642C126.451 266.39 126.93 266.264 127.5 266.264C128.027 266.264 128.486 266.377 128.877 266.602C129.271 266.828 129.576 267.154 129.792 267.582C130.01 268.009 130.118 268.528 130.115 269.138V274H128.315V269.416C128.315 268.906 128.182 268.506 127.917 268.218C127.655 267.93 127.292 267.786 126.828 267.786C126.514 267.786 126.234 267.855 125.988 267.994C125.746 268.13 125.556 268.327 125.417 268.586C125.281 268.844 125.213 269.158 125.213 269.526ZM135.265 277.023C134.619 277.023 134.064 276.935 133.6 276.759C133.136 276.587 132.763 276.355 132.481 276.063C132.199 275.772 132.004 275.448 131.895 275.094L133.515 274.701C133.588 274.85 133.694 274.998 133.833 275.143C133.973 275.293 134.16 275.415 134.395 275.511C134.634 275.611 134.934 275.661 135.295 275.661C135.806 275.661 136.228 275.536 136.563 275.288C136.898 275.042 137.065 274.638 137.065 274.075V272.628H136.975C136.883 272.813 136.747 273.004 136.568 273.2C136.392 273.395 136.158 273.559 135.867 273.692C135.578 273.824 135.216 273.891 134.778 273.891C134.191 273.891 133.659 273.753 133.182 273.478C132.708 273.2 132.33 272.785 132.049 272.235C131.77 271.682 131.631 270.989 131.631 270.157C131.631 269.318 131.77 268.611 132.049 268.034C132.33 267.454 132.71 267.015 133.187 266.717C133.664 266.415 134.196 266.264 134.783 266.264C135.23 266.264 135.598 266.34 135.887 266.493C136.178 266.642 136.41 266.823 136.583 267.035C136.755 267.244 136.886 267.441 136.975 267.626H137.075V266.364H138.85V274.124C138.85 274.777 138.694 275.317 138.382 275.745C138.071 276.173 137.645 276.492 137.105 276.705C136.565 276.917 135.951 277.023 135.265 277.023ZM135.28 272.479C135.661 272.479 135.986 272.386 136.255 272.2C136.523 272.015 136.727 271.748 136.866 271.4C137.005 271.052 137.075 270.634 137.075 270.147C137.075 269.666 137.005 269.246 136.866 268.884C136.73 268.523 136.528 268.243 136.26 268.044C135.994 267.842 135.668 267.741 135.28 267.741C134.879 267.741 134.544 267.845 134.276 268.054C134.007 268.263 133.805 268.549 133.669 268.914C133.533 269.275 133.466 269.686 133.466 270.147C133.466 270.614 133.533 271.024 133.669 271.375C133.809 271.723 134.012 271.995 134.281 272.19C134.553 272.383 134.886 272.479 135.28 272.479Z" fill="#1F2129"/>
</g>
<defs>
<filter id="filter0_ddddi_245_611" x="1.33333" y="49.6667" width="240" height="61.3333" filterUnits="userSpaceOnUse" color-interpolation-filters="sRGB">
<feFlood flood-opacity="0" result="BackgroundImageFix"/>
<feColorMatrix in="SourceAlpha" type="matrix" values="0 0 0 0 0 0 0 0 0 0 0 0 0 0 0 0 0 0 127 0" result="hardAlpha"/>
<feMorphology radius="0.833333" operator="dilate" in="SourceAlpha" result="effect1_dropShadow_245_611"/>
<feOffset/>
<feComposite in2="hardAlpha" operator="out"/>
<feColorMatrix type="matrix" values="0 0 0 0 0.160784 0 0 0 0 0.160784 0 0 0 0 0.160784 0 0 0 0.08 0"/>
<feBlend mode="normal" in2="BackgroundImageFix" result="effect1_dropShadow_245_611"/>
<feColorMatrix in="SourceAlpha" type="matrix" values="0 0 0 0 0 0 0 0 0 0 0 0 0 0 0 0 0 0 127 0" result="hardAlpha"/>
<feOffset dy="0.833333"/>
<feGaussianBlur stdDeviation="0.833333"/>
<feComposite in2="hardAlpha" operator="out"/>
<feColorMatrix type="matrix" values="0 0 0 0 0.160784 0 0 0 0 0.160784 0 0 0 0 0.160784 0 0 0 0.04 0"/>
<feBlend mode="normal" in2="effect1_dropShadow_245_611" result="effect2_dropShadow_245_611"/>
<feColorMatrix in="SourceAlpha" type="matrix" values="0 0 0 0 0 0 0 0 0 0 0 0 0 0 0 0 0 0 127 0" result="hardAlpha"/>
<feOffset dy="1.66667"/>
<feGaussianBlur stdDeviation="1.66667"/>
<feComposite in2="hardAlpha" operator="out"/>
<feColorMatrix type="matrix" values="0 0 0 0 0.160784 0 0 0 0 0.160784 0 0 0 0 0.160784 0 0 0 0.04 0"/>
<feBlend mode="normal" in2="effect2_dropShadow_245_611" result="effect3_dropShadow_245_611"/>
<feColorMatrix in="SourceAlpha" type="matrix" values="0 0 0 0 0 0 0 0 0 0 0 0 0 0 0 0 0 0 127 0" result="hardAlpha"/>
<feOffset dy="3.33333"/>
<feGaussianBlur stdDeviation="3.33333"/>
<feComposite in2="hardAlpha" operator="out"/>
<feColorMatrix type="matrix" values="0 0 0 0 0.160784 0 0 0 0 0.160784 0 0 0 0 0.160784 0 0 0 0.06 0"/>
<feBlend mode="normal" in2="effect3_dropShadow_245_611" result="effect4_dropShadow_245_611"/>
<feBlend mode="normal" in="SourceGraphic" in2="effect4_dropShadow_245_611" result="shape"/>
<feColorMatrix in="SourceAlpha" type="matrix" values="0 0 0 0 0 0 0 0 0 0 0 0 0 0 0 0 0 0 127 0" result="hardAlpha"/>
<feOffset dy="-0.416667"/>
<feGaussianBlur stdDeviation="0.208333"/>
<feComposite in2="hardAlpha" operator="arithmetic" k2="-1" k3="1"/>
<feColorMatrix type="matrix" values="0 0 0 0 0.160784 0 0 0 0 0.160784 0 0 0 0 0.160784 0 0 0 0.08 0"/>
<feBlend mode="normal" in2="shape" result="effect5_innerShadow_245_611"/>
</filter>
<filter id="filter1_ddddi_245_611" x="0.500326" y="112.833" width="241.666" height="63" filterUnits="userSpaceOnUse" color-interpolation-filters="sRGB">
<feFlood flood-opacity="0" result="BackgroundImageFix"/>
<feColorMatrix in="SourceAlpha" type="matrix" values="0 0 0 0 0 0 0 0 0 0 0 0 0 0 0 0 0 0 127 0" result="hardAlpha"/>
<feMorphology radius="0.833333" operator="dilate" in="SourceAlpha" result="effect1_dropShadow_245_611"/>
<feOffset/>
<feComposite in2="hardAlpha" operator="out"/>
<feColorMatrix type="matrix" values="0 0 0 0 0.160784 0 0 0 0 0.160784 0 0 0 0 0.160784 0 0 0 0.08 0"/>
<feBlend mode="normal" in2="BackgroundImageFix" result="effect1_dropShadow_245_611"/>
<feColorMatrix in="SourceAlpha" type="matrix" values="0 0 0 0 0 0 0 0 0 0 0 0 0 0 0 0 0 0 127 0" result="hardAlpha"/>
<feOffset dy="0.833333"/>
<feGaussianBlur stdDeviation="0.833333"/>
<feComposite in2="hardAlpha" operator="out"/>
<feColorMatrix type="matrix" values="0 0 0 0 0.160784 0 0 0 0 0.160784 0 0 0 0 0.160784 0 0 0 0.04 0"/>
<feBlend mode="normal" in2="effect1_dropShadow_245_611" result="effect2_dropShadow_245_611"/>
<feColorMatrix in="SourceAlpha" type="matrix" values="0 0 0 0 0 0 0 0 0 0 0 0 0 0 0 0 0 0 127 0" result="hardAlpha"/>
<feOffset dy="1.66667"/>
<feGaussianBlur stdDeviation="1.66667"/>
<feComposite in2="hardAlpha" operator="out"/>
<feColorMatrix type="matrix" values="0 0 0 0 0.160784 0 0 0 0 0.160784 0 0 0 0 0.160784 0 0 0 0.04 0"/>
<feBlend mode="normal" in2="effect2_dropShadow_245_611" result="effect3_dropShadow_245_611"/>
<feColorMatrix in="SourceAlpha" type="matrix" values="0 0 0 0 0 0 0 0 0 0 0 0 0 0 0 0 0 0 127 0" result="hardAlpha"/>
<feOffset dy="3.33333"/>
<feGaussianBlur stdDeviation="3.33333"/>
<feComposite in2="hardAlpha" operator="out"/>
<feColorMatrix type="matrix" values="0 0 0 0 0.160784 0 0 0 0 0.160784 0 0 0 0 0.160784 0 0 0 0.06 0"/>
<feBlend mode="normal" in2="effect3_dropShadow_245_611" result="effect4_dropShadow_245_611"/>
<feBlend mode="normal" in="SourceGraphic" in2="effect4_dropShadow_245_611" result="shape"/>
<feColorMatrix in="SourceAlpha" type="matrix" values="0 0 0 0 0 0 0 0 0 0 0 0 0 0 0 0 0 0 127 0" result="hardAlpha"/>
<feOffset dy="-0.416667"/>
<feGaussianBlur stdDeviation="0.208333"/>
<feComposite in2="hardAlpha" operator="arithmetic" k2="-1" k3="1"/>
<feColorMatrix type="matrix" values="0 0 0 0 0.160784 0 0 0 0 0.160784 0 0 0 0 0.160784 0 0 0 0.08 0"/>
<feBlend mode="normal" in2="shape" result="effect5_innerShadow_245_611"/>
</filter>
<filter id="filter2_ddddi_245_611" x="0.500326" y="176.833" width="241.666" height="63" filterUnits="userSpaceOnUse" color-interpolation-filters="sRGB">
<feFlood flood-opacity="0" result="BackgroundImageFix"/>
<feColorMatrix in="SourceAlpha" type="matrix" values="0 0 0 0 0 0 0 0 0 0 0 0 0 0 0 0 0 0 127 0" result="hardAlpha"/>
<feMorphology radius="0.833333" operator="dilate" in="SourceAlpha" result="effect1_dropShadow_245_611"/>
<feOffset/>
<feComposite in2="hardAlpha" operator="out"/>
<feColorMatrix type="matrix" values="0 0 0 0 0.160784 0 0 0 0 0.160784 0 0 0 0 0.160784 0 0 0 0.08 0"/>
<feBlend mode="normal" in2="BackgroundImageFix" result="effect1_dropShadow_245_611"/>
<feColorMatrix in="SourceAlpha" type="matrix" values="0 0 0 0 0 0 0 0 0 0 0 0 0 0 0 0 0 0 127 0" result="hardAlpha"/>
<feOffset dy="0.833333"/>
<feGaussianBlur stdDeviation="0.833333"/>
<feComposite in2="hardAlpha" operator="out"/>
<feColorMatrix type="matrix" values="0 0 0 0 0.160784 0 0 0 0 0.160784 0 0 0 0 0.160784 0 0 0 0.04 0"/>
<feBlend mode="normal" in2="effect1_dropShadow_245_611" result="effect2_dropShadow_245_611"/>
<feColorMatrix in="SourceAlpha" type="matrix" values="0 0 0 0 0 0 0 0 0 0 0 0 0 0 0 0 0 0 127 0" result="hardAlpha"/>
<feOffset dy="1.66667"/>
<feGaussianBlur stdDeviation="1.66667"/>
<feComposite in2="hardAlpha" operator="out"/>
<feColorMatrix type="matrix" values="0 0 0 0 0.160784 0 0 0 0 0.160784 0 0 0 0 0.160784 0 0 0 0.04 0"/>
<feBlend mode="normal" in2="effect2_dropShadow_245_611" result="effect3_dropShadow_245_611"/>
<feColorMatrix in="SourceAlpha" type="matrix" values="0 0 0 0 0 0 0 0 0 0 0 0 0 0 0 0 0 0 127 0" result="hardAlpha"/>
<feOffset dy="3.33333"/>
<feGaussianBlur stdDeviation="3.33333"/>
<feComposite in2="hardAlpha" operator="out"/>
<feColorMatrix type="matrix" values="0 0 0 0 0.160784 0 0 0 0 0.160784 0 0 0 0 0.160784 0 0 0 0.06 0"/>
<feBlend mode="normal" in2="effect3_dropShadow_245_611" result="effect4_dropShadow_245_611"/>
<feBlend mode="normal" in="SourceGraphic" in2="effect4_dropShadow_245_611" result="shape"/>
<feColorMatrix in="SourceAlpha" type="matrix" values="0 0 0 0 0 0 0 0 0 0 0 0 0 0 0 0 0 0 127 0" result="hardAlpha"/>
<feOffset dy="-0.416667"/>
<feGaussianBlur stdDeviation="0.208333"/>
<feComposite in2="hardAlpha" operator="arithmetic" k2="-1" k3="1"/>
<feColorMatrix type="matrix" values="0 0 0 0 0.160784 0 0 0 0 0.160784 0 0 0 0 0.160784 0 0 0 0.08 0"/>
<feBlend mode="normal" in2="shape" result="effect5_innerShadow_245_611"/>
</filter>
<filter id="filter3_ddddi_245_611" x="0.500326" y="240.833" width="241.666" height="63" filterUnits="userSpaceOnUse" color-interpolation-filters="sRGB">
<feFlood flood-opacity="0" result="BackgroundImageFix"/>
<feColorMatrix in="SourceAlpha" type="matrix" values="0 0 0 0 0 0 0 0 0 0 0 0 0 0 0 0 0 0 127 0" result="hardAlpha"/>
<feMorphology radius="0.833333" operator="dilate" in="SourceAlpha" result="effect1_dropShadow_245_611"/>
<feOffset/>
<feComposite in2="hardAlpha" operator="out"/>
<feColorMatrix type="matrix" values="0 0 0 0 0.160784 0 0 0 0 0.160784 0 0 0 0 0.160784 0 0 0 0.08 0"/>
<feBlend mode="normal" in2="BackgroundImageFix" result="effect1_dropShadow_245_611"/>
<feColorMatrix in="SourceAlpha" type="matrix" values="0 0 0 0 0 0 0 0 0 0 0 0 0 0 0 0 0 0 127 0" result="hardAlpha"/>
<feOffset dy="0.833333"/>
<feGaussianBlur stdDeviation="0.833333"/>
<feComposite in2="hardAlpha" operator="out"/>
<feColorMatrix type="matrix" values="0 0 0 0 0.160784 0 0 0 0 0.160784 0 0 0 0 0.160784 0 0 0 0.04 0"/>
<feBlend mode="normal" in2="effect1_dropShadow_245_611" result="effect2_dropShadow_245_611"/>
<feColorMatrix in="SourceAlpha" type="matrix" values="0 0 0 0 0 0 0 0 0 0 0 0 0 0 0 0 0 0 127 0" result="hardAlpha"/>
<feOffset dy="1.66667"/>
<feGaussianBlur stdDeviation="1.66667"/>
<feComposite in2="hardAlpha" operator="out"/>
<feColorMatrix type="matrix" values="0 0 0 0 0.160784 0 0 0 0 0.160784 0 0 0 0 0.160784 0 0 0 0.04 0"/>
<feBlend mode="normal" in2="effect2_dropShadow_245_611" result="effect3_dropShadow_245_611"/>
<feColorMatrix in="SourceAlpha" type="matrix" values="0 0 0 0 0 0 0 0 0 0 0 0 0 0 0 0 0 0 127 0" result="hardAlpha"/>
<feOffset dy="3.33333"/>
<feGaussianBlur stdDeviation="3.33333"/>
<feComposite in2="hardAlpha" operator="out"/>
<feColorMatrix type="matrix" values="0 0 0 0 0.160784 0 0 0 0 0.160784 0 0 0 0 0.160784 0 0 0 0.06 0"/>
<feBlend mode="normal" in2="effect3_dropShadow_245_611" result="effect4_dropShadow_245_611"/>
<feBlend mode="normal" in="SourceGraphic" in2="effect4_dropShadow_245_611" result="shape"/>
<feColorMatrix in="SourceAlpha" type="matrix" values="0 0 0 0 0 0 0 0 0 0 0 0 0 0 0 0 0 0 127 0" result="hardAlpha"/>
<feOffset dy="-0.416667"/>
<feGaussianBlur stdDeviation="0.208333"/>
<feComposite in2="hardAlpha" operator="arithmetic" k2="-1" k3="1"/>
<feColorMatrix type="matrix" values="0 0 0 0 0.160784 0 0 0 0 0.160784 0 0 0 0 0.160784 0 0 0 0.08 0"/>
<feBlend mode="normal" in2="shape" result="effect5_innerShadow_245_611"/>
</filter>
<clipPath id="clip0_245_611">
<rect width="16" height="16" fill="white" transform="translate(24 197)"/>
</clipPath>
</defs>
</svg>
