<svg width="881" height="235" viewBox="0 0 881 235" fill="none" xmlns="http://www.w3.org/2000/svg">
<g filter="url(#filter0_ddddi_245_682)">
<path d="M606 19C606 13.4772 610.477 9 616 9H863C868.523 9 873 13.4772 873 19V214C873 219.523 868.523 224 863 224H616C610.477 224 606 219.523 606 214V19Z" fill="white" shape-rendering="crispEdges"/>
<path d="M616 8.5C610.201 8.5 605.5 13.201 605.5 19V214C605.5 219.799 610.201 224.5 616 224.5H863C868.799 224.5 873.5 219.799 873.5 214V19C873.5 13.201 868.799 8.5 863 8.5H616Z" stroke="#18181B" stroke-opacity="0.06" shape-rendering="crispEdges"/>
<path d="M632.274 47.1954C631.157 47.1954 630.169 46.9323 629.312 46.406C628.455 45.8798 627.785 45.1474 627.302 44.2088C626.825 43.2702 626.586 42.1824 626.586 40.9454C626.586 39.6759 626.83 38.5718 627.318 37.6333C627.812 36.6947 628.485 35.9677 629.337 35.4523C630.194 34.9369 631.165 34.6792 632.25 34.6792C633.156 34.6792 633.983 34.8582 634.732 35.2163C635.481 35.5689 636.097 36.0626 636.579 36.6974C637.068 37.3267 637.372 38.0592 637.491 38.8947H635.302C635.15 38.2111 634.805 37.6604 634.268 37.2426C633.737 36.8195 633.083 36.6079 632.307 36.6079C631.58 36.6079 630.951 36.7869 630.419 37.145C629.887 37.5031 629.475 38.0076 629.182 38.6587C628.894 39.3043 628.751 40.0665 628.751 40.9454C628.751 41.8189 628.897 42.5812 629.19 43.2322C629.483 43.8778 629.895 44.3797 630.427 44.7378C630.964 45.0904 631.596 45.2667 632.323 45.2667C632.92 45.2667 633.452 45.1474 633.918 44.9087C634.39 44.6645 634.762 44.3254 635.033 43.8914C635.304 43.4574 635.443 42.9555 635.448 42.3859H632.632V40.685H637.572V42.1499C637.572 43.1318 637.342 44.0026 636.881 44.7622C636.425 45.5217 635.798 46.1185 635.001 46.5525C634.203 46.9811 633.294 47.1954 632.274 47.1954ZM638.984 47.0001V38.4064H640.962V39.8305H640.986C641.144 39.3422 641.391 38.9706 641.727 38.7156C642.069 38.4552 642.516 38.325 643.07 38.325C643.211 38.325 643.336 38.3304 643.444 38.3413C643.558 38.3467 643.656 38.3521 643.737 38.3575V40.1805C643.661 40.1696 643.531 40.156 643.346 40.1398C643.162 40.1235 642.969 40.1154 642.769 40.1154C642.28 40.1154 641.868 40.2835 641.532 40.6199C641.201 40.9563 641.035 41.4608 641.035 42.1336V47.0001H638.984ZM648.486 47.1954C647.639 47.1954 646.899 47.0083 646.264 46.6339C645.629 46.2541 645.133 45.7279 644.775 45.0551C644.422 44.3824 644.246 43.6011 644.246 42.7114C644.246 41.8216 644.422 41.0404 644.775 40.3676C645.133 39.6895 645.629 39.1605 646.264 38.7807C646.899 38.4009 647.639 38.2111 648.486 38.2111C649.327 38.2111 650.064 38.4009 650.699 38.7807C651.339 39.1605 651.836 39.6895 652.188 40.3676C652.547 41.0404 652.726 41.8216 652.726 42.7114C652.726 43.6011 652.547 44.3824 652.188 45.0551C651.836 45.7279 651.339 46.2541 650.699 46.6339C650.064 47.0083 649.327 47.1954 648.486 47.1954ZM648.486 45.4783C649.142 45.4783 649.666 45.2315 650.056 44.7378C650.447 44.244 650.642 43.5686 650.642 42.7114C650.642 41.8542 650.447 41.176 650.056 40.6769C649.666 40.1777 649.142 39.9282 648.486 39.9282C647.824 39.9282 647.298 40.1777 646.907 40.6769C646.516 41.1706 646.321 41.8488 646.321 42.7114C646.321 43.5686 646.516 44.244 646.907 44.7378C647.298 45.2315 647.824 45.4783 648.486 45.4783ZM655.611 47.0001L652.958 38.4064H655.114L656.001 41.6697C656.137 42.1797 656.267 42.706 656.392 43.2485C656.517 43.791 656.644 44.3281 656.774 44.8598C656.905 44.3281 657.038 43.791 657.173 43.2485C657.309 42.706 657.447 42.1797 657.588 41.6697L658.5 38.4064H660.396L661.299 41.6697C661.435 42.1797 661.568 42.7032 661.698 43.2404C661.834 43.7775 661.969 44.3119 662.105 44.8435C662.23 44.3119 662.354 43.7775 662.479 43.2404C662.604 42.7032 662.734 42.1797 662.87 41.6697L663.757 38.4064H665.938L663.277 47.0001H661.145L660.103 43.4194C659.989 43.0233 659.878 42.6164 659.769 42.1987C659.661 41.7809 659.552 41.3632 659.444 40.9454C659.341 41.3632 659.235 41.7809 659.126 42.1987C659.018 42.6164 658.904 43.0233 658.785 43.4194L657.727 47.0001H655.611ZM671.37 38.4064V40.0584H669.62V44.5343C669.62 44.8435 669.683 45.0578 669.808 45.1772C669.932 45.2911 670.16 45.3481 670.491 45.3481H671.37V47.0001H670.133C669.26 47.0001 668.611 46.8238 668.188 46.4712C667.77 46.1185 667.562 45.5733 667.562 44.8354V40.0584H666.064V38.4064H667.562V36.0626H669.62V38.4064H671.37ZM674.548 42.1417V47.0001H672.497V34.8745H674.548V39.6678C675.145 38.7129 676.013 38.2355 677.152 38.2355C678.053 38.2355 678.788 38.5257 679.358 39.1062C679.933 39.6868 680.22 40.5277 680.22 41.629V47.0001H678.161V41.9545C678.161 41.3252 678.01 40.8478 677.706 40.5223C677.402 40.1967 676.976 40.034 676.428 40.034C675.891 40.034 675.443 40.2022 675.085 40.5385C674.727 40.8749 674.548 41.4093 674.548 42.1417ZM684.688 47.0001L689.018 34.8745H691.72L696.033 47.0001H693.665L692.696 44.103H687.993L687 47.0001H684.688ZM688.595 42.337H692.11L691.541 40.6281C691.362 40.0692 691.177 39.486 690.987 38.8784C690.803 38.2707 690.597 37.5844 690.369 36.8195C690.141 37.5844 689.932 38.2707 689.742 38.8784C689.552 39.486 689.365 40.0692 689.181 40.6281L688.595 42.337ZM698.934 42.1417V47.0001H696.883V38.4064H698.902V39.7247C699.498 38.7319 700.377 38.2355 701.538 38.2355C702.439 38.2355 703.174 38.5257 703.744 39.1062C704.319 39.6868 704.606 40.5277 704.606 41.629V47.0001H702.548V41.9545C702.548 41.3252 702.396 40.8478 702.092 40.5223C701.788 40.1967 701.362 40.034 700.814 40.034C700.277 40.034 699.829 40.2022 699.471 40.5385C699.113 40.8749 698.934 41.4093 698.934 42.1417ZM708.891 47.1385C708.034 47.1385 707.323 46.9242 706.759 46.4956C706.2 46.0615 705.921 45.4159 705.921 44.5587C705.921 43.9077 706.078 43.4058 706.393 43.0532C706.713 42.6951 707.128 42.4347 707.638 42.2719C708.153 42.1092 708.707 41.998 709.298 41.9383C710.096 41.846 710.652 41.7647 710.966 41.6941C711.281 41.6236 711.438 41.4419 711.438 41.1489V41.0838C711.438 40.7149 711.297 40.4138 711.015 40.1805C710.739 39.9472 710.356 39.8305 709.868 39.8305C709.369 39.8305 708.962 39.9472 708.647 40.1805C708.338 40.4138 708.17 40.7121 708.143 41.0756H706.165C706.214 40.2239 706.569 39.5376 707.231 39.0167C707.893 38.4959 708.785 38.2355 709.909 38.2355C711.026 38.2355 711.9 38.4959 712.529 39.0167C713.158 39.5376 713.473 40.2456 713.473 41.1407V47.0001H711.455V45.7876H711.422C711.216 46.1673 710.918 46.4874 710.527 46.7478C710.136 47.0083 709.591 47.1385 708.891 47.1385ZM709.396 45.6167C710.069 45.6167 710.579 45.443 710.926 45.0958C711.273 44.7432 711.447 44.3173 711.447 43.8182V42.8904C711.322 42.9718 711.08 43.0478 710.722 43.1183C710.364 43.1834 709.974 43.2485 709.55 43.3136C709.111 43.3787 708.729 43.5035 708.403 43.6879C708.083 43.867 707.923 44.1518 707.923 44.5424C707.923 44.8788 708.056 45.1419 708.322 45.3318C708.587 45.5217 708.946 45.6167 709.396 45.6167ZM717.172 34.8745V47.0001H715.121V34.8745H717.172ZM719.097 50.4018V48.7335H720.114C720.391 48.7335 720.605 48.6576 720.757 48.5057C720.914 48.3592 721.053 48.1177 721.172 47.7814L721.489 46.9513L718.177 38.4064H720.35L721.929 42.8823C722.037 43.2024 722.143 43.5225 722.246 43.8426C722.349 44.1572 722.45 44.4719 722.547 44.7866C722.743 44.1572 722.949 43.5225 723.166 42.8823L724.736 38.4064H726.885L723.044 48.4161C722.534 49.7399 721.666 50.4018 720.439 50.4018H719.097ZM730.982 47.2036C729.935 47.2036 729.059 46.9594 728.354 46.4712C727.654 45.9774 727.271 45.2694 727.206 44.3471H729.233C729.276 44.7649 729.444 45.0904 729.737 45.3237C730.03 45.5516 730.434 45.6655 730.95 45.6655C731.444 45.6655 731.831 45.5678 732.114 45.3725C732.401 45.1772 732.545 44.9276 732.545 44.6238C732.545 44.3634 732.439 44.1545 732.228 43.9972C732.016 43.8399 731.731 43.7232 731.373 43.6473L729.908 43.3462C728.237 42.9989 727.402 42.1716 727.402 40.8641C727.402 40.072 727.716 39.4345 728.346 38.9516C728.975 38.4633 729.813 38.2192 730.86 38.2192C731.902 38.2192 732.748 38.4769 733.399 38.9923C734.056 39.5023 734.395 40.1994 734.417 41.0838H732.488C732.477 40.6986 732.328 40.3812 732.04 40.1316C731.753 39.8821 731.376 39.7573 730.909 39.7573C730.459 39.7573 730.104 39.8577 729.843 40.0584C729.583 40.2591 729.452 40.506 729.452 40.799C729.452 41.0539 729.553 41.2628 729.754 41.4256C729.954 41.5829 730.234 41.7023 730.592 41.7837L732.138 42.101C732.99 42.2801 733.616 42.5622 734.018 42.9474C734.425 43.3326 734.628 43.8399 734.628 44.4692C734.628 45.028 734.471 45.5136 734.156 45.9259C733.847 46.3328 733.418 46.6475 732.87 46.8699C732.322 47.0924 731.693 47.2036 730.982 47.2036ZM735.861 47.0001V38.4064H737.912V47.0001H735.861ZM736.887 37.1287C736.534 37.1287 736.241 37.0175 736.008 36.795C735.775 36.5672 735.658 36.2878 735.658 35.9568C735.658 35.6259 735.775 35.3492 736.008 35.1268C736.241 34.9043 736.534 34.7931 736.887 34.7931C737.234 34.7931 737.524 34.9043 737.757 35.1268C737.991 35.3492 738.107 35.6259 738.107 35.9568C738.107 36.2878 737.991 36.5672 737.757 36.795C737.524 37.0175 737.234 37.1287 736.887 37.1287ZM742.937 47.2036C741.89 47.2036 741.014 46.9594 740.309 46.4712C739.609 45.9774 739.227 45.2694 739.161 44.3471H741.188C741.231 44.7649 741.399 45.0904 741.692 45.3237C741.985 45.5516 742.39 45.6655 742.905 45.6655C743.399 45.6655 743.787 45.5678 744.069 45.3725C744.356 45.1772 744.5 44.9276 744.5 44.6238C744.5 44.3634 744.394 44.1545 744.183 43.9972C743.971 43.8399 743.686 43.7232 743.328 43.6473L741.863 43.3462C740.192 42.9989 739.357 42.1716 739.357 40.8641C739.357 40.072 739.671 39.4345 740.301 38.9516C740.93 38.4633 741.768 38.2192 742.815 38.2192C743.857 38.2192 744.703 38.4769 745.354 38.9923C746.011 39.5023 746.35 40.1994 746.372 41.0838H744.443C744.432 40.6986 744.283 40.3812 743.995 40.1316C743.708 39.8821 743.331 39.7573 742.864 39.7573C742.414 39.7573 742.059 39.8577 741.798 40.0584C741.538 40.2591 741.408 40.506 741.408 40.799C741.408 41.0539 741.508 41.2628 741.709 41.4256C741.909 41.5829 742.189 41.7023 742.547 41.7837L744.093 42.101C744.945 42.2801 745.572 42.5622 745.973 42.9474C746.38 43.3326 746.583 43.8399 746.583 44.4692C746.583 45.028 746.426 45.5136 746.111 45.9259C745.802 46.3328 745.373 46.6475 744.826 46.8699C744.278 47.0924 743.648 47.2036 742.937 47.2036Z" fill="#18181B"/>
<rect x="626" y="73" width="227" height="0.833333" fill="#18181B" fill-opacity="0.12"/>
<path d="M630.16 180.076C628.153 180.076 626.882 178.407 626.882 175.759C626.882 173.087 628.153 171.419 630.16 171.419C632.167 171.419 633.438 173.087 633.438 175.759C633.438 178.407 632.167 180.076 630.16 180.076ZM627.908 175.759C627.908 177.906 628.725 179.119 630.16 179.119C631.595 179.119 632.412 177.906 632.412 175.759C632.412 173.601 631.595 172.376 630.16 172.376C628.725 172.376 627.908 173.601 627.908 175.759Z" fill="#A1A1AA"/>
<path d="M632.885 136.658V137.615H629.199L628.849 140.181C629.245 139.703 629.992 139.423 630.715 139.423C632.314 139.423 633.445 140.625 633.445 142.281C633.445 143.95 632.22 145.128 630.564 145.128C628.919 145.128 627.682 144.171 627.565 142.818L628.592 142.748C628.72 143.646 629.56 144.171 630.564 144.171C631.672 144.171 632.419 143.39 632.419 142.281C632.419 141.103 631.66 140.356 630.459 140.356C629.689 140.356 629.035 140.706 628.767 141.313H627.705L628.347 136.658H632.885Z" fill="#A1A1AA"/>
<path d="M627.205 103.006C628.092 103.006 628.477 102.609 628.477 101.711H629.247V109.994H628.267V103.834H626.552V103.006H627.205ZM634.166 110.181C632.159 110.181 630.887 108.512 630.887 105.864C630.887 103.192 632.159 101.524 634.166 101.524C636.172 101.524 637.444 103.192 637.444 105.864C637.444 108.512 636.172 110.181 634.166 110.181ZM631.914 105.864C631.914 108.011 632.731 109.224 634.166 109.224C635.601 109.224 636.417 108.011 636.417 105.864C636.417 103.706 635.601 102.481 634.166 102.481C632.731 102.481 631.914 103.706 631.914 105.864Z" fill="#A1A1AA"/>
<path d="M643.057 193.012C643.944 193.012 644.329 192.615 644.329 191.717H645.099V200H644.119V193.84H642.404V193.012H643.057ZM646.891 194.19C647.113 192.65 648.198 191.53 649.855 191.53C651.371 191.53 652.48 192.533 652.48 193.887C652.48 195.077 651.535 195.905 650.275 196.675C649.575 197.083 647.988 198.203 647.953 199.043H652.55V200H646.74C646.74 197.573 648.478 196.652 649.925 195.753C650.823 195.182 651.453 194.54 651.453 193.887C651.453 193.07 650.8 192.487 649.855 192.487C648.84 192.487 648.14 193.117 647.918 194.26L646.891 194.19ZM656.28 200L659.278 191.717H660.585L663.583 200H662.51L661.681 197.632H658.181L657.353 200H656.28ZM658.52 196.675H661.343L659.931 192.58L658.52 196.675ZM664.741 191.717H666.106L668.778 198.927L671.45 191.717H672.815V200H671.835V193.665L669.431 200H668.125L665.721 193.665V200H664.741V191.717Z" fill="#A1A1AA"/>
<path d="M708.776 200.187C707.002 200.187 705.731 199.242 705.731 197.725C705.731 196.698 706.337 195.905 707.341 195.508C706.571 195.182 706.127 194.633 706.127 193.805C706.127 192.498 707.247 191.53 708.776 191.53C710.327 191.53 711.436 192.498 711.436 193.805C711.436 194.633 710.981 195.182 710.222 195.508C711.226 195.917 711.832 196.71 711.832 197.725C711.832 199.242 710.561 200.187 708.776 200.187ZM706.757 197.643C706.757 198.612 707.539 199.23 708.776 199.23C710.012 199.23 710.806 198.612 710.806 197.643C710.806 196.687 710.012 196.08 708.776 196.08C707.551 196.08 706.757 196.687 706.757 197.643ZM707.154 193.805C707.154 194.587 707.784 195.088 708.776 195.088C709.779 195.088 710.409 194.587 710.409 193.805C710.409 193 709.779 192.487 708.776 192.487C707.784 192.487 707.154 193 707.154 193.805ZM715.567 200L718.565 191.717H719.872L722.87 200H721.797L720.968 197.632H717.468L716.64 200H715.567ZM717.807 196.675H720.63L719.218 192.58L717.807 196.675ZM724.029 191.717H725.394L728.065 198.927L730.737 191.717H732.102V200H731.122V193.665L728.719 200H727.412L725.009 193.665V200H724.029V191.717Z" fill="#A1A1AA"/>
<path d="M770.135 191.717V197.34H771.092V198.297H770.135V200H769.155V198.297H764.862V197.34L769.097 191.717H770.135ZM766.075 197.34H769.155V193.222L766.075 197.34ZM778.336 191.717C780.18 191.717 781.265 192.65 781.265 194.213C781.265 195.812 780.18 196.768 778.336 196.768H776.353V200H775.373V191.717H778.336ZM776.353 195.812H778.336C779.608 195.812 780.238 195.275 780.238 194.213C780.238 193.187 779.608 192.673 778.336 192.673H776.353V195.812ZM782.95 191.717H784.315L786.986 198.927L789.658 191.717H791.023V200H790.043V193.665L787.64 200H786.333L783.93 193.665V200H782.95V191.717Z" fill="#A1A1AA"/>
<path d="M824.033 193.012C824.919 193.012 825.304 192.615 825.304 191.717H826.074V200H825.094V193.84H823.379V193.012H824.033ZM828.089 193.012C828.975 193.012 829.36 192.615 829.36 191.717H830.13V200H829.15V193.84H827.435V193.012H828.089ZM838.153 191.717C839.996 191.717 841.081 192.65 841.081 194.213C841.081 195.812 839.996 196.768 838.153 196.768H836.17V200H835.19V191.717H838.153ZM836.17 195.812H838.153C839.425 195.812 840.055 195.275 840.055 194.213C840.055 193.187 839.425 192.673 838.153 192.673H836.17V195.812ZM842.766 191.717H844.131L846.803 198.927L849.474 191.717H850.839V200H849.859V193.665L847.456 200H846.149L843.746 193.665V200H842.766V191.717Z" fill="#A1A1AA"/>
<path d="M642.691 181.202H853" stroke="#18181B" stroke-opacity="0.12" stroke-width="0.833333"/>
<path d="M642.691 146.255H853" stroke="#18181B" stroke-opacity="0.12" stroke-width="0.833333"/>
<path d="M642.691 111.307H853" stroke="#18181B" stroke-opacity="0.12" stroke-width="0.833333"/>
<path d="M658.965 93.8334L658.965 180.37" stroke="#18181B" stroke-opacity="0.12" stroke-width="0.833333" stroke-dasharray="3.67 3.67"/>
<path d="M724.061 93.8334L724.061 180.37" stroke="#18181B" stroke-opacity="0.12" stroke-width="0.833333" stroke-dasharray="3.67 3.67"/>
<path d="M789.156 93.8334L789.156 180.37" stroke="#18181B" stroke-opacity="0.12" stroke-width="0.833333" stroke-dasharray="3.67 3.67"/>
<path d="M833.388 93.8334L833.388 180.37" stroke="#18181B" stroke-opacity="0.12" stroke-width="0.833333" stroke-dasharray="3.67 3.67"/>
<path d="M659 162.916V181H747V161.134C747 160.674 746.627 160.301 746.167 160.301H738.126C737.958 160.301 737.794 160.25 737.655 160.155L731.838 156.167C731.489 155.928 731.017 155.988 730.739 156.306L723.914 164.134C723.484 164.627 722.678 164.454 722.489 163.827L715.171 139.628C715.088 139.354 714.871 139.142 714.595 139.066L708.117 137.271C707.785 137.179 707.431 137.301 707.225 137.577L699.711 147.694C699.457 148.036 698.986 148.132 698.619 147.915L690.259 142.989C690.175 142.939 690.1 142.875 690.038 142.8L682.779 133.951C682.701 133.856 682.645 133.745 682.615 133.625L676.018 107.307C675.806 106.461 674.601 106.468 674.399 107.317L667.302 137.118L659.04 162.66C659.014 162.743 659 162.829 659 162.916Z" fill="#FED7AA"/>
<path d="M667.259 170.356L659 181H739L724.321 171.298C724.074 171.135 723.758 171.115 723.492 171.247L716.253 174.835C715.856 175.032 715.374 174.884 715.156 174.498L708.294 162.323C707.979 161.765 707.178 161.756 706.851 162.307L699.769 174.243C699.488 174.717 698.832 174.793 698.451 174.395L691.655 167.303C691.413 167.05 691.038 166.975 690.717 167.117L684.644 169.793C684.162 170.005 683.607 169.723 683.494 169.209L676.17 135.808C675.977 134.93 674.723 134.936 674.54 135.816L667.416 170.015C667.39 170.139 667.337 170.255 667.259 170.356Z" fill="#EA580C"/>
</g>
<g filter="url(#filter1_ddddi_245_682)">
<path d="M8 15C8 9.47716 12.4772 5 18 5H265C270.523 5 275 9.47715 275 15V210C275 215.523 270.523 220 265 220H18C12.4772 220 8 215.523 8 210V15Z" fill="white" shape-rendering="crispEdges"/>
<path d="M18 4.5C12.201 4.5 7.5 9.20102 7.5 15V210C7.5 215.799 12.201 220.5 18 220.5H265C270.799 220.5 275.5 215.799 275.5 210V15C275.5 9.20101 270.799 4.5 265 4.5H18Z" stroke="#18181B" stroke-opacity="0.06" shape-rendering="crispEdges"/>
<path d="M29.0091 43.0001V30.8745H33.6966C34.977 30.8745 35.9671 31.162 36.667 31.7371C37.3723 32.3122 37.7249 33.0744 37.7249 34.0239C37.7249 34.7238 37.535 35.2961 37.1553 35.741C36.7809 36.1859 36.2682 36.4978 35.6172 36.6769V36.6932C36.3388 36.78 36.9464 37.0702 37.4401 37.5639C37.9392 38.0522 38.1888 38.7277 38.1888 39.5903C38.1888 40.6103 37.8253 41.4349 37.0983 42.0642C36.3767 42.6882 35.3134 43.0001 33.9082 43.0001H29.0091ZM31.125 41.2504H33.6803C34.4128 41.2504 34.9797 41.1013 35.3812 40.8029C35.7827 40.5045 35.9834 40.0759 35.9834 39.517C35.9834 38.9528 35.7854 38.5079 35.3893 38.1824C34.9987 37.8569 34.4453 37.6941 33.7292 37.6941H31.125V41.2504ZM31.125 36.0096H33.599C34.2174 36.0096 34.7003 35.8577 35.0475 35.5538C35.4002 35.2446 35.5765 34.8323 35.5765 34.3169C35.5765 33.796 35.4002 33.3837 35.0475 33.0799C34.7003 32.7761 34.2174 32.6241 33.599 32.6241H31.125V36.0096ZM43.2956 43.1954C42.4492 43.1954 41.7087 43.0083 41.0739 42.6339C40.4391 42.2541 39.9427 41.7279 39.5846 41.0551C39.232 40.3824 39.0557 39.6011 39.0557 38.7114C39.0557 37.8216 39.232 37.0404 39.5846 36.3676C39.9427 35.6895 40.4391 35.1605 41.0739 34.7807C41.7087 34.4009 42.4492 34.2111 43.2956 34.2111C44.1365 34.2111 44.8743 34.4009 45.5091 34.7807C46.1493 35.1605 46.6457 35.6895 46.9984 36.3676C47.3564 37.0404 47.5355 37.8216 47.5355 38.7114C47.5355 39.6011 47.3564 40.3824 46.9984 41.0551C46.6457 41.7279 46.1493 42.2541 45.5091 42.6339C44.8743 43.0083 44.1365 43.1954 43.2956 43.1954ZM43.2956 41.4783C43.952 41.4783 44.4756 41.2315 44.8662 40.7378C45.2568 40.244 45.4521 39.5686 45.4521 38.7114C45.4521 37.8542 45.2568 37.176 44.8662 36.6769C44.4756 36.1777 43.952 35.9282 43.2956 35.9282C42.6337 35.9282 42.1074 36.1777 41.7168 36.6769C41.3262 37.1706 41.1309 37.8488 41.1309 38.7114C41.1309 39.5686 41.3262 40.244 41.7168 40.7378C42.1074 41.2315 42.6337 41.4783 43.2956 41.4783ZM52.6341 43.1954C51.7878 43.1954 51.0472 43.0083 50.4124 42.6339C49.7777 42.2541 49.2812 41.7279 48.9232 41.0551C48.5705 40.3824 48.3942 39.6011 48.3942 38.7114C48.3942 37.8216 48.5705 37.0404 48.9232 36.3676C49.2812 35.6895 49.7777 35.1605 50.4124 34.7807C51.0472 34.4009 51.7878 34.2111 52.6341 34.2111C53.475 34.2111 54.2129 34.4009 54.8477 34.7807C55.4878 35.1605 55.9843 35.6895 56.3369 36.3676C56.695 37.0404 56.874 37.8216 56.874 38.7114C56.874 39.6011 56.695 40.3824 56.3369 41.0551C55.9843 41.7279 55.4878 42.2541 54.8477 42.6339C54.2129 43.0083 53.475 43.1954 52.6341 43.1954ZM52.6341 41.4783C53.2906 41.4783 53.8141 41.2315 54.2048 40.7378C54.5954 40.244 54.7907 39.5686 54.7907 38.7114C54.7907 37.8542 54.5954 37.176 54.2048 36.6769C53.8141 36.1777 53.2906 35.9282 52.6341 35.9282C51.9722 35.9282 51.446 36.1777 51.0553 36.6769C50.6647 37.1706 50.4694 37.8488 50.4694 38.7114C50.4694 39.5686 50.6647 40.244 51.0553 40.7378C51.446 41.2315 51.9722 41.4783 52.6341 41.4783ZM58.1315 43.0001V30.8745H60.1823V37.8894H60.2067L63.5514 34.4064H66.0173L62.526 38.1173L66.2288 43.0001H63.7793L60.9635 39.3217L60.1823 40.1274V43.0001H58.1315ZM70.6074 43.0001V30.8745H73.6999L76.0599 37.2465C76.1738 37.5829 76.3176 38.0224 76.4912 38.5649C76.6648 39.102 76.8222 39.6066 76.9632 40.0786C77.1043 39.6066 77.2589 39.102 77.4271 38.5649C77.6007 38.0224 77.7445 37.5829 77.8584 37.2465L80.1777 30.8745H83.2865V43.0001H81.1706V36.8152C81.1706 36.3866 81.1787 35.8604 81.195 35.2365C81.2113 34.6125 81.2275 33.9913 81.2438 33.3728C81.0268 34.0564 80.8206 34.7102 80.6253 35.3341C80.43 35.9526 80.2672 36.4463 80.137 36.8152L77.8258 43.0001H76.068L73.7406 36.8152C73.6158 36.4626 73.4557 35.9933 73.2604 35.4073C73.0705 34.816 72.8698 34.1948 72.6582 33.5437C72.6745 34.1405 72.688 34.7346 72.6989 35.326C72.7152 35.9119 72.7233 36.4083 72.7233 36.8152V43.0001H70.6074ZM88.8327 43.1954C87.9755 43.1954 87.2322 43.0028 86.6029 42.6176C85.9735 42.2324 85.488 41.7035 85.1462 41.0307C84.8098 40.3526 84.6416 39.5794 84.6416 38.7114C84.6416 37.8379 84.8152 37.0648 85.1624 36.392C85.5151 35.7139 86.0006 35.1822 86.6191 34.797C87.2376 34.4064 87.9483 34.2111 88.7513 34.2111C89.576 34.2111 90.2975 34.4009 90.916 34.7807C91.5345 35.1605 92.0146 35.6868 92.3564 36.3595C92.6982 37.0268 92.8691 37.7999 92.8691 38.6788V39.2404H86.6517C86.6788 39.9402 86.885 40.5045 87.2702 40.9331C87.6554 41.3617 88.1925 41.576 88.8815 41.576C89.3969 41.576 89.8228 41.4647 90.1592 41.2423C90.4955 41.0144 90.7234 40.7161 90.8428 40.3471H92.7633C92.6548 40.9059 92.4161 41.3996 92.0472 41.8282C91.6837 42.2568 91.2253 42.5932 90.6719 42.8374C90.1185 43.0761 89.5054 43.1954 88.8327 43.1954ZM86.668 37.8243H90.8997C90.8346 37.2113 90.6122 36.7284 90.2324 36.3758C89.8581 36.0177 89.3752 35.8387 88.7839 35.8387C88.1871 35.8387 87.7015 36.0177 87.3271 36.3758C86.9582 36.7284 86.7385 37.2113 86.668 37.8243ZM97.8945 43.1954C97.0373 43.1954 96.294 43.0028 95.6647 42.6176C95.0354 42.2324 94.5498 41.7035 94.208 41.0307C93.8716 40.3526 93.7034 39.5794 93.7034 38.7114C93.7034 37.8379 93.8771 37.0648 94.2243 36.392C94.5769 35.7139 95.0625 35.1822 95.681 34.797C96.2995 34.4064 97.0102 34.2111 97.8131 34.2111C98.6378 34.2111 99.3594 34.4009 99.9779 34.7807C100.596 35.1605 101.076 35.6868 101.418 36.3595C101.76 37.0268 101.931 37.7999 101.931 38.6788V39.2404H95.7135C95.7407 39.9402 95.9468 40.5045 96.332 40.9331C96.7172 41.3617 97.2543 41.576 97.9434 41.576C98.4588 41.576 98.8847 41.4647 99.221 41.2423C99.5574 41.0144 99.7853 40.7161 99.9046 40.3471H101.825C101.717 40.9059 101.478 41.3996 101.109 41.8282C100.746 42.2568 100.287 42.5932 99.7337 42.8374C99.1803 43.0761 98.5673 43.1954 97.8945 43.1954ZM95.7298 37.8243H99.9616C99.8965 37.2113 99.674 36.7284 99.2943 36.3758C98.9199 36.0177 98.4371 35.8387 97.8457 35.8387C97.2489 35.8387 96.7633 36.0177 96.389 36.3758C96.0201 36.7284 95.8003 37.2113 95.7298 37.8243ZM107.697 34.4064V36.0584H105.947V40.5343C105.947 40.8435 106.01 41.0578 106.134 41.1772C106.259 41.2911 106.487 41.3481 106.818 41.3481H107.697V43.0001H106.46C105.586 43.0001 104.938 42.8238 104.515 42.4712C104.097 42.1185 103.888 41.5733 103.888 40.8354V36.0584H102.391V34.4064H103.888V32.0626H105.947V34.4064H107.697ZM108.824 43.0001V34.4064H110.875V43.0001H108.824ZM109.85 33.1287C109.497 33.1287 109.204 33.0175 108.971 32.795C108.737 32.5672 108.621 32.2878 108.621 31.9568C108.621 31.6259 108.737 31.3492 108.971 31.1268C109.204 30.9043 109.497 30.7931 109.85 30.7931C110.197 30.7931 110.487 30.9043 110.72 31.1268C110.954 31.3492 111.07 31.6259 111.07 31.9568C111.07 32.2878 110.954 32.5672 110.72 32.795C110.487 33.0175 110.197 33.1287 109.85 33.1287ZM114.582 38.1417V43.0001H112.531V34.4064H114.549V35.7247C115.146 34.7319 116.025 34.2355 117.186 34.2355C118.087 34.2355 118.822 34.5257 119.392 35.1062C119.967 35.6868 120.254 36.5277 120.254 37.629V43.0001H118.195V37.9545C118.195 37.3252 118.043 36.8478 117.74 36.5223C117.436 36.1967 117.01 36.034 116.462 36.034C115.925 36.034 115.477 36.2022 115.119 36.5385C114.761 36.8749 114.582 37.4093 114.582 38.1417ZM125.817 46.5157C124.683 46.5157 123.782 46.2716 123.115 45.7833C122.448 45.295 122.057 44.6332 121.943 43.7976H123.953C124.051 44.1666 124.265 44.446 124.596 44.6359C124.927 44.8312 125.334 44.9288 125.817 44.9288C126.457 44.9288 126.953 44.7552 127.306 44.408C127.664 44.0608 127.843 43.5589 127.843 42.9025V41.5922H127.835C127.558 42.0968 127.197 42.4684 126.753 42.7072C126.308 42.9404 125.803 43.0571 125.239 43.0571C124.49 43.0571 123.836 42.8699 123.278 42.4956C122.719 42.1212 122.285 41.6058 121.976 40.9493C121.672 40.2874 121.52 39.5252 121.52 38.6626C121.52 37.7945 121.674 37.0268 121.984 36.3595C122.293 35.6922 122.727 35.1713 123.286 34.797C123.845 34.4226 124.49 34.2355 125.223 34.2355C125.781 34.2355 126.286 34.3548 126.736 34.5935C127.192 34.8268 127.561 35.1903 127.843 35.684H127.851V34.4064H129.878V42.7804C129.878 43.6647 129.701 44.3809 129.349 44.9288C128.996 45.4822 128.513 45.8837 127.9 46.1333C127.287 46.3883 126.593 46.5157 125.817 46.5157ZM125.719 41.3644C126.392 41.3644 126.929 41.1175 127.33 40.6238C127.737 40.1247 127.941 39.4628 127.941 38.6381C127.941 37.8135 127.737 37.1543 127.33 36.6606C126.929 36.1615 126.392 35.9119 125.719 35.9119C125.084 35.9119 124.572 36.1479 124.181 36.6199C123.79 37.0919 123.595 37.7647 123.595 38.6381C123.595 39.517 123.79 40.1925 124.181 40.6645C124.572 41.1311 125.084 41.3644 125.719 41.3644ZM134.903 43.2036C133.856 43.2036 132.98 42.9594 132.274 42.4712C131.575 41.9774 131.192 41.2694 131.127 40.3471H133.153C133.197 40.7649 133.365 41.0904 133.658 41.3237C133.951 41.5516 134.355 41.6655 134.87 41.6655C135.364 41.6655 135.752 41.5678 136.034 41.3725C136.322 41.1772 136.465 40.9276 136.465 40.6238C136.465 40.3634 136.36 40.1545 136.148 39.9972C135.937 39.8399 135.652 39.7232 135.294 39.6473L133.829 39.3462C132.158 38.9989 131.322 38.1716 131.322 36.8641C131.322 36.072 131.637 35.4345 132.266 34.9516C132.896 34.4633 133.734 34.2192 134.781 34.2192C135.823 34.2192 136.669 34.4769 137.32 34.9923C137.976 35.5023 138.316 36.1994 138.337 37.0838H136.409C136.398 36.6986 136.248 36.3812 135.961 36.1316C135.673 35.8821 135.296 35.7573 134.83 35.7573C134.379 35.7573 134.024 35.8577 133.764 36.0584C133.503 36.2591 133.373 36.506 133.373 36.799C133.373 37.0539 133.473 37.2628 133.674 37.4256C133.875 37.5829 134.154 37.7023 134.512 37.7837L136.059 38.101C136.91 38.2801 137.537 38.5622 137.938 38.9474C138.345 39.3326 138.549 39.8399 138.549 40.4692C138.549 41.028 138.391 41.5136 138.077 41.9259C137.768 42.3328 137.339 42.6475 136.791 42.8699C136.243 43.0924 135.614 43.2036 134.903 43.2036Z" fill="#18181B"/>
<rect x="28" y="69" width="227" height="0.833333" fill="#18181B" fill-opacity="0.12"/>
<rect x="28" y="89.8334" width="24" height="24" rx="6" fill="#2563EB" fill-opacity="0.1"/>
<g clip-path="url(#clip0_245_682)">
<path d="M37.1357 95.4424C37.4877 95.4424 37.7727 95.7144 37.7727 96.0504V96.6594H42.2267V96.0504C42.2267 95.7144 42.5117 95.4424 42.8637 95.4424C43.2147 95.4424 43.4997 95.7144 43.4997 96.0504V96.6744C45.1077 96.8274 46.3637 98.1244 46.3637 99.7034V105.181C46.3637 106.862 44.9387 108.224 43.1817 108.224H36.8177C35.0607 108.224 33.6357 106.862 33.6357 105.181V99.7034C33.6357 98.1244 34.8917 96.8274 36.4997 96.6744V96.0504C36.4997 95.7144 36.7847 95.4424 37.1357 95.4424ZM35.0177 99.0944H44.9817C44.7197 98.3854 44.0127 97.8764 43.1817 97.8764H36.8177C35.9867 97.8764 35.2797 98.3854 35.0177 99.0944ZM45.0907 100.311H34.9087V105.181C34.9087 106.189 35.7637 107.007 36.8177 107.007H43.1817C44.2357 107.007 45.0907 106.189 45.0907 105.181V100.311ZM36.1817 102.137C36.1817 101.801 36.4667 101.529 36.8177 101.529H43.1817C43.5327 101.529 43.8177 101.801 43.8177 102.137C43.8177 102.474 43.5327 102.746 43.1817 102.746H36.8177C36.4667 102.746 36.1817 102.474 36.1817 102.137Z" fill="#2563EB"/>
</g>
<path d="M64.3203 106.997C63.5228 106.997 62.8415 106.845 62.2764 106.539C61.7158 106.23 61.2852 105.813 60.9844 105.288C60.6882 104.764 60.54 104.176 60.54 103.525H62.2969C62.2969 104.163 62.4723 104.66 62.8232 105.015C63.1787 105.366 63.6709 105.541 64.2998 105.541C64.8923 105.541 65.373 105.391 65.7422 105.09C66.1159 104.789 66.3027 104.388 66.3027 103.887C66.3027 103.418 66.1022 103.039 65.7012 102.752C65.3047 102.465 64.7806 102.322 64.1289 102.322H63.2539V100.934H64.1289C64.7168 100.934 65.1862 100.804 65.5371 100.544C65.888 100.285 66.0635 99.9359 66.0635 99.4984C66.0635 99.0153 65.8994 98.6302 65.5713 98.3431C65.2432 98.056 64.8125 97.9125 64.2793 97.9125C63.7279 97.9125 63.2881 98.072 62.96 98.391C62.6318 98.7054 62.4678 99.1338 62.4678 99.6761H60.752C60.752 99.0564 60.8978 98.5072 61.1895 98.0287C61.4857 97.5456 61.8981 97.1674 62.4268 96.8939C62.9554 96.6205 63.5752 96.4838 64.2861 96.4838C64.9561 96.4838 65.5531 96.6068 66.0771 96.8529C66.6012 97.0944 67.0137 97.4294 67.3145 97.8578C67.6198 98.2862 67.7725 98.7784 67.7725 99.3344C67.7725 99.8858 67.597 100.357 67.2461 100.749C66.8952 101.141 66.4349 101.406 65.8652 101.542V101.563C66.5579 101.659 67.1003 101.932 67.4922 102.383C67.8887 102.83 68.0869 103.356 68.0869 103.962C68.0869 104.55 67.9251 105.074 67.6016 105.535C67.278 105.99 66.8337 106.348 66.2686 106.608C65.7035 106.868 65.054 106.997 64.3203 106.997ZM73.0498 106.997C72.2295 106.997 71.5231 106.783 70.9307 106.355C70.3382 105.926 69.8802 105.32 69.5566 104.536C69.2376 103.753 69.0781 102.823 69.0781 101.747C69.0781 100.667 69.2376 99.7354 69.5566 98.9515C69.8802 98.1631 70.3382 97.5547 70.9307 97.1263C71.5231 96.698 72.2295 96.4838 73.0498 96.4838C73.8701 96.4838 74.5765 96.698 75.1689 97.1263C75.766 97.5547 76.224 98.1631 76.543 98.9515C76.862 99.7354 77.0215 100.667 77.0215 101.747C77.0215 102.823 76.862 103.755 76.543 104.543C76.224 105.327 75.766 105.933 75.1689 106.362C74.5765 106.786 73.8701 106.997 73.0498 106.997ZM73.0498 105.507C73.7516 105.507 74.3031 105.172 74.7041 104.502C75.1097 103.832 75.3125 102.914 75.3125 101.747C75.3125 100.572 75.1097 99.6488 74.7041 98.9789C74.3031 98.309 73.7516 97.974 73.0498 97.974C72.348 97.974 71.7943 98.309 71.3887 98.9789C70.9876 99.6488 70.7871 100.572 70.7871 101.747C70.7871 102.914 70.9876 103.832 71.3887 104.502C71.7943 105.172 72.348 105.507 73.0498 105.507ZM81.5332 106.833V96.6478H84.1309L86.1133 102C86.209 102.283 86.3298 102.652 86.4756 103.108C86.6214 103.559 86.7536 103.983 86.8721 104.379C86.9906 103.983 87.1204 103.559 87.2617 103.108C87.4076 102.652 87.5283 102.283 87.624 102L89.5723 96.6478H92.1836V106.833H90.4062V101.638C90.4062 101.278 90.4131 100.836 90.4268 100.312C90.4404 99.7878 90.4541 99.266 90.4678 98.7465C90.2855 99.3207 90.1123 99.8698 89.9482 100.394C89.7842 100.913 89.6475 101.328 89.5381 101.638L87.5967 106.833H86.1201L84.165 101.638C84.0602 101.342 83.9258 100.948 83.7617 100.455C83.6022 99.9587 83.4336 99.4369 83.2559 98.89C83.2695 99.3913 83.2809 99.8903 83.29 100.387C83.3037 100.879 83.3105 101.296 83.3105 101.638V106.833H81.5332ZM95.998 106.95C95.278 106.95 94.681 106.77 94.207 106.41C93.7376 106.045 93.5029 105.503 93.5029 104.783C93.5029 104.236 93.6351 103.814 93.8994 103.518C94.1683 103.217 94.5169 102.998 94.9453 102.862C95.3783 102.725 95.8431 102.632 96.3398 102.581C97.0098 102.504 97.4769 102.436 97.7412 102.376C98.0055 102.317 98.1377 102.164 98.1377 101.918V101.864C98.1377 101.554 98.0192 101.301 97.7822 101.105C97.5498 100.909 97.2285 100.811 96.8184 100.811C96.3991 100.811 96.0573 100.909 95.793 101.105C95.5332 101.301 95.3919 101.551 95.3691 101.857H93.708C93.749 101.141 94.0475 100.565 94.6035 100.127C95.1595 99.6898 95.9092 99.4711 96.8525 99.4711C97.7913 99.4711 98.5251 99.6898 99.0537 100.127C99.5824 100.565 99.8467 101.16 99.8467 101.911V106.833H98.1514V105.815H98.124C97.9508 106.134 97.7002 106.403 97.3721 106.621C97.0439 106.84 96.5859 106.95 95.998 106.95ZM96.4219 105.671C96.987 105.671 97.4154 105.525 97.707 105.234C97.9987 104.938 98.1445 104.58 98.1445 104.161V103.381C98.0397 103.45 97.8369 103.513 97.5361 103.573C97.2354 103.627 96.9072 103.682 96.5518 103.737C96.1826 103.791 95.8613 103.896 95.5879 104.051C95.319 104.202 95.1846 104.441 95.1846 104.769C95.1846 105.051 95.2962 105.273 95.5195 105.432C95.7428 105.592 96.0436 105.671 96.4219 105.671ZM101.187 109.691V108.289H102.041C102.273 108.289 102.453 108.226 102.581 108.098C102.713 107.975 102.829 107.772 102.93 107.49L103.196 106.792L100.414 99.6146H102.239L103.565 103.374C103.657 103.643 103.745 103.912 103.832 104.181C103.919 104.445 104.003 104.71 104.085 104.974C104.249 104.445 104.422 103.912 104.604 103.374L105.924 99.6146H107.729L104.502 108.023C104.074 109.135 103.344 109.691 102.314 109.691H101.187ZM107.223 108.898L107.763 105.254H109.465L108.446 108.898H107.223ZM113.628 106.833V105.459L117.326 102.226C117.841 101.766 118.247 101.356 118.543 100.995C118.839 100.635 118.987 100.207 118.987 99.7103C118.987 99.1771 118.826 98.7556 118.502 98.4457C118.183 98.1312 117.748 97.974 117.196 97.974C116.599 97.974 116.132 98.1631 115.795 98.5414C115.462 98.9151 115.296 99.4278 115.296 100.079H113.621C113.621 99.364 113.767 98.7373 114.059 98.1996C114.35 97.6573 114.763 97.2357 115.296 96.9349C115.834 96.6342 116.467 96.4838 117.196 96.4838C117.871 96.4838 118.47 96.6159 118.994 96.8802C119.523 97.14 119.935 97.5069 120.231 97.9808C120.532 98.4502 120.683 98.9994 120.683 99.6283C120.683 100.321 120.489 100.939 120.102 101.481C119.719 102.023 119.165 102.611 118.44 103.245L116.089 105.329V105.343H120.73V106.833H113.628ZM125.741 106.997C124.921 106.997 124.215 106.783 123.622 106.355C123.03 105.926 122.572 105.32 122.248 104.536C121.929 103.753 121.77 102.823 121.77 101.747C121.77 100.667 121.929 99.7354 122.248 98.9515C122.572 98.1631 123.03 97.5547 123.622 97.1263C124.215 96.698 124.921 96.4838 125.741 96.4838C126.562 96.4838 127.268 96.698 127.86 97.1263C128.457 97.5547 128.915 98.1631 129.234 98.9515C129.553 99.7354 129.713 100.667 129.713 101.747C129.713 102.823 129.553 103.755 129.234 104.543C128.915 105.327 128.457 105.933 127.86 106.362C127.268 106.786 126.562 106.997 125.741 106.997ZM125.741 105.507C126.443 105.507 126.994 105.172 127.396 104.502C127.801 103.832 128.004 102.914 128.004 101.747C128.004 100.572 127.801 99.6488 127.396 98.9789C126.994 98.309 126.443 97.974 125.741 97.974C125.039 97.974 124.486 98.309 124.08 98.9789C123.679 99.6488 123.479 100.572 123.479 101.747C123.479 102.914 123.679 103.832 124.08 104.502C124.486 105.172 125.039 105.507 125.741 105.507ZM130.759 106.833V105.459L134.457 102.226C134.972 101.766 135.378 101.356 135.674 100.995C135.97 100.635 136.118 100.207 136.118 99.7103C136.118 99.1771 135.956 98.7556 135.633 98.4457C135.314 98.1312 134.879 97.974 134.327 97.974C133.73 97.974 133.263 98.1631 132.926 98.5414C132.593 98.9151 132.427 99.4278 132.427 100.079H130.752C130.752 99.364 130.898 98.7373 131.189 98.1996C131.481 97.6573 131.894 97.2357 132.427 96.9349C132.965 96.6342 133.598 96.4838 134.327 96.4838C135.002 96.4838 135.601 96.6159 136.125 96.8802C136.654 97.14 137.066 97.5069 137.362 97.9808C137.663 98.4502 137.813 98.9994 137.813 99.6283C137.813 100.321 137.62 100.939 137.232 101.481C136.85 102.023 136.296 102.611 135.571 103.245L133.22 105.329V105.343H137.861V106.833H130.759ZM138.572 104.55V103.128L143.187 96.6478H145.408V103.094H146.816V104.55H145.408V106.833H143.692V104.55H138.572ZM143.692 103.094V98.4457H143.686L140.391 103.08V103.094H143.692Z" fill="#37322F"/>
<g clip-path="url(#clip1_245_682)">
<rect x="28" y="125.833" width="67" height="35" rx="6" fill="white"/>
<path d="M48.4844 137.648V147.833H46.7412V139.357H46.7275L44.2871 140.936V139.282L46.8164 137.648H48.4844ZM49.8857 147.833V146.459L53.584 143.226C54.099 142.766 54.5046 142.356 54.8008 141.995C55.097 141.635 55.2451 141.207 55.2451 140.71C55.2451 140.177 55.0833 139.756 54.7598 139.446C54.4408 139.131 54.0055 138.974 53.4541 138.974C52.8571 138.974 52.39 139.163 52.0527 139.541C51.7201 139.915 51.5537 140.428 51.5537 141.079H49.8789C49.8789 140.364 50.0247 139.737 50.3164 139.2C50.6081 138.657 51.0205 138.236 51.5537 137.935C52.0915 137.634 52.7249 137.484 53.4541 137.484C54.1286 137.484 54.7279 137.616 55.252 137.88C55.7806 138.14 56.193 138.507 56.4893 138.981C56.79 139.45 56.9404 139.999 56.9404 140.628C56.9404 141.321 56.7467 141.939 56.3594 142.481C55.9766 143.023 55.4229 143.611 54.6982 144.245L52.3467 146.329V146.343H56.9883V147.833H49.8857ZM59.1895 146.288C58.8932 146.288 58.6426 146.186 58.4375 145.981C58.2324 145.771 58.1299 145.521 58.1299 145.229C58.1299 144.933 58.2324 144.682 58.4375 144.477C58.6426 144.272 58.8932 144.169 59.1895 144.169C59.4857 144.169 59.7363 144.272 59.9414 144.477C60.1465 144.682 60.249 144.933 60.249 145.229C60.249 145.521 60.1465 145.771 59.9414 145.981C59.7363 146.186 59.4857 146.288 59.1895 146.288ZM59.1895 141.319C58.8932 141.319 58.6426 141.216 58.4375 141.011C58.2324 140.801 58.1299 140.551 58.1299 140.259C58.1299 139.963 58.2324 139.712 58.4375 139.507C58.6426 139.302 58.8932 139.2 59.1895 139.2C59.4857 139.2 59.7363 139.302 59.9414 139.507C60.1465 139.712 60.249 139.963 60.249 140.259C60.249 140.551 60.1465 140.801 59.9414 141.011C59.7363 141.216 59.4857 141.319 59.1895 141.319ZM65.1641 147.997C64.3665 147.997 63.6852 147.845 63.1201 147.539C62.5596 147.23 62.1289 146.813 61.8281 146.288C61.5319 145.764 61.3838 145.176 61.3838 144.525H63.1406C63.1406 145.163 63.3161 145.66 63.667 146.015C64.0225 146.366 64.5146 146.541 65.1436 146.541C65.736 146.541 66.2168 146.391 66.5859 146.09C66.9596 145.789 67.1465 145.388 67.1465 144.887C67.1465 144.418 66.946 144.039 66.5449 143.752C66.1484 143.465 65.6243 143.322 64.9727 143.322H64.0977V141.934H64.9727C65.5605 141.934 66.0299 141.804 66.3809 141.544C66.7318 141.285 66.9072 140.936 66.9072 140.498C66.9072 140.015 66.7432 139.63 66.415 139.343C66.0869 139.056 65.6562 138.912 65.123 138.912C64.5716 138.912 64.1318 139.072 63.8037 139.391C63.4756 139.705 63.3115 140.134 63.3115 140.676H61.5957C61.5957 140.056 61.7415 139.507 62.0332 139.029C62.3294 138.546 62.7419 138.167 63.2705 137.894C63.7992 137.62 64.4189 137.484 65.1299 137.484C65.7998 137.484 66.3968 137.607 66.9209 137.853C67.445 138.094 67.8574 138.429 68.1582 138.858C68.4635 139.286 68.6162 139.778 68.6162 140.334C68.6162 140.886 68.4408 141.357 68.0898 141.749C67.7389 142.141 67.2786 142.406 66.709 142.542V142.563C67.4017 142.659 67.944 142.932 68.3359 143.383C68.7324 143.83 68.9307 144.356 68.9307 144.962C68.9307 145.55 68.7689 146.074 68.4453 146.535C68.1217 146.99 67.6774 147.348 67.1123 147.608C66.5472 147.868 65.8978 147.997 65.1641 147.997ZM73.8936 147.997C73.0732 147.997 72.3669 147.783 71.7744 147.355C71.182 146.926 70.724 146.32 70.4004 145.536C70.0814 144.753 69.9219 143.823 69.9219 142.747C69.9219 141.667 70.0814 140.735 70.4004 139.952C70.724 139.163 71.182 138.555 71.7744 138.126C72.3669 137.698 73.0732 137.484 73.8936 137.484C74.7139 137.484 75.4202 137.698 76.0127 138.126C76.6097 138.555 77.0677 139.163 77.3867 139.952C77.7057 140.735 77.8652 141.667 77.8652 142.747C77.8652 143.823 77.7057 144.755 77.3867 145.543C77.0677 146.327 76.6097 146.933 76.0127 147.362C75.4202 147.786 74.7139 147.997 73.8936 147.997ZM73.8936 146.507C74.5954 146.507 75.1468 146.172 75.5479 145.502C75.9535 144.832 76.1562 143.914 76.1562 142.747C76.1562 141.572 75.9535 140.649 75.5479 139.979C75.1468 139.309 74.5954 138.974 73.8936 138.974C73.1917 138.974 72.638 139.309 72.2324 139.979C71.8314 140.649 71.6309 141.572 71.6309 142.747C71.6309 143.914 71.8314 144.832 72.2324 145.502C72.638 146.172 73.1917 146.507 73.8936 146.507Z" fill="#2563EB"/>
<rect x="28.5" y="126.333" width="66" height="34" rx="5.5" stroke="#2563EB"/>
</g>
<g clip-path="url(#clip2_245_682)">
<rect x="103" y="125.833" width="72" height="35" rx="6" fill="white"/>
<path d="M124.793 147.997C124.041 147.997 123.389 147.783 122.838 147.355C122.291 146.922 121.867 146.314 121.566 145.53C121.266 144.746 121.115 143.818 121.115 142.747C121.115 141.672 121.266 140.742 121.566 139.958C121.867 139.17 122.291 138.562 122.838 138.133C123.389 137.7 124.041 137.484 124.793 137.484C125.545 137.484 126.197 137.7 126.748 138.133C127.299 138.562 127.723 139.17 128.02 139.958C128.32 140.742 128.471 141.672 128.471 142.747C128.471 143.818 128.32 144.746 128.02 145.53C127.723 146.314 127.299 146.922 126.748 147.355C126.197 147.783 125.545 147.997 124.793 147.997ZM124.793 146.904C125.572 146.904 126.185 146.535 126.632 145.796C127.083 145.053 127.309 144.037 127.309 142.747C127.309 141.449 127.083 140.43 126.632 139.692C126.185 138.949 125.572 138.578 124.793 138.578C124.014 138.578 123.398 138.949 122.947 139.692C122.501 140.43 122.277 141.449 122.277 142.747C122.277 144.037 122.501 145.053 122.947 145.796C123.398 146.535 124.014 146.904 124.793 146.904ZM129.667 147.833V146.801L133.29 143.493C133.723 143.096 134.074 142.747 134.343 142.447C134.616 142.146 134.817 141.852 134.944 141.565C135.072 141.278 135.136 140.961 135.136 140.615C135.136 139.986 134.949 139.489 134.575 139.124C134.206 138.76 133.698 138.578 133.051 138.578C132.354 138.578 131.813 138.792 131.431 139.22C131.048 139.644 130.856 140.218 130.856 140.943H129.708C129.708 140.264 129.845 139.664 130.118 139.145C130.396 138.625 130.786 138.22 131.287 137.928C131.788 137.632 132.374 137.484 133.044 137.484C133.682 137.484 134.245 137.616 134.732 137.88C135.22 138.14 135.603 138.502 135.881 138.967C136.159 139.427 136.298 139.961 136.298 140.567C136.298 141.223 136.116 141.827 135.751 142.378C135.391 142.93 134.837 143.545 134.09 144.224L131.335 146.726V146.74H136.359V147.833H129.667ZM138.485 146.275C138.248 146.275 138.046 146.193 137.877 146.029C137.713 145.86 137.631 145.657 137.631 145.42C137.631 145.179 137.713 144.976 137.877 144.812C138.046 144.648 138.248 144.566 138.485 144.566C138.727 144.566 138.93 144.648 139.094 144.812C139.258 144.976 139.34 145.179 139.34 145.42C139.34 145.657 139.258 145.86 139.094 146.029C138.93 146.193 138.727 146.275 138.485 146.275ZM138.485 140.915C138.248 140.915 138.046 140.833 137.877 140.669C137.713 140.501 137.631 140.298 137.631 140.061C137.631 139.819 137.713 139.617 137.877 139.453C138.046 139.288 138.248 139.206 138.485 139.206C138.727 139.206 138.93 139.288 139.094 139.453C139.258 139.617 139.34 139.819 139.34 140.061C139.34 140.298 139.258 140.501 139.094 140.669C138.93 140.833 138.727 140.915 138.485 140.915ZM144.262 147.997C143.56 147.997 142.94 147.856 142.402 147.574C141.865 147.286 141.443 146.89 141.138 146.384C140.832 145.878 140.68 145.295 140.68 144.634H141.924C141.924 145.354 142.127 145.915 142.532 146.316C142.938 146.717 143.505 146.917 144.234 146.917C144.932 146.917 145.497 146.742 145.93 146.391C146.367 146.036 146.586 145.559 146.586 144.962C146.586 144.42 146.354 143.985 145.889 143.657C145.424 143.324 144.818 143.158 144.07 143.158H143.25V142.064H144.07C144.727 142.064 145.257 141.913 145.663 141.613C146.069 141.307 146.271 140.906 146.271 140.41C146.271 139.835 146.08 139.384 145.697 139.056C145.319 138.728 144.813 138.564 144.18 138.564C143.533 138.564 143.022 138.746 142.648 139.111C142.275 139.471 142.088 139.972 142.088 140.615H140.898C140.898 139.999 141.037 139.457 141.315 138.988C141.598 138.514 141.985 138.145 142.478 137.88C142.974 137.616 143.544 137.484 144.187 137.484C144.811 137.484 145.371 137.607 145.868 137.853C146.365 138.099 146.757 138.436 147.044 138.865C147.331 139.293 147.475 139.785 147.475 140.341C147.475 140.856 147.311 141.314 146.982 141.715C146.659 142.112 146.212 142.397 145.643 142.57V142.59C146.294 142.7 146.814 142.973 147.201 143.411C147.593 143.843 147.789 144.361 147.789 144.962C147.789 145.555 147.634 146.081 147.324 146.541C147.019 146.997 146.6 147.355 146.066 147.615C145.538 147.87 144.936 147.997 144.262 147.997ZM152.697 147.997C151.945 147.997 151.294 147.783 150.742 147.355C150.195 146.922 149.771 146.314 149.471 145.53C149.17 144.746 149.02 143.818 149.02 142.747C149.02 141.672 149.17 140.742 149.471 139.958C149.771 139.17 150.195 138.562 150.742 138.133C151.294 137.7 151.945 137.484 152.697 137.484C153.449 137.484 154.101 137.7 154.652 138.133C155.204 138.562 155.628 139.17 155.924 139.958C156.225 140.742 156.375 141.672 156.375 142.747C156.375 143.818 156.225 144.746 155.924 145.53C155.628 146.314 155.204 146.922 154.652 147.355C154.101 147.783 153.449 147.997 152.697 147.997ZM152.697 146.904C153.477 146.904 154.09 146.535 154.536 145.796C154.987 145.053 155.213 144.037 155.213 142.747C155.213 141.449 154.987 140.43 154.536 139.692C154.09 138.949 153.477 138.578 152.697 138.578C151.918 138.578 151.303 138.949 150.852 139.692C150.405 140.43 150.182 141.449 150.182 142.747C150.182 144.037 150.405 145.053 150.852 145.796C151.303 146.535 151.918 146.904 152.697 146.904Z" fill="#37322F"/>
<rect x="103.5" y="126.333" width="71" height="34" rx="5.5" stroke="#37322F" stroke-opacity="0.1"/>
</g>
<g clip-path="url(#clip3_245_682)">
<rect x="183" y="125.833" width="72" height="35" rx="6" fill="white"/>
<path d="M204.293 147.997C203.541 147.997 202.889 147.783 202.338 147.355C201.791 146.922 201.367 146.314 201.066 145.53C200.766 144.746 200.615 143.818 200.615 142.747C200.615 141.672 200.766 140.742 201.066 139.958C201.367 139.17 201.791 138.562 202.338 138.133C202.889 137.7 203.541 137.484 204.293 137.484C205.045 137.484 205.697 137.7 206.248 138.133C206.799 138.562 207.223 139.17 207.52 139.958C207.82 140.742 207.971 141.672 207.971 142.747C207.971 143.818 207.82 144.746 207.52 145.53C207.223 146.314 206.799 146.922 206.248 147.355C205.697 147.783 205.045 147.997 204.293 147.997ZM204.293 146.904C205.072 146.904 205.685 146.535 206.132 145.796C206.583 145.053 206.809 144.037 206.809 142.747C206.809 141.449 206.583 140.43 206.132 139.692C205.685 138.949 205.072 138.578 204.293 138.578C203.514 138.578 202.898 138.949 202.447 139.692C202.001 140.43 201.777 141.449 201.777 142.747C201.777 144.037 202.001 145.053 202.447 145.796C202.898 146.535 203.514 146.904 204.293 146.904ZM212.824 147.997C212.122 147.997 211.503 147.856 210.965 147.574C210.427 147.286 210.006 146.89 209.7 146.384C209.395 145.878 209.242 145.295 209.242 144.634H210.486C210.486 145.354 210.689 145.915 211.095 146.316C211.5 146.717 212.068 146.917 212.797 146.917C213.494 146.917 214.059 146.742 214.492 146.391C214.93 146.036 215.148 145.559 215.148 144.962C215.148 144.42 214.916 143.985 214.451 143.657C213.986 143.324 213.38 143.158 212.633 143.158H211.812V142.064H212.633C213.289 142.064 213.82 141.913 214.226 141.613C214.631 141.307 214.834 140.906 214.834 140.41C214.834 139.835 214.643 139.384 214.26 139.056C213.882 138.728 213.376 138.564 212.742 138.564C212.095 138.564 211.585 138.746 211.211 139.111C210.837 139.471 210.65 139.972 210.65 140.615H209.461C209.461 139.999 209.6 139.457 209.878 138.988C210.16 138.514 210.548 138.145 211.04 137.88C211.537 137.616 212.106 137.484 212.749 137.484C213.373 137.484 213.934 137.607 214.431 137.853C214.927 138.099 215.319 138.436 215.606 138.865C215.894 139.293 216.037 139.785 216.037 140.341C216.037 140.856 215.873 141.314 215.545 141.715C215.221 142.112 214.775 142.397 214.205 142.57V142.59C214.857 142.7 215.376 142.973 215.764 143.411C216.156 143.843 216.352 144.361 216.352 144.962C216.352 145.555 216.197 146.081 215.887 146.541C215.581 146.997 215.162 147.355 214.629 147.615C214.1 147.87 213.499 147.997 212.824 147.997ZM218.505 146.275C218.268 146.275 218.065 146.193 217.896 146.029C217.732 145.86 217.65 145.657 217.65 145.42C217.65 145.179 217.732 144.976 217.896 144.812C218.065 144.648 218.268 144.566 218.505 144.566C218.746 144.566 218.949 144.648 219.113 144.812C219.277 144.976 219.359 145.179 219.359 145.42C219.359 145.657 219.277 145.86 219.113 146.029C218.949 146.193 218.746 146.275 218.505 146.275ZM218.505 140.915C218.268 140.915 218.065 140.833 217.896 140.669C217.732 140.501 217.65 140.298 217.65 140.061C217.65 139.819 217.732 139.617 217.896 139.453C218.065 139.288 218.268 139.206 218.505 139.206C218.746 139.206 218.949 139.288 219.113 139.453C219.277 139.617 219.359 139.819 219.359 140.061C219.359 140.298 219.277 140.501 219.113 140.669C218.949 140.833 218.746 140.915 218.505 140.915ZM224.281 147.997C223.579 147.997 222.96 147.856 222.422 147.574C221.884 147.286 221.463 146.89 221.157 146.384C220.852 145.878 220.699 145.295 220.699 144.634H221.943C221.943 145.354 222.146 145.915 222.552 146.316C222.957 146.717 223.525 146.917 224.254 146.917C224.951 146.917 225.516 146.742 225.949 146.391C226.387 146.036 226.605 145.559 226.605 144.962C226.605 144.42 226.373 143.985 225.908 143.657C225.443 143.324 224.837 143.158 224.09 143.158H223.27V142.064H224.09C224.746 142.064 225.277 141.913 225.683 141.613C226.088 141.307 226.291 140.906 226.291 140.41C226.291 139.835 226.1 139.384 225.717 139.056C225.339 138.728 224.833 138.564 224.199 138.564C223.552 138.564 223.042 138.746 222.668 139.111C222.294 139.471 222.107 139.972 222.107 140.615H220.918C220.918 139.999 221.057 139.457 221.335 138.988C221.618 138.514 222.005 138.145 222.497 137.88C222.994 137.616 223.563 137.484 224.206 137.484C224.83 137.484 225.391 137.607 225.888 137.853C226.384 138.099 226.776 138.436 227.063 138.865C227.351 139.293 227.494 139.785 227.494 140.341C227.494 140.856 227.33 141.314 227.002 141.715C226.678 142.112 226.232 142.397 225.662 142.57V142.59C226.314 142.7 226.833 142.973 227.221 143.411C227.613 143.843 227.809 144.361 227.809 144.962C227.809 145.555 227.654 146.081 227.344 146.541C227.038 146.997 226.619 147.355 226.086 147.615C225.557 147.87 224.956 147.997 224.281 147.997ZM232.717 147.997C231.965 147.997 231.313 147.783 230.762 147.355C230.215 146.922 229.791 146.314 229.49 145.53C229.189 144.746 229.039 143.818 229.039 142.747C229.039 141.672 229.189 140.742 229.49 139.958C229.791 139.17 230.215 138.562 230.762 138.133C231.313 137.7 231.965 137.484 232.717 137.484C233.469 137.484 234.12 137.7 234.672 138.133C235.223 138.562 235.647 139.17 235.943 139.958C236.244 140.742 236.395 141.672 236.395 142.747C236.395 143.818 236.244 144.746 235.943 145.53C235.647 146.314 235.223 146.922 234.672 147.355C234.12 147.783 233.469 147.997 232.717 147.997ZM232.717 146.904C233.496 146.904 234.109 146.535 234.556 145.796C235.007 145.053 235.232 144.037 235.232 142.747C235.232 141.449 235.007 140.43 234.556 139.692C234.109 138.949 233.496 138.578 232.717 138.578C231.938 138.578 231.322 138.949 230.871 139.692C230.424 140.43 230.201 141.449 230.201 142.747C230.201 144.037 230.424 145.053 230.871 145.796C231.322 146.535 231.938 146.904 232.717 146.904Z" fill="#37322F"/>
<rect x="183.5" y="126.333" width="71" height="34" rx="5.5" stroke="#37322F" stroke-opacity="0.1"/>
</g>
<g clip-path="url(#clip4_245_682)">
<rect x="28" y="168.833" width="70.3333" height="35" rx="6" fill="white"/>
<path d="M48.46 190.997C47.708 190.997 47.0563 190.783 46.5049 190.355C45.958 189.922 45.5342 189.314 45.2334 188.53C44.9326 187.746 44.7822 186.818 44.7822 185.747C44.7822 184.672 44.9326 183.742 45.2334 182.958C45.5342 182.17 45.958 181.562 46.5049 181.133C47.0563 180.7 47.708 180.484 48.46 180.484C49.2119 180.484 49.8636 180.7 50.415 181.133C50.9665 181.562 51.3903 182.17 51.6865 182.958C51.9873 183.742 52.1377 184.672 52.1377 185.747C52.1377 186.818 51.9873 187.746 51.6865 188.53C51.3903 189.314 50.9665 189.922 50.415 190.355C49.8636 190.783 49.2119 190.997 48.46 190.997ZM48.46 189.904C49.2393 189.904 49.8522 189.535 50.2988 188.796C50.75 188.053 50.9756 187.037 50.9756 185.747C50.9756 184.449 50.75 183.43 50.2988 182.692C49.8522 181.949 49.2393 181.578 48.46 181.578C47.6807 181.578 47.0654 181.949 46.6143 182.692C46.1676 183.43 45.9443 184.449 45.9443 185.747C45.9443 187.037 46.1676 188.053 46.6143 188.796C47.0654 189.535 47.6807 189.904 48.46 189.904ZM53.1084 188.372V187.361L57.9824 180.648H59.4863V187.279H61.0449V188.372H59.4863V190.833H58.3105V188.372H53.1084ZM58.3105 187.279V182.029H58.2969L54.5029 187.265V187.279H58.3105ZM62.9453 189.275C62.7083 189.275 62.5055 189.193 62.3369 189.029C62.1729 188.86 62.0908 188.657 62.0908 188.42C62.0908 188.179 62.1729 187.976 62.3369 187.812C62.5055 187.648 62.7083 187.566 62.9453 187.566C63.1868 187.566 63.3896 187.648 63.5537 187.812C63.7178 187.976 63.7998 188.179 63.7998 188.42C63.7998 188.657 63.7178 188.86 63.5537 189.029C63.3896 189.193 63.1868 189.275 62.9453 189.275ZM62.9453 183.915C62.7083 183.915 62.5055 183.833 62.3369 183.669C62.1729 183.501 62.0908 183.298 62.0908 183.061C62.0908 182.819 62.1729 182.617 62.3369 182.453C62.5055 182.288 62.7083 182.206 62.9453 182.206C63.1868 182.206 63.3896 182.288 63.5537 182.453C63.7178 182.617 63.7998 182.819 63.7998 183.061C63.7998 183.298 63.7178 183.501 63.5537 183.669C63.3896 183.833 63.1868 183.915 62.9453 183.915ZM68.7217 190.997C68.0199 190.997 67.4001 190.856 66.8623 190.574C66.3245 190.286 65.903 189.89 65.5977 189.384C65.2923 188.878 65.1396 188.295 65.1396 187.634H66.3838C66.3838 188.354 66.5866 188.915 66.9922 189.316C67.3978 189.717 67.9652 189.917 68.6943 189.917C69.3916 189.917 69.9567 189.742 70.3896 189.391C70.8271 189.036 71.0459 188.559 71.0459 187.962C71.0459 187.42 70.8135 186.985 70.3486 186.657C69.8838 186.324 69.2777 186.158 68.5303 186.158H67.71V185.064H68.5303C69.1865 185.064 69.7174 184.913 70.123 184.613C70.5286 184.307 70.7314 183.906 70.7314 183.41C70.7314 182.835 70.54 182.384 70.1572 182.056C69.779 181.728 69.2731 181.564 68.6396 181.564C67.9925 181.564 67.4821 181.746 67.1084 182.111C66.7347 182.471 66.5479 182.972 66.5479 183.615H65.3584C65.3584 182.999 65.4974 182.457 65.7754 181.988C66.0579 181.514 66.4453 181.145 66.9375 180.88C67.4342 180.616 68.0039 180.484 68.6465 180.484C69.2708 180.484 69.8314 180.607 70.3281 180.853C70.8249 181.099 71.2168 181.436 71.5039 181.865C71.791 182.293 71.9346 182.785 71.9346 183.341C71.9346 183.856 71.7705 184.314 71.4424 184.715C71.1188 185.112 70.6722 185.397 70.1025 185.57V185.59C70.7542 185.7 71.2738 185.973 71.6611 186.411C72.0531 186.843 72.249 187.361 72.249 187.962C72.249 188.555 72.0941 189.081 71.7842 189.541C71.4788 189.997 71.0596 190.355 70.5264 190.615C69.9977 190.87 69.3962 190.997 68.7217 190.997ZM77.1572 190.997C76.4053 190.997 75.7536 190.783 75.2021 190.355C74.6553 189.922 74.2314 189.314 73.9307 188.53C73.6299 187.746 73.4795 186.818 73.4795 185.747C73.4795 184.672 73.6299 183.742 73.9307 182.958C74.2314 182.17 74.6553 181.562 75.2021 181.133C75.7536 180.7 76.4053 180.484 77.1572 180.484C77.9092 180.484 78.5609 180.7 79.1123 181.133C79.6637 181.562 80.0876 182.17 80.3838 182.958C80.6846 183.742 80.835 184.672 80.835 185.747C80.835 186.818 80.6846 187.746 80.3838 188.53C80.0876 189.314 79.6637 189.922 79.1123 190.355C78.5609 190.783 77.9092 190.997 77.1572 190.997ZM77.1572 189.904C77.9365 189.904 78.5495 189.535 78.9961 188.796C79.4473 188.053 79.6729 187.037 79.6729 185.747C79.6729 184.449 79.4473 183.43 78.9961 182.692C78.5495 181.949 77.9365 181.578 77.1572 181.578C76.3779 181.578 75.7627 181.949 75.3115 182.692C74.8649 183.43 74.6416 184.449 74.6416 185.747C74.6416 187.037 74.8649 188.053 75.3115 188.796C75.7627 189.535 76.3779 189.904 77.1572 189.904Z" fill="#37322F"/>
<rect x="28.5" y="169.333" width="69.3333" height="34" rx="5.5" stroke="#37322F" stroke-opacity="0.1"/>
</g>
<g clip-path="url(#clip5_245_682)">
<rect x="106.333" y="168.833" width="70.3333" height="35" rx="6" fill="white"/>
<path d="M127.293 190.997C126.541 190.997 125.889 190.783 125.338 190.355C124.791 189.922 124.367 189.314 124.066 188.53C123.766 187.746 123.615 186.818 123.615 185.747C123.615 184.672 123.766 183.742 124.066 182.958C124.367 182.17 124.791 181.562 125.338 181.133C125.889 180.7 126.541 180.484 127.293 180.484C128.045 180.484 128.697 180.7 129.248 181.133C129.799 181.562 130.223 182.17 130.52 182.958C130.82 183.742 130.971 184.672 130.971 185.747C130.971 186.818 130.82 187.746 130.52 188.53C130.223 189.314 129.799 189.922 129.248 190.355C128.697 190.783 128.045 190.997 127.293 190.997ZM127.293 189.904C128.072 189.904 128.685 189.535 129.132 188.796C129.583 188.053 129.809 187.037 129.809 185.747C129.809 184.449 129.583 183.43 129.132 182.692C128.685 181.949 128.072 181.578 127.293 181.578C126.514 181.578 125.898 181.949 125.447 182.692C125.001 183.43 124.777 184.449 124.777 185.747C124.777 187.037 125.001 188.053 125.447 188.796C125.898 189.535 126.514 189.904 127.293 189.904ZM135.64 190.97C134.988 190.97 134.402 190.836 133.883 190.567C133.363 190.293 132.949 189.924 132.639 189.459C132.329 188.995 132.16 188.468 132.133 187.88H133.363C133.418 188.459 133.655 188.938 134.074 189.316C134.498 189.689 135.02 189.876 135.64 189.876C136.082 189.876 136.467 189.774 136.795 189.569C137.128 189.364 137.387 189.083 137.574 188.728C137.761 188.368 137.854 187.958 137.854 187.497C137.854 187.037 137.766 186.629 137.588 186.274C137.41 185.918 137.162 185.64 136.843 185.44C136.524 185.235 136.152 185.132 135.729 185.132C135.168 185.132 134.687 185.246 134.286 185.474C133.885 185.697 133.605 186.025 133.445 186.458H132.263L132.604 180.648H138.483V181.742H133.719L133.473 185.043H133.486C134.12 184.364 134.917 184.025 135.879 184.025C136.503 184.025 137.052 184.173 137.526 184.469C138.005 184.765 138.376 185.173 138.641 185.693C138.91 186.212 139.044 186.809 139.044 187.484C139.044 188.167 138.9 188.771 138.613 189.295C138.331 189.819 137.934 190.23 137.424 190.526C136.913 190.822 136.319 190.97 135.64 190.97ZM141.204 189.275C140.967 189.275 140.764 189.193 140.596 189.029C140.432 188.86 140.35 188.657 140.35 188.42C140.35 188.179 140.432 187.976 140.596 187.812C140.764 187.648 140.967 187.566 141.204 187.566C141.446 187.566 141.648 187.648 141.812 187.812C141.977 187.976 142.059 188.179 142.059 188.42C142.059 188.657 141.977 188.86 141.812 189.029C141.648 189.193 141.446 189.275 141.204 189.275ZM141.204 183.915C140.967 183.915 140.764 183.833 140.596 183.669C140.432 183.501 140.35 183.298 140.35 183.061C140.35 182.819 140.432 182.617 140.596 182.453C140.764 182.288 140.967 182.206 141.204 182.206C141.446 182.206 141.648 182.288 141.812 182.453C141.977 182.617 142.059 182.819 142.059 183.061C142.059 183.298 141.977 183.501 141.812 183.669C141.648 183.833 141.446 183.915 141.204 183.915ZM146.98 190.997C146.279 190.997 145.659 190.856 145.121 190.574C144.583 190.286 144.162 189.89 143.856 189.384C143.551 188.878 143.398 188.295 143.398 187.634H144.643C144.643 188.354 144.845 188.915 145.251 189.316C145.657 189.717 146.224 189.917 146.953 189.917C147.65 189.917 148.215 189.742 148.648 189.391C149.086 189.036 149.305 188.559 149.305 187.962C149.305 187.42 149.072 186.985 148.607 186.657C148.143 186.324 147.536 186.158 146.789 186.158H145.969V185.064H146.789C147.445 185.064 147.976 184.913 148.382 184.613C148.787 184.307 148.99 183.906 148.99 183.41C148.99 182.835 148.799 182.384 148.416 182.056C148.038 181.728 147.532 181.564 146.898 181.564C146.251 181.564 145.741 181.746 145.367 182.111C144.993 182.471 144.807 182.972 144.807 183.615H143.617C143.617 182.999 143.756 182.457 144.034 181.988C144.317 181.514 144.704 181.145 145.196 180.88C145.693 180.616 146.263 180.484 146.905 180.484C147.53 180.484 148.09 180.607 148.587 180.853C149.084 181.099 149.476 181.436 149.763 181.865C150.05 182.293 150.193 182.785 150.193 183.341C150.193 183.856 150.029 184.314 149.701 184.715C149.378 185.112 148.931 185.397 148.361 185.57V185.59C149.013 185.7 149.533 185.973 149.92 186.411C150.312 186.843 150.508 187.361 150.508 187.962C150.508 188.555 150.353 189.081 150.043 189.541C149.738 189.997 149.318 190.355 148.785 190.615C148.257 190.87 147.655 190.997 146.98 190.997ZM155.416 190.997C154.664 190.997 154.012 190.783 153.461 190.355C152.914 189.922 152.49 189.314 152.189 188.53C151.889 187.746 151.738 186.818 151.738 185.747C151.738 184.672 151.889 183.742 152.189 182.958C152.49 182.17 152.914 181.562 153.461 181.133C154.012 180.7 154.664 180.484 155.416 180.484C156.168 180.484 156.82 180.7 157.371 181.133C157.923 181.562 158.346 182.17 158.643 182.958C158.943 183.742 159.094 184.672 159.094 185.747C159.094 186.818 158.943 187.746 158.643 188.53C158.346 189.314 157.923 189.922 157.371 190.355C156.82 190.783 156.168 190.997 155.416 190.997ZM155.416 189.904C156.195 189.904 156.808 189.535 157.255 188.796C157.706 188.053 157.932 187.037 157.932 185.747C157.932 184.449 157.706 183.43 157.255 182.692C156.808 181.949 156.195 181.578 155.416 181.578C154.637 181.578 154.021 181.949 153.57 182.692C153.124 183.43 152.9 184.449 152.9 185.747C152.9 187.037 153.124 188.053 153.57 188.796C154.021 189.535 154.637 189.904 155.416 189.904Z" fill="#37322F"/>
<rect x="106.833" y="169.333" width="69.3333" height="34" rx="5.5" stroke="#37322F" stroke-opacity="0.1"/>
</g>
<g clip-path="url(#clip6_245_682)">
<rect x="184.667" y="168.833" width="70.3333" height="35" rx="6" fill="white"/>
<path d="M205.627 190.997C204.875 190.997 204.223 190.783 203.672 190.355C203.125 189.922 202.701 189.314 202.4 188.53C202.1 187.746 201.949 186.818 201.949 185.747C201.949 184.672 202.1 183.742 202.4 182.958C202.701 182.17 203.125 181.562 203.672 181.133C204.223 180.7 204.875 180.484 205.627 180.484C206.379 180.484 207.031 180.7 207.582 181.133C208.133 181.562 208.557 182.17 208.854 182.958C209.154 183.742 209.305 184.672 209.305 185.747C209.305 186.818 209.154 187.746 208.854 188.53C208.557 189.314 208.133 189.922 207.582 190.355C207.031 190.783 206.379 190.997 205.627 190.997ZM205.627 189.904C206.406 189.904 207.019 189.535 207.466 188.796C207.917 188.053 208.143 187.037 208.143 185.747C208.143 184.449 207.917 183.43 207.466 182.692C207.019 181.949 206.406 181.578 205.627 181.578C204.848 181.578 204.232 181.949 203.781 182.692C203.335 183.43 203.111 184.449 203.111 185.747C203.111 187.037 203.335 188.053 203.781 188.796C204.232 189.535 204.848 189.904 205.627 189.904ZM214.076 190.997C212.951 190.997 212.078 190.578 211.458 189.74C210.843 188.897 210.535 187.707 210.535 186.171C210.535 185.027 210.665 184.029 210.925 183.177C211.189 182.325 211.595 181.664 212.142 181.195C212.688 180.721 213.388 180.484 214.24 180.484C215.124 180.484 215.847 180.732 216.407 181.229C216.972 181.726 217.303 182.38 217.398 183.191H216.195C216.1 182.699 215.89 182.307 215.566 182.015C215.247 181.723 214.83 181.578 214.315 181.578C213.728 181.578 213.24 181.746 212.853 182.083C212.47 182.421 212.183 182.885 211.991 183.478C211.804 184.066 211.711 184.74 211.711 185.501H211.725C211.957 185.109 212.303 184.795 212.764 184.558C213.229 184.321 213.734 184.203 214.281 184.203C214.896 184.203 215.443 184.351 215.922 184.647C216.405 184.939 216.785 185.34 217.063 185.85C217.341 186.356 217.48 186.932 217.48 187.579C217.48 188.249 217.335 188.842 217.043 189.357C216.756 189.872 216.357 190.275 215.847 190.567C215.336 190.854 214.746 190.997 214.076 190.997ZM214.076 189.904C214.486 189.904 214.858 189.801 215.19 189.596C215.528 189.386 215.794 189.106 215.99 188.755C216.191 188.4 216.291 188.008 216.291 187.579C216.291 187.151 216.195 186.766 216.004 186.424C215.812 186.078 215.553 185.804 215.225 185.604C214.896 185.399 214.527 185.296 214.117 185.296C213.707 185.296 213.331 185.399 212.989 185.604C212.652 185.809 212.381 186.087 212.176 186.438C211.975 186.784 211.875 187.169 211.875 187.593C211.875 188.017 211.973 188.404 212.169 188.755C212.369 189.106 212.636 189.386 212.969 189.596C213.301 189.801 213.671 189.904 214.076 189.904ZM219.634 189.275C219.397 189.275 219.194 189.193 219.025 189.029C218.861 188.86 218.779 188.657 218.779 188.42C218.779 188.179 218.861 187.976 219.025 187.812C219.194 187.648 219.397 187.566 219.634 187.566C219.875 187.566 220.078 187.648 220.242 187.812C220.406 187.976 220.488 188.179 220.488 188.42C220.488 188.657 220.406 188.86 220.242 189.029C220.078 189.193 219.875 189.275 219.634 189.275ZM219.634 183.915C219.397 183.915 219.194 183.833 219.025 183.669C218.861 183.501 218.779 183.298 218.779 183.061C218.779 182.819 218.861 182.617 219.025 182.453C219.194 182.288 219.397 182.206 219.634 182.206C219.875 182.206 220.078 182.288 220.242 182.453C220.406 182.617 220.488 182.819 220.488 183.061C220.488 183.298 220.406 183.501 220.242 183.669C220.078 183.833 219.875 183.915 219.634 183.915ZM225.41 190.997C224.708 190.997 224.089 190.856 223.551 190.574C223.013 190.286 222.591 189.89 222.286 189.384C221.981 188.878 221.828 188.295 221.828 187.634H223.072C223.072 188.354 223.275 188.915 223.681 189.316C224.086 189.717 224.654 189.917 225.383 189.917C226.08 189.917 226.645 189.742 227.078 189.391C227.516 189.036 227.734 188.559 227.734 187.962C227.734 187.42 227.502 186.985 227.037 186.657C226.572 186.324 225.966 186.158 225.219 186.158H224.398V185.064H225.219C225.875 185.064 226.406 184.913 226.812 184.613C227.217 184.307 227.42 183.906 227.42 183.41C227.42 182.835 227.229 182.384 226.846 182.056C226.467 181.728 225.962 181.564 225.328 181.564C224.681 181.564 224.171 181.746 223.797 182.111C223.423 182.471 223.236 182.972 223.236 183.615H222.047C222.047 182.999 222.186 182.457 222.464 181.988C222.746 181.514 223.134 181.145 223.626 180.88C224.123 180.616 224.692 180.484 225.335 180.484C225.959 180.484 226.52 180.607 227.017 180.853C227.513 181.099 227.905 181.436 228.192 181.865C228.479 182.293 228.623 182.785 228.623 183.341C228.623 183.856 228.459 184.314 228.131 184.715C227.807 185.112 227.361 185.397 226.791 185.57V185.59C227.443 185.7 227.962 185.973 228.35 186.411C228.742 186.843 228.938 187.361 228.938 187.962C228.938 188.555 228.783 189.081 228.473 189.541C228.167 189.997 227.748 190.355 227.215 190.615C226.686 190.87 226.085 190.997 225.41 190.997ZM233.846 190.997C233.094 190.997 232.442 190.783 231.891 190.355C231.344 189.922 230.92 189.314 230.619 188.53C230.318 187.746 230.168 186.818 230.168 185.747C230.168 184.672 230.318 183.742 230.619 182.958C230.92 182.17 231.344 181.562 231.891 181.133C232.442 180.7 233.094 180.484 233.846 180.484C234.598 180.484 235.249 180.7 235.801 181.133C236.352 181.562 236.776 182.17 237.072 182.958C237.373 183.742 237.523 184.672 237.523 185.747C237.523 186.818 237.373 187.746 237.072 188.53C236.776 189.314 236.352 189.922 235.801 190.355C235.249 190.783 234.598 190.997 233.846 190.997ZM233.846 189.904C234.625 189.904 235.238 189.535 235.685 188.796C236.136 188.053 236.361 187.037 236.361 185.747C236.361 184.449 236.136 183.43 235.685 182.692C235.238 181.949 234.625 181.578 233.846 181.578C233.066 181.578 232.451 181.949 232 182.692C231.553 183.43 231.33 184.449 231.33 185.747C231.33 187.037 231.553 188.053 232 188.796C232.451 189.535 233.066 189.904 233.846 189.904Z" fill="#37322F"/>
<rect x="185.167" y="169.333" width="69.3333" height="34" rx="5.5" stroke="#37322F" stroke-opacity="0.1"/>
</g>
</g>
<g filter="url(#filter2_ddddi_245_682)">
<path d="M307 19C307 13.4772 311.477 9 317 9H564C569.523 9 574 13.4772 574 19V214C574 219.523 569.523 224 564 224H317C311.477 224 307 219.523 307 214V19Z" fill="white" shape-rendering="crispEdges"/>
<path d="M317 8.5C311.201 8.5 306.5 13.201 306.5 19V214C306.5 219.799 311.201 224.5 317 224.5H564C569.799 224.5 574.5 219.799 574.5 214V19C574.5 13.201 569.799 8.5 564 8.5H317Z" stroke="#18181B" stroke-opacity="0.06" shape-rendering="crispEdges"/>
<path d="M328.009 47.0001V34.8745H330.158V45.1365H335.781V47.0001H328.009ZM340.701 47.1954C339.843 47.1954 339.1 47.0028 338.471 46.6176C337.841 46.2324 337.356 45.7035 337.014 45.0307C336.678 44.3526 336.509 43.5794 336.509 42.7114C336.509 41.8379 336.683 41.0648 337.03 40.392C337.383 39.7139 337.868 39.1822 338.487 38.797C339.105 38.4064 339.816 38.2111 340.619 38.2111C341.444 38.2111 342.165 38.4009 342.784 38.7807C343.402 39.1605 343.882 39.6868 344.224 40.3595C344.566 41.0268 344.737 41.7999 344.737 42.6788V43.2404H338.52C338.547 43.9402 338.753 44.5045 339.138 44.9331C339.523 45.3617 340.06 45.576 340.749 45.576C341.265 45.576 341.691 45.4647 342.027 45.2423C342.363 45.0144 342.591 44.7161 342.711 44.3471H344.631C344.523 44.9059 344.284 45.3996 343.915 45.8282C343.552 46.2568 343.093 46.5932 342.54 46.8374C341.986 47.0761 341.373 47.1954 340.701 47.1954ZM338.536 41.8243H342.768C342.702 41.2113 342.48 40.7284 342.1 40.3758C341.726 40.0177 341.243 39.8387 340.652 39.8387C340.055 39.8387 339.569 40.0177 339.195 40.3758C338.826 40.7284 338.606 41.2113 338.536 41.8243ZM348.704 47.1385C347.847 47.1385 347.137 46.9242 346.572 46.4956C346.013 46.0615 345.734 45.4159 345.734 44.5587C345.734 43.9077 345.891 43.4058 346.206 43.0532C346.526 42.6951 346.941 42.4347 347.451 42.2719C347.967 42.1092 348.52 41.998 349.111 41.9383C349.909 41.846 350.465 41.7647 350.78 41.6941C351.094 41.6236 351.252 41.4419 351.252 41.1489V41.0838C351.252 40.7149 351.111 40.4138 350.828 40.1805C350.552 39.9472 350.169 39.8305 349.681 39.8305C349.182 39.8305 348.775 39.9472 348.46 40.1805C348.151 40.4138 347.983 40.7121 347.956 41.0756H345.978C346.027 40.2239 346.382 39.5376 347.044 39.0167C347.706 38.4959 348.599 38.2355 349.722 38.2355C350.839 38.2355 351.713 38.4959 352.342 39.0167C352.971 39.5376 353.286 40.2456 353.286 41.1407V47.0001H351.268V45.7876H351.235C351.029 46.1673 350.731 46.4874 350.34 46.7478C349.95 47.0083 349.404 47.1385 348.704 47.1385ZM349.209 45.6167C349.882 45.6167 350.392 45.443 350.739 45.0958C351.086 44.7432 351.26 44.3173 351.26 43.8182V42.8904C351.135 42.9718 350.894 43.0478 350.535 43.1183C350.177 43.1834 349.787 43.2485 349.364 43.3136C348.924 43.3787 348.542 43.5035 348.216 43.6879C347.896 43.867 347.736 44.1518 347.736 44.5424C347.736 44.8788 347.869 45.1419 348.135 45.3318C348.401 45.5217 348.759 45.6167 349.209 45.6167ZM358.255 47.171C357.506 47.171 356.852 46.9838 356.293 46.6095C355.734 46.2351 355.3 45.7143 354.991 45.047C354.687 44.3743 354.535 43.5903 354.535 42.6951C354.535 41.8162 354.69 41.0431 354.999 40.3758C355.309 39.703 355.743 39.1795 356.301 38.8051C356.86 38.4254 357.506 38.2355 358.238 38.2355C358.797 38.2355 359.299 38.3494 359.744 38.5773C360.189 38.8051 360.549 39.1551 360.826 39.6271H360.842V34.8745H362.893V47.0001H360.875V45.6899H360.859C360.587 46.189 360.224 46.5607 359.768 46.8048C359.318 47.049 358.813 47.171 358.255 47.171ZM358.735 45.4539C359.407 45.4539 359.945 45.2043 360.346 44.7052C360.753 44.2006 360.956 43.5306 360.956 42.6951C360.956 41.8596 360.753 41.1923 360.346 40.6932C359.945 40.1886 359.407 39.9363 358.735 39.9363C358.1 39.9363 357.587 40.175 357.197 40.6525C356.806 41.1299 356.611 41.8108 356.611 42.6951C356.611 43.5849 356.806 44.2685 357.197 44.7459C357.587 45.2179 358.1 45.4539 358.735 45.4539ZM373.481 47.1954C372.396 47.1954 371.428 46.9377 370.576 46.4223C369.729 45.9015 369.059 45.1745 368.566 44.2413C368.077 43.3027 367.833 42.2041 367.833 40.9454C367.833 39.6813 368.077 38.58 368.566 37.6414C369.059 36.7028 369.729 35.9758 370.576 35.4604C371.428 34.9396 372.396 34.6792 373.481 34.6792C374.561 34.6792 375.526 34.9396 376.378 35.4604C377.23 35.9758 377.9 36.7028 378.388 37.6414C378.882 38.58 379.129 39.6813 379.129 40.9454C379.129 42.0468 378.936 43.0288 378.551 43.8914C378.171 44.754 377.648 45.4539 376.98 45.991L378.6 48.0499H376.541L375.589 46.8129C374.932 47.0679 374.23 47.1954 373.481 47.1954ZM372.618 42.9555H374.572L375.703 44.4204C376.088 44.0514 376.392 43.5767 376.614 42.9962C376.842 42.4103 376.956 41.7267 376.956 40.9454C376.956 40.0177 376.804 39.231 376.5 38.5854C376.197 37.9398 375.781 37.4488 375.255 37.1124C374.734 36.7761 374.143 36.6079 373.481 36.6079C372.819 36.6079 372.225 36.7761 371.699 37.1124C371.178 37.4488 370.763 37.9398 370.454 38.5854C370.15 39.231 369.998 40.0177 369.998 40.9454C369.998 41.8677 370.15 42.6517 370.454 43.2973C370.763 43.9375 371.178 44.4258 371.699 44.7622C372.225 45.0985 372.819 45.2667 373.481 45.2667C373.763 45.2667 374.037 45.2342 374.303 45.1691L372.618 42.9555ZM383.52 47.171C382.619 47.171 381.884 46.8808 381.314 46.3003C380.744 45.7197 380.46 44.8788 380.46 43.7775V38.4064H382.51V43.4519C382.51 44.0813 382.662 44.5587 382.966 44.8842C383.27 45.2098 383.696 45.3725 384.244 45.3725C384.786 45.3725 385.234 45.2043 385.587 44.868C385.945 44.5316 386.124 43.9972 386.124 43.2648V38.4064H388.183V47.0001H386.164V45.6818C385.562 46.6746 384.681 47.171 383.52 47.171ZM392.467 47.1385C391.61 47.1385 390.9 46.9242 390.335 46.4956C389.776 46.0615 389.497 45.4159 389.497 44.5587C389.497 43.9077 389.654 43.4058 389.969 43.0532C390.289 42.6951 390.704 42.4347 391.214 42.2719C391.73 42.1092 392.283 41.998 392.874 41.9383C393.672 41.846 394.228 41.7647 394.543 41.6941C394.857 41.6236 395.015 41.4419 395.015 41.1489V41.0838C395.015 40.7149 394.874 40.4138 394.591 40.1805C394.315 39.9472 393.932 39.8305 393.444 39.8305C392.945 39.8305 392.538 39.9472 392.223 40.1805C391.914 40.4138 391.746 40.7121 391.719 41.0756H389.741C389.79 40.2239 390.145 39.5376 390.807 39.0167C391.469 38.4959 392.362 38.2355 393.485 38.2355C394.602 38.2355 395.476 38.4959 396.105 39.0167C396.734 39.5376 397.049 40.2456 397.049 41.1407V47.0001H395.031V45.7876H394.998C394.792 46.1673 394.494 46.4874 394.103 46.7478C393.713 47.0083 393.167 47.1385 392.467 47.1385ZM392.972 45.6167C393.645 45.6167 394.155 45.443 394.502 45.0958C394.849 44.7432 395.023 44.3173 395.023 43.8182V42.8904C394.898 42.9718 394.657 43.0478 394.298 43.1183C393.94 43.1834 393.55 43.2485 393.127 43.3136C392.687 43.3787 392.305 43.5035 391.979 43.6879C391.659 43.867 391.499 44.1518 391.499 44.5424C391.499 44.8788 391.632 45.1419 391.898 45.3318C392.164 45.5217 392.522 45.6167 392.972 45.6167ZM400.748 34.8745V47.0001H398.697V34.8745H400.748ZM402.404 47.0001V38.4064H404.455V47.0001H402.404ZM403.43 37.1287C403.077 37.1287 402.784 37.0175 402.551 36.795C402.317 36.5672 402.201 36.2878 402.201 35.9568C402.201 35.6259 402.317 35.3492 402.551 35.1268C402.784 34.9043 403.077 34.7931 403.43 34.7931C403.777 34.7931 404.067 34.9043 404.3 35.1268C404.534 35.3492 404.65 35.6259 404.65 35.9568C404.65 36.2878 404.534 36.5672 404.3 36.795C404.067 37.0175 403.777 37.1287 403.43 37.1287ZM410.774 38.4064V40.0584H409.025V44.5343C409.025 44.8435 409.087 45.0578 409.212 45.1772C409.337 45.2911 409.565 45.3481 409.896 45.3481H410.774V47.0001H409.537C408.664 47.0001 408.016 46.8238 407.592 46.4712C407.175 46.1185 406.966 45.5733 406.966 44.8354V40.0584H405.468V38.4064H406.966V36.0626H409.025V38.4064H410.774ZM412.496 50.4018V48.7335H413.513C413.79 48.7335 414.004 48.6576 414.156 48.5057C414.313 48.3592 414.452 48.1177 414.571 47.7814L414.888 46.9513L411.576 38.4064H413.749L415.328 42.8823C415.436 43.2024 415.542 43.5225 415.645 43.8426C415.748 44.1572 415.849 44.4719 415.946 44.7866C416.142 44.1572 416.348 43.5225 416.565 42.8823L418.135 38.4064H420.284L416.443 48.4161C415.933 49.7399 415.065 50.4018 413.839 50.4018H412.496Z" fill="#18181B"/>
<rect x="327" y="73" width="227" height="0.833333" fill="#18181B" fill-opacity="0.12"/>
<g opacity="0.1">
<rect x="327" y="93.8334" width="227" height="16" rx="6" fill="#2563EB"/>
</g>
<rect x="327" y="93.8334" width="118" height="16" rx="6" fill="#2563EB"/>
<g opacity="0.1">
<rect x="327" y="129.833" width="227" height="16" rx="6" fill="#16A34A"/>
</g>
<rect x="327" y="130" width="187" height="16" rx="6" fill="#16A34A"/>
<g opacity="0.1">
<rect x="327" y="166" width="227" height="16" rx="6" fill="#EA580C"/>
</g>
<rect x="327" y="166" width="86" height="16" rx="6" fill="#EA580C"/>
</g>
<path opacity="0.2" d="M275 112C274.724 112 274.5 112.224 274.5 112.5C274.5 112.776 274.724 113 275 113V112ZM306.854 112.854C307.049 112.658 307.049 112.342 306.854 112.146L303.672 108.964C303.476 108.769 303.16 108.769 302.964 108.964C302.769 109.16 302.769 109.476 302.964 109.672L305.793 112.5L302.964 115.328C302.769 115.524 302.769 115.84 302.964 116.036C303.16 116.231 303.476 116.231 303.672 116.036L306.854 112.854ZM275 113H291V112H275V113ZM291 113H306.5V112H291V113Z" fill="#1F2129"/>
<path opacity="0.2" d="M574 116C573.724 116 573.5 116.224 573.5 116.5C573.5 116.776 573.724 117 574 117V116ZM606.354 116.854C606.549 116.658 606.549 116.342 606.354 116.146L603.172 112.964C602.976 112.769 602.66 112.769 602.464 112.964C602.269 113.16 602.269 113.476 602.464 113.672L605.293 116.5L602.464 119.328C602.269 119.524 602.269 119.84 602.464 120.036C602.66 120.231 602.976 120.231 603.172 120.036L606.354 116.854ZM574 117H606V116H574V117Z" fill="#1F2129"/>
<defs>
<filter id="filter0_ddddi_245_682" x="598.333" y="4.66667" width="282.333" height="230.333" filterUnits="userSpaceOnUse" color-interpolation-filters="sRGB">
<feFlood flood-opacity="0" result="BackgroundImageFix"/>
<feColorMatrix in="SourceAlpha" type="matrix" values="0 0 0 0 0 0 0 0 0 0 0 0 0 0 0 0 0 0 127 0" result="hardAlpha"/>
<feMorphology radius="0.833333" operator="dilate" in="SourceAlpha" result="effect1_dropShadow_245_682"/>
<feOffset/>
<feComposite in2="hardAlpha" operator="out"/>
<feColorMatrix type="matrix" values="0 0 0 0 0.160784 0 0 0 0 0.160784 0 0 0 0 0.160784 0 0 0 0.08 0"/>
<feBlend mode="normal" in2="BackgroundImageFix" result="effect1_dropShadow_245_682"/>
<feColorMatrix in="SourceAlpha" type="matrix" values="0 0 0 0 0 0 0 0 0 0 0 0 0 0 0 0 0 0 127 0" result="hardAlpha"/>
<feOffset dy="0.833333"/>
<feGaussianBlur stdDeviation="0.833333"/>
<feComposite in2="hardAlpha" operator="out"/>
<feColorMatrix type="matrix" values="0 0 0 0 0.160784 0 0 0 0 0.160784 0 0 0 0 0.160784 0 0 0 0.04 0"/>
<feBlend mode="normal" in2="effect1_dropShadow_245_682" result="effect2_dropShadow_245_682"/>
<feColorMatrix in="SourceAlpha" type="matrix" values="0 0 0 0 0 0 0 0 0 0 0 0 0 0 0 0 0 0 127 0" result="hardAlpha"/>
<feOffset dy="1.66667"/>
<feGaussianBlur stdDeviation="1.66667"/>
<feComposite in2="hardAlpha" operator="out"/>
<feColorMatrix type="matrix" values="0 0 0 0 0.160784 0 0 0 0 0.160784 0 0 0 0 0.160784 0 0 0 0.04 0"/>
<feBlend mode="normal" in2="effect2_dropShadow_245_682" result="effect3_dropShadow_245_682"/>
<feColorMatrix in="SourceAlpha" type="matrix" values="0 0 0 0 0 0 0 0 0 0 0 0 0 0 0 0 0 0 127 0" result="hardAlpha"/>
<feOffset dy="3.33333"/>
<feGaussianBlur stdDeviation="3.33333"/>
<feComposite in2="hardAlpha" operator="out"/>
<feColorMatrix type="matrix" values="0 0 0 0 0.160784 0 0 0 0 0.160784 0 0 0 0 0.160784 0 0 0 0.06 0"/>
<feBlend mode="normal" in2="effect3_dropShadow_245_682" result="effect4_dropShadow_245_682"/>
<feBlend mode="normal" in="SourceGraphic" in2="effect4_dropShadow_245_682" result="shape"/>
<feColorMatrix in="SourceAlpha" type="matrix" values="0 0 0 0 0 0 0 0 0 0 0 0 0 0 0 0 0 0 127 0" result="hardAlpha"/>
<feOffset dy="-0.416667"/>
<feGaussianBlur stdDeviation="0.208333"/>
<feComposite in2="hardAlpha" operator="arithmetic" k2="-1" k3="1"/>
<feColorMatrix type="matrix" values="0 0 0 0 0.160784 0 0 0 0 0.160784 0 0 0 0 0.160784 0 0 0 0.08 0"/>
<feBlend mode="normal" in2="shape" result="effect5_innerShadow_245_682"/>
</filter>
<filter id="filter1_ddddi_245_682" x="0.333333" y="0.666667" width="282.333" height="230.333" filterUnits="userSpaceOnUse" color-interpolation-filters="sRGB">
<feFlood flood-opacity="0" result="BackgroundImageFix"/>
<feColorMatrix in="SourceAlpha" type="matrix" values="0 0 0 0 0 0 0 0 0 0 0 0 0 0 0 0 0 0 127 0" result="hardAlpha"/>
<feMorphology radius="0.833333" operator="dilate" in="SourceAlpha" result="effect1_dropShadow_245_682"/>
<feOffset/>
<feComposite in2="hardAlpha" operator="out"/>
<feColorMatrix type="matrix" values="0 0 0 0 0.160784 0 0 0 0 0.160784 0 0 0 0 0.160784 0 0 0 0.08 0"/>
<feBlend mode="normal" in2="BackgroundImageFix" result="effect1_dropShadow_245_682"/>
<feColorMatrix in="SourceAlpha" type="matrix" values="0 0 0 0 0 0 0 0 0 0 0 0 0 0 0 0 0 0 127 0" result="hardAlpha"/>
<feOffset dy="0.833333"/>
<feGaussianBlur stdDeviation="0.833333"/>
<feComposite in2="hardAlpha" operator="out"/>
<feColorMatrix type="matrix" values="0 0 0 0 0.160784 0 0 0 0 0.160784 0 0 0 0 0.160784 0 0 0 0.04 0"/>
<feBlend mode="normal" in2="effect1_dropShadow_245_682" result="effect2_dropShadow_245_682"/>
<feColorMatrix in="SourceAlpha" type="matrix" values="0 0 0 0 0 0 0 0 0 0 0 0 0 0 0 0 0 0 127 0" result="hardAlpha"/>
<feOffset dy="1.66667"/>
<feGaussianBlur stdDeviation="1.66667"/>
<feComposite in2="hardAlpha" operator="out"/>
<feColorMatrix type="matrix" values="0 0 0 0 0.160784 0 0 0 0 0.160784 0 0 0 0 0.160784 0 0 0 0.04 0"/>
<feBlend mode="normal" in2="effect2_dropShadow_245_682" result="effect3_dropShadow_245_682"/>
<feColorMatrix in="SourceAlpha" type="matrix" values="0 0 0 0 0 0 0 0 0 0 0 0 0 0 0 0 0 0 127 0" result="hardAlpha"/>
<feOffset dy="3.33333"/>
<feGaussianBlur stdDeviation="3.33333"/>
<feComposite in2="hardAlpha" operator="out"/>
<feColorMatrix type="matrix" values="0 0 0 0 0.160784 0 0 0 0 0.160784 0 0 0 0 0.160784 0 0 0 0.06 0"/>
<feBlend mode="normal" in2="effect3_dropShadow_245_682" result="effect4_dropShadow_245_682"/>
<feBlend mode="normal" in="SourceGraphic" in2="effect4_dropShadow_245_682" result="shape"/>
<feColorMatrix in="SourceAlpha" type="matrix" values="0 0 0 0 0 0 0 0 0 0 0 0 0 0 0 0 0 0 127 0" result="hardAlpha"/>
<feOffset dy="-0.416667"/>
<feGaussianBlur stdDeviation="0.208333"/>
<feComposite in2="hardAlpha" operator="arithmetic" k2="-1" k3="1"/>
<feColorMatrix type="matrix" values="0 0 0 0 0.160784 0 0 0 0 0.160784 0 0 0 0 0.160784 0 0 0 0.08 0"/>
<feBlend mode="normal" in2="shape" result="effect5_innerShadow_245_682"/>
</filter>
<filter id="filter2_ddddi_245_682" x="299.333" y="4.66667" width="282.333" height="230.333" filterUnits="userSpaceOnUse" color-interpolation-filters="sRGB">
<feFlood flood-opacity="0" result="BackgroundImageFix"/>
<feColorMatrix in="SourceAlpha" type="matrix" values="0 0 0 0 0 0 0 0 0 0 0 0 0 0 0 0 0 0 127 0" result="hardAlpha"/>
<feMorphology radius="0.833333" operator="dilate" in="SourceAlpha" result="effect1_dropShadow_245_682"/>
<feOffset/>
<feComposite in2="hardAlpha" operator="out"/>
<feColorMatrix type="matrix" values="0 0 0 0 0.160784 0 0 0 0 0.160784 0 0 0 0 0.160784 0 0 0 0.08 0"/>
<feBlend mode="normal" in2="BackgroundImageFix" result="effect1_dropShadow_245_682"/>
<feColorMatrix in="SourceAlpha" type="matrix" values="0 0 0 0 0 0 0 0 0 0 0 0 0 0 0 0 0 0 127 0" result="hardAlpha"/>
<feOffset dy="0.833333"/>
<feGaussianBlur stdDeviation="0.833333"/>
<feComposite in2="hardAlpha" operator="out"/>
<feColorMatrix type="matrix" values="0 0 0 0 0.160784 0 0 0 0 0.160784 0 0 0 0 0.160784 0 0 0 0.04 0"/>
<feBlend mode="normal" in2="effect1_dropShadow_245_682" result="effect2_dropShadow_245_682"/>
<feColorMatrix in="SourceAlpha" type="matrix" values="0 0 0 0 0 0 0 0 0 0 0 0 0 0 0 0 0 0 127 0" result="hardAlpha"/>
<feOffset dy="1.66667"/>
<feGaussianBlur stdDeviation="1.66667"/>
<feComposite in2="hardAlpha" operator="out"/>
<feColorMatrix type="matrix" values="0 0 0 0 0.160784 0 0 0 0 0.160784 0 0 0 0 0.160784 0 0 0 0.04 0"/>
<feBlend mode="normal" in2="effect2_dropShadow_245_682" result="effect3_dropShadow_245_682"/>
<feColorMatrix in="SourceAlpha" type="matrix" values="0 0 0 0 0 0 0 0 0 0 0 0 0 0 0 0 0 0 127 0" result="hardAlpha"/>
<feOffset dy="3.33333"/>
<feGaussianBlur stdDeviation="3.33333"/>
<feComposite in2="hardAlpha" operator="out"/>
<feColorMatrix type="matrix" values="0 0 0 0 0.160784 0 0 0 0 0.160784 0 0 0 0 0.160784 0 0 0 0.06 0"/>
<feBlend mode="normal" in2="effect3_dropShadow_245_682" result="effect4_dropShadow_245_682"/>
<feBlend mode="normal" in="SourceGraphic" in2="effect4_dropShadow_245_682" result="shape"/>
<feColorMatrix in="SourceAlpha" type="matrix" values="0 0 0 0 0 0 0 0 0 0 0 0 0 0 0 0 0 0 127 0" result="hardAlpha"/>
<feOffset dy="-0.416667"/>
<feGaussianBlur stdDeviation="0.208333"/>
<feComposite in2="hardAlpha" operator="arithmetic" k2="-1" k3="1"/>
<feColorMatrix type="matrix" values="0 0 0 0 0.160784 0 0 0 0 0.160784 0 0 0 0 0.160784 0 0 0 0.08 0"/>
<feBlend mode="normal" in2="shape" result="effect5_innerShadow_245_682"/>
</filter>
<clipPath id="clip0_245_682">
<rect width="14" height="14" fill="white" transform="translate(33 94.8334)"/>
</clipPath>
<clipPath id="clip1_245_682">
<rect x="28" y="125.833" width="67" height="35" rx="6" fill="white"/>
</clipPath>
<clipPath id="clip2_245_682">
<rect x="103" y="125.833" width="72" height="35" rx="6" fill="white"/>
</clipPath>
<clipPath id="clip3_245_682">
<rect x="183" y="125.833" width="72" height="35" rx="6" fill="white"/>
</clipPath>
<clipPath id="clip4_245_682">
<rect x="28" y="168.833" width="70.3333" height="35" rx="6" fill="white"/>
</clipPath>
<clipPath id="clip5_245_682">
<rect x="106.333" y="168.833" width="70.3333" height="35" rx="6" fill="white"/>
</clipPath>
<clipPath id="clip6_245_682">
<rect x="184.667" y="168.833" width="70.3333" height="35" rx="6" fill="white"/>
</clipPath>
</defs>
</svg>
