<svg width="530" height="530" viewBox="0 0 530 530" fill="none" xmlns="http://www.w3.org/2000/svg">
<g filter="url(#filter0_ddddi_245_657)">
<rect x="195" y="192" width="140" height="140" rx="70" fill="white" shape-rendering="crispEdges"/>
<rect x="195.5" y="192.5" width="139" height="139" rx="69.5" stroke="#18181B" stroke-opacity="0.2" shape-rendering="crispEdges"/>
<path d="M246.484 268V256.364H248.592V261.71H248.734L253.273 256.364H255.847L251.347 261.585L255.887 268H253.353L249.881 263.011L248.592 264.534V268H246.484ZM257.312 268V256.364H261.675C262.569 256.364 263.319 256.53 263.925 256.864C264.535 257.197 264.996 257.655 265.306 258.239C265.621 258.818 265.778 259.477 265.778 260.216C265.778 260.962 265.621 261.625 265.306 262.205C264.992 262.784 264.528 263.241 263.914 263.574C263.3 263.903 262.545 264.068 261.647 264.068H258.755V262.335H261.363C261.886 262.335 262.314 262.244 262.647 262.062C262.98 261.881 263.227 261.631 263.386 261.312C263.549 260.994 263.63 260.629 263.63 260.216C263.63 259.803 263.549 259.439 263.386 259.125C263.227 258.811 262.978 258.566 262.641 258.392C262.308 258.214 261.878 258.125 261.352 258.125H259.42V268H257.312ZM269.717 256.364V268H267.609V256.364H269.717ZM273.653 256.364V257.523C273.653 257.856 273.588 258.203 273.46 258.562C273.335 258.919 273.162 259.259 272.942 259.585C272.723 259.907 272.473 260.184 272.192 260.415L271.238 259.795C271.446 259.481 271.628 259.142 271.783 258.778C271.939 258.411 272.016 257.996 272.016 257.534V256.364H273.653ZM281.745 259.562C281.692 259.066 281.469 258.68 281.075 258.403C280.684 258.127 280.177 257.989 279.552 257.989C279.112 257.989 278.736 258.055 278.421 258.188C278.107 258.32 277.866 258.5 277.7 258.727C277.533 258.955 277.448 259.214 277.444 259.506C277.444 259.748 277.499 259.958 277.609 260.136C277.722 260.314 277.876 260.466 278.069 260.591C278.262 260.712 278.476 260.814 278.711 260.898C278.946 260.981 279.183 261.051 279.421 261.108L280.512 261.381C280.951 261.483 281.374 261.621 281.779 261.795C282.188 261.97 282.554 262.189 282.876 262.455C283.201 262.72 283.459 263.04 283.648 263.415C283.838 263.79 283.933 264.229 283.933 264.733C283.933 265.415 283.758 266.015 283.41 266.534C283.061 267.049 282.558 267.453 281.898 267.744C281.243 268.032 280.45 268.176 279.518 268.176C278.612 268.176 277.826 268.036 277.16 267.756C276.497 267.475 275.978 267.066 275.603 266.528C275.232 265.991 275.031 265.335 275.001 264.562H277.075C277.105 264.968 277.23 265.305 277.45 265.574C277.669 265.843 277.955 266.044 278.308 266.176C278.664 266.309 279.061 266.375 279.501 266.375C279.959 266.375 280.361 266.307 280.705 266.17C281.054 266.03 281.326 265.837 281.523 265.591C281.72 265.341 281.821 265.049 281.825 264.716C281.821 264.413 281.732 264.163 281.558 263.966C281.383 263.765 281.139 263.598 280.825 263.466C280.514 263.33 280.15 263.208 279.734 263.102L278.41 262.761C277.451 262.515 276.694 262.142 276.137 261.642C275.584 261.138 275.308 260.47 275.308 259.636C275.308 258.951 275.493 258.35 275.864 257.835C276.239 257.32 276.749 256.92 277.393 256.636C278.037 256.348 278.766 256.205 279.58 256.205C280.406 256.205 281.129 256.348 281.751 256.636C282.376 256.92 282.866 257.316 283.222 257.824C283.578 258.328 283.762 258.907 283.773 259.562H281.745Z" fill="black"/>
</g>
<circle cx="265" cy="262" r="159.5" stroke="#D9D9D9"/>
<g filter="url(#filter1_ddddi_245_657)">
<rect x="195" y="4" width="140" height="140" rx="70" fill="white" shape-rendering="crispEdges"/>
<rect x="195.5" y="4.5" width="139" height="139" rx="69.5" stroke="#16A34A" shape-rendering="crispEdges"/>
<path d="M255.75 49C255.75 48.5858 255.414 48.25 255 48.25C254.586 48.25 254.25 48.5858 254.25 49V59.0574C254.25 61.3658 254.25 63.1748 254.44 64.5863C254.634 66.031 255.039 67.1711 255.934 68.0659C256.829 68.9607 257.969 69.366 259.414 69.5603C260.825 69.75 262.634 69.75 264.943 69.75H275C275.414 69.75 275.75 69.4142 275.75 69C275.75 68.5858 275.414 68.25 275 68.25H265C262.622 68.25 260.914 68.2484 259.614 68.0736C258.335 67.9018 257.564 67.5749 256.995 67.0052C256.425 66.4355 256.098 65.6648 255.926 64.3864C255.752 63.0864 255.75 61.3782 255.75 59V49Z" fill="#16A34A"/>
<path d="M272.588 54.4664C272.845 54.142 272.791 53.6703 272.467 53.4127C272.142 53.1551 271.67 53.2092 271.413 53.5336L268.295 57.46C268.05 57.7688 267.889 57.9708 267.756 58.1162C267.627 58.2585 267.566 58.2989 267.538 58.3137C267.327 58.4264 267.075 58.4319 266.86 58.3285C266.832 58.3149 266.769 58.2772 266.633 58.1407C266.495 58.0011 266.325 57.8063 266.067 57.5085L266.051 57.4899C265.813 57.2157 265.61 56.9819 265.431 56.8018C265.245 56.6147 265.041 56.4401 264.789 56.3192C264.143 56.009 263.387 56.0254 262.755 56.3634C262.509 56.4952 262.313 56.6785 262.135 56.8735C261.964 57.0612 261.772 57.3036 261.546 57.5878L258.413 61.5336C258.155 61.8579 258.209 62.3297 258.534 62.5873C258.858 62.8449 259.33 62.7908 259.587 62.4664L262.706 58.54C262.951 58.2311 263.112 58.0292 263.244 57.8837C263.374 57.7414 263.435 57.7011 263.462 57.6863C263.673 57.5736 263.925 57.5681 264.14 57.6715C264.169 57.6851 264.231 57.7228 264.367 57.8593C264.506 57.9989 264.675 58.1936 264.934 58.4915L264.95 58.5101C265.188 58.7843 265.391 59.0181 265.569 59.1981C265.756 59.3853 265.959 59.5599 266.211 59.6808C266.857 59.991 267.613 59.9746 268.245 59.6365C268.492 59.5048 268.687 59.3215 268.865 59.1264C269.036 58.9388 269.228 58.6964 269.454 58.4122L272.588 54.4664Z" fill="#16A34A"/>
<path d="M236.038 85.3636H238.618L242.072 93.7955H242.209L245.663 85.3636H248.243V97H246.22V89.0057H246.112L242.896 96.9659H241.385L238.169 88.9886H238.061V97H236.038V85.3636ZM254.254 97.1705C253.402 97.1705 252.663 96.983 252.038 96.608C251.413 96.233 250.929 95.7083 250.584 95.0341C250.243 94.3598 250.072 93.572 250.072 92.6705C250.072 91.7689 250.243 90.9792 250.584 90.3011C250.929 89.6231 251.413 89.0966 252.038 88.7216C252.663 88.3466 253.402 88.1591 254.254 88.1591C255.107 88.1591 255.845 88.3466 256.47 88.7216C257.095 89.0966 257.578 89.6231 257.919 90.3011C258.264 90.9792 258.436 91.7689 258.436 92.6705C258.436 93.572 258.264 94.3598 257.919 95.0341C257.578 95.7083 257.095 96.233 256.47 96.608C255.845 96.983 255.107 97.1705 254.254 97.1705ZM254.266 95.5227C254.728 95.5227 255.114 95.3958 255.425 95.142C255.735 94.8845 255.966 94.5398 256.118 94.108C256.273 93.6761 256.351 93.1951 256.351 92.6648C256.351 92.1307 256.273 91.6477 256.118 91.2159C255.966 90.7803 255.735 90.4337 255.425 90.1761C255.114 89.9186 254.728 89.7898 254.266 89.7898C253.792 89.7898 253.398 89.9186 253.084 90.1761C252.773 90.4337 252.54 90.7803 252.385 91.2159C252.233 91.6477 252.158 92.1307 252.158 92.6648C252.158 93.1951 252.233 93.6761 252.385 94.108C252.54 94.5398 252.773 94.8845 253.084 95.142C253.398 95.3958 253.792 95.5227 254.266 95.5227ZM262.239 91.8864V97H260.182V88.2727H262.148V89.7557H262.25C262.451 89.267 262.771 88.8788 263.21 88.5909C263.653 88.303 264.201 88.1591 264.852 88.1591C265.455 88.1591 265.979 88.2879 266.426 88.5455C266.877 88.803 267.225 89.1761 267.472 89.6648C267.722 90.1534 267.845 90.7462 267.841 91.4432V97H265.784V91.7614C265.784 91.178 265.633 90.7216 265.33 90.392C265.03 90.0625 264.616 89.8977 264.085 89.8977C263.725 89.8977 263.405 89.9773 263.125 90.1364C262.848 90.2917 262.631 90.517 262.472 90.8125C262.316 91.108 262.239 91.4659 262.239 91.8864ZM269.932 97V88.2727H271.989V97H269.932ZM270.966 87.0341C270.64 87.0341 270.36 86.9261 270.125 86.7102C269.89 86.4905 269.773 86.2273 269.773 85.9205C269.773 85.6098 269.89 85.3466 270.125 85.1307C270.36 84.911 270.64 84.8011 270.966 84.8011C271.295 84.8011 271.576 84.911 271.807 85.1307C272.042 85.3466 272.159 85.6098 272.159 85.9205C272.159 86.2273 272.042 86.4905 271.807 86.7102C271.576 86.9261 271.295 87.0341 270.966 87.0341ZM278.462 88.2727V89.8636H273.445V88.2727H278.462ZM274.683 86.1818H276.74V94.375C276.74 94.6515 276.782 94.8636 276.865 95.0114C276.952 95.1553 277.066 95.2538 277.206 95.3068C277.346 95.3598 277.501 95.3864 277.672 95.3864C277.801 95.3864 277.918 95.3769 278.024 95.358C278.134 95.339 278.217 95.322 278.274 95.3068L278.621 96.9148C278.511 96.9527 278.354 96.9943 278.149 97.0398C277.948 97.0852 277.702 97.1117 277.411 97.1193C276.895 97.1345 276.431 97.0568 276.018 96.8864C275.606 96.7121 275.278 96.4432 275.036 96.0795C274.797 95.7159 274.679 95.2614 274.683 94.7159V86.1818ZM283.895 97.1705C283.043 97.1705 282.304 96.983 281.679 96.608C281.054 96.233 280.569 95.7083 280.224 95.0341C279.884 94.3598 279.713 93.572 279.713 92.6705C279.713 91.7689 279.884 90.9792 280.224 90.3011C280.569 89.6231 281.054 89.0966 281.679 88.7216C282.304 88.3466 283.043 88.1591 283.895 88.1591C284.747 88.1591 285.486 88.3466 286.111 88.7216C286.736 89.0966 287.219 89.6231 287.56 90.3011C287.904 90.9792 288.077 91.7689 288.077 92.6705C288.077 93.572 287.904 94.3598 287.56 95.0341C287.219 95.7083 286.736 96.233 286.111 96.608C285.486 96.983 284.747 97.1705 283.895 97.1705ZM283.906 95.5227C284.368 95.5227 284.755 95.3958 285.065 95.142C285.376 94.8845 285.607 94.5398 285.759 94.108C285.914 93.6761 285.991 93.1951 285.991 92.6648C285.991 92.1307 285.914 91.6477 285.759 91.2159C285.607 90.7803 285.376 90.4337 285.065 90.1761C284.755 89.9186 284.368 89.7898 283.906 89.7898C283.433 89.7898 283.039 89.9186 282.724 90.1761C282.414 90.4337 282.181 90.7803 282.026 91.2159C281.874 91.6477 281.798 92.1307 281.798 92.6648C281.798 93.1951 281.874 93.6761 282.026 94.108C282.181 94.5398 282.414 94.8845 282.724 95.142C283.039 95.3958 283.433 95.5227 283.906 95.5227ZM289.822 97V88.2727H291.817V89.7273H291.908C292.067 89.2235 292.339 88.8352 292.726 88.5625C293.116 88.286 293.561 88.1477 294.061 88.1477C294.175 88.1477 294.302 88.1534 294.442 88.1648C294.586 88.1723 294.705 88.1856 294.8 88.2045V90.0966C294.713 90.0663 294.574 90.0398 294.385 90.017C294.199 89.9905 294.019 89.9773 293.845 89.9773C293.47 89.9773 293.133 90.0587 292.834 90.2216C292.538 90.3807 292.305 90.6023 292.135 90.8864C291.964 91.1705 291.879 91.4981 291.879 91.8693V97H289.822Z" fill="black"/>
</g>
<g filter="url(#filter2_ddddi_245_657)">
<rect x="195" y="380" width="140" height="140" rx="70" fill="white" shape-rendering="crispEdges"/>
<rect x="195.5" y="380.5" width="139" height="139" rx="69.5" stroke="#DC2626" shape-rendering="crispEdges"/>
<path d="M255 435L258 435" stroke="#DC2626" stroke-width="1.5" stroke-linecap="round"/>
<path d="M272 435L275 435" stroke="#DC2626" stroke-width="1.5" stroke-linecap="round"/>
<path d="M265 445L265 442" stroke="#DC2626" stroke-width="1.5" stroke-linecap="round"/>
<path d="M265 428V425" stroke="#DC2626" stroke-width="1.5" stroke-linecap="round"/>
<path d="M263 435H265H267" stroke="#DC2626" stroke-width="1.5" stroke-linecap="round" stroke-linejoin="round"/>
<path d="M265 437L265 435L265 433" stroke="#DC2626" stroke-width="1.5" stroke-linecap="round" stroke-linejoin="round"/>
<path d="M260 426.338C261.471 425.487 263.179 425 265 425C270.523 425 275 429.477 275 435C275 440.523 270.523 445 265 445C259.477 445 255 440.523 255 435C255 433.179 255.487 431.471 256.338 430" stroke="#DC2626" stroke-width="1.5" stroke-linecap="round"/>
<path d="M242.564 473H240.314L244.411 461.364H247.013L251.115 473H248.865L245.757 463.75H245.666L242.564 473ZM242.638 468.438H248.774V470.131H242.638V468.438ZM255.53 473.153C254.844 473.153 254.231 472.977 253.689 472.625C253.147 472.273 252.719 471.761 252.405 471.091C252.09 470.42 251.933 469.606 251.933 468.648C251.933 467.678 252.092 466.86 252.411 466.193C252.732 465.523 253.166 465.017 253.712 464.676C254.257 464.331 254.865 464.159 255.536 464.159C256.047 464.159 256.467 464.246 256.797 464.42C257.126 464.591 257.388 464.797 257.581 465.04C257.774 465.278 257.924 465.504 258.03 465.716H258.115V461.364H260.178V473H258.155V471.625H258.03C257.924 471.837 257.77 472.062 257.57 472.301C257.369 472.536 257.104 472.737 256.774 472.903C256.445 473.07 256.03 473.153 255.53 473.153ZM256.104 471.466C256.539 471.466 256.911 471.348 257.217 471.114C257.524 470.875 257.757 470.544 257.916 470.119C258.075 469.695 258.155 469.201 258.155 468.636C258.155 468.072 258.075 467.581 257.916 467.165C257.761 466.748 257.53 466.424 257.223 466.193C256.92 465.962 256.547 465.847 256.104 465.847C255.645 465.847 255.263 465.966 254.956 466.205C254.649 466.443 254.418 466.773 254.263 467.193C254.107 467.614 254.03 468.095 254.03 468.636C254.03 469.182 254.107 469.669 254.263 470.097C254.422 470.521 254.655 470.856 254.962 471.102C255.272 471.345 255.653 471.466 256.104 471.466ZM262.369 464.273H264.426V473.5C264.426 474.129 264.307 474.648 264.068 475.057C263.83 475.466 263.485 475.771 263.034 475.972C262.583 476.172 262.036 476.273 261.392 476.273C261.316 476.273 261.246 476.271 261.182 476.267C261.117 476.267 261.047 476.265 260.972 476.261V474.585C261.028 474.589 261.08 474.591 261.125 474.591C261.17 474.595 261.218 474.597 261.267 474.597C261.661 474.597 261.943 474.5 262.114 474.307C262.284 474.117 262.369 473.839 262.369 473.472V464.273ZM263.392 463.034C263.063 463.034 262.78 462.926 262.545 462.71C262.314 462.491 262.199 462.227 262.199 461.92C262.199 461.61 262.314 461.347 262.545 461.131C262.78 460.911 263.063 460.801 263.392 460.801C263.718 460.801 263.996 460.911 264.227 461.131C264.462 461.347 264.58 461.61 264.58 461.92C264.58 462.227 264.462 462.491 264.227 462.71C263.996 462.926 263.718 463.034 263.392 463.034ZM272.104 469.33V464.273H274.161V473H272.166V471.449H272.075C271.878 471.937 271.554 472.337 271.104 472.648C270.657 472.958 270.106 473.114 269.45 473.114C268.878 473.114 268.373 472.987 267.933 472.733C267.498 472.475 267.157 472.102 266.911 471.614C266.664 471.121 266.541 470.527 266.541 469.83V464.273H268.598V469.511C268.598 470.064 268.75 470.504 269.053 470.83C269.356 471.155 269.753 471.318 270.246 471.318C270.549 471.318 270.842 471.244 271.126 471.097C271.411 470.949 271.643 470.729 271.825 470.438C272.011 470.142 272.104 469.773 272.104 469.33ZM283.173 466.58L281.298 466.784C281.245 466.595 281.152 466.417 281.02 466.25C280.891 466.083 280.717 465.949 280.497 465.847C280.277 465.744 280.009 465.693 279.69 465.693C279.262 465.693 278.902 465.786 278.611 465.972C278.323 466.157 278.181 466.398 278.185 466.693C278.181 466.947 278.274 467.153 278.463 467.312C278.656 467.472 278.974 467.602 279.418 467.705L280.906 468.023C281.732 468.201 282.346 468.483 282.747 468.869C283.152 469.256 283.357 469.761 283.361 470.386C283.357 470.936 283.196 471.42 282.878 471.841C282.563 472.258 282.126 472.583 281.565 472.818C281.005 473.053 280.361 473.17 279.634 473.17C278.565 473.17 277.705 472.947 277.054 472.5C276.402 472.049 276.014 471.422 275.889 470.619L277.895 470.426C277.986 470.82 278.179 471.117 278.474 471.318C278.77 471.519 279.154 471.619 279.628 471.619C280.116 471.619 280.509 471.519 280.804 471.318C281.103 471.117 281.253 470.869 281.253 470.574C281.253 470.324 281.156 470.117 280.963 469.955C280.774 469.792 280.478 469.667 280.077 469.58L278.588 469.267C277.751 469.093 277.132 468.799 276.73 468.386C276.329 467.97 276.13 467.443 276.134 466.807C276.13 466.269 276.276 465.803 276.571 465.409C276.87 465.011 277.285 464.705 277.815 464.489C278.349 464.269 278.965 464.159 279.662 464.159C280.685 464.159 281.49 464.377 282.077 464.812C282.668 465.248 283.033 465.837 283.173 466.58ZM289.415 464.273V465.864H284.398V464.273H289.415ZM285.636 462.182H287.693V470.375C287.693 470.652 287.735 470.864 287.818 471.011C287.905 471.155 288.019 471.254 288.159 471.307C288.299 471.36 288.455 471.386 288.625 471.386C288.754 471.386 288.871 471.377 288.977 471.358C289.087 471.339 289.17 471.322 289.227 471.307L289.574 472.915C289.464 472.953 289.307 472.994 289.102 473.04C288.902 473.085 288.655 473.112 288.364 473.119C287.848 473.134 287.384 473.057 286.972 472.886C286.559 472.712 286.231 472.443 285.989 472.08C285.75 471.716 285.633 471.261 285.636 470.716V462.182Z" fill="black"/>
</g>
<g filter="url(#filter3_ddddi_245_657)">
<rect x="383" y="192" width="140" height="140" rx="70" fill="white" shape-rendering="crispEdges"/>
<rect x="383.5" y="192.5" width="139" height="139" rx="69.5" stroke="#2563EB" shape-rendering="crispEdges"/>
<path d="M461 248.75C461 248.336 460.664 248 460.25 248H457.25C456.836 248 456.5 248.336 456.5 248.75V255.5H455V239.25C455 238.522 454.998 238.051 454.952 237.704C454.908 237.379 454.837 237.277 454.78 237.22C454.723 237.163 454.621 237.092 454.296 237.048C453.949 237.002 453.478 237 452.75 237C452.022 237 451.551 237.002 451.204 237.048C450.879 237.092 450.777 237.163 450.72 237.22C450.663 237.277 450.592 237.379 450.548 237.704C450.502 238.051 450.5 238.522 450.5 239.25V255.5H449V243.75C449 243.336 448.664 243 448.25 243H445.25C444.836 243 444.5 243.336 444.5 243.75V255.5H443H442.75C442.336 255.5 442 255.836 442 256.25C442 256.664 442.336 257 442.75 257H462.75C463.164 257 463.5 256.664 463.5 256.25C463.5 255.836 463.164 255.5 462.75 255.5H462.5H461V248.75Z" fill="#2563EB"/>
<path d="M424.58 285H422.33L426.426 273.364H429.028L433.131 285H430.881L427.773 275.75H427.682L424.58 285ZM424.653 280.438H430.79V282.131H424.653V280.438ZM436.629 279.886V285H434.572V276.273H436.538V277.756H436.641C436.841 277.267 437.161 276.879 437.601 276.591C438.044 276.303 438.591 276.159 439.243 276.159C439.845 276.159 440.37 276.288 440.817 276.545C441.268 276.803 441.616 277.176 441.862 277.665C442.112 278.153 442.235 278.746 442.232 279.443V285H440.175V279.761C440.175 279.178 440.023 278.722 439.72 278.392C439.421 278.062 439.006 277.898 438.476 277.898C438.116 277.898 437.796 277.977 437.516 278.136C437.239 278.292 437.021 278.517 436.862 278.812C436.707 279.108 436.629 279.466 436.629 279.886ZM446.834 285.176C446.281 285.176 445.783 285.078 445.339 284.881C444.9 284.68 444.552 284.384 444.294 283.994C444.04 283.604 443.913 283.123 443.913 282.551C443.913 282.059 444.004 281.652 444.186 281.33C444.368 281.008 444.616 280.75 444.93 280.557C445.245 280.364 445.599 280.218 445.993 280.119C446.391 280.017 446.802 279.943 447.226 279.898C447.737 279.845 448.152 279.797 448.47 279.756C448.788 279.71 449.019 279.642 449.163 279.551C449.311 279.456 449.385 279.311 449.385 279.114V279.08C449.385 278.652 449.258 278.32 449.004 278.085C448.75 277.85 448.385 277.733 447.908 277.733C447.404 277.733 447.004 277.843 446.709 278.062C446.417 278.282 446.22 278.542 446.118 278.841L444.197 278.568C444.349 278.038 444.599 277.595 444.947 277.239C445.296 276.879 445.722 276.61 446.226 276.432C446.73 276.25 447.286 276.159 447.896 276.159C448.317 276.159 448.735 276.208 449.152 276.307C449.569 276.405 449.949 276.568 450.294 276.795C450.639 277.019 450.915 277.324 451.124 277.71C451.336 278.097 451.442 278.58 451.442 279.159V285H449.464V283.801H449.396C449.271 284.044 449.095 284.271 448.868 284.483C448.644 284.691 448.362 284.86 448.021 284.989C447.684 285.114 447.288 285.176 446.834 285.176ZM447.368 283.665C447.781 283.665 448.139 283.583 448.442 283.42C448.745 283.254 448.978 283.034 449.141 282.761C449.307 282.489 449.391 282.191 449.391 281.869V280.841C449.326 280.894 449.216 280.943 449.061 280.989C448.91 281.034 448.739 281.074 448.55 281.108C448.36 281.142 448.173 281.172 447.987 281.199C447.802 281.225 447.641 281.248 447.504 281.267C447.197 281.309 446.923 281.377 446.68 281.472C446.438 281.566 446.247 281.699 446.107 281.869C445.966 282.036 445.896 282.252 445.896 282.517C445.896 282.896 446.035 283.182 446.311 283.375C446.588 283.568 446.94 283.665 447.368 283.665ZM455.567 273.364V285H453.51V273.364H455.567ZM458.96 288.273C458.68 288.273 458.42 288.25 458.182 288.205C457.947 288.163 457.759 288.114 457.619 288.057L458.097 286.455C458.396 286.542 458.663 286.583 458.898 286.58C459.133 286.576 459.339 286.502 459.517 286.358C459.699 286.218 459.852 285.983 459.977 285.653L460.153 285.182L456.989 276.273H459.17L461.182 282.864H461.273L463.29 276.273H465.477L461.983 286.057C461.82 286.519 461.604 286.915 461.335 287.244C461.066 287.578 460.737 287.831 460.347 288.006C459.96 288.184 459.498 288.273 458.96 288.273ZM466.787 285V283.693L471.287 278.051V277.977H466.935V276.273H473.804V277.676L469.52 283.222V283.295H473.952V285H466.787ZM479.499 285.17C478.624 285.17 477.868 284.989 477.232 284.625C476.599 284.258 476.112 283.739 475.771 283.068C475.43 282.394 475.26 281.6 475.26 280.688C475.26 279.79 475.43 279.002 475.771 278.324C476.116 277.642 476.597 277.112 477.214 276.733C477.832 276.35 478.557 276.159 479.391 276.159C479.929 276.159 480.436 276.246 480.913 276.42C481.394 276.591 481.819 276.856 482.186 277.216C482.557 277.576 482.849 278.034 483.061 278.591C483.273 279.144 483.379 279.803 483.379 280.568V281.199H476.226V279.812H481.408C481.404 279.419 481.319 279.068 481.152 278.761C480.985 278.451 480.752 278.206 480.453 278.028C480.158 277.85 479.813 277.761 479.419 277.761C478.999 277.761 478.629 277.864 478.311 278.068C477.993 278.269 477.745 278.534 477.567 278.864C477.393 279.189 477.304 279.547 477.3 279.938V281.148C477.3 281.655 477.393 282.091 477.578 282.455C477.764 282.814 478.023 283.091 478.357 283.284C478.69 283.473 479.08 283.568 479.527 283.568C479.826 283.568 480.097 283.527 480.339 283.443C480.582 283.356 480.792 283.229 480.97 283.062C481.148 282.896 481.283 282.689 481.374 282.443L483.294 282.659C483.173 283.167 482.942 283.61 482.601 283.989C482.264 284.364 481.832 284.655 481.305 284.864C480.779 285.068 480.177 285.17 479.499 285.17Z" fill="black"/>
</g>
<g filter="url(#filter4_ddddi_245_657)">
<rect x="7" y="192" width="140" height="140" rx="70" fill="white" shape-rendering="crispEdges"/>
<rect x="7.5" y="192.5" width="139" height="139" rx="69.5" stroke="#EA580C" shape-rendering="crispEdges"/>
<path d="M74.25 249C75.9069 249 77.25 250.343 77.25 252C77.25 253.657 75.9069 255 74.25 255C72.5931 255 71.25 253.657 71.25 252C71.25 250.343 72.5931 249 74.25 249Z" fill="#EA580C"/>
<path d="M79.25 239C77.5931 239 76.25 240.343 76.25 242C76.25 243.657 77.5931 245 79.25 245C80.9069 245 82.25 243.657 82.25 242C82.25 240.343 80.9069 239 79.25 239Z" fill="#EA580C"/>
<path d="M73.75 241.209C74.1642 241.209 74.5 241.544 74.5 241.959C74.5 242.373 74.1642 242.709 73.75 242.709L66.75 242.709C66.3358 242.709 66 242.373 66 241.959C66 241.544 66.3358 241.209 66.75 241.209H73.75Z" fill="#EA580C"/>
<path d="M79.75 251.209C79.3358 251.209 79 251.544 79 251.959C79 252.373 79.3358 252.709 79.75 252.709H86.75C87.1642 252.709 87.5 252.373 87.5 251.959C87.5 251.544 87.1642 251.209 86.75 251.209H79.75Z" fill="#EA580C"/>
<path d="M66 251.959C66 251.544 66.3358 251.209 66.75 251.209H68.75C69.1642 251.209 69.5 251.544 69.5 251.959C69.5 252.373 69.1642 252.709 68.75 252.709H66.75C66.3358 252.709 66 252.373 66 251.959Z" fill="#EA580C"/>
<path d="M86.75 241.209C87.1642 241.209 87.5 241.544 87.5 241.959C87.5 242.373 87.1642 242.709 86.75 242.709L84.75 242.709C84.3358 242.709 84 242.373 84 241.959C84 241.544 84.3358 241.209 84.75 241.209H86.75Z" fill="#EA580C"/>
<path d="M53.8501 279.182C53.8501 280.436 53.6153 281.509 53.1456 282.403C52.6797 283.294 52.0433 283.975 51.2365 284.449C50.4335 284.922 49.5225 285.159 48.5036 285.159C47.4846 285.159 46.5717 284.922 45.7649 284.449C44.9619 283.972 44.3255 283.288 43.8558 282.398C43.3899 281.504 43.157 280.432 43.157 279.182C43.157 277.928 43.3899 276.856 43.8558 275.966C44.3255 275.072 44.9619 274.388 45.7649 273.915C46.5717 273.441 47.4846 273.205 48.5036 273.205C49.5225 273.205 50.4335 273.441 51.2365 273.915C52.0433 274.388 52.6797 275.072 53.1456 275.966C53.6153 276.856 53.8501 277.928 53.8501 279.182ZM51.7308 279.182C51.7308 278.299 51.5926 277.555 51.3161 276.949C51.0433 276.339 50.6645 275.879 50.1797 275.568C49.6948 275.254 49.1361 275.097 48.5036 275.097C47.871 275.097 47.3123 275.254 46.8274 275.568C46.3426 275.879 45.9619 276.339 45.6854 276.949C45.4126 277.555 45.2763 278.299 45.2763 279.182C45.2763 280.064 45.4126 280.811 45.6854 281.42C45.9619 282.027 46.3426 282.487 46.8274 282.801C47.3123 283.112 47.871 283.267 48.5036 283.267C49.1361 283.267 49.6948 283.112 50.1797 282.801C50.6645 282.487 51.0433 282.027 51.3161 281.42C51.5926 280.811 51.7308 280.064 51.7308 279.182ZM55.7521 288.273V276.273H57.7749V277.716H57.8942C58.0002 277.504 58.1499 277.278 58.343 277.04C58.5362 276.797 58.7976 276.591 59.1271 276.42C59.4567 276.246 59.8771 276.159 60.3885 276.159C61.0627 276.159 61.6707 276.331 62.2124 276.676C62.7578 277.017 63.1896 277.523 63.5078 278.193C63.8298 278.86 63.9908 279.678 63.9908 280.648C63.9908 281.606 63.8336 282.42 63.5192 283.091C63.2048 283.761 62.7768 284.273 62.2351 284.625C61.6934 284.977 61.0798 285.153 60.3942 285.153C59.8942 285.153 59.4794 285.07 59.1499 284.903C58.8203 284.737 58.5552 284.536 58.3544 284.301C58.1574 284.062 58.004 283.837 57.8942 283.625H57.8089V288.273H55.7521ZM57.7692 280.636C57.7692 281.201 57.8487 281.695 58.0078 282.119C58.1707 282.544 58.4036 282.875 58.7067 283.114C59.0135 283.348 59.3847 283.466 59.8203 283.466C60.2749 283.466 60.6555 283.345 60.9624 283.102C61.2692 282.856 61.5002 282.521 61.6555 282.097C61.8146 281.669 61.8942 281.182 61.8942 280.636C61.8942 280.095 61.8165 279.614 61.6612 279.193C61.5059 278.773 61.2749 278.443 60.968 278.205C60.6612 277.966 60.2786 277.847 59.8203 277.847C59.3809 277.847 59.0078 277.962 58.701 278.193C58.3942 278.424 58.1612 278.748 58.0021 279.165C57.8468 279.581 57.7692 280.072 57.7692 280.636ZM70.1101 276.273V277.864H65.093V276.273H70.1101ZM66.3317 274.182H68.3885V282.375C68.3885 282.652 68.4302 282.864 68.5135 283.011C68.6006 283.155 68.7143 283.254 68.8544 283.307C68.9946 283.36 69.1499 283.386 69.3203 283.386C69.4491 283.386 69.5665 283.377 69.6726 283.358C69.7824 283.339 69.8658 283.322 69.9226 283.307L70.2692 284.915C70.1593 284.953 70.0021 284.994 69.7976 285.04C69.5968 285.085 69.3506 285.112 69.0589 285.119C68.5438 285.134 68.0798 285.057 67.6669 284.886C67.254 284.712 66.9264 284.443 66.6839 284.08C66.4453 283.716 66.3279 283.261 66.3317 282.716V274.182ZM71.8303 285V276.273H73.8871V285H71.8303ZM72.8643 275.034C72.5386 275.034 72.2583 274.926 72.0234 274.71C71.7886 274.491 71.6712 274.227 71.6712 273.92C71.6712 273.61 71.7886 273.347 72.0234 273.131C72.2583 272.911 72.5386 272.801 72.8643 272.801C73.1939 272.801 73.4742 272.911 73.7053 273.131C73.9401 273.347 74.0575 273.61 74.0575 273.92C74.0575 274.227 73.9401 274.491 73.7053 274.71C73.4742 274.926 73.1939 275.034 72.8643 275.034ZM76.0021 285V276.273H77.968V277.756H78.0703C78.2521 277.256 78.5533 276.866 78.9737 276.585C79.3942 276.301 79.8961 276.159 80.4794 276.159C81.0703 276.159 81.5684 276.303 81.9737 276.591C82.3828 276.875 82.6707 277.263 82.8374 277.756H82.9283C83.1214 277.271 83.4472 276.884 83.9055 276.597C84.3677 276.305 84.915 276.159 85.5476 276.159C86.3506 276.159 87.0059 276.413 87.5135 276.92C88.0211 277.428 88.2749 278.169 88.2749 279.142V285H86.2124V279.46C86.2124 278.919 86.0684 278.523 85.7805 278.273C85.4927 278.019 85.1404 277.892 84.7237 277.892C84.2275 277.892 83.8393 278.047 83.5589 278.358C83.2824 278.665 83.1442 279.064 83.1442 279.557V285H81.1271V279.375C81.1271 278.924 80.9908 278.564 80.718 278.295C80.4491 278.027 80.0968 277.892 79.6612 277.892C79.3658 277.892 79.0968 277.968 78.8544 278.119C78.612 278.267 78.4188 278.477 78.2749 278.75C78.1309 279.019 78.0589 279.333 78.0589 279.693V285H76.0021ZM90.3615 285V276.273H92.4183V285H90.3615ZM91.3956 275.034C91.0698 275.034 90.7895 274.926 90.5547 274.71C90.3198 274.491 90.2024 274.227 90.2024 273.92C90.2024 273.61 90.3198 273.347 90.5547 273.131C90.7895 272.911 91.0698 272.801 91.3956 272.801C91.7251 272.801 92.0054 272.911 92.2365 273.131C92.4714 273.347 92.5888 273.61 92.5888 273.92C92.5888 274.227 92.4714 274.491 92.2365 274.71C92.0054 274.926 91.7251 275.034 91.3956 275.034ZM94.4197 285V283.693L98.9197 278.051V277.977H94.5675V276.273H101.437V277.676L97.1527 283.222V283.295H101.585V285H94.4197ZM107.131 285.17C106.256 285.17 105.501 284.989 104.864 284.625C104.232 284.258 103.745 283.739 103.404 283.068C103.063 282.394 102.893 281.6 102.893 280.688C102.893 279.79 103.063 279.002 103.404 278.324C103.749 277.642 104.23 277.112 104.847 276.733C105.465 276.35 106.19 276.159 107.023 276.159C107.561 276.159 108.069 276.246 108.546 276.42C109.027 276.591 109.451 276.856 109.819 277.216C110.19 277.576 110.482 278.034 110.694 278.591C110.906 279.144 111.012 279.803 111.012 280.568V281.199H103.859V279.812H109.04C109.037 279.419 108.951 279.068 108.785 278.761C108.618 278.451 108.385 278.206 108.086 278.028C107.79 277.85 107.446 277.761 107.052 277.761C106.631 277.761 106.262 277.864 105.944 278.068C105.626 278.269 105.378 278.534 105.2 278.864C105.025 279.189 104.936 279.547 104.933 279.938V281.148C104.933 281.655 105.025 282.091 105.211 282.455C105.397 282.814 105.656 283.091 105.989 283.284C106.323 283.473 106.713 283.568 107.16 283.568C107.459 283.568 107.73 283.527 107.972 283.443C108.215 283.356 108.425 283.229 108.603 283.062C108.781 282.896 108.915 282.689 109.006 282.443L110.927 282.659C110.806 283.167 110.575 283.61 110.234 283.989C109.897 284.364 109.465 284.655 108.938 284.864C108.412 285.068 107.809 285.17 107.131 285.17Z" fill="black"/>
</g>
<defs>
<filter id="filter0_ddddi_245_657" x="188.333" y="188.667" width="153.333" height="153.333" filterUnits="userSpaceOnUse" color-interpolation-filters="sRGB">
<feFlood flood-opacity="0" result="BackgroundImageFix"/>
<feColorMatrix in="SourceAlpha" type="matrix" values="0 0 0 0 0 0 0 0 0 0 0 0 0 0 0 0 0 0 127 0" result="hardAlpha"/>
<feMorphology radius="0.833333" operator="dilate" in="SourceAlpha" result="effect1_dropShadow_245_657"/>
<feOffset/>
<feComposite in2="hardAlpha" operator="out"/>
<feColorMatrix type="matrix" values="0 0 0 0 0.160784 0 0 0 0 0.160784 0 0 0 0 0.160784 0 0 0 0.08 0"/>
<feBlend mode="normal" in2="BackgroundImageFix" result="effect1_dropShadow_245_657"/>
<feColorMatrix in="SourceAlpha" type="matrix" values="0 0 0 0 0 0 0 0 0 0 0 0 0 0 0 0 0 0 127 0" result="hardAlpha"/>
<feOffset dy="0.833333"/>
<feGaussianBlur stdDeviation="0.833333"/>
<feComposite in2="hardAlpha" operator="out"/>
<feColorMatrix type="matrix" values="0 0 0 0 0.160784 0 0 0 0 0.160784 0 0 0 0 0.160784 0 0 0 0.04 0"/>
<feBlend mode="normal" in2="effect1_dropShadow_245_657" result="effect2_dropShadow_245_657"/>
<feColorMatrix in="SourceAlpha" type="matrix" values="0 0 0 0 0 0 0 0 0 0 0 0 0 0 0 0 0 0 127 0" result="hardAlpha"/>
<feOffset dy="1.66667"/>
<feGaussianBlur stdDeviation="1.66667"/>
<feComposite in2="hardAlpha" operator="out"/>
<feColorMatrix type="matrix" values="0 0 0 0 0.160784 0 0 0 0 0.160784 0 0 0 0 0.160784 0 0 0 0.04 0"/>
<feBlend mode="normal" in2="effect2_dropShadow_245_657" result="effect3_dropShadow_245_657"/>
<feColorMatrix in="SourceAlpha" type="matrix" values="0 0 0 0 0 0 0 0 0 0 0 0 0 0 0 0 0 0 127 0" result="hardAlpha"/>
<feOffset dy="3.33333"/>
<feGaussianBlur stdDeviation="3.33333"/>
<feComposite in2="hardAlpha" operator="out"/>
<feColorMatrix type="matrix" values="0 0 0 0 0.160784 0 0 0 0 0.160784 0 0 0 0 0.160784 0 0 0 0.06 0"/>
<feBlend mode="normal" in2="effect3_dropShadow_245_657" result="effect4_dropShadow_245_657"/>
<feBlend mode="normal" in="SourceGraphic" in2="effect4_dropShadow_245_657" result="shape"/>
<feColorMatrix in="SourceAlpha" type="matrix" values="0 0 0 0 0 0 0 0 0 0 0 0 0 0 0 0 0 0 127 0" result="hardAlpha"/>
<feOffset dy="-0.416667"/>
<feGaussianBlur stdDeviation="0.208333"/>
<feComposite in2="hardAlpha" operator="arithmetic" k2="-1" k3="1"/>
<feColorMatrix type="matrix" values="0 0 0 0 0.160784 0 0 0 0 0.160784 0 0 0 0 0.160784 0 0 0 0.08 0"/>
<feBlend mode="normal" in2="shape" result="effect5_innerShadow_245_657"/>
</filter>
<filter id="filter1_ddddi_245_657" x="188.333" y="0.666667" width="153.333" height="153.333" filterUnits="userSpaceOnUse" color-interpolation-filters="sRGB">
<feFlood flood-opacity="0" result="BackgroundImageFix"/>
<feColorMatrix in="SourceAlpha" type="matrix" values="0 0 0 0 0 0 0 0 0 0 0 0 0 0 0 0 0 0 127 0" result="hardAlpha"/>
<feMorphology radius="0.833333" operator="dilate" in="SourceAlpha" result="effect1_dropShadow_245_657"/>
<feOffset/>
<feComposite in2="hardAlpha" operator="out"/>
<feColorMatrix type="matrix" values="0 0 0 0 0.160784 0 0 0 0 0.160784 0 0 0 0 0.160784 0 0 0 0.08 0"/>
<feBlend mode="normal" in2="BackgroundImageFix" result="effect1_dropShadow_245_657"/>
<feColorMatrix in="SourceAlpha" type="matrix" values="0 0 0 0 0 0 0 0 0 0 0 0 0 0 0 0 0 0 127 0" result="hardAlpha"/>
<feOffset dy="0.833333"/>
<feGaussianBlur stdDeviation="0.833333"/>
<feComposite in2="hardAlpha" operator="out"/>
<feColorMatrix type="matrix" values="0 0 0 0 0.160784 0 0 0 0 0.160784 0 0 0 0 0.160784 0 0 0 0.04 0"/>
<feBlend mode="normal" in2="effect1_dropShadow_245_657" result="effect2_dropShadow_245_657"/>
<feColorMatrix in="SourceAlpha" type="matrix" values="0 0 0 0 0 0 0 0 0 0 0 0 0 0 0 0 0 0 127 0" result="hardAlpha"/>
<feOffset dy="1.66667"/>
<feGaussianBlur stdDeviation="1.66667"/>
<feComposite in2="hardAlpha" operator="out"/>
<feColorMatrix type="matrix" values="0 0 0 0 0.160784 0 0 0 0 0.160784 0 0 0 0 0.160784 0 0 0 0.04 0"/>
<feBlend mode="normal" in2="effect2_dropShadow_245_657" result="effect3_dropShadow_245_657"/>
<feColorMatrix in="SourceAlpha" type="matrix" values="0 0 0 0 0 0 0 0 0 0 0 0 0 0 0 0 0 0 127 0" result="hardAlpha"/>
<feOffset dy="3.33333"/>
<feGaussianBlur stdDeviation="3.33333"/>
<feComposite in2="hardAlpha" operator="out"/>
<feColorMatrix type="matrix" values="0 0 0 0 0.160784 0 0 0 0 0.160784 0 0 0 0 0.160784 0 0 0 0.06 0"/>
<feBlend mode="normal" in2="effect3_dropShadow_245_657" result="effect4_dropShadow_245_657"/>
<feBlend mode="normal" in="SourceGraphic" in2="effect4_dropShadow_245_657" result="shape"/>
<feColorMatrix in="SourceAlpha" type="matrix" values="0 0 0 0 0 0 0 0 0 0 0 0 0 0 0 0 0 0 127 0" result="hardAlpha"/>
<feOffset dy="-0.416667"/>
<feGaussianBlur stdDeviation="0.208333"/>
<feComposite in2="hardAlpha" operator="arithmetic" k2="-1" k3="1"/>
<feColorMatrix type="matrix" values="0 0 0 0 0.160784 0 0 0 0 0.160784 0 0 0 0 0.160784 0 0 0 0.08 0"/>
<feBlend mode="normal" in2="shape" result="effect5_innerShadow_245_657"/>
</filter>
<filter id="filter2_ddddi_245_657" x="188.333" y="376.667" width="153.333" height="153.333" filterUnits="userSpaceOnUse" color-interpolation-filters="sRGB">
<feFlood flood-opacity="0" result="BackgroundImageFix"/>
<feColorMatrix in="SourceAlpha" type="matrix" values="0 0 0 0 0 0 0 0 0 0 0 0 0 0 0 0 0 0 127 0" result="hardAlpha"/>
<feMorphology radius="0.833333" operator="dilate" in="SourceAlpha" result="effect1_dropShadow_245_657"/>
<feOffset/>
<feComposite in2="hardAlpha" operator="out"/>
<feColorMatrix type="matrix" values="0 0 0 0 0.160784 0 0 0 0 0.160784 0 0 0 0 0.160784 0 0 0 0.08 0"/>
<feBlend mode="normal" in2="BackgroundImageFix" result="effect1_dropShadow_245_657"/>
<feColorMatrix in="SourceAlpha" type="matrix" values="0 0 0 0 0 0 0 0 0 0 0 0 0 0 0 0 0 0 127 0" result="hardAlpha"/>
<feOffset dy="0.833333"/>
<feGaussianBlur stdDeviation="0.833333"/>
<feComposite in2="hardAlpha" operator="out"/>
<feColorMatrix type="matrix" values="0 0 0 0 0.160784 0 0 0 0 0.160784 0 0 0 0 0.160784 0 0 0 0.04 0"/>
<feBlend mode="normal" in2="effect1_dropShadow_245_657" result="effect2_dropShadow_245_657"/>
<feColorMatrix in="SourceAlpha" type="matrix" values="0 0 0 0 0 0 0 0 0 0 0 0 0 0 0 0 0 0 127 0" result="hardAlpha"/>
<feOffset dy="1.66667"/>
<feGaussianBlur stdDeviation="1.66667"/>
<feComposite in2="hardAlpha" operator="out"/>
<feColorMatrix type="matrix" values="0 0 0 0 0.160784 0 0 0 0 0.160784 0 0 0 0 0.160784 0 0 0 0.04 0"/>
<feBlend mode="normal" in2="effect2_dropShadow_245_657" result="effect3_dropShadow_245_657"/>
<feColorMatrix in="SourceAlpha" type="matrix" values="0 0 0 0 0 0 0 0 0 0 0 0 0 0 0 0 0 0 127 0" result="hardAlpha"/>
<feOffset dy="3.33333"/>
<feGaussianBlur stdDeviation="3.33333"/>
<feComposite in2="hardAlpha" operator="out"/>
<feColorMatrix type="matrix" values="0 0 0 0 0.160784 0 0 0 0 0.160784 0 0 0 0 0.160784 0 0 0 0.06 0"/>
<feBlend mode="normal" in2="effect3_dropShadow_245_657" result="effect4_dropShadow_245_657"/>
<feBlend mode="normal" in="SourceGraphic" in2="effect4_dropShadow_245_657" result="shape"/>
<feColorMatrix in="SourceAlpha" type="matrix" values="0 0 0 0 0 0 0 0 0 0 0 0 0 0 0 0 0 0 127 0" result="hardAlpha"/>
<feOffset dy="-0.416667"/>
<feGaussianBlur stdDeviation="0.208333"/>
<feComposite in2="hardAlpha" operator="arithmetic" k2="-1" k3="1"/>
<feColorMatrix type="matrix" values="0 0 0 0 0.160784 0 0 0 0 0.160784 0 0 0 0 0.160784 0 0 0 0.08 0"/>
<feBlend mode="normal" in2="shape" result="effect5_innerShadow_245_657"/>
</filter>
<filter id="filter3_ddddi_245_657" x="376.333" y="188.667" width="153.333" height="153.333" filterUnits="userSpaceOnUse" color-interpolation-filters="sRGB">
<feFlood flood-opacity="0" result="BackgroundImageFix"/>
<feColorMatrix in="SourceAlpha" type="matrix" values="0 0 0 0 0 0 0 0 0 0 0 0 0 0 0 0 0 0 127 0" result="hardAlpha"/>
<feMorphology radius="0.833333" operator="dilate" in="SourceAlpha" result="effect1_dropShadow_245_657"/>
<feOffset/>
<feComposite in2="hardAlpha" operator="out"/>
<feColorMatrix type="matrix" values="0 0 0 0 0.160784 0 0 0 0 0.160784 0 0 0 0 0.160784 0 0 0 0.08 0"/>
<feBlend mode="normal" in2="BackgroundImageFix" result="effect1_dropShadow_245_657"/>
<feColorMatrix in="SourceAlpha" type="matrix" values="0 0 0 0 0 0 0 0 0 0 0 0 0 0 0 0 0 0 127 0" result="hardAlpha"/>
<feOffset dy="0.833333"/>
<feGaussianBlur stdDeviation="0.833333"/>
<feComposite in2="hardAlpha" operator="out"/>
<feColorMatrix type="matrix" values="0 0 0 0 0.160784 0 0 0 0 0.160784 0 0 0 0 0.160784 0 0 0 0.04 0"/>
<feBlend mode="normal" in2="effect1_dropShadow_245_657" result="effect2_dropShadow_245_657"/>
<feColorMatrix in="SourceAlpha" type="matrix" values="0 0 0 0 0 0 0 0 0 0 0 0 0 0 0 0 0 0 127 0" result="hardAlpha"/>
<feOffset dy="1.66667"/>
<feGaussianBlur stdDeviation="1.66667"/>
<feComposite in2="hardAlpha" operator="out"/>
<feColorMatrix type="matrix" values="0 0 0 0 0.160784 0 0 0 0 0.160784 0 0 0 0 0.160784 0 0 0 0.04 0"/>
<feBlend mode="normal" in2="effect2_dropShadow_245_657" result="effect3_dropShadow_245_657"/>
<feColorMatrix in="SourceAlpha" type="matrix" values="0 0 0 0 0 0 0 0 0 0 0 0 0 0 0 0 0 0 127 0" result="hardAlpha"/>
<feOffset dy="3.33333"/>
<feGaussianBlur stdDeviation="3.33333"/>
<feComposite in2="hardAlpha" operator="out"/>
<feColorMatrix type="matrix" values="0 0 0 0 0.160784 0 0 0 0 0.160784 0 0 0 0 0.160784 0 0 0 0.06 0"/>
<feBlend mode="normal" in2="effect3_dropShadow_245_657" result="effect4_dropShadow_245_657"/>
<feBlend mode="normal" in="SourceGraphic" in2="effect4_dropShadow_245_657" result="shape"/>
<feColorMatrix in="SourceAlpha" type="matrix" values="0 0 0 0 0 0 0 0 0 0 0 0 0 0 0 0 0 0 127 0" result="hardAlpha"/>
<feOffset dy="-0.416667"/>
<feGaussianBlur stdDeviation="0.208333"/>
<feComposite in2="hardAlpha" operator="arithmetic" k2="-1" k3="1"/>
<feColorMatrix type="matrix" values="0 0 0 0 0.160784 0 0 0 0 0.160784 0 0 0 0 0.160784 0 0 0 0.08 0"/>
<feBlend mode="normal" in2="shape" result="effect5_innerShadow_245_657"/>
</filter>
<filter id="filter4_ddddi_245_657" x="0.333333" y="188.667" width="153.333" height="153.333" filterUnits="userSpaceOnUse" color-interpolation-filters="sRGB">
<feFlood flood-opacity="0" result="BackgroundImageFix"/>
<feColorMatrix in="SourceAlpha" type="matrix" values="0 0 0 0 0 0 0 0 0 0 0 0 0 0 0 0 0 0 127 0" result="hardAlpha"/>
<feMorphology radius="0.833333" operator="dilate" in="SourceAlpha" result="effect1_dropShadow_245_657"/>
<feOffset/>
<feComposite in2="hardAlpha" operator="out"/>
<feColorMatrix type="matrix" values="0 0 0 0 0.160784 0 0 0 0 0.160784 0 0 0 0 0.160784 0 0 0 0.08 0"/>
<feBlend mode="normal" in2="BackgroundImageFix" result="effect1_dropShadow_245_657"/>
<feColorMatrix in="SourceAlpha" type="matrix" values="0 0 0 0 0 0 0 0 0 0 0 0 0 0 0 0 0 0 127 0" result="hardAlpha"/>
<feOffset dy="0.833333"/>
<feGaussianBlur stdDeviation="0.833333"/>
<feComposite in2="hardAlpha" operator="out"/>
<feColorMatrix type="matrix" values="0 0 0 0 0.160784 0 0 0 0 0.160784 0 0 0 0 0.160784 0 0 0 0.04 0"/>
<feBlend mode="normal" in2="effect1_dropShadow_245_657" result="effect2_dropShadow_245_657"/>
<feColorMatrix in="SourceAlpha" type="matrix" values="0 0 0 0 0 0 0 0 0 0 0 0 0 0 0 0 0 0 127 0" result="hardAlpha"/>
<feOffset dy="1.66667"/>
<feGaussianBlur stdDeviation="1.66667"/>
<feComposite in2="hardAlpha" operator="out"/>
<feColorMatrix type="matrix" values="0 0 0 0 0.160784 0 0 0 0 0.160784 0 0 0 0 0.160784 0 0 0 0.04 0"/>
<feBlend mode="normal" in2="effect2_dropShadow_245_657" result="effect3_dropShadow_245_657"/>
<feColorMatrix in="SourceAlpha" type="matrix" values="0 0 0 0 0 0 0 0 0 0 0 0 0 0 0 0 0 0 127 0" result="hardAlpha"/>
<feOffset dy="3.33333"/>
<feGaussianBlur stdDeviation="3.33333"/>
<feComposite in2="hardAlpha" operator="out"/>
<feColorMatrix type="matrix" values="0 0 0 0 0.160784 0 0 0 0 0.160784 0 0 0 0 0.160784 0 0 0 0.06 0"/>
<feBlend mode="normal" in2="effect3_dropShadow_245_657" result="effect4_dropShadow_245_657"/>
<feBlend mode="normal" in="SourceGraphic" in2="effect4_dropShadow_245_657" result="shape"/>
<feColorMatrix in="SourceAlpha" type="matrix" values="0 0 0 0 0 0 0 0 0 0 0 0 0 0 0 0 0 0 127 0" result="hardAlpha"/>
<feOffset dy="-0.416667"/>
<feGaussianBlur stdDeviation="0.208333"/>
<feComposite in2="hardAlpha" operator="arithmetic" k2="-1" k3="1"/>
<feColorMatrix type="matrix" values="0 0 0 0 0.160784 0 0 0 0 0.160784 0 0 0 0 0.160784 0 0 0 0.08 0"/>
<feBlend mode="normal" in2="shape" result="effect5_innerShadow_245_657"/>
</filter>
</defs>
</svg>
